<svg xmlns="http://www.w3.org/2000/svg" viewBox="0 0 358 192">
  <defs>
    <style>
      .cls-1 {
        fill: #006ee5;
      }

      .cls-2 {
        fill: #fff;
      }

      .cls-3 {
        fill: none;
      }
    </style>
  </defs>
  <g id="Group_2134" data-name="Group 2134" transform="translate(-929 -1563)">
    <g id="Group_2133" data-name="Group 2133">
      <circle id="Ellipse_3856" data-name="Ellipse 3856" class="cls-1" cx="82" cy="82" r="82" transform="translate(1027 1575.3)"/>
      <g id="Group_1769" data-name="Group 1769" transform="translate(1060.307 1611.274)">
        <path id="Path_1621" data-name="Path 1621" class="cls-2" d="M97.284.257h0A.736.736,0,0,0,96.616,0L74.925,3.166A.731.731,0,0,0,74.3,4a.765.765,0,0,0,.286.485.7.7,0,0,0,.541.135L94.947,1.727,56.571,32.846,35.189,18.674a.736.736,0,0,0-.858.04L.215,45.556a.741.741,0,0,0-.278.493.725.725,0,0,0,.151.541.743.743,0,0,0,.58.278.715.715,0,0,0,.453-.159L34.808,20.192,56.213,34.364a.74.74,0,0,0,.866-.04L94.995,3.587,89.113,21.3a.734.734,0,0,0,.04.564.7.7,0,0,0,.429.366.78.78,0,0,0,.231.04.735.735,0,0,0,.7-.5L97.419.964A.757.757,0,0,0,97.284.257Z" transform="translate(0 0)"/>
        <path id="Path_1622" data-name="Path 1622" class="cls-2" d="M622.238,467.377h0a.748.748,0,0,0-.779.087l-6.526,5.27-7.289-4.833a.732.732,0,0,0-.405-.119.785.785,0,0,0-.35.087.734.734,0,0,0-.39.652v44.6a.743.743,0,0,0,.739.739h14.689a.743.743,0,0,0,.739-.739V468.036A.774.774,0,0,0,622.238,467.377Zm-1.057,45.005H607.963V469.888l6.6,4.372a.74.74,0,0,0,.866-.04l5.747-4.642v42.8Z" transform="translate(-558.354 -430.167)"/>
        <path id="Path_1623" data-name="Path 1623" class="cls-2" d="M350.126,360.657h0l-7.146-4.737a.736.736,0,0,0-.858.04l-7.543,5.938a.743.743,0,0,0-.278.58v48a.743.743,0,0,0,.739.739h14.689a.743.743,0,0,0,.739-.739v-49.2A.786.786,0,0,0,350.126,360.657Zm-1.145,49.083H335.763v-46.9l6.844-5.389,6.375,4.221Z" transform="translate(-307.791 -327.524)"/>
        <path id="Path_1624" data-name="Path 1624" class="cls-2" d="M77.42,543.4a.743.743,0,0,0,.739-.739V500.131a.73.73,0,0,0-.413-.66h0a.742.742,0,0,0-.318-.072.731.731,0,0,0-.453.159l-14.7,11.557a.743.743,0,0,0-.278.58v30.968a.743.743,0,0,0,.739.739H77.42ZM63.47,512.054l13.219-10.4v40.276H63.47Z" transform="translate(-57.135 -459.71)"/>
        <path id="Path_1625" data-name="Path 1625" class="cls-2" d="M879.43,311.334h14.689a.743.743,0,0,0,.739-.739V248.039a.758.758,0,0,0-.421-.668.746.746,0,0,0-.779.087l-14.689,11.875a.731.731,0,0,0-.27.572v50.688A.726.726,0,0,0,879.43,311.334Zm.739-51.078,13.219-10.675v60.282H880.169Z" transform="translate(-808.917 -227.649)"/>
      </g>
    </g>
    <rect id="Rectangle_236" data-name="Rectangle 236" class="cls-3" width="358" height="192" transform="translate(929 1563)"/>
  </g>
</svg>
