<svg xmlns="http://www.w3.org/2000/svg" xmlns:xlink="http://www.w3.org/1999/xlink" width="262" height="528" viewBox="0 0 262 528">
    <defs>
        <linearGradient id="a" x1="50%" x2="50%" y1="75.919%" y2="0%">
            <stop offset="0%" stop-color="#04509E"/>
            <stop offset="48.879%" stop-color="#2A76C1"/>
            <stop offset="100%" stop-color="#7ABDFF"/>
        </linearGradient>
        <linearGradient id="b" x1="50%" x2="50%" y1="100%" y2="0%">
            <stop offset="0%" stop-color="#076BD3"/>
            <stop offset="100%" stop-color="#4AA5FC"/>
        </linearGradient>
        <path id="c" d="M13.568 21.24l-5.342 5.22a.758.758 0 0 0 0 1.08l5.342 5.22c.327.32.844.32 1.172 0a.873.873 0 0 0 0-1.243l-4.474-4.373a.202.202 0 0 1 0-.289l4.474-4.373a.873.873 0 0 0 0-1.243.84.84 0 0 0-1.172 0z"/>
        <path id="e" d="M0 0h230v48H0z"/>
        <filter id="d" width="100.4%" height="104.2%" x="-.2%" y="-3.1%" filterUnits="objectBoundingBox">
            <feOffset dy="-1" in="SourceAlpha" result="shadowOffsetOuter1"/>
            <feColorMatrix in="shadowOffsetOuter1" values="0 0 0 0 0.737254902 0 0 0 0 0.737254902 0 0 0 0 0.737254902 0 0 0 0.3 0"/>
        </filter>
        <path id="f" d="M2.81.077H0v15.728h5.618V.077z"/>
        <path id="h" d="M5.606 11.317H.1V.113h5.506z"/>
        <path id="j" d="M2.81.077H0v15.728h5.618V.077z"/>
        <path id="l" d="M5.606 11.317H.1V.113h5.506z"/>
    </defs>
    <g fill="none" fill-rule="evenodd">
        <g>
            <path fill="#034180" d="M259 102h.743a2.257 2.257 0 0 1 2.257 2.257v30.486a2.257 2.257 0 0 1-2.257 2.257H259v-35zM3 102h-.743A2.257 2.257 0 0 0 0 104.257v30.486A2.257 2.257 0 0 0 2.257 137H3v-35zM3 63h-.743A2.257 2.257 0 0 0 0 65.257v13.486A2.257 2.257 0 0 0 2.257 81H3V63zM3 144h-.743A2.257 2.257 0 0 0 0 146.257v30.486A2.257 2.257 0 0 0 2.257 179H3v-35z"/>
            <path fill="url(#a)" d="M31.346 0h199.308C246.86 0 260 13.139 260 29.346v469.308C260 514.86 246.861 528 230.654 528H31.346C15.14 528 2 514.861 2 498.654V29.346C2 13.14 15.139 0 31.346 0z"/>
            <path fill="url(#b)" d="M32.831 5.998H229.17C242.883 5.998 254 17.115 254 30.829v466.34C254 510.883 242.883 522 229.169 522H32.83C19.117 522 8 510.883 8 497.169V30.829C8 17.115 19.117 5.998 32.831 5.998z"/>
            <circle cx="88" cy="34" r="4" fill="#034180"/>
            <circle cx="131" cy="494" r="16" fill="#034180"/>
            <path fill="#FFF" d="M16 60h230v406H16z"/>
            <rect width="46" height="4" x="108" y="32" fill="#034180" rx="2"/>
        </g>
        <g transform="translate(16 60)">
            <path fill="#F8F8F8" d="M0 0h230v40H0z"/>
            <path fill="#E0E0E0" d="M0 39h230v1H0z"/>
            <path fill="#007AFF" d="M215.932 24.955a.75.75 0 1 0 0-1.5.75.75 0 0 0 0 1.5zm-.477.681h1.09V30h.546v.273h-2.182V30h.546v-4.09h-.546v-.274h.546zm.545 6.819a5.455 5.455 0 1 0 0-10.91 5.455 5.455 0 0 0 0 10.91zm0 .545a6 6 0 1 1 0-12 6 6 0 0 1 0 12z"/>
            <path fill="#000" d="M93.519 31h-1.055v-8.455h1.055v4.107h.093l3.703-4.107h1.325l-3.381 3.65L98.95 31h-1.365l-3.053-4.072-1.013 1.119V31zm8.666-.773c1.037 0 1.804-.68 1.804-1.582v-.58l-1.699.11c-.96.065-1.383.4-1.383 1.032 0 .645.545 1.02 1.278 1.02zm-.188.884c-1.225 0-2.133-.726-2.133-1.88 0-1.131.832-1.782 2.303-1.87l1.822-.111v-.574c0-.78-.486-1.207-1.43-1.207-.755 0-1.283.287-1.423.785h-1.02c.135-1.014 1.131-1.682 2.479-1.682 1.54 0 2.402.791 2.402 2.104V31h-.96v-.932h-.095c-.41.674-1.101 1.043-1.945 1.043zm5.285-8.062h1.008v1.635h1.406v.843h-1.406v3.575c0 .744.281 1.06.938 1.06.181 0 .28-.006.468-.023v.85c-.199.034-.392.058-.592.058-1.3 0-1.822-.48-1.822-1.688v-3.832h-1.02v-.843h1.02v-1.635zm5.883 7.178c1.037 0 1.805-.68 1.805-1.582v-.58l-1.7.11c-.96.065-1.382.4-1.382 1.032 0 .645.545 1.02 1.277 1.02zm-.187.884c-1.225 0-2.133-.726-2.133-1.88 0-1.131.832-1.782 2.302-1.87l1.823-.111v-.574c0-.78-.487-1.207-1.43-1.207-.756 0-1.283.287-1.424.785h-1.02c.135-1.014 1.132-1.682 2.48-1.682 1.54 0 2.402.791 2.402 2.104V31h-.961v-.932h-.094c-.41.674-1.102 1.043-1.945 1.043zM124.655 31h-3.299v-8.455h3.235c1.553 0 2.502.814 2.502 2.11 0 .878-.645 1.675-1.46 1.822v.093c1.155.147 1.888.938 1.888 2.057 0 1.488-1.067 2.373-2.866 2.373zm-2.244-7.523v2.712h1.688c1.277 0 1.927-.457 1.927-1.353 0-.861-.609-1.36-1.658-1.36h-1.957zm0 6.591h2.086c1.272 0 1.94-.515 1.94-1.494 0-.978-.692-1.476-2.04-1.476h-1.986v2.97zm9.299.135c1.195 0 1.87-.867 1.87-2.361 0-1.5-.675-2.362-1.87-2.362s-1.87.862-1.87 2.362c0 1.494.675 2.361 1.87 2.361zm0 .908c-1.799 0-2.912-1.242-2.912-3.27 0-2.032 1.113-3.269 2.912-3.269s2.912 1.237 2.912 3.27c0 2.027-1.113 3.27-2.912 3.27zm4.916-8.062h1.008v1.635h1.406v.843h-1.406v3.575c0 .744.281 1.06.937 1.06.182 0 .282-.006.469-.023v.85c-.2.034-.393.058-.592.058-1.3 0-1.822-.48-1.822-1.688v-3.832h-1.02v-.843h1.02v-1.635z"/>
            <use fill="#007AFF" xlink:href="#c"/>
        </g>
        <g fill="#000">
            <path d="M70.944 67.982c.52 0 .995.212 1.365.517L70.944 70l-1.364-1.503c.37-.304.844-.515 1.364-.515zm.053-2.973a5.156 5.156 0 0 0-3.37 1.248l-.627-.69C68.069 64.645 69.465 64 70.997 64c1.535 0 2.933.647 4.003 1.571l-.627.69a5.157 5.157 0 0 0-3.376-1.252zM70.98 67c-.774 0-1.48.28-2.026.74l-.663-.732c.722-.615 1.66-1.017 2.69-1.017s1.97.403 2.693 1.02l-.664.73a3.137 3.137 0 0 0-2.03-.741zM48.468 67.39h-.04v-2.31H48v3.871h.428V67.9l.257-.247 1.006 1.298h.545l-1.232-1.583 1.155-1.188h-.525l-1.166 1.21zm3.028 1.222c.44 0 .767-.298.767-.694v-.255l-.722.05c-.408.027-.588.174-.588.452 0 .282.232.447.543.447zm-.08.388c-.52 0-.906-.319-.906-.825 0-.496.354-.782.979-.82l.774-.05v-.251c0-.342-.207-.53-.608-.53-.32 0-.545.126-.605.345h-.433c.057-.445.48-.738 1.053-.738.655 0 1.021.347 1.021.923v1.897h-.408v-.409h-.04a.92.92 0 0 1-.827.458zm2.246-3.537v.717h-.433v.37h.433v1.681c0 .53.222.74.775.74.085 0 .167-.01.251-.025v-.373c-.08.008-.122.01-.199.01-.279 0-.398-.138-.398-.465V66.55h.597v-.37h-.597v-.717h-.429zm2.5 3.149c.441 0 .767-.298.767-.694v-.255l-.722.05c-.408.027-.587.174-.587.452 0 .282.231.447.542.447zm-.08.388c-.52 0-.906-.319-.906-.825 0-.496.354-.782.979-.82l.774-.05v-.251c0-.342-.206-.53-.607-.53-.321 0-.546.126-.605.345h-.434c.058-.445.481-.738 1.054-.738.655 0 1.02.347 1.02.923v1.897h-.408v-.409h-.04a.92.92 0 0 1-.826.458zm2.421-.023a.33.33 0 0 0 .324-.334.328.328 0 0 0-.324-.335.33.33 0 0 0-.324.335c0 .182.147.334.324.334zm1.987-.365c.44 0 .767-.298.767-.694v-.255l-.722.05c-.409.027-.588.174-.588.452 0 .282.232.447.543.447zm-.08.388c-.52 0-.906-.319-.906-.825 0-.496.354-.782.979-.82l.774-.05v-.251c0-.342-.207-.53-.608-.53-.32 0-.545.126-.605.345h-.433c.057-.445.48-.738 1.053-.738.655 0 1.021.347 1.021.923v1.897h-.408v-.409h-.04a.92.92 0 0 1-.827.458zm2.077-.049h.428V66.18h-.428v2.771zm.214-3.334a.305.305 0 0 0 .299-.309.305.305 0 0 0-.299-.308.305.305 0 0 0-.299.308c0 .17.135.309.3.309zM21.97 69c1.088 0 1.97-.895 1.97-2s-.882-2-1.97-2-1.97.895-1.97 2 .882 2 1.97 2zm5.015 0c1.088 0 1.97-.895 1.97-2s-.882-2-1.97-2-1.97.895-1.97 2 .882 2 1.97 2zM32 69c1.088 0 1.97-.895 1.97-2s-.882-2-1.97-2-1.97.895-1.97 2 .882 2 1.97 2zm5.015 0c-1.088 0-1.97-.895-1.97-2s.882-2 1.97-2 1.97.895 1.97 2-.882 2-1.97 2zm5.015 0c-1.088 0-1.97-.895-1.97-2s.882-2 1.97-2 1.97.895 1.97 2-.882 2-1.97 2zm0-.364c.89 0 1.612-.732 1.612-1.636 0-.904-.722-1.636-1.612-1.636-.89 0-1.612.732-1.612 1.636 0 .904.722 1.636 1.612 1.636zM121 66.195v.008h.56v-.008c0-.407.283-.682.703-.682.394 0 .692.262.692.61 0 .28-.124.482-.634 1.013l-1.29 1.343v.428h2.569v-.53h-1.744v-.046l.848-.86c.64-.647.835-.977.835-1.382 0-.629-.533-1.089-1.257-1.089-.75 0-1.282.492-1.282 1.195zm3.818 2.297a.382.382 0 0 0 .388-.394.382.382 0 0 0-.388-.393.384.384 0 0 0-.388.393c0 .223.166.394.388.394zm0-1.996a.382.382 0 0 0 .388-.394.38.38 0 0 0-.388-.393.382.382 0 0 0-.388.393c0 .223.166.394.388.394zm3.017 2.411v-.737h-1.86v-.55c.341-.624.91-1.51 1.588-2.527h.843v2.548h.526v.529h-.526v.737h-.57zm-1.292-1.29v.037h1.3v-2.04h-.034a29.148 29.148 0 0 0-1.266 2.003zM130.972 69c.821 0 1.379-.537 1.379-1.327 0-.751-.51-1.28-1.234-1.28-.362 0-.632.122-.806.347h-.045l.1-1.119h1.763v-.528h-2.225l-.2 2.183h.54c.149-.246.413-.391.74-.391.466 0 .788.325.788.804 0 .476-.32.79-.795.79-.418 0-.727-.246-.772-.616h-.563c.035.67.571 1.137 1.33 1.137zm3.659-3.907h1.493c.745 0 1.257.515 1.257 1.271 0 .746-.528 1.259-1.276 1.259h-.882v1.284h-.592v-3.814zm.592.523v1.486h.745c.51 0 .808-.265.808-.738 0-.484-.288-.748-.808-.748h-.745zm3.469 3.291v-2.754h.037l1.118 2.643h.449l1.117-2.643h.037v2.754h.55v-3.814h-.692l-1.216 2.897h-.045l-1.212-2.897h-.693v3.814h.55z"/>
            <path fill-rule="nonzero" d="M229.265 65.79v3.42c0 .292.238.527.532.527h10.345a.53.53 0 0 0 .531-.527v-3.42a.528.528 0 0 0-.531-.527h-10.345a.53.53 0 0 0-.532.527zm-.265 0c0-.437.357-.79.797-.79h10.345c.44 0 .797.352.797.79v3.42c0 .437-.358.79-.797.79h-10.345a.792.792 0 0 1-.797-.79v-3.42zm1.535-.264h8.547v3.948h-8.547a.999.999 0 0 1-1.004-.996v-1.956c0-.543.45-.996 1.004-.996zm10.67 1.053h.397c.22 0 .398.17.398.39v1.061c0 .216-.185.391-.398.391h-.398V66.58z"/>
            <path d="M216.236 68.997c-.613 0-1.068-.383-1.183-.998h.462c.098.358.37.575.726.575.588 0 .92-.55.946-1.567h-.04c-.178.37-.53.587-.961.587-.688 0-1.186-.537-1.186-1.278 0-.768.525-1.316 1.266-1.316.54 0 .958.304 1.183.868.118.291.176.644.176 1.064 0 1.314-.506 2.065-1.389 2.065zm.03-1.816c.478 0 .82-.36.82-.865 0-.511-.352-.898-.815-.898-.463 0-.816.381-.816.882 0 .521.333.881.811.881zM219.561 69c-.813 0-1.281-.73-1.281-2.001 0-1.26.473-1.999 1.28-1.999.804 0 1.277.741 1.277 2.007 0 1.268-.465 1.993-1.276 1.993zm0-.416c.533 0 .823-.56.823-1.585 0-1.014-.295-1.58-.823-1.58s-.828.571-.828 1.58c0 1.022.295 1.585.828 1.585zm4.67.053c.221 0 .369-.233.369-.582 0-.357-.143-.58-.368-.58s-.37.228-.37.58.147.582.37.582zm0 .34c-.45 0-.77-.382-.77-.922 0-.537.32-.919.77-.919.451 0 .769.379.769.919s-.318.921-.768.921zm-2.088-2.113c-.45 0-.77-.382-.77-.922 0-.537.32-.918.77-.918s.768.378.768.918-.318.922-.768.922zm-.04 2.046h-.46l1.378-1.99 1.266-1.83h.455l-1.4 2.028-1.24 1.792zm.04-2.385c.22 0 .368-.233.368-.583 0-.357-.143-.58-.368-.58s-.37.228-.37.58c0 .353.147.583.37.583z"/>
        </g>
        <g transform="translate(16 418)">
            <use fill="#000" filter="url(#d)" xlink:href="#e"/>
            <use fill="#FFF" xlink:href="#e"/>
            <path fill="#8A8A8F" d="M17.933 18h4.134c.284 0 .655.177.83.396l1.136 1.608a.605.605 0 0 0 .492.251h2.444c.57 0 1.03.446 1.03 1v7.265c0 .553-.46 1-1.03 1H13.03c-.57 0-1.031-.446-1.031-1v-7.265c0-.553.461-1 1.031-1h2.453c.191 0 .37-.091.477-.243l1.141-1.616c.175-.218.549-.396.831-.396zm5.938 3.507c0 .276.231.5.516.5a.508.508 0 0 0 .516-.5.509.509 0 0 0-.516-.501.509.509 0 0 0-.516.5zm-7.484 3.255c0 1.937 1.618 3.506 3.613 3.506 1.995 0 3.613-1.57 3.613-3.506 0-1.937-1.617-3.506-3.613-3.506-1.995 0-3.613 1.57-3.613 3.506zm-2.839-6.26h1.033c.285 0 .516.222.516.5v.5h-2.065v-.5c0-.277.23-.5.516-.5zm3.614 6.26c0-1.522 1.27-2.754 2.838-2.754s2.839 1.232 2.839 2.754-1.271 2.755-2.839 2.755-2.838-1.233-2.838-2.755z"/>
            <rect width="178" height="24" x="40" y="12" fill="#FFF" stroke="#BCBCBC" stroke-opacity=".3" rx="12"/>
            <path fill="#8A8A8F" d="M206 32a8 8 0 1 1 0-16 8 8 0 0 1 0 16zm0-13.538c-.966 0-1.749.783-1.749 1.749v4.08a1.749 1.749 0 0 0 3.498 0v-4.08c0-.966-.783-1.75-1.749-1.75zm3.06 3.789a.437.437 0 0 0-.437.437v1.603a2.623 2.623 0 0 1-5.246 0v-1.603a.437.437 0 0 0-.875 0v1.603a3.498 3.498 0 0 0 3.06 3.47v.903h-1.165a.437.437 0 1 0 0 .874h3.206a.437.437 0 1 0 0-.874h-1.166v-.904a3.498 3.498 0 0 0 3.061-3.469v-1.603a.437.437 0 0 0-.437-.437z"/>
            <path fill="#D1D1D1" d="M56.39 22.346L55.032 27h-.931l-1.71-6.341h1.024l1.165 4.856h.061l1.323-4.856h.914l1.331 4.856h.062l1.16-4.856h1.024L58.741 27h-.927l-1.362-4.654h-.062zM61.07 27v-4.786h.91v.734h.07c.137-.47.668-.813 1.292-.813.141 0 .321.013.422.04v.931a2.598 2.598 0 0 0-.527-.057c-.716 0-1.222.453-1.222 1.125V27h-.945zm3.442 0v-4.786h.94V27h-.94zm.47-5.625c-.352 0-.611-.25-.611-.576 0-.33.26-.58.61-.58.352 0 .612.25.612.58 0 .326-.26.576-.611.576zm2.013-.352h.944v1.213h1.038v.796h-1.038v2.46c0 .502.207.721.677.721.145 0 .229-.008.36-.022v.787c-.153.026-.329.048-.514.048-1.05 0-1.467-.369-1.467-1.292v-2.702h-.76v-.796h.76v-1.213zm4.825 1.903c-.699 0-1.186.492-1.24 1.24h2.418c-.022-.752-.48-1.24-1.178-1.24zm1.173 2.782h.91c-.215.857-.98 1.384-2.074 1.384-1.371 0-2.21-.94-2.21-2.47 0-1.529.856-2.5 2.205-2.5 1.332 0 2.136.91 2.136 2.413v.33h-3.38v.052c.032.84.52 1.371 1.275 1.371.571 0 .963-.206 1.138-.58zm4.677 3.028c-.08 0-.304-.009-.392-.022V27.9c.075.013.22.017.308.017.448 0 .703-.184.866-.668l.07-.232-1.731-4.804h1.028l1.2 3.802h.074l1.196-3.802h1.002l-1.785 4.984c-.408 1.164-.86 1.538-1.836 1.538zm6.244-1.644c-1.402 0-2.258-.936-2.258-2.487 0-1.543.86-2.483 2.258-2.483 1.393 0 2.255.94 2.255 2.483 0 1.551-.857 2.487-2.255 2.487zm0-.84c.818 0 1.284-.606 1.284-1.647 0-1.037-.466-1.644-1.284-1.644-.821 0-1.283.607-1.283 1.644 0 1.046.462 1.648 1.283 1.648zm7.243-4.038V27h-.91v-.76h-.075c-.233.545-.72.852-1.445.852-1.06 0-1.648-.646-1.648-1.77v-3.108h.944v2.861c0 .774.312 1.143 1.007 1.143.764 0 1.182-.453 1.182-1.204v-2.8h.945zM92.347 27v-4.786h.91v.734h.07c.137-.47.669-.813 1.293-.813.14 0 .32.013.422.04v.931a2.598 2.598 0 0 0-.528-.057c-.716 0-1.221.453-1.221 1.125V27h-.945zm5.705 0v-4.786h.91v.77h.07c.211-.541.695-.862 1.332-.862.655 0 1.107.338 1.318.861h.075c.242-.523.79-.86 1.454-.86.967 0 1.53.584 1.53 1.581V27h-.945v-3.05c0-.646-.308-.962-.927-.962-.611 0-1.011.44-1.011 1.002V27h-.927v-3.142c0-.54-.36-.87-.923-.87-.576 0-1.01.47-1.01 1.085V27h-.946zm9.8-4.074c-.699 0-1.186.492-1.24 1.24h2.418c-.022-.752-.48-1.24-1.178-1.24zm1.174 2.782h.91c-.216.857-.98 1.384-2.075 1.384-1.371 0-2.21-.94-2.21-2.47 0-1.529.856-2.5 2.206-2.5 1.331 0 2.135.91 2.135 2.413v.33h-3.38v.052c.032.84.52 1.371 1.275 1.371.572 0 .963-.206 1.139-.58zm1.81-2.14c0-.848.778-1.446 1.86-1.446 1.076 0 1.779.501 1.871 1.345h-.905c-.088-.352-.43-.576-.967-.576-.527 0-.927.25-.927.624 0 .286.242.466.76.585l.796.184c.91.211 1.336.602 1.336 1.305 0 .901-.84 1.503-1.982 1.503-1.139 0-1.881-.514-1.965-1.362h.945c.119.37.47.598 1.042.598.588 0 1.006-.264 1.006-.646 0-.286-.224-.47-.703-.585l-.835-.193c-.91-.216-1.332-.624-1.332-1.336zm4.584 0c0-.848.778-1.446 1.859-1.446 1.076 0 1.78.501 1.872 1.345h-.905c-.088-.352-.431-.576-.967-.576-.528 0-.927.25-.927.624 0 .286.241.466.76.585l.795.184c.91.211 1.336.602 1.336 1.305 0 .901-.84 1.503-1.982 1.503-1.138 0-1.88-.514-1.964-1.362h.945c.118.37.47.598 1.041.598.59 0 1.007-.264 1.007-.646 0-.286-.225-.47-.704-.585l-.835-.193c-.91-.216-1.331-.624-1.331-1.336zm6.346 2.716c.712 0 1.24-.453 1.24-1.046v-.4l-1.17.075c-.659.044-.958.268-.958.69 0 .43.374.68.888.68zm-.242.795c-.923 0-1.595-.558-1.595-1.433 0-.86.642-1.357 1.78-1.428l1.296-.074v-.414c0-.505-.334-.79-.98-.79-.527 0-.892.193-.997.531h-.915c.097-.822.87-1.349 1.956-1.349 1.2 0 1.877.598 1.877 1.608V27h-.91v-.672h-.075c-.286.479-.808.751-1.437.751zm5.59-.967c.809 0 1.297-.606 1.297-1.564 0-.954-.493-1.565-1.297-1.565-.813 0-1.27.611-1.27 1.565 0 .953.457 1.564 1.27 1.564zm.013 2.716c-1.195 0-1.968-.536-2.07-1.349h.967c.08.347.48.571 1.117.571.786 0 1.252-.373 1.252-1.006v-.919h-.07c-.29.519-.818.805-1.477.805-1.222 0-1.977-.945-1.977-2.378 0-1.459.764-2.417 1.986-2.417.659 0 1.235.325 1.503.844h.075v-.765h.905v4.826c0 1.094-.857 1.788-2.21 1.788zm5.366-5.902c-.699 0-1.186.492-1.239 1.24h2.417c-.022-.752-.479-1.24-1.178-1.24zm1.174 2.782h.91c-.216.857-.98 1.384-2.075 1.384-1.371 0-2.21-.94-2.21-2.47 0-1.529.856-2.5 2.206-2.5 1.331 0 2.135.91 2.135 2.413v.33h-3.379v.052c.03.84.519 1.371 1.274 1.371.572 0 .963-.206 1.139-.58zm2.672 1.367a.638.638 0 0 1-.646-.655c0-.37.277-.655.646-.655.374 0 .646.286.646.655 0 .37-.272.655-.646.655zm2.351 0a.638.638 0 0 1-.646-.655c0-.37.277-.655.646-.655.374 0 .646.286.646.655 0 .37-.272.655-.646.655zm2.312 0a.638.638 0 0 1-.646-.655c0-.37.276-.655.646-.655.373 0 .646.286.646.655 0 .37-.273.655-.646.655z"/>
        </g>
        <g>
            <path fill="#2A90FF" d="M32 366c6.627 0 12-5.373 12-12s-5.373-12-12-12-12 5.373-12 12 5.373 12 12 12z"/>
            <g transform="translate(27 346.118)">
                <mask id="g" fill="#fff">
                    <use xlink:href="#f"/>
                </mask>
                <path fill="#B6DBFF" d="M2.81 15.805c-1.546 0-2.81-1.21-2.81-2.69V2.767C0 1.288 1.264.078 2.81.078c1.544 0 2.808 1.21 2.808 2.69v10.346c0 1.48-1.264 2.69-2.809 2.69" mask="url(#g)"/>
            </g>
            <g transform="translate(32.296 350.605)">
                <mask id="i" fill="#fff">
                    <use xlink:href="#h"/>
                </mask>
                <path fill="#FFF" d="M5.073 8.038l-.783-.75a2.372 2.372 0 0 1 0-3.457l.414-.396a1.72 1.72 0 0 0 0-2.508C3.57-.158 1.732-.158.598.927l-.276.265v7.434c0 .37-.08.724-.222 1.046l.867.83c1.134 1.087 2.972 1.087 4.106 0 .71-.68.71-1.784 0-2.464" mask="url(#i)"/>
            </g>
            <path fill="#D4EDFF" d="M32.618 359.232v-7.434l-2.484 2.38a2.698 2.698 0 0 0-.007 3.925l-.922.883h1.843l2.216 2.122-.868-.831c.143-.322.222-.675.222-1.045"/>
            <path fill="#D1D1D1" d="M233 402a9 9 0 1 0 0-18 9 9 0 0 0 0 18z"/>
            <path fill="#FFF" fill-rule="nonzero" d="M233 393a3.001 3.001 0 0 0 0-6 3.001 3.001 0 0 0 0 6z"/>
            <path fill="#FFF" fill-rule="nonzero" d="M237.982 395.05a4.066 4.066 0 0 0-.29-.521 3.677 3.677 0 0 0-2.503-1.526.535.535 0 0 0-.369.09 3.167 3.167 0 0 1-3.635 0 .535.535 0 0 0-.369-.09 3.632 3.632 0 0 0-2.502 1.526 2.92 2.92 0 0 0-.29.521.235.235 0 0 0 .013.23c.105.164.224.342.342.495.172.229.37.445.58.636.184.178.382.33.593.483a5.855 5.855 0 0 0 3.45 1.106c1.252 0 2.45-.381 3.452-1.106a7.36 7.36 0 0 0 .592-.483c.211-.191.409-.407.58-.636a4.79 4.79 0 0 0 .342-.496.279.279 0 0 0 .014-.229z"/>
            <g transform="translate(148 374)">
                <rect width="72" height="28" fill="#2A90FF" rx="14"/>
                <path fill="#2A90FF" d="M71.351 12s-.223 7.108.253 10.477c.477 3.368 3.265 5.237 3.265 5.237.218.166.167.297-.104.285 0 0-4.616.082-8.727-3.247C61.928 21.422 71.351 12 71.351 12z"/>
                <path fill="#FFF" d="M15.647 18h-2.749v-7.046h2.696c1.294 0 2.085.679 2.085 1.758 0 .732-.537 1.396-1.216 1.518v.079c.962.122 1.572.78 1.572 1.713 0 1.24-.889 1.978-2.388 1.978zm-1.87-6.27v2.261h1.407c1.064 0 1.606-.38 1.606-1.128 0-.717-.508-1.133-1.382-1.133h-1.63zm0 5.494h1.739c1.06 0 1.616-.43 1.616-1.245 0-.816-.576-1.231-1.7-1.231h-1.655v2.476zm7.75.112c.995 0 1.557-.723 1.557-1.968 0-1.25-.562-1.968-1.558-1.968s-1.557.718-1.557 1.968c0 1.245.561 1.968 1.557 1.968zm0 .757c-1.5 0-2.427-1.035-2.427-2.725 0-1.694.927-2.724 2.426-2.724 1.5 0 2.427 1.03 2.427 2.724 0 1.69-.928 2.725-2.427 2.725zM25.32 18v-7.354h.84V18h-.84zm4.57-4.614c-.84 0-1.425.615-1.489 1.548h2.9c-.019-.933-.575-1.548-1.41-1.548zm1.387 3.252h.84c-.254.903-1.064 1.455-2.217 1.455-1.46 0-2.373-1.055-2.373-2.72 0-1.655.928-2.73 2.373-2.73 1.421 0 2.286 1.011 2.286 2.647v.322H28.4v.04c.044 1.04.625 1.699 1.519 1.699.679 0 1.138-.25 1.357-.713zM33.553 18v-7.354h.84v2.92h.078c.263-.58.815-.922 1.62-.922 1.114 0 1.817.712 1.817 1.948V18h-.84v-3.203c0-.933-.42-1.397-1.215-1.397-.943 0-1.46.596-1.46 1.485V18h-.84zm10.659.093c-1.348 0-2.212-1.07-2.212-2.725 0-1.65.874-2.724 2.212-2.724.732 0 1.352.346 1.65.922h.074v-2.92h.84V18h-.801v-.84h-.079c-.332.586-.957.933-1.684.933zm.195-4.693c-.957 0-1.538.743-1.538 1.968 0 1.23.576 1.968 1.538 1.968.957 0 1.548-.752 1.548-1.968 0-1.206-.596-1.968-1.548-1.968zm6.099-.014c-.84 0-1.426.615-1.49 1.548h2.901c-.02-.933-.576-1.548-1.411-1.548zm1.387 3.252h.84c-.254.903-1.065 1.455-2.217 1.455-1.46 0-2.373-1.055-2.373-2.72 0-1.655.927-2.73 2.373-2.73 1.42 0 2.285 1.011 2.285 2.647v.322h-3.784v.04c.044 1.04.625 1.699 1.518 1.699.679 0 1.138-.25 1.358-.713zM54.168 18v-7.354h.84v2.92h.078c.264-.58.815-.922 1.621-.922 1.113 0 1.816.712 1.816 1.948V18h-.84v-3.203c0-.933-.42-1.397-1.215-1.397-.943 0-1.46.596-1.46 1.485V18h-.84z"/>
            </g>
            <path fill="#F3F3F5" d="M50 326h162c8.837 0 16 7.163 16 16v8c0 8.837-7.163 16-16 16H64c-8.837 0-16-7.163-16-16v-22a2 2 0 0 1 2-2z"/>
            <path fill="#000" d="M65.479 344l-.708-2.017h-2.803L61.26 344h-.923l2.598-7.046h.869L66.4 344h-.922zm-2.149-5.908l-1.103 3.144h2.285l-1.104-3.144h-.078zm6.763.552c1.343 0 2.212 1.069 2.212 2.724 0 1.646-.874 2.725-2.212 2.725-.752 0-1.358-.327-1.646-.884h-.078v2.549h-.84v-7.022h.801v.88h.078a1.898 1.898 0 0 1 1.685-.972zm-.2 4.692c.966 0 1.543-.737 1.543-1.968 0-1.23-.577-1.968-1.539-1.968-.952 0-1.552.757-1.552 1.968 0 1.206.6 1.968 1.548 1.968zm5.351.02c.864 0 1.504-.567 1.504-1.319v-.483l-1.416.092c-.8.054-1.152.333-1.152.86 0 .537.454.85 1.064.85zm-.156.737c-1.02 0-1.777-.606-1.777-1.568 0-.942.693-1.484 1.918-1.557l1.519-.093v-.479c0-.649-.405-1.005-1.191-1.005-.63 0-1.07.239-1.187.654h-.85c.113-.845.943-1.401 2.066-1.401 1.284 0 2.002.659 2.002 1.752V344h-.8v-.776h-.079c-.342.561-.918.869-1.621.869zm5.02-3.057l2.285-2.3h1.03l-2.266 2.256L83.574 344h-1.07l-1.972-2.466-.503.469V344h-.84v-7.354h.84v4.39h.078zm6.083 2.32c.865 0 1.504-.567 1.504-1.319v-.483l-1.416.092c-.8.054-1.152.333-1.152.86 0 .537.454.85 1.064.85zm-.156.737c-1.02 0-1.777-.606-1.777-1.568 0-.942.693-1.484 1.919-1.557l1.518-.093v-.479c0-.649-.405-1.005-1.191-1.005-.63 0-1.07.239-1.187.654h-.85c.113-.845.943-1.401 2.066-1.401 1.284 0 2.002.659 2.002 1.752V344h-.8v-.776h-.079c-.342.561-.918.869-1.62.869zm4.102-.093v-7.354h.84v2.92h.078c.263-.58.815-.922 1.62-.922 1.114 0 1.817.712 1.817 1.948V344h-.84v-3.203c0-.933-.42-1.397-1.215-1.397-.943 0-1.46.596-1.46 1.485V344h-.84zm13.398 0l-.708-2.017h-2.803L99.316 344h-.922l2.597-7.046h.87l2.597 7.046h-.923zm-2.148-5.908l-1.104 3.144h2.285l-1.103-3.144h-.078zm4.199 5.908v-5.264h.8v.83h.079c.264-.58.776-.922 1.582-.922 1.182 0 1.84.698 1.84 1.948V344h-.84v-3.203c0-.947-.4-1.397-1.24-1.397s-1.381.562-1.381 1.485V344h-.84zm7.783.093c-1.348 0-2.212-1.07-2.212-2.725 0-1.65.874-2.724 2.212-2.724.733 0 1.353.346 1.65.922h.074v-2.92h.84V344h-.801v-.84h-.078c-.332.586-.957.933-1.685.933zm.195-4.693c-.957 0-1.538.743-1.538 1.968 0 1.23.577 1.968 1.538 1.968.957 0 1.548-.752 1.548-1.968 0-1.206-.595-1.968-1.548-1.968zm5.62 3.955c.865 0 1.504-.566 1.504-1.318v-.483l-1.416.092c-.8.054-1.152.333-1.152.86 0 .537.454.85 1.065.85zm-.156.738c-1.02 0-1.777-.606-1.777-1.568 0-.942.693-1.484 1.919-1.557l1.518-.093v-.479c0-.649-.405-1.005-1.19-1.005-.63 0-1.07.239-1.187.654h-.85c.112-.845.942-1.401 2.065-1.401 1.285 0 2.002.659 2.002 1.752V344h-.8v-.776h-.079c-.341.561-.918.869-1.62.869zm6.895-.093v-5.264h.84V344h-.84zm.42-6.333a.588.588 0 0 1-.586-.586c0-.322.264-.586.586-.586.322 0 .586.264.586.586a.588.588 0 0 1-.586.586zm2.021 6.333v-5.264h.801v.83h.078c.264-.58.777-.922 1.582-.922 1.182 0 1.841.698 1.841 1.948V344h-.84v-3.203c0-.947-.4-1.397-1.24-1.397s-1.382.562-1.382 1.485V344h-.84zm9.527-2.71c0-1.147-.591-1.89-1.563-1.89-.976 0-1.523.743-1.523 1.89 0 1.148.547 1.89 1.523 1.89.977 0 1.563-.742 1.563-1.89zm-1.524 4.731c-1.27 0-2.08-.57-2.207-1.44h.889c.093.43.561.708 1.318.708.943 0 1.504-.464 1.504-1.24v-1.035h-.078c-.332.58-.928.908-1.65.908-1.363 0-2.207-1.055-2.207-2.632 0-1.577.854-2.646 2.207-2.646.737 0 1.386.36 1.689.927h.078v-.835h.8v5.357c0 1.177-.907 1.928-2.343 1.928zm3.946-2.021v-5.264h.84V344h-.84zm.42-6.333a.588.588 0 0 1-.587-.586c0-.322.264-.586.586-.586.323 0 .586.264.586.586a.588.588 0 0 1-.586.586zm2.02 6.333v-5.264h.802v.83h.078c.263-.58.776-.922 1.582-.922 1.181 0 1.84.698 1.84 1.948V344h-.84v-3.203c0-.947-.4-1.397-1.24-1.397s-1.381.562-1.381 1.485V344h-.84zm8.658 0v-5.264h.8v.83h.079c.24-.586.767-.922 1.47-.922.713 0 1.21.376 1.455.922h.078c.283-.556.884-.922 1.611-.922 1.075 0 1.675.615 1.675 1.718V344h-.84v-3.442c0-.777-.366-1.158-1.108-1.158-.733 0-1.22.547-1.22 1.216V344h-.84v-3.574c0-.625-.435-1.026-1.1-1.026-.688 0-1.22.596-1.22 1.338V344h-.84zm10.8-4.614c-.839 0-1.425.615-1.488 1.548h2.9c-.02-.933-.576-1.548-1.411-1.548zm1.388 3.252h.84c-.254.903-1.065 1.455-2.217 1.455-1.46 0-2.373-1.055-2.373-2.72 0-1.655.927-2.73 2.373-2.73 1.42 0 2.285 1.011 2.285 2.647v.322h-3.784v.04c.044 1.04.625 1.699 1.518 1.699.679 0 1.138-.25 1.358-.713zm2.226 1.362v-5.264h.801v.83h.078c.264-.58.776-.922 1.582-.922 1.182 0 1.841.698 1.841 1.948V344h-.84v-3.203c0-.947-.4-1.397-1.24-1.397s-1.382.562-1.382 1.485V344h-.84zm7.783.093c-1.347 0-2.212-1.07-2.212-2.725 0-1.65.875-2.724 2.212-2.724.733 0 1.353.346 1.65.922h.074v-2.92h.84V344h-.8v-.84h-.079c-.332.586-.957.933-1.685.933zm.196-4.693c-.957 0-1.538.743-1.538 1.968 0 1.23.576 1.968 1.538 1.968.957 0 1.548-.752 1.548-1.968 0-1.206-.596-1.968-1.548-1.968zm5.62 3.955c.864 0 1.504-.566 1.504-1.318v-.483l-1.416.092c-.801.054-1.153.333-1.153.86 0 .537.454.85 1.065.85zm-.156.738c-1.02 0-1.778-.606-1.778-1.568 0-.942.694-1.484 1.92-1.557l1.518-.093v-.479c0-.649-.406-1.005-1.192-1.005-.63 0-1.069.239-1.186.654h-.85c.113-.845.943-1.401 2.066-1.401 1.284 0 2.002.659 2.002 1.752V344h-.801v-.776h-.078c-.342.561-.918.869-1.621.869zm4.052-.093v-5.264h.801v.782h.078c.156-.513.762-.874 1.46-.874.137 0 .313.01.42.024v.84a3.372 3.372 0 0 0-.537-.049c-.8 0-1.382.537-1.382 1.28V344h-.84zm5.43-.645c.864 0 1.504-.566 1.504-1.318v-.483l-1.416.092c-.8.054-1.152.333-1.152.86 0 .537.454.85 1.064.85zm-.156.738c-1.02 0-1.778-.606-1.778-1.568 0-.942.694-1.484 1.92-1.557l1.518-.093v-.479c0-.649-.405-1.005-1.191-1.005-.63 0-1.07.239-1.187.654h-.85c.113-.845.943-1.401 2.066-1.401 1.284 0 2.002.659 2.002 1.752V344h-.801v-.776h-.078c-.342.561-.918.869-1.621.869zm4.404-6.719h.84v1.362h1.172v.703h-1.172v2.979c0 .62.234.884.781.884.152 0 .235-.005.39-.02v.708c-.165.03-.326.05-.492.05-1.084 0-1.519-.401-1.519-1.407v-3.194h-.85v-.703h.85v-1.362zm8.052 6.719c-1.348 0-2.212-1.07-2.212-2.725 0-1.65.874-2.724 2.212-2.724.732 0 1.352.346 1.65.922h.073v-2.92h.84V344h-.8v-.84h-.079c-.332.586-.957.933-1.684.933zm.195-4.693c-.957 0-1.538.743-1.538 1.968 0 1.23.576 1.968 1.538 1.968.957 0 1.548-.752 1.548-1.968 0-1.206-.596-1.968-1.548-1.968zm4.019 4.6v-5.264h.84V344h-.84zm.42-6.333a.588.588 0 0 1-.586-.586c0-.322.263-.586.586-.586.322 0 .586.264.586.586a.588.588 0 0 1-.586.586zM63.647 356h-2.749v-7.046h2.696c1.294 0 2.085.679 2.085 1.758 0 .732-.537 1.396-1.216 1.518v.079c.962.122 1.572.78 1.572 1.713 0 1.24-.889 1.978-2.388 1.978zm-1.87-6.27v2.261h1.407c1.064 0 1.606-.38 1.606-1.128 0-.717-.508-1.133-1.382-1.133h-1.63zm0 5.494h1.739c1.06 0 1.616-.43 1.616-1.245 0-.816-.576-1.231-1.7-1.231h-1.655v2.476zm7.207.131c.865 0 1.504-.566 1.504-1.318v-.483l-1.416.092c-.8.054-1.152.333-1.152.86 0 .537.454.85 1.064.85zm-.156.738c-1.02 0-1.777-.606-1.777-1.568 0-.942.693-1.484 1.919-1.557l1.518-.093v-.479c0-.649-.405-1.005-1.191-1.005-.63 0-1.07.239-1.187.654h-.85c.113-.845.943-1.401 2.066-1.401 1.284 0 2.002.659 2.002 1.752V356h-.8v-.776h-.079c-.342.561-.918.869-1.62.869zm4.053-.093v-5.264h.8v.83h.079c.263-.58.776-.922 1.582-.922 1.181 0 1.84.698 1.84 1.948V356h-.84v-3.203c0-.947-.4-1.397-1.24-1.397s-1.381.562-1.381 1.485V356h-.84zm7.783.093c-1.348 0-2.212-1.07-2.212-2.725 0-1.65.874-2.724 2.212-2.724.732 0 1.353.346 1.65.922h.074v-2.92h.84V356h-.801v-.84h-.078c-.332.586-.957.933-1.685.933zm.195-4.693c-.957 0-1.538.743-1.538 1.968 0 1.23.576 1.968 1.538 1.968.957 0 1.548-.752 1.548-1.968 0-1.206-.595-1.968-1.548-1.968zm5.62 3.955c.865 0 1.504-.566 1.504-1.318v-.483l-1.416.092c-.8.054-1.152.333-1.152.86 0 .537.454.85 1.064.85zm-.156.738c-1.02 0-1.777-.606-1.777-1.568 0-.942.693-1.484 1.919-1.557l1.518-.093v-.479c0-.649-.405-1.005-1.191-1.005-.63 0-1.07.239-1.187.654h-.85c.113-.845.943-1.401 2.066-1.401 1.284 0 2.002.659 2.002 1.752V356h-.8v-.776h-.079c-.341.561-.918.869-1.62.869zm4.053-.093v-5.264h.8v.782h.079c.156-.513.762-.874 1.46-.874.137 0 .312.01.42.024v.84a3.372 3.372 0 0 0-.537-.049c-.801 0-1.382.537-1.382 1.28V356h-.84zm5.43-.645c.864 0 1.504-.566 1.504-1.318v-.483l-1.416.092c-.801.054-1.153.333-1.153.86 0 .537.454.85 1.065.85zm-.157.738c-1.02 0-1.777-.606-1.777-1.568 0-.942.693-1.484 1.919-1.557l1.519-.093v-.479c0-.649-.406-1.005-1.192-1.005-.63 0-1.07.239-1.186.654h-.85c.112-.845.942-1.401 2.065-1.401 1.285 0 2.002.659 2.002 1.752V356h-.8v-.776h-.078c-.342.561-.918.869-1.622.869zm12.608-.093h-.88v-3.208h-3.866V356h-.88v-7.046h.88v3.047h3.867v-3.047h.879V356zm3.31-.645c.865 0 1.504-.566 1.504-1.318v-.483l-1.416.092c-.8.054-1.152.333-1.152.86 0 .537.454.85 1.064.85zm-.156.738c-1.02 0-1.777-.606-1.777-1.568 0-.942.693-1.484 1.919-1.557l1.518-.093v-.479c0-.649-.405-1.005-1.191-1.005-.63 0-1.07.239-1.187.654h-.85c.113-.845.943-1.401 2.066-1.401 1.284 0 2.002.659 2.002 1.752V356h-.8v-.776h-.079c-.342.561-.918.869-1.62.869zm4.102-.093v-7.354h.84V356h-.84zm2.49 0v-5.264h.84V356h-.84zm.42-6.333a.588.588 0 0 1-.586-.586c0-.322.264-.586.586-.586.322 0 .586.264.586.586a.588.588 0 0 1-.586.586zm2.021 6.333v-5.264h.801v.83h.078c.24-.586.767-.922 1.47-.922.713 0 1.21.376 1.455.922h.078c.283-.556.884-.922 1.612-.922 1.074 0 1.674.615 1.674 1.718V356h-.84v-3.442c0-.777-.366-1.158-1.108-1.158-.732 0-1.22.547-1.22 1.216V356h-.84v-3.574c0-.625-.435-1.026-1.1-1.026-.688 0-1.22.596-1.22 1.338V356h-.84zm11.631-7.046h2.661c1.333 0 2.256.938 2.256 2.28 0 1.319-.942 2.251-2.265 2.251h-1.773V356h-.879v-7.046zm.88.781v2.97h1.552c1 0 1.582-.538 1.582-1.47 0-.967-.562-1.5-1.582-1.5h-1.553zm7.465 1.65c-.84 0-1.426.616-1.49 1.549h2.901c-.02-.933-.576-1.548-1.411-1.548zm1.387 3.253h.84c-.254.903-1.065 1.455-2.217 1.455-1.46 0-2.373-1.055-2.373-2.72 0-1.655.927-2.73 2.373-2.73 1.42 0 2.285 1.011 2.285 2.647v.322h-3.784v.04c.044 1.04.625 1.699 1.518 1.699.679 0 1.138-.25 1.358-.713zm2.226 1.362v-5.264h.801v.782h.078c.156-.513.762-.874 1.46-.874.137 0 .313.01.42.024v.84a3.372 3.372 0 0 0-.537-.049c-.8 0-1.382.537-1.382 1.28V356h-.84zm5.757.093c-1.348 0-2.212-1.07-2.212-2.725 0-1.65.874-2.724 2.212-2.724.732 0 1.353.346 1.65.922h.074v-2.92h.84V356h-.801v-.84h-.078c-.332.586-.957.933-1.685.933zm.195-4.693c-.957 0-1.538.743-1.538 1.968 0 1.23.576 1.968 1.538 1.968.957 0 1.548-.752 1.548-1.968 0-1.206-.595-1.968-1.548-1.968zm5.62 3.955c.865 0 1.504-.566 1.504-1.318v-.483l-1.416.092c-.8.054-1.152.333-1.152.86 0 .537.454.85 1.064.85zm-.156.738c-1.02 0-1.777-.606-1.777-1.568 0-.942.693-1.484 1.919-1.557l1.518-.093v-.479c0-.649-.405-1.005-1.191-1.005-.63 0-1.07.239-1.187.654h-.85c.113-.845.943-1.401 2.066-1.401 1.284 0 2.002.659 2.002 1.752V356h-.8v-.776h-.079c-.341.561-.918.869-1.62.869zm4.053-.093v-5.264h.8v.83h.079c.264-.58.776-.922 1.582-.922 1.182 0 1.84.698 1.84 1.948V356h-.84v-3.203c0-.947-.4-1.397-1.24-1.397s-1.381.562-1.381 1.485V356h-.84zm7.456-.645c.864 0 1.504-.566 1.504-1.318v-.483l-1.416.092c-.8.054-1.152.333-1.152.86 0 .537.454.85 1.064.85zm-.156.738c-1.02 0-1.778-.606-1.778-1.568 0-.942.694-1.484 1.92-1.557l1.518-.093v-.479c0-.649-.405-1.005-1.191-1.005-.63 0-1.07.239-1.187.654h-.85c.113-.845.943-1.401 2.066-1.401 1.284 0 2.002.659 2.002 1.752V356h-.801v-.776h-.078c-.342.561-.918.869-1.621.869zm5.02-3.057l2.284-2.3h1.03l-2.265 2.256 2.417 3.008h-1.07l-1.972-2.466-.503.469V356h-.84v-7.354h.84v4.39h.078zm8.72-2.3V356h-.8v-.825h-.079c-.264.586-.825.918-1.63.918-1.182 0-1.798-.703-1.798-1.948v-3.409h.84v3.203c0 .948.352 1.387 1.192 1.387.927 0 1.435-.552 1.435-1.474v-3.116h.84zm1.46 1.44c0-.873.845-1.532 1.963-1.532 1.103 0 1.87.546 1.982 1.41h-.83c-.112-.42-.522-.698-1.157-.698-.625 0-1.113.318-1.113.787 0 .36.293.586.913.737l.81.195c.992.24 1.47.67 1.47 1.426 0 .942-.913 1.592-2.11 1.592-1.171 0-1.977-.562-2.07-1.436h.865c.141.445.561.728 1.235.728.708 0 1.216-.337 1.216-.82 0-.362-.274-.606-.835-.743l-.904-.22c-.986-.239-1.435-.664-1.435-1.425zm9.614-1.44V356h-.8v-.825h-.079c-.263.586-.825.918-1.63.918-1.182 0-1.797-.703-1.797-1.948v-3.409h.84v3.203c0 .948.351 1.387 1.19 1.387.929 0 1.436-.552 1.436-1.474v-3.116h.84zm1.582 5.264v-5.264H194v.83h.078c.24-.586.767-.922 1.47-.922.713 0 1.21.376 1.455.922h.078c.283-.556.884-.922 1.611-.922 1.075 0 1.675.615 1.675 1.718V356h-.84v-3.442c0-.777-.366-1.158-1.108-1.158-.732 0-1.22.547-1.22 1.216V356h-.84v-3.574c0-.625-.435-1.026-1.1-1.026-.688 0-1.22.596-1.22 1.338V356h-.84zm10.323-.645c.864 0 1.503-.566 1.503-1.318v-.483l-1.416.092c-.8.054-1.152.333-1.152.86 0 .537.454.85 1.065.85zm-.157.738c-1.02 0-1.777-.606-1.777-1.568 0-.942.693-1.484 1.919-1.557l1.518-.093v-.479c0-.649-.405-1.005-1.191-1.005-.63 0-1.07.239-1.187.654h-.85c.113-.845.943-1.401 2.066-1.401 1.284 0 2.002.659 2.002 1.752V356h-.8v-.776h-.079c-.341.561-.918.869-1.62.869zm3.653-5.298c.053-1.055.756-1.895 2.129-1.895 1.23 0 2.07.762 2.07 1.768 0 .767-.396 1.309-1.02 1.685-.62.366-.797.64-.797 1.152v.317h-.854v-.449c-.005-.644.308-1.084.976-1.484.567-.347.787-.655.787-1.177 0-.606-.47-1.05-1.197-1.05-.737 0-1.206.435-1.26 1.133h-.834zm2.021 5.293a.654.654 0 0 1-.679-.679c0-.4.284-.683.68-.683.395 0 .673.283.673.683 0 .396-.278.679-.674.679z"/>
            <path fill="#F3F3F5" d="M64 284h132c8.837 0 16 7.163 16 16v8c0 8.837-7.163 16-16 16H50a2 2 0 0 1-2-2v-22c0-8.837 7.163-16 16-16z"/>
            <path fill="#000" d="M63.647 302h-2.749v-7.046h2.696c1.294 0 2.085.679 2.085 1.758 0 .732-.537 1.396-1.216 1.518v.079c.962.122 1.572.78 1.572 1.713 0 1.24-.889 1.978-2.388 1.978zm-1.87-6.27v2.261h1.407c1.064 0 1.606-.38 1.606-1.128 0-.717-.508-1.133-1.382-1.133h-1.63zm0 5.494h1.739c1.06 0 1.616-.43 1.616-1.245 0-.816-.576-1.231-1.7-1.231h-1.655v2.476zm7.207.131c.865 0 1.504-.566 1.504-1.318v-.483l-1.416.092c-.8.054-1.152.333-1.152.86 0 .537.454.85 1.064.85zm-.156.738c-1.02 0-1.777-.606-1.777-1.568 0-.942.693-1.484 1.919-1.557l1.518-.093v-.479c0-.649-.405-1.005-1.191-1.005-.63 0-1.07.239-1.187.654h-.85c.113-.845.943-1.401 2.066-1.401 1.284 0 2.002.659 2.002 1.752V302h-.8v-.776h-.079c-.342.561-.918.869-1.62.869zm4.053-.093v-5.264h.8v.83h.079c.263-.58.776-.922 1.582-.922 1.181 0 1.84.698 1.84 1.948V302h-.84v-3.203c0-.947-.4-1.397-1.24-1.397s-1.381.562-1.381 1.485V302h-.84zm7.783.093c-1.348 0-2.212-1.07-2.212-2.725 0-1.65.874-2.724 2.212-2.724.732 0 1.353.346 1.65.922h.074v-2.92h.84V302h-.801v-.84h-.078c-.332.586-.957.933-1.685.933zm.195-4.693c-.957 0-1.538.743-1.538 1.968 0 1.23.576 1.968 1.538 1.968.957 0 1.548-.752 1.548-1.968 0-1.206-.595-1.968-1.548-1.968zm5.62 3.955c.865 0 1.504-.566 1.504-1.318v-.483l-1.416.092c-.8.054-1.152.333-1.152.86 0 .537.454.85 1.064.85zm-.156.738c-1.02 0-1.777-.606-1.777-1.568 0-.942.693-1.484 1.919-1.557l1.518-.093v-.479c0-.649-.405-1.005-1.191-1.005-.63 0-1.07.239-1.187.654h-.85c.113-.845.943-1.401 2.066-1.401 1.284 0 2.002.659 2.002 1.752V302h-.8v-.776h-.079c-.341.561-.918.869-1.62.869zm4.053-.093v-5.264h.8v.782h.079c.156-.513.762-.874 1.46-.874.137 0 .312.01.42.024v.84a3.372 3.372 0 0 0-.537-.049c-.801 0-1.382.537-1.382 1.28V302h-.84zm5.43-.645c.864 0 1.504-.566 1.504-1.318v-.483l-1.416.092c-.801.054-1.153.333-1.153.86 0 .537.454.85 1.065.85zm-.157.738c-1.02 0-1.777-.606-1.777-1.568 0-.942.693-1.484 1.919-1.557l1.519-.093v-.479c0-.649-.406-1.005-1.192-1.005-.63 0-1.07.239-1.186.654h-.85c.112-.845.942-1.401 2.065-1.401 1.285 0 2.002.659 2.002 1.752V302h-.8v-.776h-.078c-.342.561-.918.869-1.622.869zm8.497-.738c.864 0 1.503-.566 1.503-1.318v-.483l-1.416.092c-.8.054-1.152.333-1.152.86 0 .537.454.85 1.065.85zm-.157.738c-1.02 0-1.777-.606-1.777-1.568 0-.942.693-1.484 1.919-1.557l1.518-.093v-.479c0-.649-.405-1.005-1.191-1.005-.63 0-1.07.239-1.187.654h-.85c.113-.845.943-1.401 2.066-1.401 1.284 0 2.002.659 2.002 1.752V302h-.8v-.776h-.079c-.341.561-.918.869-1.62.869zm4.102-.093v-7.354h.84V302h-.84zm2.822-6.626h.84v1.362h1.172v.703h-1.172v2.979c0 .62.234.884.781.884.152 0 .235-.005.39-.02v.708c-.165.03-.326.05-.492.05-1.084 0-1.519-.401-1.519-1.407v-3.194h-.85v-.703h.85v-1.362zm5.38 2.012c-.839 0-1.425.615-1.488 1.548h2.9c-.02-.933-.576-1.548-1.411-1.548zm1.388 3.252h.84c-.254.903-1.065 1.455-2.217 1.455-1.46 0-2.373-1.055-2.373-2.72 0-1.655.927-2.73 2.373-2.73 1.42 0 2.285 1.011 2.285 2.647v.322h-3.784v.04c.044 1.04.625 1.699 1.518 1.699.679 0 1.138-.25 1.358-.713zm2.226 1.362v-5.264h.801v.782h.078c.156-.513.762-.874 1.46-.874.137 0 .313.01.42.024v.84a3.372 3.372 0 0 0-.537-.049c-.8 0-1.382.537-1.382 1.28V302h-.84zm3.809 0v-5.264h.8v.83h.079c.263-.58.776-.922 1.582-.922 1.181 0 1.84.698 1.84 1.948V302h-.84v-3.203c0-.947-.4-1.397-1.24-1.397s-1.381.562-1.381 1.485V302h-.84zm7.456-.645c.864 0 1.504-.566 1.504-1.318v-.483l-1.416.092c-.801.054-1.153.333-1.153.86 0 .537.455.85 1.065.85zm-.156.738c-1.02 0-1.778-.606-1.778-1.568 0-.942.694-1.484 1.92-1.557l1.518-.093v-.479c0-.649-.405-1.005-1.192-1.005-.63 0-1.069.239-1.186.654h-.85c.113-.845.943-1.401 2.066-1.401 1.284 0 2.002.659 2.002 1.752V302h-.801v-.776h-.078c-.342.561-.918.869-1.621.869zm4.404-6.719h.84v1.362h1.172v.703h-1.172v2.979c0 .62.234.884.781.884.151 0 .234-.005.39-.02v.708c-.165.03-.327.05-.493.05-1.084 0-1.518-.401-1.518-1.407v-3.194h-.85v-.703h.85v-1.362zm3.3 6.626v-5.264h.84V302h-.84zm.42-6.333a.588.588 0 0 1-.585-.586c0-.322.263-.586.586-.586.322 0 .586.264.586.586a.588.588 0 0 1-.586.586zm2.374 6.333v-4.56h-.874v-.704h.874v-.512c0-1.08.561-1.529 1.577-1.529.166 0 .312.015.517.05v.702a2.509 2.509 0 0 0-.468-.044c-.503 0-.786.254-.786.845v.488h1.206v.703h-1.206V302h-.84zm8.037.093c-1.348 0-2.212-1.07-2.212-2.725 0-1.65.874-2.724 2.212-2.724.732 0 1.352.346 1.65.922h.073v-2.92h.84V302h-.8v-.84h-.079c-.332.586-.957.933-1.684.933zm.195-4.693c-.957 0-1.538.743-1.538 1.968 0 1.23.576 1.968 1.538 1.968.957 0 1.548-.752 1.548-1.968 0-1.206-.596-1.968-1.548-1.968zm4.019 4.6v-5.264h.84V302h-.84zm.42-6.333a.588.588 0 0 1-.586-.586c0-.322.263-.586.586-.586.322 0 .586.264.586.586a.588.588 0 0 1-.586.586zm4.472 4.687h.874c.02.591.469 1.001 1.133 1.001.752 0 1.177-.459 1.177-1.323v-5.078h.879v5.083c0 1.343-.777 2.129-2.051 2.129-1.182 0-2.012-.732-2.012-1.812zm7.373 1.001c.865 0 1.504-.566 1.504-1.318v-.483l-1.416.092c-.8.054-1.152.333-1.152.86 0 .537.454.85 1.064.85zm-.156.738c-1.02 0-1.777-.606-1.777-1.568 0-.942.693-1.484 1.919-1.557l1.518-.093v-.479c0-.649-.405-1.005-1.191-1.005-.63 0-1.07.239-1.187.654h-.85c.113-.845.943-1.401 2.066-1.401 1.284 0 2.002.659 2.002 1.752V302h-.8v-.776h-.079c-.342.561-.918.869-1.621.869zm5.02-3.057l2.285-2.3h1.03l-2.266 2.256L174.36 302h-1.069l-1.973-2.466-.503.469V302h-.84v-7.354h.84v4.39h.079zm6.084 2.32c.864 0 1.503-.567 1.503-1.319v-.483l-1.416.092c-.8.054-1.152.333-1.152.86 0 .537.454.85 1.065.85zm-.157.737c-1.02 0-1.777-.606-1.777-1.568 0-.942.693-1.484 1.919-1.557l1.518-.093v-.479c0-.649-.405-1.005-1.191-1.005-.63 0-1.07.239-1.186.654h-.85c.112-.845.942-1.401 2.065-1.401 1.285 0 2.002.659 2.002 1.752V302h-.8v-.776h-.079c-.341.561-.918.869-1.62.869zm4.053-.093v-5.264h.8v.782h.079c.156-.513.762-.874 1.46-.874.137 0 .312.01.42.024v.84a3.372 3.372 0 0 0-.537-.049c-.801 0-1.382.537-1.382 1.28V302h-.84zm4.16-6.626h.84v1.362h1.172v.703h-1.172v2.979c0 .62.234.884.781.884.152 0 .235-.005.39-.02v.708c-.165.03-.326.05-.492.05-1.084 0-1.519-.401-1.519-1.407v-3.194h-.85v-.703h.85v-1.362zm4.903 5.981c.864 0 1.503-.566 1.503-1.318v-.483l-1.416.092c-.8.054-1.152.333-1.152.86 0 .537.454.85 1.065.85zm-.157.738c-1.02 0-1.777-.606-1.777-1.568 0-.942.693-1.484 1.919-1.557l1.518-.093v-.479c0-.649-.405-1.005-1.191-1.005-.63 0-1.07.239-1.186.654h-.85c.112-.845.942-1.401 2.065-1.401 1.285 0 2.002.659 2.002 1.752V302h-.8v-.776h-.079c-.341.561-.918.869-1.62.869zM62.412 313.355c.864 0 1.504-.566 1.504-1.318v-.483l-1.416.092c-.8.054-1.152.333-1.152.86 0 .537.454.85 1.064.85zm-.156.738c-1.02 0-1.777-.606-1.777-1.568 0-.942.693-1.484 1.918-1.557l1.519-.093v-.479c0-.649-.405-1.005-1.191-1.005-.63 0-1.07.239-1.187.654h-.85c.113-.845.943-1.401 2.066-1.401 1.284 0 2.002.659 2.002 1.752V314h-.8v-.776h-.079c-.342.561-.918.869-1.621.869zm6 0c-1.347 0-2.211-1.07-2.211-2.725 0-1.65.874-2.724 2.212-2.724.732 0 1.352.346 1.65.922h.073v-2.92h.84V314h-.8v-.84h-.079c-.332.586-.957.933-1.684.933zm.196-4.693c-.957 0-1.538.743-1.538 1.968 0 1.23.576 1.968 1.538 1.968.957 0 1.548-.752 1.548-1.968 0-1.206-.596-1.968-1.548-1.968zm5.62 3.955c.865 0 1.504-.566 1.504-1.318v-.483l-1.416.092c-.8.054-1.152.333-1.152.86 0 .537.454.85 1.064.85zm-.156.738c-1.02 0-1.777-.606-1.777-1.568 0-.942.693-1.484 1.919-1.557l1.518-.093v-.479c0-.649-.405-1.005-1.191-1.005-.63 0-1.07.239-1.187.654h-.85c.113-.845.943-1.401 2.066-1.401 1.284 0 2.002.659 2.002 1.752V314h-.8v-.776h-.079c-.342.561-.918.869-1.621.869zm4.102-.093v-7.354h.84V314h-.84zm4.091-.645c.865 0 1.504-.566 1.504-1.318v-.483l-1.416.092c-.8.054-1.152.333-1.152.86 0 .537.454.85 1.064.85zm-.156.738c-1.02 0-1.777-.606-1.777-1.568 0-.942.693-1.484 1.919-1.557l1.518-.093v-.479c0-.649-.405-1.005-1.191-1.005-.63 0-1.07.239-1.187.654h-.85c.113-.845.943-1.401 2.066-1.401 1.284 0 2.002.659 2.002 1.752V314h-.8v-.776h-.079c-.342.561-.918.869-1.62.869zm4.102-.093v-7.354h.84v2.92h.078c.263-.58.815-.922 1.62-.922 1.114 0 1.817.712 1.817 1.948V314h-.84v-3.203c0-.933-.42-1.397-1.216-1.397-.942 0-1.46.596-1.46 1.485V314h-.84zm14.443 0h-.879v-3.208h-3.867V314h-.879v-7.046h.879v3.047h3.867v-3.047h.879V314zm3.31-.645c.865 0 1.505-.566 1.505-1.318v-.483l-1.417.092c-.8.054-1.152.333-1.152.86 0 .537.454.85 1.065.85zm-.156.738c-1.02 0-1.777-.606-1.777-1.568 0-.942.693-1.484 1.919-1.557l1.519-.093v-.479c0-.649-.406-1.005-1.192-1.005-.63 0-1.07.239-1.186.654h-.85c.112-.845.942-1.401 2.065-1.401 1.285 0 2.002.659 2.002 1.752V314h-.8v-.776h-.079c-.341.561-.918.869-1.62.869zm4.102-.093v-7.354h.84V314h-.84zm2.49 0v-5.264h.84V314h-.84zm.42-6.333a.588.588 0 0 1-.586-.586c0-.322.264-.586.586-.586.322 0 .586.264.586.586a.588.588 0 0 1-.586.586zm2.022 6.333v-5.264h.8v.83h.078c.24-.586.767-.922 1.47-.922.713 0 1.211.376 1.455.922h.078c.284-.556.884-.922 1.612-.922 1.074 0 1.675.615 1.675 1.718V314h-.84v-3.442c0-.777-.367-1.158-1.109-1.158-.732 0-1.22.547-1.22 1.216V314h-.84v-3.574c0-.625-.435-1.026-1.099-1.026-.688 0-1.22.596-1.22 1.338V314h-.84zm11.63-7.046h2.662c1.333 0 2.255.938 2.255 2.28 0 1.319-.942 2.251-2.265 2.251h-1.773V314h-.879v-7.046zm.88.781v2.97h1.552c1.001 0 1.582-.538 1.582-1.47 0-.967-.561-1.5-1.582-1.5h-1.553zm7.465 1.65c-.84 0-1.426.616-1.49 1.549h2.901c-.02-.933-.576-1.548-1.41-1.548zm1.387 3.253h.84c-.254.903-1.065 1.455-2.217 1.455-1.46 0-2.373-1.055-2.373-2.72 0-1.655.928-2.73 2.373-2.73 1.42 0 2.285 1.011 2.285 2.647v.322h-3.784v.04c.044 1.04.625 1.699 1.518 1.699.68 0 1.138-.25 1.358-.713zm2.226 1.362v-5.264h.801v.782h.078c.157-.513.762-.874 1.46-.874.137 0 .313.01.42.024v.84a3.372 3.372 0 0 0-.537-.049c-.8 0-1.382.537-1.382 1.28V314h-.84zm5.757.093c-1.347 0-2.212-1.07-2.212-2.725 0-1.65.874-2.724 2.212-2.724.733 0 1.353.346 1.65.922h.074v-2.92h.84V314h-.801v-.84h-.078c-.332.586-.957.933-1.685.933zm.196-4.693c-.957 0-1.539.743-1.539 1.968 0 1.23.577 1.968 1.539 1.968.957 0 1.547-.752 1.547-1.968 0-1.206-.595-1.968-1.547-1.968zm5.62 3.955c.864 0 1.504-.566 1.504-1.318v-.483l-1.416.092c-.801.054-1.153.333-1.153.86 0 .537.454.85 1.065.85zm-.157.738c-1.02 0-1.777-.606-1.777-1.568 0-.942.693-1.484 1.919-1.557l1.519-.093v-.479c0-.649-.406-1.005-1.192-1.005-.63 0-1.07.239-1.186.654h-.85c.112-.845.942-1.401 2.065-1.401 1.285 0 2.002.659 2.002 1.752V314h-.8v-.776h-.078c-.342.561-.918.869-1.622.869zm4.053-.093v-5.264h.8v.83h.08c.263-.58.775-.922 1.581-.922 1.182 0 1.84.698 1.84 1.948V314h-.839v-3.203c0-.947-.4-1.397-1.24-1.397s-1.382.562-1.382 1.485V314h-.84zm7.456-.645c.864 0 1.504-.566 1.504-1.318v-.483l-1.416.092c-.8.054-1.152.333-1.152.86 0 .537.454.85 1.064.85zm-.156.738c-1.02 0-1.777-.606-1.777-1.568 0-.942.693-1.484 1.919-1.557l1.518-.093v-.479c0-.649-.405-1.005-1.191-1.005-.63 0-1.07.239-1.187.654h-.85c.113-.845.943-1.401 2.066-1.401 1.284 0 2.002.659 2.002 1.752V314h-.8v-.776h-.079c-.342.561-.918.869-1.621.869zm5.02-3.057l2.285-2.3h1.03l-2.266 2.256L167.53 314h-1.069l-1.973-2.466-.503.469V314h-.84v-7.354h.84v4.39h.078zm8.72-2.3V314h-.8v-.825h-.079c-.263.586-.825.918-1.63.918-1.182 0-1.797-.703-1.797-1.948v-3.409h.84v3.203c0 .948.351 1.387 1.19 1.387.929 0 1.436-.552 1.436-1.474v-3.116h.84zm1.46 1.44c0-.873.845-1.532 1.963-1.532 1.104 0 1.87.546 1.982 1.41h-.83c-.112-.42-.522-.698-1.157-.698-.625 0-1.113.318-1.113.787 0 .36.293.586.913.737l.81.195c.992.24 1.47.67 1.47 1.426 0 .942-.913 1.592-2.11 1.592-1.171 0-1.977-.562-2.07-1.436h.865c.141.445.561.728 1.235.728.708 0 1.216-.337 1.216-.82 0-.362-.273-.606-.835-.743l-.903-.22c-.987-.239-1.436-.664-1.436-1.425zm9.614-1.44V314h-.8v-.825h-.078c-.264.586-.826.918-1.631.918-1.182 0-1.797-.703-1.797-1.948v-3.409h.84v3.203c0 .948.351 1.387 1.191 1.387.928 0 1.436-.552 1.436-1.474v-3.116h.84zM185.44 314v-5.264h.801v.83h.078c.24-.586.767-.922 1.47-.922.713 0 1.211.376 1.455.922h.078c.283-.556.884-.922 1.612-.922 1.074 0 1.674.615 1.674 1.718V314h-.84v-3.442c0-.777-.366-1.158-1.108-1.158-.732 0-1.22.547-1.22 1.216V314h-.84v-3.574c0-.625-.435-1.026-1.099-1.026-.688 0-1.22.596-1.22 1.338V314h-.84zm10.323-.645c.864 0 1.504-.566 1.504-1.318v-.483l-1.416.092c-.801.054-1.153.333-1.153.86 0 .537.454.85 1.065.85zm-.157.738c-1.02 0-1.777-.606-1.777-1.568 0-.942.693-1.484 1.92-1.557l1.518-.093v-.479c0-.649-.406-1.005-1.192-1.005-.63 0-1.07.239-1.186.654h-.85c.112-.845.942-1.401 2.066-1.401 1.284 0 2.001.659 2.001 1.752V314h-.8v-.776h-.078c-.342.561-.918.869-1.622.869z"/>
            <path fill="#D1D1D1" d="M233 276a9 9 0 1 0 0-18 9 9 0 0 0 0 18z"/>
            <path fill="#FFF" fill-rule="nonzero" d="M233 267a3.001 3.001 0 0 0 0-6 3.001 3.001 0 0 0 0 6z"/>
            <path fill="#FFF" fill-rule="nonzero" d="M237.982 269.05a4.066 4.066 0 0 0-.29-.521 3.677 3.677 0 0 0-2.503-1.526.535.535 0 0 0-.369.09 3.167 3.167 0 0 1-3.635 0 .535.535 0 0 0-.369-.09 3.632 3.632 0 0 0-2.502 1.526 2.92 2.92 0 0 0-.29.521.235.235 0 0 0 .013.23c.105.164.224.342.342.495.172.229.37.445.58.636.184.178.382.33.593.483a5.855 5.855 0 0 0 3.45 1.106c1.252 0 2.45-.381 3.452-1.106a7.36 7.36 0 0 0 .592-.483c.211-.191.409-.407.58-.636a4.79 4.79 0 0 0 .342-.496.279.279 0 0 0 .014-.229z"/>
            <g transform="translate(65 236)">
                <rect width="155" height="40" fill="#2A90FF" rx="16"/>
                <path fill="#2A90FF" d="M154.351 24s-.223 7.108.253 10.477c.477 3.368 3.265 5.237 3.265 5.237.218.166.167.297-.104.285 0 0-4.616.082-8.727-3.247-4.11-3.33 5.313-12.752 5.313-12.752z"/>
                <path fill="#FFF" d="M17.264 17.209V18h-4.366v-7.046h4.366v.791h-3.487v2.26h3.306v.782h-3.306v2.422h3.487zm1.533.791v-7.354h.84v2.92h.078c.264-.58.815-.922 1.62-.922 1.114 0 1.817.712 1.817 1.948V18h-.84v-3.203c0-.933-.42-1.397-1.215-1.397-.943 0-1.46.596-1.46 1.485V18h-.84zm6.49 1.792h-.733l.468-2.778h.987l-.723 2.778zm7.138-1.7c-1.348 0-2.212-1.069-2.212-2.724 0-1.65.874-2.724 2.212-2.724.732 0 1.352.346 1.65.922h.073v-2.92h.84V18h-.8v-.84h-.079c-.332.586-.957.933-1.684.933zm.195-4.692c-.957 0-1.538.743-1.538 1.968 0 1.23.576 1.968 1.538 1.968.957 0 1.548-.752 1.548-1.968 0-1.206-.596-1.968-1.548-1.968zM36.64 18v-5.264h.84V18h-.84zm.42-6.333a.588.588 0 0 1-.586-.586c0-.322.263-.586.586-.586.322 0 .586.264.586.586a.588.588 0 0 1-.586.586zm4.472 4.687h.874c.02.591.469 1.001 1.133 1.001.752 0 1.177-.459 1.177-1.323v-5.078h.879v5.083c0 1.343-.777 2.129-2.051 2.129-1.182 0-2.012-.732-2.012-1.812zm7.373 1.001c.865 0 1.504-.566 1.504-1.318v-.483l-1.416.092c-.8.054-1.152.333-1.152.86 0 .537.454.85 1.064.85zm-.156.738c-1.02 0-1.777-.606-1.777-1.568 0-.942.693-1.484 1.919-1.557l1.518-.093v-.479c0-.649-.405-1.005-1.191-1.005-.63 0-1.07.239-1.187.654h-.85c.113-.845.943-1.401 2.066-1.401 1.284 0 2.002.659 2.002 1.752V18h-.8v-.776h-.079c-.342.561-.918.869-1.621.869zm5.02-3.057l2.285-2.3h1.03l-2.266 2.256L57.234 18h-1.069l-1.973-2.466-.503.469V18h-.84v-7.354h.84v4.39h.079zm6.084 2.32c.864 0 1.503-.567 1.503-1.319v-.483l-1.416.092c-.8.054-1.152.333-1.152.86 0 .537.454.85 1.065.85zm-.157.737c-1.02 0-1.777-.606-1.777-1.568 0-.942.693-1.484 1.919-1.557l1.518-.093v-.479c0-.649-.405-1.005-1.19-1.005-.63 0-1.07.239-1.187.654h-.85c.112-.845.942-1.401 2.065-1.401 1.285 0 2.002.659 2.002 1.752V18h-.8v-.776h-.079c-.341.561-.918.869-1.62.869zM63.748 18v-5.264h.8v.782h.079c.156-.513.762-.874 1.46-.874.137 0 .312.01.42.024v.84a3.372 3.372 0 0 0-.537-.049c-.801 0-1.382.537-1.382 1.28V18h-.84zm4.16-6.626h.84v1.362h1.172v.703h-1.172v2.979c0 .62.234.884.781.884.152 0 .235-.005.39-.02v.708c-.165.03-.326.05-.492.05-1.084 0-1.519-.401-1.519-1.407v-3.194h-.85v-.703h.85v-1.362zm4.903 5.981c.864 0 1.503-.566 1.503-1.318v-.483l-1.416.092c-.8.054-1.152.333-1.152.86 0 .537.454.85 1.065.85zm-.157.738c-1.02 0-1.777-.606-1.777-1.568 0-.942.693-1.484 1.919-1.557l1.518-.093v-.479c0-.649-.405-1.005-1.191-1.005-.63 0-1.07.239-1.186.654h-.85c.112-.845.942-1.401 2.065-1.401 1.285 0 2.002.659 2.002 1.752V18h-.8v-.776h-.079c-.341.561-.918.869-1.62.869zm8.496-.738c.865 0 1.504-.566 1.504-1.318v-.483l-1.416.092c-.8.054-1.152.333-1.152.86 0 .537.454.85 1.064.85zm-.156.738c-1.02 0-1.777-.606-1.777-1.568 0-.942.693-1.484 1.919-1.557l1.518-.093v-.479c0-.649-.405-1.005-1.191-1.005-.63 0-1.07.239-1.187.654h-.85c.113-.845.943-1.401 2.066-1.401 1.284 0 2.002.659 2.002 1.752V18h-.8v-.776h-.079c-.342.561-.918.869-1.62.869zm6.001 0c-1.348 0-2.212-1.07-2.212-2.725 0-1.65.874-2.724 2.212-2.724.733 0 1.353.346 1.65.922h.074v-2.92h.84V18h-.801v-.84h-.078c-.332.586-.957.933-1.685.933zm.195-4.693c-.957 0-1.538.743-1.538 1.968 0 1.23.577 1.968 1.538 1.968.957 0 1.548-.752 1.548-1.968 0-1.206-.595-1.968-1.548-1.968zm5.62 3.955c.865 0 1.504-.566 1.504-1.318v-.483l-1.416.092c-.8.054-1.152.333-1.152.86 0 .537.454.85 1.065.85zm-.156.738c-1.02 0-1.777-.606-1.777-1.568 0-.942.693-1.484 1.919-1.557l1.518-.093v-.479c0-.649-.405-1.005-1.191-1.005-.63 0-1.07.239-1.186.654h-.85c.112-.845.942-1.401 2.065-1.401 1.285 0 2.002.659 2.002 1.752V18h-.8v-.776h-.079c-.341.561-.918.869-1.62.869zm9.492 0c-.732 0-1.357-.347-1.689-.933h-.078V18h-.8v-7.354h.839v2.92h.078c.288-.566.928-.922 1.65-.922 1.338 0 2.208 1.069 2.208 2.724 0 1.646-.875 2.725-2.208 2.725zm-.195-4.693c-.957 0-1.553.752-1.553 1.968s.596 1.968 1.553 1.968c.962 0 1.533-.737 1.533-1.968 0-1.23-.57-1.968-1.533-1.968zm5.342 3.955c.864 0 1.504-.566 1.504-1.318v-.483l-1.416.092c-.8.054-1.152.333-1.152.86 0 .537.454.85 1.064.85zm-.156.738c-1.02 0-1.778-.606-1.778-1.568 0-.942.694-1.484 1.92-1.557l1.518-.093v-.479c0-.649-.405-1.005-1.192-1.005-.63 0-1.069.239-1.186.654h-.85c.113-.845.943-1.401 2.066-1.401 1.284 0 2.002.659 2.002 1.752V18h-.801v-.776h-.078c-.342.561-.918.869-1.621.869zm4.052-.093v-5.264h.801v.83h.078c.264-.58.777-.922 1.582-.922 1.182 0 1.841.698 1.841 1.948V18h-.84v-3.203c0-.947-.4-1.397-1.24-1.397s-1.382.562-1.382 1.485V18h-.84zm7.784.093c-1.348 0-2.212-1.07-2.212-2.725 0-1.65.874-2.724 2.212-2.724.732 0 1.352.346 1.65.922h.073v-2.92h.84V18h-.8v-.84h-.079c-.332.586-.957.933-1.684.933zm.195-4.693c-.957 0-1.538.743-1.538 1.968 0 1.23.576 1.968 1.538 1.968.957 0 1.548-.752 1.548-1.968 0-1.206-.596-1.968-1.548-1.968zm5.62 3.955c.864 0 1.504-.566 1.504-1.318v-.483l-1.416.092c-.8.054-1.152.333-1.152.86 0 .537.454.85 1.064.85zm-.156.738c-1.02 0-1.778-.606-1.778-1.568 0-.942.694-1.484 1.92-1.557l1.518-.093v-.479c0-.649-.405-1.005-1.191-1.005-.63 0-1.07.239-1.187.654h-.85c.113-.845.943-1.401 2.066-1.401 1.284 0 2.002.659 2.002 1.752V18h-.8v-.776h-.08c-.34.561-.917.869-1.62.869zm4.053-.093v-5.264h.8v.782h.078c.157-.513.762-.874 1.46-.874.137 0 .313.01.42.024v.84a3.372 3.372 0 0 0-.537-.049c-.8 0-1.382.537-1.382 1.28V18h-.84zm5.43-.645c.864 0 1.503-.566 1.503-1.318v-.483l-1.416.092c-.8.054-1.152.333-1.152.86 0 .537.454.85 1.064.85zm-.157.738c-1.02 0-1.777-.606-1.777-1.568 0-.942.693-1.484 1.919-1.557l1.518-.093v-.479c0-.649-.405-1.005-1.191-1.005-.63 0-1.07.239-1.187.654h-.85c.113-.845.943-1.401 2.066-1.401 1.284 0 2.002.659 2.002 1.752V18h-.8v-.776h-.079c-.342.561-.918.869-1.621.869zm-121.29 8.084c0-.874.846-1.533 1.964-1.533 1.103 0 1.87.546 1.982 1.41h-.83c-.112-.42-.522-.698-1.157-.698-.625 0-1.113.318-1.113.787 0 .36.293.586.913.737l.81.195c.992.24 1.47.67 1.47 1.426 0 .942-.913 1.592-2.11 1.592-1.171 0-1.977-.562-2.07-1.436h.865c.141.445.561.728 1.235.728.708 0 1.216-.337 1.216-.82 0-.362-.274-.606-.835-.743l-.904-.22c-.986-.239-1.435-.664-1.435-1.425zm7.457-.791c-.84 0-1.426.615-1.49 1.548h2.901c-.02-.933-.576-1.548-1.411-1.548zm1.387 3.252h.84c-.254.903-1.065 1.455-2.217 1.455-1.46 0-2.373-1.055-2.373-2.72 0-1.655.927-2.73 2.373-2.73 1.42 0 2.285 1.011 2.285 2.647v.322h-3.784v.04c.044 1.04.625 1.699 1.518 1.699.679 0 1.138-.25 1.358-.713zM23.787 30v-7.354h.84V30h-.84zm4.092-.645c.864 0 1.504-.566 1.504-1.318v-.483l-1.416.092c-.801.054-1.153.333-1.153.86 0 .537.455.85 1.065.85zm-.156.738c-1.02 0-1.778-.606-1.778-1.568 0-.942.694-1.484 1.92-1.557l1.518-.093v-.479c0-.649-.405-1.005-1.192-1.005-.63 0-1.069.239-1.186.654h-.85c.113-.845.943-1.401 2.066-1.401 1.284 0 2.002.659 2.002 1.752V30h-.801v-.776h-.078c-.342.561-.918.869-1.621.869zM31.795 30v-5.264h.84V30h-.84zm.42-6.333a.588.588 0 0 1-.586-.586c0-.322.264-.586.586-.586.322 0 .586.264.586.586a.588.588 0 0 1-.586.586zM34.236 30v-5.264h.801v.83h.078c.264-.58.777-.922 1.582-.922 1.182 0 1.841.698 1.841 1.948V30h-.84v-3.203c0-.947-.4-1.397-1.24-1.397s-1.382.562-1.382 1.485V30h-.84zm8.428-1.84h.889c.107.736.81 1.205 1.811 1.205.948 0 1.646-.512 1.646-1.21 0-.601-.44-.982-1.411-1.226l-.904-.235c-1.274-.322-1.826-.898-1.826-1.9 0-1.195 1.001-2.006 2.49-2.006 1.363 0 2.378.81 2.452 1.948h-.884c-.122-.722-.718-1.152-1.597-1.152-.937 0-1.558.469-1.558 1.182 0 .551.386.869 1.358 1.118l.737.195c1.46.366 2.046.933 2.046 1.968 0 1.294-1.02 2.119-2.632 2.119-1.494 0-2.524-.791-2.617-2.007zm8.765 1.176c.996 0 1.557-.723 1.557-1.968 0-1.25-.561-1.968-1.557-1.968-.996 0-1.558.718-1.558 1.968 0 1.245.562 1.968 1.558 1.968zm0 .757c-1.5 0-2.427-1.035-2.427-2.725 0-1.694.928-2.724 2.427-2.724s2.426 1.03 2.426 2.724c0 1.69-.927 2.725-2.426 2.725zm5.844-4.707c-.84 0-1.425.615-1.489 1.548h2.9c-.019-.933-.576-1.548-1.41-1.548zm1.387 3.252h.84c-.254.903-1.064 1.455-2.217 1.455-1.46 0-2.373-1.055-2.373-2.72 0-1.655.928-2.73 2.373-2.73 1.421 0 2.285 1.011 2.285 2.647v.322h-3.784v.04c.044 1.04.625 1.699 1.519 1.699.678 0 1.137-.25 1.357-.713zm3.194-1.602l2.285-2.3h1.03l-2.266 2.256L65.32 30h-1.069l-1.973-2.466-.503.469V30h-.84v-7.354h.84v4.39h.079zm6.084 2.32c.864 0 1.503-.567 1.503-1.319v-.483l-1.416.092c-.8.054-1.152.333-1.152.86 0 .537.454.85 1.064.85zm-.157.737c-1.02 0-1.777-.606-1.777-1.568 0-.942.693-1.484 1.919-1.557l1.518-.093v-.479c0-.649-.405-1.005-1.191-1.005-.63 0-1.07.239-1.187.654h-.85c.113-.845.943-1.401 2.066-1.401 1.284 0 2.002.659 2.002 1.752V30h-.8v-.776h-.079c-.341.561-.918.869-1.62.869zM71.834 30v-5.264h.8v.782h.079c.156-.513.762-.874 1.46-.874.137 0 .312.01.42.024v.84a3.372 3.372 0 0 0-.537-.049c-.801 0-1.382.537-1.382 1.28V30h-.84zm3.809 0v-5.264h.8v.83h.078c.264-.58.777-.922 1.583-.922 1.181 0 1.84.698 1.84 1.948V30h-.84v-3.203c0-.947-.4-1.397-1.24-1.397s-1.382.562-1.382 1.485V30h-.84zm7.998-.664c.996 0 1.557-.723 1.557-1.968 0-1.25-.561-1.968-1.557-1.968-.996 0-1.558.718-1.558 1.968 0 1.245.562 1.968 1.558 1.968zm0 .757c-1.5 0-2.427-1.035-2.427-2.725 0-1.694.928-2.724 2.427-2.724s2.426 1.03 2.426 2.724c0 1.69-.927 2.725-2.426 2.725zm6.914-2.53h-3.203v-.795h3.203v.795zM97.835 30h-.879v-3.208H93.09V30h-.879v-7.046h.879v3.047h3.867v-3.047h.879V30zm3.31-.645c.865 0 1.504-.566 1.504-1.318v-.483l-1.416.092c-.8.054-1.152.333-1.152.86 0 .537.454.85 1.065.85zm-.156.738c-1.02 0-1.777-.606-1.777-1.568 0-.942.693-1.484 1.919-1.557l1.518-.093v-.479c0-.649-.405-1.005-1.191-1.005-.63 0-1.07.239-1.187.654h-.85c.113-.845.943-1.401 2.066-1.401 1.284 0 2.002.659 2.002 1.752V30h-.8v-.776h-.079c-.341.561-.918.869-1.62.869zm4.405-6.719h.84v1.362h1.171v.703h-1.172v2.979c0 .62.235.884.782.884.151 0 .234-.005.39-.02v.708c-.166.03-.327.05-.493.05-1.084 0-1.518-.401-1.518-1.407v-3.194h-.85v-.703h.85v-1.362zm3.632 0h.84v1.362h1.172v.703h-1.172v2.979c0 .62.235.884.781.884.152 0 .235-.005.391-.02v.708c-.166.03-.327.05-.493.05-1.084 0-1.519-.401-1.519-1.407v-3.194h-.85v-.703h.85v-1.362zm4.903 5.981c.864 0 1.504-.566 1.504-1.318v-.483l-1.416.092c-.801.054-1.153.333-1.153.86 0 .537.454.85 1.065.85zm-.157.738c-1.02 0-1.777-.606-1.777-1.568 0-.942.693-1.484 1.92-1.557l1.518-.093v-.479c0-.649-.406-1.005-1.192-1.005-.63 0-1.07.239-1.186.654h-.85c.112-.845.942-1.401 2.066-1.401 1.284 0 2.001.659 2.001 1.752V30h-.8v-.776h-.078c-.342.561-.918.869-1.622.869zm10.567-2.803c0-1.147-.591-1.89-1.563-1.89-.976 0-1.523.743-1.523 1.89 0 1.148.547 1.89 1.523 1.89.977 0 1.563-.742 1.563-1.89zm-1.524 4.731c-1.27 0-2.08-.57-2.207-1.44h.89c.092.43.56.708 1.317.708.943 0 1.504-.464 1.504-1.24v-1.035h-.078c-.332.58-.928.908-1.65.908-1.362 0-2.207-1.055-2.207-2.632 0-1.577.854-2.646 2.207-2.646.737 0 1.387.36 1.69.927h.077v-.835h.801v5.357c0 1.177-.908 1.928-2.344 1.928zm5.547-2.666c.865 0 1.504-.566 1.504-1.318v-.483l-1.416.092c-.8.054-1.152.333-1.152.86 0 .537.454.85 1.064.85zm-.156.738c-1.02 0-1.777-.606-1.777-1.568 0-.942.693-1.484 1.919-1.557l1.518-.093v-.479c0-.649-.405-1.005-1.191-1.005-.63 0-1.07.239-1.187.654h-.85c.113-.845.943-1.401 2.066-1.401 1.284 0 2.002.659 2.002 1.752V30h-.8v-.776h-.079c-.342.561-.918.869-1.62.869zm5.02-3.057l2.285-2.3h1.03l-2.266 2.256L136.692 30h-1.069l-1.973-2.466-.503.469V30h-.84v-7.354h.84v4.39h.079zm4.062-2.241c.054-1.055.757-1.895 2.129-1.895 1.23 0 2.07.762 2.07 1.768 0 .767-.395 1.309-1.02 1.685-.62.366-.796.64-.796 1.152v.317h-.855v-.449c-.004-.644.308-1.084.977-1.484.566-.347.786-.655.786-1.177 0-.606-.469-1.05-1.196-1.05-.737 0-1.206.435-1.26 1.133h-.835zm2.022 5.293a.654.654 0 0 1-.68-.679c0-.4.284-.683.68-.683.395 0 .673.283.673.683 0 .396-.278.679-.673.679z"/>
            </g>
            <g>
                <path fill="#D1D1D1" d="M233 232a9 9 0 1 0 0-18 9 9 0 0 0 0 18z"/>
                <path fill="#FFF" fill-rule="nonzero" d="M233 223a3.001 3.001 0 0 0 0-6 3.001 3.001 0 0 0 0 6z"/>
                <path fill="#FFF" fill-rule="nonzero" d="M237.982 225.05a4.066 4.066 0 0 0-.29-.521 3.677 3.677 0 0 0-2.503-1.526.535.535 0 0 0-.369.09 3.167 3.167 0 0 1-3.635 0 .535.535 0 0 0-.369-.09 3.632 3.632 0 0 0-2.502 1.526 2.92 2.92 0 0 0-.29.521.235.235 0 0 0 .013.23c.105.164.224.342.342.495.172.229.37.445.58.636.184.178.382.33.593.483a5.855 5.855 0 0 0 3.45 1.106c1.252 0 2.45-.381 3.452-1.106a7.36 7.36 0 0 0 .592-.483c.211-.191.409-.407.58-.636a4.79 4.79 0 0 0 .342-.496.279.279 0 0 0 .014-.229z"/>
            </g>
            <g transform="translate(143 204)">
                <rect width="77" height="28" fill="#2A90FF" rx="14"/>
                <path fill="#2A90FF" d="M76.351 12s-.223 7.108.253 10.477c.477 3.368 3.265 5.237 3.265 5.237.218.166.167.297-.104.285 0 0-4.616.082-8.727-3.247C66.928 21.422 76.351 12 76.351 12z"/>
                <path fill="#FFF" d="M12.562 16.16h.888c.108.736.81 1.205 1.812 1.205.947 0 1.645-.512 1.645-1.21 0-.601-.44-.982-1.41-1.226l-.904-.235c-1.275-.322-1.826-.898-1.826-1.9 0-1.195 1-2.006 2.49-2.006 1.362 0 2.378.81 2.451 1.948h-.884c-.122-.722-.718-1.152-1.596-1.152-.938 0-1.558.469-1.558 1.182 0 .551.386.869 1.357 1.118l.738.195c1.46.366 2.046.933 2.046 1.968 0 1.294-1.021 2.119-2.632 2.119-1.494 0-2.525-.791-2.617-2.007zm8.7-2.774c-.84 0-1.425.615-1.489 1.548h2.9c-.019-.933-.575-1.548-1.41-1.548zm1.387 3.252h.84c-.254.903-1.064 1.455-2.217 1.455-1.46 0-2.373-1.055-2.373-2.72 0-1.655.928-2.73 2.373-2.73 1.421 0 2.286 1.011 2.286 2.647v.322h-3.785v.04c.044 1.04.625 1.699 1.519 1.699.679 0 1.138-.25 1.357-.713zm3.194-1.602l2.285-2.3h1.03l-2.265 2.256L29.31 18h-1.07l-1.972-2.466-.503.469V18h-.84v-7.354h.84v4.39h.078zm6.084 2.32c.864 0 1.504-.567 1.504-1.319v-.483l-1.416.092c-.801.054-1.153.333-1.153.86 0 .537.454.85 1.065.85zm-.156.737c-1.021 0-1.778-.606-1.778-1.568 0-.942.694-1.484 1.92-1.557l1.518-.093v-.479c0-.649-.406-1.005-1.192-1.005-.63 0-1.07.239-1.186.654h-.85c.112-.845.943-1.401 2.066-1.401 1.284 0 2.002.659 2.002 1.752V18h-.801v-.776h-.078c-.342.561-.918.869-1.621.869zM35.872 18v-7.354h.84V18h-.84zm2.49 0v-5.264h.84V18h-.84zm.42-6.333a.588.588 0 0 1-.586-.586c0-.322.264-.586.586-.586.322 0 .586.264.586.586a.588.588 0 0 1-.586.586zm5.703 1.07v5.522c0 1.084-.507 1.548-1.611 1.548h-.146v-.718h.126c.596 0 .792-.235.792-.816v-5.537h.84zm-.42-1.07a.588.588 0 0 1-.586-.586c0-.322.264-.586.586-.586.323 0 .586.264.586.586a.588.588 0 0 1-.586.586zm3.643 5.688c.864 0 1.504-.566 1.504-1.318v-.483l-1.416.092c-.8.054-1.152.333-1.152.86 0 .537.454.85 1.064.85zm-.156.738c-1.02 0-1.778-.606-1.778-1.568 0-.942.694-1.484 1.92-1.557l1.518-.093v-.479c0-.649-.405-1.005-1.191-1.005-.63 0-1.07.239-1.187.654h-.85c.113-.845.943-1.401 2.066-1.401 1.284 0 2.002.659 2.002 1.752V18h-.801v-.776h-.078c-.342.561-.918.869-1.621.869zM51.653 18v-7.354h.84V18h-.84zm4.092-.645c.864 0 1.504-.566 1.504-1.318v-.483l-1.416.092c-.8.054-1.152.333-1.152.86 0 .537.454.85 1.064.85zm-.156.738c-1.02 0-1.777-.606-1.777-1.568 0-.942.693-1.484 1.918-1.557l1.519-.093v-.479c0-.649-.405-1.005-1.191-1.005-.63 0-1.07.239-1.187.654h-.85c.113-.845.943-1.401 2.066-1.401 1.284 0 2.002.659 2.002 1.752V18h-.8v-.776h-.079c-.342.561-.918.869-1.621.869zM59.642 18v-5.264h.8v.83h.079c.263-.58.776-.922 1.582-.922 1.181 0 1.84.698 1.84 1.948V18h-.84v-3.203c0-.947-.4-1.397-1.24-1.397s-1.382.562-1.382 1.485V18h-.84z"/>
            </g>
            <g>
                <path fill="#2A90FF" d="M32 196c6.627 0 12-5.373 12-12s-5.373-12-12-12-12 5.373-12 12 5.373 12 12 12z"/>
                <g transform="translate(27 176.118)">
                    <mask id="k" fill="#fff">
                        <use xlink:href="#j"/>
                    </mask>
                    <path fill="#B6DBFF" d="M2.81 15.805c-1.546 0-2.81-1.21-2.81-2.69V2.767C0 1.288 1.264.078 2.81.078c1.544 0 2.808 1.21 2.808 2.69v10.346c0 1.48-1.264 2.69-2.809 2.69" mask="url(#k)"/>
                </g>
                <g transform="translate(32.296 180.605)">
                    <mask id="m" fill="#fff">
                        <use xlink:href="#l"/>
                    </mask>
                    <path fill="#FFF" d="M5.073 8.038l-.783-.75a2.372 2.372 0 0 1 0-3.457l.414-.396a1.72 1.72 0 0 0 0-2.508C3.57-.158 1.732-.158.598.927l-.276.265v7.434c0 .37-.08.724-.222 1.046l.867.83c1.134 1.087 2.972 1.087 4.106 0 .71-.68.71-1.784 0-2.464" mask="url(#m)"/>
                </g>
                <path fill="#D4EDFF" d="M32.618 189.232v-7.434l-2.484 2.38a2.698 2.698 0 0 0-.007 3.925l-.922.883h1.843l2.216 2.122-.868-.831c.143-.322.222-.675.222-1.045"/>
            </g>
            <g transform="translate(48 156)">
                <rect width="168" height="40" fill="#F3F3F5" rx="16"/>
                <path fill="#000" d="M12.562 16.16h.888c.108.736.81 1.205 1.812 1.205.947 0 1.645-.512 1.645-1.21 0-.601-.44-.982-1.41-1.226l-.904-.235c-1.275-.322-1.826-.898-1.826-1.9 0-1.195 1-2.006 2.49-2.006 1.362 0 2.378.81 2.451 1.948h-.884c-.122-.722-.718-1.152-1.596-1.152-.938 0-1.558.469-1.558 1.182 0 .551.386.869 1.357 1.118l.738.195c1.46.366 2.046.933 2.046 1.968 0 1.294-1.021 2.119-2.632 2.119-1.494 0-2.525-.791-2.617-2.007zm8.7-2.774c-.84 0-1.425.615-1.489 1.548h2.9c-.019-.933-.575-1.548-1.41-1.548zm1.387 3.252h.84c-.254.903-1.064 1.455-2.217 1.455-1.46 0-2.373-1.055-2.373-2.72 0-1.655.928-2.73 2.373-2.73 1.421 0 2.286 1.011 2.286 2.647v.322h-3.785v.04c.044 1.04.625 1.699 1.519 1.699.679 0 1.138-.25 1.357-.713zM24.925 18v-7.354h.84V18h-.84zm4.092-.645c.864 0 1.504-.566 1.504-1.318v-.483l-1.417.092c-.8.054-1.152.333-1.152.86 0 .537.454.85 1.065.85zm-.157.738c-1.02 0-1.777-.606-1.777-1.568 0-.942.693-1.484 1.919-1.557l1.519-.093v-.479c0-.649-.406-1.005-1.192-1.005-.63 0-1.07.239-1.186.654h-.85c.112-.845.942-1.401 2.065-1.401 1.285 0 2.002.659 2.002 1.752V18h-.8v-.776h-.079c-.341.561-.918.869-1.62.869zM32.913 18v-5.264h.8v.83h.079c.24-.586.767-.922 1.47-.922.713 0 1.21.376 1.455.922h.078c.283-.556.884-.922 1.611-.922 1.074 0 1.675.615 1.675 1.718V18h-.84v-3.442c0-.777-.366-1.158-1.108-1.158-.733 0-1.22.547-1.22 1.216V18h-.84v-3.574c0-.625-.435-1.026-1.1-1.026-.688 0-1.22.596-1.22 1.338V18h-.84zm10.322-.645c.865 0 1.504-.566 1.504-1.318v-.483l-1.416.092c-.8.054-1.152.333-1.152.86 0 .537.454.85 1.064.85zm-.156.738c-1.02 0-1.777-.606-1.777-1.568 0-.942.693-1.484 1.919-1.557l1.518-.093v-.479c0-.649-.405-1.005-1.191-1.005-.63 0-1.07.239-1.187.654h-.85c.113-.845.943-1.401 2.066-1.401 1.284 0 2.002.659 2.002 1.752V18h-.8v-.776H44.7c-.342.561-.918.869-1.62.869zm4.404-6.719h.84v1.362h1.172v.703h-1.172v2.979c0 .62.235.884.781.884.152 0 .235-.005.391-.02v.708c-.166.03-.327.05-.493.05-1.084 0-1.519-.401-1.519-1.407v-3.194h-.85v-.703h.85v-1.362zm5.982 2.803c0-.874.845-1.533 1.963-1.533 1.103 0 1.87.546 1.982 1.41h-.83c-.112-.42-.522-.698-1.157-.698-.625 0-1.113.318-1.113.787 0 .36.293.586.913.737l.81.195c.991.24 1.47.67 1.47 1.426 0 .942-.913 1.592-2.11 1.592-1.171 0-1.977-.562-2.07-1.436h.864c.142.445.562.728 1.236.728.708 0 1.216-.337 1.216-.82 0-.362-.274-.606-.835-.743l-.904-.22c-.986-.239-1.435-.664-1.435-1.425zM58.84 18v-5.264h.84V18h-.84zm.42-6.333a.588.588 0 0 1-.586-.586c0-.322.263-.586.586-.586.322 0 .586.264.586.586a.588.588 0 0 1-.586.586zm3.642 5.688c.865 0 1.504-.566 1.504-1.318v-.483l-1.416.092c-.8.054-1.152.333-1.152.86 0 .537.454.85 1.064.85zm-.156.738c-1.02 0-1.777-.606-1.777-1.568 0-.942.693-1.484 1.919-1.557l1.518-.093v-.479c0-.649-.405-1.005-1.191-1.005-.63 0-1.07.239-1.187.654h-.85c.113-.845.943-1.401 2.066-1.401 1.284 0 2.002.659 2.002 1.752V18h-.8v-.776h-.079c-.342.561-.918.869-1.62.869zM66.8 18v-5.264h.8v.83h.079c.263-.58.776-.922 1.582-.922 1.181 0 1.84.698 1.84 1.948V18h-.84v-3.203c0-.947-.4-1.397-1.24-1.397s-1.381.562-1.381 1.485V18h-.84zm9.526-2.71c0-1.147-.59-1.89-1.562-1.89-.977 0-1.524.743-1.524 1.89 0 1.148.547 1.89 1.524 1.89.976 0 1.562-.742 1.562-1.89zm-1.523 4.731c-1.27 0-2.08-.57-2.207-1.44h.888c.093.43.562.708 1.319.708.942 0 1.504-.464 1.504-1.24v-1.035h-.078c-.333.58-.928.908-1.65.908-1.363 0-2.208-1.055-2.208-2.632 0-1.577.855-2.646 2.207-2.646.737 0 1.387.36 1.69.927h.078v-.835h.8v5.357c0 1.177-.908 1.928-2.343 1.928zm4.199-9.072h.977l-.083 4.707h-.811l-.083-4.707zm-.186 6.46c0-.4.284-.683.68-.683.395 0 .673.283.673.683 0 .396-.278.679-.674.679a.654.654 0 0 1-.679-.679zM87.48 18h-.88v-6.255h-2.27v-.79h5.42v.79h-2.27V18zm3.54 0v-5.264h.84V18h-.84zm.42-6.333a.588.588 0 0 1-.586-.586c0-.322.263-.586.585-.586.323 0 .586.264.586.586a.588.588 0 0 1-.586.586zm2.988 3.37l2.285-2.3h1.03l-2.265 2.255L97.894 18h-1.07l-1.972-2.466-.503.469V18h-.84v-7.354h.84v4.39h.078zm6.562-1.651c-.84 0-1.426.615-1.489 1.548h2.9c-.02-.933-.576-1.548-1.41-1.548zm1.387 3.252h.84c-.254.903-1.065 1.455-2.217 1.455-1.46 0-2.373-1.055-2.373-2.72 0-1.655.928-2.73 2.373-2.73 1.42 0 2.285 1.011 2.285 2.647v.322H99.5v.04c.044 1.04.625 1.699 1.519 1.699.678 0 1.137-.25 1.357-.713zm2.578-5.264h.84v1.362h1.172v.703h-1.172v2.979c0 .62.234.884.781.884.152 0 .235-.005.39-.02v.708c-.165.03-.326.05-.492.05-1.084 0-1.519-.401-1.519-1.407v-3.194h-.85v-.703h.85v-1.362zM108.235 18v-5.264h.801v.83h.078c.264-.58.777-.922 1.582-.922 1.182 0 1.841.698 1.841 1.948V18h-.84v-3.203c0-.947-.4-1.397-1.24-1.397s-1.382.562-1.382 1.485V18h-.84zm6.285 1.904c-.113 0-.26-.01-.376-.029v-.718c.102.02.234.025.351.025.484 0 .747-.23.967-.865l.098-.312-1.949-5.269h.909l1.445 4.331h.078l1.44-4.33h.894l-2.056 5.585c-.449 1.221-.869 1.582-1.801 1.582zm6.601-2.549c.864 0 1.504-.566 1.504-1.318v-.483l-1.416.092c-.8.054-1.152.333-1.152.86 0 .537.454.85 1.064.85zm-.156.738c-1.02 0-1.778-.606-1.778-1.568 0-.942.694-1.484 1.92-1.557l1.518-.093v-.479c0-.649-.405-1.005-1.191-1.005-.63 0-1.07.239-1.187.654h-.85c.113-.845.943-1.401 2.066-1.401 1.284 0 2.002.659 2.002 1.752V18h-.8v-.776h-.08c-.34.561-.917.869-1.62.869zm11.133-5.357V18h-.801v-.825h-.078c-.264.586-.825.918-1.631.918-1.182 0-1.797-.703-1.797-1.948v-3.409h.84v3.203c0 .948.351 1.387 1.191 1.387.928 0 1.436-.552 1.436-1.474v-3.116h.84zM133.68 18v-5.264h.8v.83h.079c.263-.58.776-.922 1.582-.922 1.181 0 1.84.698 1.84 1.948V18h-.84v-3.203c0-.947-.4-1.397-1.24-1.397s-1.381.562-1.381 1.485V18h-.84zm6.186-6.626h.84v1.362h1.172v.703h-1.172v2.979c0 .62.234.884.781.884.152 0 .235-.005.39-.02v.708c-.165.03-.326.05-.492.05-1.084 0-1.519-.401-1.519-1.407v-3.194h-.85v-.703h.85v-1.362zm7.54 1.362V18h-.802v-.825h-.078c-.263.586-.825.918-1.63.918-1.182 0-1.797-.703-1.797-1.948v-3.409h.84v3.203c0 .948.351 1.387 1.19 1.387.929 0 1.436-.552 1.436-1.474v-3.116h.84zm2.548 2.3l2.285-2.3h1.03l-2.265 2.256L153.42 18h-1.07l-1.972-2.466-.503.469V18h-.84v-7.354h.84v4.39h.078zm-134.6 9.608c1.343 0 2.212 1.069 2.212 2.724 0 1.646-.874 2.725-2.212 2.725-.751 0-1.357-.327-1.645-.884h-.078v2.549h-.84v-7.022h.8v.88h.079a1.898 1.898 0 0 1 1.684-.972zm-.2 4.692c.967 0 1.543-.737 1.543-1.968 0-1.23-.576-1.968-1.538-1.968-.952 0-1.553.757-1.553 1.968 0 1.206.601 1.968 1.548 1.968zm7.989-4.6V30h-.801v-.825h-.078c-.264.586-.826.918-1.631.918-1.182 0-1.797-.703-1.797-1.948v-3.409h.84v3.203c0 .948.351 1.387 1.191 1.387.928 0 1.436-.552 1.436-1.474v-3.116h.84zM24.773 30v-7.354h.84V30h-.84zm4.092-.645c.864 0 1.504-.566 1.504-1.318v-.483l-1.416.092c-.8.054-1.152.333-1.152.86 0 .537.454.85 1.064.85zm-.156.738c-1.02 0-1.777-.606-1.777-1.568 0-.942.693-1.484 1.919-1.557l1.518-.093v-.479c0-.649-.405-1.005-1.191-1.005-.63 0-1.07.239-1.187.654h-.85c.113-.845.943-1.401 2.066-1.401 1.284 0 2.002.659 2.002 1.752V30h-.8v-.776h-.079c-.342.561-.918.869-1.621.869zM32.762 30v-5.264h.8v.83h.079c.263-.58.776-.922 1.582-.922 1.181 0 1.84.698 1.84 1.948V30h-.84v-3.203c0-.947-.4-1.397-1.24-1.397s-1.381.562-1.381 1.485V30h-.84zm9.526-2.71c0-1.147-.59-1.89-1.562-1.89-.977 0-1.524.743-1.524 1.89 0 1.148.547 1.89 1.524 1.89.976 0 1.562-.742 1.562-1.89zm-1.523 4.731c-1.27 0-2.08-.57-2.207-1.44h.888c.093.43.562.708 1.319.708.942 0 1.504-.464 1.504-1.24v-1.035h-.079c-.332.58-.927.908-1.65.908-1.362 0-2.207-1.055-2.207-2.632 0-1.577.855-2.646 2.207-2.646.737 0 1.387.36 1.69.927h.078v-.835h.8v5.357c0 1.177-.908 1.928-2.343 1.928zm7.094-4.458h-3.203v-.795h3.203v.795zm4.112-2.92c1.342 0 2.212 1.07 2.212 2.725 0 1.646-.874 2.725-2.212 2.725-.752 0-1.358-.327-1.646-.884h-.078v2.549h-.84v-7.022h.801v.88h.078a1.898 1.898 0 0 1 1.685-.972zm-.2 4.693c.966 0 1.542-.737 1.542-1.968 0-1.23-.576-1.968-1.538-1.968-.952 0-1.552.757-1.552 1.968 0 1.206.6 1.968 1.548 1.968zm5.83-3.95c-.84 0-1.426.615-1.49 1.548h2.9c-.019-.933-.575-1.548-1.41-1.548zm1.386 3.252h.84c-.254.903-1.064 1.455-2.217 1.455-1.46 0-2.373-1.055-2.373-2.72 0-1.655.928-2.73 2.373-2.73 1.421 0 2.286 1.011 2.286 2.647v.322H56.11v.04c.044 1.04.625 1.699 1.519 1.699.679 0 1.138-.25 1.357-.713zM61.214 30v-5.264h.8v.782h.079c.156-.513.761-.874 1.46-.874.136 0 .312.01.42.024v.84a3.372 3.372 0 0 0-.537-.049c-.801 0-1.382.537-1.382 1.28V30h-.84zm7.5-2.71c0-1.147-.591-1.89-1.563-1.89-.976 0-1.523.743-1.523 1.89 0 1.148.547 1.89 1.523 1.89.977 0 1.563-.742 1.563-1.89zm-1.524 4.731c-1.27 0-2.08-.57-2.207-1.44h.89c.092.43.56.708 1.317.708.943 0 1.504-.464 1.504-1.24v-1.035h-.078c-.332.58-.928.908-1.65.908-1.362 0-2.207-1.055-2.207-2.632 0-1.577.854-2.646 2.207-2.646.737 0 1.387.36 1.69.927h.077v-.835h.801v5.357c0 1.177-.908 1.928-2.344 1.928zM71.136 30v-5.264h.84V30h-.84zm.42-6.333a.588.588 0 0 1-.586-.586c0-.322.263-.586.586-.586.322 0 .586.264.586.586a.588.588 0 0 1-.586.586zm6.465 5.688c.864 0 1.503-.566 1.503-1.318v-.483l-1.416.092c-.8.054-1.152.333-1.152.86 0 .537.454.85 1.065.85zm-.157.738c-1.02 0-1.777-.606-1.777-1.568 0-.942.693-1.484 1.919-1.557l1.518-.093v-.479c0-.649-.405-1.005-1.191-1.005-.63 0-1.07.239-1.187.654h-.85c.113-.845.943-1.401 2.066-1.401 1.284 0 2.002.659 2.002 1.752V30h-.8v-.776h-.079c-.341.561-.918.869-1.62.869zm4.405-6.719h.84v1.362h1.171v.703h-1.172v2.979c0 .62.235.884.782.884.151 0 .234-.005.39-.02v.708c-.166.03-.327.05-.493.05-1.084 0-1.518-.401-1.518-1.407v-3.194h-.85v-.703h.85v-1.362zm4.902 5.981c.864 0 1.504-.566 1.504-1.318v-.483l-1.416.092c-.801.054-1.153.333-1.153.86 0 .537.455.85 1.065.85zm-.156.738c-1.02 0-1.778-.606-1.778-1.568 0-.942.694-1.484 1.92-1.557l1.518-.093v-.479c0-.649-.405-1.005-1.192-1.005-.63 0-1.069.239-1.186.654h-.85c.113-.845.943-1.401 2.066-1.401 1.284 0 2.002.659 2.002 1.752V30h-.801v-.776h-.078c-.342.561-.918.869-1.621.869zm8.31-5.357V30h-.8v-.825h-.079c-.263.586-.825.918-1.63.918-1.182 0-1.797-.703-1.797-1.948v-3.409h.84v3.203c0 .948.351 1.387 1.19 1.387.929 0 1.436-.552 1.436-1.474v-3.116h.84zm4.282 1.44c0-.873.845-1.532 1.963-1.532 1.104 0 1.87.546 1.983 1.41h-.83c-.113-.42-.523-.698-1.158-.698-.625 0-1.113.318-1.113.787 0 .36.293.586.913.737l.81.195c.992.24 1.47.67 1.47 1.426 0 .942-.913 1.592-2.109 1.592-1.172 0-1.977-.562-2.07-1.436h.864c.142.445.562.728 1.235.728.708 0 1.216-.337 1.216-.82 0-.362-.273-.606-.835-.743l-.903-.22c-.986-.239-1.436-.664-1.436-1.425zm7.456-.79c-.84 0-1.425.615-1.489 1.548h2.9c-.019-.933-.576-1.548-1.41-1.548zm1.387 3.252h.84c-.254.903-1.064 1.455-2.217 1.455-1.46 0-2.373-1.055-2.373-2.72 0-1.655.928-2.73 2.373-2.73 1.421 0 2.285 1.011 2.285 2.647v.322h-3.784v.04c.044 1.04.625 1.699 1.519 1.699.678 0 1.137-.25 1.357-.713zm3.194-1.602l2.285-2.3h1.03l-2.266 2.256L115.11 30h-1.069l-1.973-2.466-.503.469V30h-.84v-7.354h.84v4.39h.079zm6.084 2.32c.864 0 1.503-.567 1.503-1.319v-.483l-1.416.092c-.8.054-1.152.333-1.152.86 0 .537.454.85 1.065.85zm-.157.737c-1.02 0-1.777-.606-1.777-1.568 0-.942.693-1.484 1.919-1.557l1.518-.093v-.479c0-.649-.405-1.005-1.191-1.005-.63 0-1.07.239-1.186.654h-.85c.112-.845.942-1.401 2.065-1.401 1.285 0 2.002.659 2.002 1.752V30h-.8v-.776h-.079c-.341.561-.918.869-1.62.869zm4.102-.093v-7.354h.84V30h-.84zm2.49 0v-5.264h.84V30h-.84zm.42-6.333a.588.588 0 0 1-.586-.586c0-.322.264-.586.586-.586.322 0 .586.264.586.586a.588.588 0 0 1-.586.586zm5.703 1.07v5.522c0 1.084-.508 1.548-1.611 1.548h-.147v-.718h.127c.596 0 .791-.235.791-.816v-5.537h.84zm-.42-1.07a.588.588 0 0 1-.586-.586c0-.322.264-.586.586-.586.322 0 .586.264.586.586a.588.588 0 0 1-.586.586zm3.643 5.688c.864 0 1.504-.566 1.504-1.318v-.483l-1.416.092c-.801.054-1.153.333-1.153.86 0 .537.454.85 1.065.85zm-.156.738c-1.021 0-1.778-.606-1.778-1.568 0-.942.694-1.484 1.92-1.557l1.518-.093v-.479c0-.649-.406-1.005-1.192-1.005-.63 0-1.069.239-1.186.654h-.85c.112-.845.943-1.401 2.066-1.401 1.284 0 2.002.659 2.002 1.752V30h-.801v-.776h-.078c-.342.561-.918.869-1.621.869zm4.101-.093v-7.354h.84V30h-.84zm4.092-.645c.864 0 1.504-.566 1.504-1.318v-.483l-1.416.092c-.801.054-1.153.333-1.153.86 0 .537.455.85 1.065.85zm-.156.738c-1.02 0-1.778-.606-1.778-1.568 0-.942.694-1.484 1.92-1.557l1.518-.093v-.479c0-.649-.405-1.005-1.192-1.005-.63 0-1.069.239-1.186.654h-.85c.113-.845.943-1.401 2.066-1.401 1.284 0 2.002.659 2.002 1.752V30h-.801v-.776h-.078c-.342.561-.918.869-1.621.869zm4.052-.093v-5.264h.801v.83h.078c.264-.58.777-.922 1.582-.922 1.182 0 1.841.698 1.841 1.948V30h-.84v-3.203c0-.947-.4-1.397-1.24-1.397s-1.382.562-1.382 1.485V30h-.84zm5.435-5.205c.054-1.055.757-1.895 2.129-1.895 1.23 0 2.07.762 2.07 1.768 0 .767-.395 1.309-1.02 1.685-.62.366-.796.64-.796 1.152v.317h-.855v-.449c-.005-.644.308-1.084.977-1.484.566-.347.786-.655.786-1.177 0-.606-.469-1.05-1.196-1.05-.738 0-1.206.435-1.26 1.133h-.835zm2.021 5.293a.654.654 0 0 1-.678-.679c0-.4.283-.683.678-.683.396 0 .674.283.674.683 0 .396-.278.679-.674.679z"/>
            </g>
            <g>
                <path fill="#D1D1D1" d="M233 148a9 9 0 1 0 0-18 9 9 0 0 0 0 18z"/>
                <path fill="#FFF" fill-rule="nonzero" d="M233 139a3.001 3.001 0 0 0 0-6 3.001 3.001 0 0 0 0 6z"/>
                <path fill="#FFF" fill-rule="nonzero" d="M237.982 141.05a4.066 4.066 0 0 0-.29-.521 3.677 3.677 0 0 0-2.503-1.526.535.535 0 0 0-.369.09 3.167 3.167 0 0 1-3.635 0 .535.535 0 0 0-.369-.09 3.632 3.632 0 0 0-2.502 1.526 2.92 2.92 0 0 0-.29.521.235.235 0 0 0 .013.23c.105.164.224.342.342.495.172.229.37.445.58.636.184.178.382.33.593.483a5.855 5.855 0 0 0 3.45 1.106c1.252 0 2.45-.381 3.452-1.106a7.36 7.36 0 0 0 .592-.483c.211-.191.409-.407.58-.636a4.79 4.79 0 0 0 .342-.496.279.279 0 0 0 .014-.229z"/>
            </g>
            <g transform="translate(48 108)">
                <rect width="172" height="40" fill="#2A90FF" rx="16"/>
                <path fill="#2A90FF" d="M171.351 24s-.223 7.108.253 10.477c.477 3.368 3.265 5.237 3.265 5.237.218.166.167.297-.104.285 0 0-4.616.082-8.727-3.247-4.11-3.33 5.313-12.752 5.313-12.752z"/>
                <path fill="#FFF" d="M18.523 18h-.878v-3.208h-3.868V18h-.879v-7.046h.88v3.047h3.867v-3.047h.878V18zm3.311-.645c.864 0 1.504-.566 1.504-1.318v-.483l-1.416.092c-.8.054-1.152.333-1.152.86 0 .537.454.85 1.064.85zm-.156.738c-1.02 0-1.778-.606-1.778-1.568 0-.942.694-1.484 1.92-1.557l1.518-.093v-.479c0-.649-.405-1.005-1.192-1.005-.63 0-1.069.239-1.186.654h-.85c.113-.845.943-1.401 2.066-1.401 1.284 0 2.002.659 2.002 1.752V18h-.801v-.776h-.078c-.342.561-.918.869-1.621.869zM25.779 18v-7.354h.84V18h-.84zm4.634-.664c.996 0 1.558-.723 1.558-1.968 0-1.25-.562-1.968-1.558-1.968s-1.558.718-1.558 1.968c0 1.245.562 1.968 1.558 1.968zm0 .757c-1.499 0-2.427-1.035-2.427-2.725 0-1.694.928-2.724 2.427-2.724 1.5 0 2.427 1.03 2.427 2.724 0 1.69-.928 2.725-2.427 2.725zm4.346 1.699h-.733l.47-2.778h.985l-.722 2.778zM39.949 18v-5.264h.801v.83h.078c.24-.586.767-.922 1.47-.922.713 0 1.21.376 1.455.922h.078c.283-.556.884-.922 1.611-.922 1.075 0 1.675.615 1.675 1.718V18h-.84v-3.442c0-.777-.366-1.158-1.108-1.158-.732 0-1.22.547-1.22 1.216V18h-.84v-3.574c0-.625-.435-1.026-1.1-1.026-.688 0-1.22.596-1.22 1.338V18h-.84zm10.322-.645c.865 0 1.504-.566 1.504-1.318v-.483l-1.416.092c-.8.054-1.152.333-1.152.86 0 .537.454.85 1.064.85zm-.156.738c-1.02 0-1.777-.606-1.777-1.568 0-.942.693-1.484 1.919-1.557l1.518-.093v-.479c0-.649-.405-1.005-1.191-1.005-.63 0-1.07.239-1.187.654h-.85c.113-.845.943-1.401 2.066-1.401 1.284 0 2.002.659 2.002 1.752V18h-.8v-.776h-.079c-.341.561-.918.869-1.62.869zm8.31-5.357V18h-.8v-.825h-.078c-.264.586-.825.918-1.631.918-1.182 0-1.797-.703-1.797-1.948v-3.409h.84v3.203c0 .948.352 1.387 1.191 1.387.928 0 1.436-.552 1.436-1.474v-3.116h.84zm6.969-.092c1.342 0 2.211 1.069 2.211 2.724 0 1.646-.874 2.725-2.211 2.725-.752 0-1.358-.327-1.646-.884h-.078v2.549h-.84v-7.022h.8v.88h.079a1.898 1.898 0 0 1 1.685-.972zm-.2 4.692c.966 0 1.542-.737 1.542-1.968 0-1.23-.576-1.968-1.538-1.968-.952 0-1.552.757-1.552 1.968 0 1.206.6 1.968 1.547 1.968zm5.83-3.95c-.84 0-1.426.615-1.49 1.548h2.9c-.019-.933-.576-1.548-1.41-1.548zm1.386 3.252h.84c-.254.903-1.064 1.455-2.217 1.455-1.46 0-2.373-1.055-2.373-2.72 0-1.655.928-2.73 2.373-2.73 1.421 0 2.285 1.011 2.285 2.647v.322h-3.784v.04c.044 1.04.625 1.699 1.519 1.699.678 0 1.137-.25 1.357-.713zm2.105-2.461c0-.874.844-1.533 1.963-1.533 1.103 0 1.87.546 1.982 1.41h-.83c-.112-.42-.523-.698-1.157-.698-.625 0-1.114.318-1.114.787 0 .36.293.586.913.737l.811.195c.991.24 1.47.67 1.47 1.426 0 .942-.913 1.592-2.11 1.592-1.172 0-1.977-.562-2.07-1.436h.864c.142.445.562.728 1.236.728.708 0 1.215-.337 1.215-.82 0-.362-.273-.606-.834-.743l-.904-.22c-.986-.239-1.435-.664-1.435-1.425zm7.456-.791c-.84 0-1.426.615-1.49 1.548h2.9c-.019-.933-.575-1.548-1.41-1.548zm1.386 3.252h.84c-.254.903-1.064 1.455-2.217 1.455-1.46 0-2.373-1.055-2.373-2.72 0-1.655.928-2.73 2.373-2.73 1.421 0 2.286 1.011 2.286 2.647v.322H80.48v.04c.044 1.04.625 1.699 1.519 1.699.679 0 1.138-.25 1.357-.713zM85.584 18v-5.264h.8v.83h.079c.264-.58.776-.922 1.582-.922 1.182 0 1.84.698 1.84 1.948V18h-.84v-3.203c0-.947-.4-1.397-1.24-1.397s-1.381.562-1.381 1.485V18h-.84zm10.337 0v-6.07h-.078l-1.792 1.3v-.928l1.875-1.348h.874V18h-.88zm6.157-6.626h.84v1.362h1.172v.703h-1.172v2.979c0 .62.234.884.781.884.152 0 .235-.005.39-.02v.708c-.165.03-.326.05-.492.05-1.084 0-1.519-.401-1.519-1.407v-3.194h-.85v-.703h.85v-1.362zm3.3 6.626v-5.264h.84V18h-.84zm.42-6.333a.588.588 0 0 1-.585-.586c0-.322.264-.586.586-.586.322 0 .586.264.586.586a.588.588 0 0 1-.586.586zm2.99 3.37l2.284-2.3h1.03l-2.265 2.255L112.254 18h-1.07l-1.972-2.466-.503.469V18h-.84v-7.354h.84v4.39h.078zm6.562-1.651c-.84 0-1.426.615-1.49 1.548h2.9c-.019-.933-.575-1.548-1.41-1.548zm1.386 3.252h.84c-.254.903-1.064 1.455-2.217 1.455-1.46 0-2.373-1.055-2.373-2.72 0-1.655.928-2.73 2.373-2.73 1.421 0 2.286 1.011 2.286 2.647v.322h-3.785v.04c.044 1.04.625 1.699 1.519 1.699.679 0 1.138-.25 1.357-.713zm2.578-5.264h.84v1.362h1.172v.703h-1.172v2.979c0 .62.235.884.782.884.15 0 .234-.005.39-.02v.708c-.166.03-.327.05-.493.05-1.084 0-1.519-.401-1.519-1.407v-3.194h-.85v-.703h.85v-1.362zm6.963 1.362v5.523c0 1.084-.507 1.548-1.611 1.548h-.146v-.718h.126c.596 0 .791-.235.791-.816v-5.537h.84zm-.42-1.069a.588.588 0 0 1-.586-.586c0-.322.264-.586.586-.586.323 0 .586.264.586.586a.588.588 0 0 1-.586.586zm2.989 3.37l2.285-2.3h1.03l-2.265 2.255L132.313 18h-1.07l-1.972-2.466-.503.469V18h-.84v-7.354h.84v4.39h.078zm4.814-3.663h.84v1.362h1.172v.703H134.5v2.979c0 .62.234.884.781.884.152 0 .235-.005.39-.02v.708c-.165.03-.326.05-.492.05-1.084 0-1.519-.401-1.519-1.407v-3.194h-.85v-.703h.85v-1.362zm6.45 4.19h-3.203v-.796h3.203v.795zm1.426-1.387c0-.874.845-1.533 1.963-1.533 1.104 0 1.87.546 1.982 1.41h-.83c-.112-.42-.522-.698-1.157-.698-.625 0-1.113.318-1.113.787 0 .36.293.586.913.737l.81.195c.992.24 1.47.67 1.47 1.426 0 .942-.913 1.592-2.11 1.592-1.171 0-1.977-.562-2.07-1.436h.865c.141.445.561.728 1.235.728.708 0 1.216-.337 1.216-.82 0-.362-.273-.606-.835-.743l-.903-.22c-.987-.239-1.436-.664-1.436-1.425zm7.974 3.916c-.733 0-1.358-.347-1.69-.933h-.078V18h-.8v-7.354h.84v2.92h.077c.288-.566.928-.922 1.65-.922 1.339 0 2.208 1.069 2.208 2.724 0 1.646-.874 2.725-2.207 2.725zm-.196-4.693c-.957 0-1.552.752-1.552 1.968s.595 1.968 1.552 1.968c.962 0 1.534-.737 1.534-1.968 0-1.23-.572-1.968-1.534-1.968zm4.17 6.504c-.112 0-.258-.01-.376-.029v-.718c.103.02.235.025.352.025.483 0 .747-.23.967-.865l.097-.312-1.948-5.269h.908l1.446 4.331h.078l1.44-4.33h.894l-2.056 5.585c-.45 1.221-.869 1.582-1.802 1.582zM17.05 24.736V30h-.801v-.825h-.078c-.264.586-.825.918-1.63.918-1.183 0-1.798-.703-1.798-1.948v-3.409h.84v3.203c0 .948.352 1.387 1.191 1.387.928 0 1.436-.552 1.436-1.474v-3.116h.84zM18.63 30v-5.264h.8v.83h.079c.263-.58.776-.922 1.582-.922 1.181 0 1.84.698 1.84 1.948V30h-.84v-3.203c0-.947-.4-1.397-1.24-1.397s-1.381.562-1.381 1.485V30h-.84zm6.186-6.626h.84v1.362h1.172v.703h-1.172v2.979c0 .62.235.884.781.884.152 0 .235-.005.391-.02v.708c-.166.03-.327.05-.493.05-1.084 0-1.519-.401-1.519-1.407v-3.194h-.85v-.703h.85v-1.362zm7.54 1.362V30h-.801v-.825h-.078c-.264.586-.826.918-1.631.918-1.182 0-1.797-.703-1.797-1.948v-3.409h.84v3.203c0 .948.351 1.387 1.191 1.387.928 0 1.436-.552 1.436-1.474v-3.116h.84zm2.548 2.3l2.285-2.3h1.03l-2.265 2.256L38.372 30h-1.07l-1.972-2.466-.503.469V30h-.84v-7.354h.84v4.39h.078zm7.163-.86c0-.873.845-1.532 1.963-1.532 1.104 0 1.87.546 1.983 1.41h-.83c-.113-.42-.523-.698-1.158-.698-.625 0-1.113.318-1.113.787 0 .36.293.586.913.737l.81.195c.992.24 1.47.67 1.47 1.426 0 .942-.913 1.592-2.109 1.592-1.172 0-1.977-.562-2.07-1.436h.864c.142.445.562.728 1.235.728.708 0 1.216-.337 1.216-.82 0-.362-.273-.606-.835-.743l-.903-.22c-.986-.239-1.436-.664-1.436-1.425zm7.456-.79c-.84 0-1.425.615-1.489 1.548h2.9c-.019-.933-.576-1.548-1.41-1.548zm1.387 3.252h.84c-.254.903-1.064 1.455-2.217 1.455-1.46 0-2.373-1.055-2.373-2.72 0-1.655.928-2.73 2.373-2.73 1.421 0 2.285 1.011 2.285 2.647v.322h-3.784v.04c.044 1.04.625 1.699 1.519 1.699.678 0 1.137-.25 1.357-.713zM53.138 30v-5.264h.8v.83h.079c.263-.58.776-.922 1.582-.922 1.181 0 1.84.698 1.84 1.948V30h-.84v-3.203c0-.947-.4-1.397-1.24-1.397s-1.381.562-1.381 1.485V30h-.84zm5.854 0v-5.264h.84V30h-.84zm.42-6.333a.588.588 0 0 1-.586-.586c0-.322.264-.586.586-.586.322 0 .586.264.586.586a.588.588 0 0 1-.586.586zM61.434 30v-5.264h.8v.83h.078c.264-.58.777-.922 1.583-.922 1.181 0 1.84.698 1.84 1.948V30h-.84v-3.203c0-.947-.4-1.397-1.24-1.397s-1.382.562-1.382 1.485V30h-.84zm10.605.093c-1.348 0-2.212-1.07-2.212-2.725 0-1.65.874-2.724 2.212-2.724.732 0 1.353.346 1.65.922h.074v-2.92h.84V30h-.801v-.84h-.078c-.332.586-.957.933-1.685.933zm.195-4.693c-.957 0-1.538.743-1.538 1.968 0 1.23.576 1.968 1.538 1.968.957 0 1.548-.752 1.548-1.968 0-1.206-.595-1.968-1.548-1.968zm6.099-.014c-.84 0-1.426.615-1.49 1.548h2.901c-.02-.933-.576-1.548-1.411-1.548zm1.387 3.252h.84c-.254.903-1.065 1.455-2.217 1.455-1.46 0-2.373-1.055-2.373-2.72 0-1.655.927-2.73 2.373-2.73 1.42 0 2.285 1.011 2.285 2.647v.322h-3.784v.04c.044 1.04.625 1.699 1.518 1.699.679 0 1.138-.25 1.358-.713zm4.79-3.994c1.343 0 2.212 1.069 2.212 2.724 0 1.646-.874 2.725-2.212 2.725-.752 0-1.358-.327-1.646-.884h-.078v2.549h-.84v-7.022h.801v.88h.078a1.898 1.898 0 0 1 1.685-.972zm-.2 4.692c.966 0 1.543-.737 1.543-1.968 0-1.23-.577-1.968-1.539-1.968-.952 0-1.552.757-1.552 1.968 0 1.206.6 1.968 1.548 1.968zm5.351.02c.864 0 1.504-.567 1.504-1.319v-.483l-1.416.092c-.8.054-1.152.333-1.152.86 0 .537.454.85 1.064.85zm-.156.737c-1.02 0-1.777-.606-1.777-1.568 0-.942.693-1.484 1.918-1.557l1.519-.093v-.479c0-.649-.405-1.005-1.191-1.005-.63 0-1.07.239-1.187.654h-.85c.113-.845.943-1.401 2.066-1.401 1.284 0 2.002.659 2.002 1.752V30h-.8v-.776h-.079c-.342.561-.918.869-1.621.869zM93.558 30v-5.264h.8v.83h.079c.263-.58.776-.922 1.582-.922 1.181 0 1.84.698 1.84 1.948V30h-.84v-3.203c0-.947-.4-1.397-1.24-1.397s-1.382.562-1.382 1.485V30h-.84zm10.605.093c-1.348 0-2.212-1.07-2.212-2.725 0-1.65.874-2.724 2.212-2.724.733 0 1.353.346 1.65.922h.074v-2.92h.84V30h-.801v-.84h-.078c-.332.586-.957.933-1.685.933zm.195-4.693c-.957 0-1.538.743-1.538 1.968 0 1.23.576 1.968 1.538 1.968.957 0 1.548-.752 1.548-1.968 0-1.206-.595-1.968-1.548-1.968zm6.163 3.936c.996 0 1.557-.723 1.557-1.968 0-1.25-.561-1.968-1.557-1.968-.997 0-1.558.718-1.558 1.968 0 1.245.561 1.968 1.558 1.968zm0 .757c-1.5 0-2.427-1.035-2.427-2.725 0-1.694.927-2.724 2.427-2.724 1.499 0 2.426 1.03 2.426 2.724 0 1.69-.927 2.725-2.426 2.725zm3.745-.093v-5.264h.8v.83h.079c.263-.58.776-.922 1.582-.922 1.181 0 1.84.698 1.84 1.948V30h-.84v-3.203c0-.947-.4-1.397-1.24-1.397s-1.382.562-1.382 1.485V30h-.84zm9.526-2.71c0-1.147-.59-1.89-1.563-1.89-.976 0-1.523.743-1.523 1.89 0 1.148.547 1.89 1.523 1.89.977 0 1.563-.742 1.563-1.89zm-1.523 4.731c-1.27 0-2.08-.57-2.207-1.44h.888c.093.43.562.708 1.319.708.942 0 1.503-.464 1.503-1.24v-1.035h-.078c-.332.58-.927.908-1.65.908-1.362 0-2.207-1.055-2.207-2.632 0-1.577.854-2.646 2.207-2.646.737 0 1.387.36 1.69.927h.078v-.835h.8v5.357c0 1.177-.908 1.928-2.343 1.928z"/>
            </g>
        </g>
    </g>
</svg>
