<svg xmlns="http://www.w3.org/2000/svg" xmlns:xlink="http://www.w3.org/1999/xlink" viewBox="0 0 109.18 109.18">
  <defs>
    <style>
      .cls-1 {
        fill: #fff;
      }

      .cls-2 {
        fill: #0044a9;
      }

      .cls-3 {
        filter: url(#Path_1924);
      }
    </style>
    <filter id="Path_1924" x="0" y="0" width="109.18" height="109.18" filterUnits="userSpaceOnUse">
      <feOffset dy="3" input="SourceAlpha"/>
      <feGaussianBlur stdDeviation="3" result="blur"/>
      <feFlood flood-opacity="0.161"/>
      <feComposite operator="in" in2="blur"/>
      <feComposite in="SourceGraphic"/>
    </filter>
  </defs>
  <g id="Group_2621" data-name="Group 2621" transform="translate(-976 -5170)">
    <g class="cls-3" transform="matrix(1, 0, 0, 1, 976, 5170)">
      <path id="Path_1924-2" data-name="Path 1924" class="cls-1" d="M45.59,0A45.59,45.59,0,1,1,0,45.59,45.59,45.59,0,0,1,45.59,0Z" transform="translate(9 6)"/>
    </g>
    <g id="Group_2351" data-name="Group 2351" transform="translate(16194.797 -1307.195)">
      <path id="Path_1933" data-name="Path 1933" class="cls-2" d="M415.454,283.509a8.086,8.086,0,0,0-5.81,7.748v7.269a.808.808,0,0,0,.807.808h14.539a.808.808,0,0,0,.808-.808v-7.269a8.087,8.087,0,0,0-5.81-7.748,5.654,5.654,0,1,0-4.535,0Zm8.729,7.748v6.461H411.26v-6.461a6.462,6.462,0,1,1,12.924,0Zm-6.462-16.962a4.039,4.039,0,1,1-4.039,4.039A4.039,4.039,0,0,1,417.722,274.295Zm0,0" transform="translate(-15581.633 6242.685)"/>
      <path id="Path_1934" data-name="Path 1934" class="cls-2" d="M157.659,162.357l-.029.068.337.142a3.152,3.152,0,0,0,.8.335l.356.15.029-.069a2.943,2.943,0,0,0,2.094-.411l2.862,2.863,1.142-1.142-2.863-2.862a3.2,3.2,0,0,0,.456-1.632,3.161,3.161,0,0,0-.045-.461l.069-.03-.15-.356a3.135,3.135,0,0,0-.335-.8l-.142-.336-.068.029a3.142,3.142,0,0,0-4.844-.335,3.231,3.231,0,0,0,0,4.569A3.278,3.278,0,0,0,157.659,162.357Zm.808-3.7a1.615,1.615,0,1,1,2.284,2.284,1.653,1.653,0,0,1-2.284,0A1.615,1.615,0,0,1,158.467,158.655Zm0,0" transform="translate(-15338.867 6353.952)"/>
      <path id="Path_1935" data-name="Path 1935" class="cls-2" d="M846.254,841.25l.03-.072-.452-.19a3.121,3.121,0,0,0-.5-.21l-.541-.227-.04.1a3.342,3.342,0,0,0-2.076.391l-2.869-2.869-1.142,1.142,2.863,2.863a3.2,3.2,0,0,0-.456,1.632,3.257,3.257,0,0,0,.046.461l-.07.029.151.356a3.15,3.15,0,0,0,.335.8l.142.337.068-.029a3.229,3.229,0,1,0,4.844-4.234A2.966,2.966,0,0,0,846.254,841.25Zm-.808,3.7a1.654,1.654,0,0,1-2.284,0,1.615,1.615,0,1,1,2.284,0Zm0,0" transform="translate(-15992.87 5700.638)"/>
      <path id="Path_1936" data-name="Path 1936" class="cls-2" d="M962.437,524.732a3.162,3.162,0,0,0-.463.047l-.044-.1-.705.3c-.031.013-.061.025-.091.039l-.7.293.044.1a3.222,3.222,0,0,0-1.161,1.746h-4.153v1.616h4.153a3.221,3.221,0,0,0,1.165,1.75l-.044.1.7.293c.029.014.06.026.091.039l.7.3.044-.1a3.224,3.224,0,1,0,.463-6.415Zm0,4.846a1.615,1.615,0,1,1,1.615-1.615A1.615,1.615,0,0,1,962.437,529.578Zm0,0" transform="translate(-16104.54 6001.132)"/>
      <path id="Path_1937" data-name="Path 1937" class="cls-2" d="M841.05,159.307l.07.03a3.254,3.254,0,0,0-.046.461,3.2,3.2,0,0,0,.456,1.632l-2.863,2.862,1.142,1.142,2.862-2.863a2.943,2.943,0,0,0,2.094.411l.029.069.356-.15a3.159,3.159,0,0,0,.8-.335l.336-.142-.029-.068a3.305,3.305,0,0,0,.335-.275,3.231,3.231,0,0,0,0-4.569,3.306,3.306,0,0,0-4.569,0,3.189,3.189,0,0,0-.276.335l-.068-.029-.142.337a3.155,3.155,0,0,0-.335.8Zm2.113-.652a1.615,1.615,0,1,1,2.284,2.284,1.653,1.653,0,0,1-2.284,0A1.616,1.616,0,0,1,843.163,158.655Zm0,0" transform="translate(-15992.87 6353.952)"/>
      <path id="Path_1938" data-name="Path 1938" class="cls-2" d="M765.715,133.07l.627-1.488,1.347.567-.627,1.488Zm0,0" transform="translate(-15922.941 6377.929)"/>
      <path id="Path_1939" data-name="Path 1939" class="cls-2" d="M701.129,105.332l.628-1.488,1.348.568-.628,1.488Zm0,0" transform="translate(-15861.033 6404.518)"/>
      <path id="Path_1940" data-name="Path 1940" class="cls-2" d="M830.664,160.5l.627-1.487,1.346.567-.627,1.487Zm0,0" transform="translate(-15985.198 6351.641)"/>
      <path id="Path_1941" data-name="Path 1941" class="cls-2" d="M1054.973,701.98l.568-1.347,1.488.628-.568,1.347Zm0,0" transform="translate(-16200.207 5832.47)"/>
      <path id="Path_1942" data-name="Path 1942" class="cls-2" d="M1000.18,831.954l.568-1.348,1.489.628-.569,1.347Zm0,0" transform="translate(-16147.686 5707.886)"/>
      <path id="Path_1943" data-name="Path 1943" class="cls-2" d="M1027.563,766.983l.568-1.347,1.488.628-.568,1.347Zm0,0" transform="translate(-16173.933 5770.162)"/>
      <path id="Path_1944" data-name="Path 1944" class="cls-2" d="M394.5,1028.312l.626-1.488,1.347.567-.627,1.487Zm0,0" transform="translate(-15567.116 5519.803)"/>
      <path id="Path_1945" data-name="Path 1945" class="cls-2" d="M459.434,1055.734l.627-1.488,1.346.568-.626,1.488Zm0,0" transform="translate(-15629.357 5493.518)"/>
      <path id="Path_1946" data-name="Path 1946" class="cls-2" d="M330.156,1001.16l.628-1.489,1.348.568-.628,1.488Zm0,0" transform="translate(-15505.44 5545.829)"/>
      <path id="Path_1947" data-name="Path 1947" class="cls-2" d="M161.924,844.3l-.07-.029a3.161,3.161,0,0,0,.046-.461,3.2,3.2,0,0,0-.456-1.632l2.863-2.863-1.142-1.142-2.869,2.869a3.341,3.341,0,0,0-2.076-.391l-.04-.1-.541.228a3.039,3.039,0,0,0-.5.209l-.452.19.03.072a2.951,2.951,0,0,0-.336.271,3.231,3.231,0,1,0,4.569,4.569,3.363,3.363,0,0,0,.275-.334l.068.029.142-.336a3.131,3.131,0,0,0,.335-.8Zm-2.113.652a1.653,1.653,0,0,1-2.284,0,1.615,1.615,0,1,1,2.284,0Zm0,0" transform="translate(-15337.928 5700.638)"/>
      <path id="Path_1948" data-name="Path 1948" class="cls-2" d="M131.742,396.015l.568-1.347,1.489.628-.568,1.347Zm0,0" transform="translate(-15315.252 6125.75)"/>
      <path id="Path_1949" data-name="Path 1949" class="cls-2" d="M104.348,461.012l.568-1.348,1.489.628-.569,1.348Zm0,0" transform="translate(-15288.993 6063.449)"/>
      <path id="Path_1950" data-name="Path 1950" class="cls-2" d="M159.156,331.042l.568-1.347,1.489.628-.569,1.347Zm0,0" transform="translate(-15341.53 6188.029)"/>
      <path id="Path_1951" data-name="Path 1951" class="cls-2" d="M104.34,701.241l1.488-.628.569,1.348-1.489.628Zm0,0" transform="translate(-15288.985 5832.489)"/>
      <path id="Path_1952" data-name="Path 1952" class="cls-2" d="M159.156,831.253l1.488-.628.569,1.347-1.489.628Zm0,0" transform="translate(-15341.53 5707.868)"/>
      <path id="Path_1953" data-name="Path 1953" class="cls-2" d="M131.766,766.245l1.488-.628.568,1.347-1.488.628Zm0,0" transform="translate(-15315.275 5770.18)"/>
      <path id="Path_1954" data-name="Path 1954" class="cls-2" d="M4.943,530.952l.091-.039.7-.293-.044-.1a3.219,3.219,0,0,0,1.162-1.746H11v-1.616H6.847a3.222,3.222,0,0,0-1.165-1.75l.044-.1-.7-.293c-.03-.014-.061-.026-.091-.039l-.7-.3-.044.1a3.155,3.155,0,0,0-.463-.047,3.231,3.231,0,1,0,0,6.462,3.189,3.189,0,0,0,.463-.047l.044.1Zm-2.827-2.989a1.615,1.615,0,1,1,1.615,1.615A1.616,1.616,0,0,1,2.116,527.963Zm0,0" transform="translate(-15189.451 6001.132)"/>
      <path id="Path_1955" data-name="Path 1955" class="cls-2" d="M831.129,1000.228l1.347-.568.628,1.488-1.347.569Zm0,0" transform="translate(-15985.644 5545.84)"/>
      <path id="Path_1956" data-name="Path 1956" class="cls-2" d="M701.117,1055.049l1.347-.569.628,1.488-1.348.569Zm0,0" transform="translate(-15861.021 5493.292)"/>
      <path id="Path_1957" data-name="Path 1957" class="cls-2" d="M766.117,1027.638l1.347-.568.628,1.489-1.347.568Zm0,0" transform="translate(-15923.327 5519.566)"/>
      <path id="Path_1958" data-name="Path 1958" class="cls-2" d="M531.44,960.714c-.013-.031-.025-.062-.039-.091l-.293-.7-.1.044a3.22,3.22,0,0,0-1.746-1.161v-4.154h-1.616v4.154a3.222,3.222,0,0,0-1.749,1.165l-.1-.044-.293.7c-.013.03-.025.06-.038.091l-.3.7.1.043a3.231,3.231,0,1,0,6.368,0l.1-.043Zm-2.988,2.827a1.615,1.615,0,1,1,1.616-1.615A1.615,1.615,0,0,1,528.452,963.541Zm0,0" transform="translate(-15692.363 5588.979)"/>
      <path id="Path_1959" data-name="Path 1959" class="cls-2" d="M1000.16,330.288l1.488-.628.569,1.348-1.489.628Zm0,0" transform="translate(-16147.667 6188.063)"/>
      <path id="Path_1960" data-name="Path 1960" class="cls-2" d="M1054.961,460.292l1.489-.628.568,1.347-1.489.628Zm0,0" transform="translate(-16200.196 6063.449)"/>
      <path id="Path_1961" data-name="Path 1961" class="cls-2" d="M1027.574,395.288l1.489-.628.568,1.347-1.488.628Zm0,0" transform="translate(-16173.944 6125.758)"/>
      <path id="Path_1962" data-name="Path 1962" class="cls-2" d="M525.463,4.442c.013.031.025.062.039.091l.293.7.1-.044a3.221,3.221,0,0,0,1.746,1.161V10.5h1.616V6.347a3.218,3.218,0,0,0,1.749-1.165l.1.044.293-.7c.014-.029.026-.06.039-.091l.3-.7-.1-.043a3.254,3.254,0,0,0,.047-.463,3.231,3.231,0,0,0-6.462,0,3.246,3.246,0,0,0,.047.463l-.1.043Zm2.989-2.827a1.616,1.616,0,1,1-1.615,1.615A1.615,1.615,0,0,1,528.452,1.616Zm0,0" transform="translate(-15692.363 6504.056)"/>
      <path id="Path_1963" data-name="Path 1963" class="cls-2" d="M330.172,159.209l1.347-.568.628,1.489-1.347.568Zm0,0" transform="translate(-15505.455 6351.992)"/>
      <path id="Path_1964" data-name="Path 1964" class="cls-2" d="M460.168,104.439l1.347-.568.628,1.488-1.347.568Zm0,0" transform="translate(-15630.062 6404.491)"/>
      <path id="Path_1965" data-name="Path 1965" class="cls-2" d="M395.184,131.833l1.347-.568.628,1.488-1.347.568Zm0,0" transform="translate(-15567.772 6378.232)"/>
      <circle id="Ellipse_3915" data-name="Ellipse 3915" class="cls-2" cx="2.217" cy="2.217" r="2.217" transform="translate(-15188.248 6526.922)"/>
      <circle id="Ellipse_3916" data-name="Ellipse 3916" class="cls-2" cx="2.217" cy="2.217" r="2.217" transform="translate(-15181.598 6511.404)"/>
      <circle id="Ellipse_3917" data-name="Ellipse 3917" class="cls-2" cx="2.217" cy="2.217" r="2.217" transform="translate(-15166.08 6504.753)"/>
      <circle id="Ellipse_3918" data-name="Ellipse 3918" class="cls-2" cx="2.217" cy="2.217" r="2.217" transform="translate(-15150.563 6511.404)"/>
      <circle id="Ellipse_3919" data-name="Ellipse 3919" class="cls-2" cx="2.217" cy="2.217" r="2.217" transform="translate(-15144.65 6526.922)"/>
      <circle id="Ellipse_3920" data-name="Ellipse 3920" class="cls-2" cx="2.217" cy="2.217" r="2.217" transform="translate(-15151.302 6542.439)"/>
      <circle id="Ellipse_3923" data-name="Ellipse 3923" class="cls-2" cx="4.434" cy="4.434" r="4.434" transform="translate(-15168.297 6516.577)"/>
      <circle id="Ellipse_3921" data-name="Ellipse 3921" class="cls-2" cx="2.217" cy="2.217" r="2.217" transform="translate(-15166.08 6548.351)"/>
      <circle id="Ellipse_3922" data-name="Ellipse 3922" class="cls-2" cx="2.217" cy="2.217" r="2.217" transform="translate(-15181.598 6541.701)"/>
      <path id="Path_1966" data-name="Path 1966" class="cls-2" d="M-15164.888,6549.269h14.582l.21-8.144s-2.108-6.788-7.222-6.552-7.375,3.435-7.57,6.944S-15164.888,6549.269-15164.888,6549.269Z" transform="translate(-6.259 -7.966)"/>
    </g>
  </g>
</svg>
