<svg xmlns="http://www.w3.org/2000/svg" viewBox="0 0 91.18 91.18">
  <defs>
    <style>
      .cls-1 {
        fill: #fff;
      }

      .cls-2 {
        fill: #006ee5;
      }
    </style>
  </defs>
  <g id="Group_3020" data-name="Group 3020" transform="translate(21661.531 -4863)">
    <circle id="Ellipse_3908" data-name="Ellipse 3908" class="cls-1" cx="45.59" cy="45.59" r="45.59" transform="translate(-21661.531 4863)"/>
    <g id="laptop" transform="translate(-21638.922 4840.598)">
      <g id="Group_2316" data-name="Group 2316" transform="translate(0 46.933)">
        <g id="Group_2315" data-name="Group 2315">
          <path id="Path_1878" data-name="Path 1878" class="cls-2" d="M46.248,77.233V49.325a2.4,2.4,0,0,0-2.392-2.392H3.987a2.4,2.4,0,0,0-2.392,2.392V77.233A1.6,1.6,0,0,0,0,78.828v3.189A3.992,3.992,0,0,0,3.987,86H43.856a3.992,3.992,0,0,0,3.987-3.987V78.828A1.6,1.6,0,0,0,46.248,77.233ZM3.189,49.325a.8.8,0,0,1,.8-.8H43.856a.8.8,0,0,1,.8.8V77.233H3.189ZM30.6,78.828l-.577,1.154a.792.792,0,0,1-.713.441H18.528a.792.792,0,0,1-.713-.441l-.577-1.154Zm15.643,1.595H37.477a.8.8,0,1,0,0,1.595h8.771a2.4,2.4,0,0,1-2.392,2.392H3.987a2.4,2.4,0,0,1-2.392-2.392h8.771a.8.8,0,0,0,0-1.595H1.595V78.828h13.86l.934,1.867a2.38,2.38,0,0,0,2.14,1.322H29.315a2.38,2.38,0,0,0,2.14-1.322l.934-1.867h13.86v1.595Z" transform="translate(0 -46.933)"/>
          <path id="Path_1879" data-name="Path 1879" class="cls-2" d="M138.129,405.333h-.8a.8.8,0,1,0,0,1.595h.8a.8.8,0,1,0,0-1.595Z" transform="translate(-123.776 -371.843)"/>
          <path id="Path_1880" data-name="Path 1880" class="cls-2" d="M350.664,406.929h.8a.8.8,0,0,0,0-1.595h-.8a.8.8,0,0,0,0,1.595Z" transform="translate(-317.174 -371.844)"/>
          <path id="Path_1881" data-name="Path 1881" class="cls-2" d="M73.455,133.41c-.007-.037-.012-.073-.02-.11a3.7,3.7,0,0,0-.2-.642c-.006-.015-.013-.028-.02-.043a3.674,3.674,0,0,0-.764-1.13l-.064-.063a3.69,3.69,0,0,0-.486-.4,3.349,3.349,0,0,0,.143-.973A3.384,3.384,0,0,0,69,126.693a3.677,3.677,0,0,0-.2-.644c-.026-.063-.062-.12-.092-.181a3.753,3.753,0,0,0-.23-.421c-.047-.071-.1-.136-.151-.2a3.775,3.775,0,0,0-.272-.328c-.062-.065-.127-.125-.193-.186a3.753,3.753,0,0,0-.32-.263c-.073-.054-.146-.1-.223-.153a3.76,3.76,0,0,0-.373-.2c-.079-.038-.157-.078-.239-.11a3.742,3.742,0,0,0-.447-.139c-.074-.019-.145-.045-.22-.059a3.7,3.7,0,0,0-3.674,1.393,3.7,3.7,0,0,0-3.673-1.393c-.077.015-.149.041-.224.06a3.728,3.728,0,0,0-.441.137c-.086.034-.166.075-.249.115a3.721,3.721,0,0,0-.356.192c-.085.053-.165.109-.245.168-.1.074-.194.152-.286.235s-.157.144-.23.222-.146.171-.216.26-.143.18-.206.278-.1.177-.146.267a3.662,3.662,0,0,0-.171.336c-.031.078-.049.162-.076.242a3.668,3.668,0,0,0-.118.378,3.383,3.383,0,0,0-3.046,3.356,3.349,3.349,0,0,0,.143.973,3.691,3.691,0,0,0-.486.4l-.064.063a3.67,3.67,0,0,0-.764,1.13c-.006.014-.014.028-.02.043a3.7,3.7,0,0,0-.2.642c-.008.036-.014.073-.02.11a3.666,3.666,0,0,0,1,3.3c-.015.031-.028.063-.041.1a3.335,3.335,0,0,0-.284,1.344,3.382,3.382,0,0,0,2.451,3.228,4.5,4.5,0,0,0,7.972,1.151,4.5,4.5,0,0,0,7.972-1.151,3.382,3.382,0,0,0,2.451-3.228A3.289,3.289,0,0,0,72.5,136.8c-.013-.03-.026-.061-.039-.09A3.666,3.666,0,0,0,73.455,133.41Zm-11.891,6.576a2.907,2.907,0,0,1-5.787.375v-.008a.8.8,0,0,0-.8-.8.779.779,0,0,0-.466.167,1.78,1.78,0,0,1-.98-1.577,1.757,1.757,0,0,1,.15-.7c.006-.015.013-.024.019-.038a1.757,1.757,0,0,1,.1-.185c0-.007.009-.014.013-.022a.713.713,0,0,1,.057-.085,1.794,1.794,0,0,1,1.454-.745.8.8,0,1,0,0-1.595,3.365,3.365,0,0,0-2.03.689,2.064,2.064,0,0,1-.464-1.757c.006-.033.015-.065.022-.1a2.127,2.127,0,0,1,.093-.3c.009-.024.018-.048.028-.071a2.152,2.152,0,0,1,.427-.63c.026-.026.054-.051.082-.076a2.206,2.206,0,0,1,.183-.15c.051-.037.1-.073.155-.106.031-.019.064-.034.1-.052a2.136,2.136,0,0,1,.226-.108c.006,0,.01-.009.017-.011a2.153,2.153,0,0,1,1.545-.022.8.8,0,0,0,.551-1.5,3.566,3.566,0,0,0-1.934-.167,1.746,1.746,0,0,1-.05-.37A1.784,1.784,0,0,1,55.74,128.3c.008.035.011.07.02.1a.8.8,0,0,0,.771.6.769.769,0,0,0,.2-.026.8.8,0,0,0,.572-.971,2.162,2.162,0,1,1,4.261-.536v12.513Zm9.862-4.525a3.365,3.365,0,0,0-2.03-.689.8.8,0,1,0,0,1.595,1.793,1.793,0,0,1,1.442.73.781.781,0,0,1,.069.1c0,.008.009.014.013.022a1.783,1.783,0,0,1,.111.2c.006.013.011.023.018.039a1.736,1.736,0,0,1,.106.336,1.757,1.757,0,0,1-.924,1.919.75.75,0,0,0-.484-.194.766.766,0,0,0-.8.762,2.9,2.9,0,0,1-5.791-.3V127.473a2.164,2.164,0,1,1,4.261.537.8.8,0,0,0,.572.971.773.773,0,0,0,.2.026.8.8,0,0,0,.771-.6c.009-.034.012-.07.02-.1a1.784,1.784,0,0,1,1.465,1.746,1.733,1.733,0,0,1-.05.371,3.566,3.566,0,0,0-1.934.167.8.8,0,0,0,.551,1.5,2.153,2.153,0,0,1,1.545.022c.006,0,.01.009.017.011a2.188,2.188,0,0,1,.226.109c.032.018.065.033.1.052.054.032.1.069.155.106a2.2,2.2,0,0,1,.183.15c.027.025.056.049.082.076a2.151,2.151,0,0,1,.427.63c.01.024.019.048.028.072a2.123,2.123,0,0,1,.093.3c.008.033.016.065.022.1A2.063,2.063,0,0,1,71.426,135.461Z" transform="translate(-46.415 -116.555)"/>
          <path id="Path_1882" data-name="Path 1882" class="cls-2" d="M129.1,277.434a.793.793,0,0,0-.606,0,.59.59,0,0,0-.144.072,1.272,1.272,0,0,0-.119.1.822.822,0,0,0-.167.263A.789.789,0,0,0,129.1,278.9a.718.718,0,0,0,.431-.431.8.8,0,0,0,.064-.3.839.839,0,0,0-.231-.566A.825.825,0,0,0,129.1,277.434Z" transform="translate(-116.038 -255.841)"/>
          <path id="Path_1883" data-name="Path 1883" class="cls-2" d="M129.1,243.3a.793.793,0,0,0-.606,0,.592.592,0,0,0-.144.072,1.278,1.278,0,0,0-.119.1.821.821,0,0,0-.167.263.789.789,0,0,0,1.036,1.036.718.718,0,0,0,.431-.431.8.8,0,0,0,.064-.3.839.839,0,0,0-.231-.566A.829.829,0,0,0,129.1,243.3Z" transform="translate(-116.038 -224.896)"/>
          <path id="Path_1884" data-name="Path 1884" class="cls-2" d="M129.1,175.005a.759.759,0,0,0-.606,0,.591.591,0,0,0-.144.072,1.273,1.273,0,0,0-.119.1.915.915,0,0,0-.167.263.789.789,0,0,0,1.036,1.036.719.719,0,0,0,.431-.431.8.8,0,0,0,.064-.3.839.839,0,0,0-.231-.566A.826.826,0,0,0,129.1,175.005Z" transform="translate(-116.038 -162.98)"/>
          <path id="Path_1885" data-name="Path 1885" class="cls-2" d="M129.1,210.634a.719.719,0,0,0,.431-.431.751.751,0,0,0,0-.606.916.916,0,0,0-.167-.263.829.829,0,0,0-.263-.167.793.793,0,0,0-.606,0,.59.59,0,0,0-.144.072,1.305,1.305,0,0,0-.119.1.821.821,0,0,0-.167.263.789.789,0,0,0,1.036,1.036Z" transform="translate(-116.037 -193.953)"/>
          <path id="Path_1886" data-name="Path 1886" class="cls-2" d="M197.5,277.468a.437.437,0,0,0-.135-.072.5.5,0,0,0-.152-.048.8.8,0,0,0-.717.216.836.836,0,0,0-.231.566.79.79,0,0,0,.8.8.8.8,0,0,0,.8-.8A.789.789,0,0,0,197.5,277.468Z" transform="translate(-177.927 -255.804)"/>
          <path id="Path_1887" data-name="Path 1887" class="cls-2" d="M197.5,243.336a.435.435,0,0,0-.135-.072.5.5,0,0,0-.152-.048.8.8,0,0,0-.717.216.836.836,0,0,0-.231.566.664.664,0,0,0,.064.3.925.925,0,0,0,.167.263.823.823,0,0,0,.566.231.793.793,0,0,0,.558-.231.805.805,0,0,0,.175-.263.673.673,0,0,0,.064-.3.812.812,0,0,0-.239-.566A.5.5,0,0,0,197.5,243.336Z" transform="translate(-177.925 -224.86)"/>
          <path id="Path_1888" data-name="Path 1888" class="cls-2" d="M196.5,175.261a.836.836,0,0,0-.231.566.79.79,0,0,0,.8.8.8.8,0,0,0,.8-.8.812.812,0,0,0-.239-.566A.825.825,0,0,0,196.5,175.261Z" transform="translate(-177.927 -163.069)"/>
          <path id="Path_1889" data-name="Path 1889" class="cls-2" d="M197.62,209.394a.825.825,0,0,0-1.124,0,.916.916,0,0,0-.167.263.664.664,0,0,0-.064.3.79.79,0,0,0,.8.8.8.8,0,0,0,.8-.8.674.674,0,0,0-.064-.3A.8.8,0,0,0,197.62,209.394Z" transform="translate(-177.925 -194.012)"/>
          <path id="Path_1890" data-name="Path 1890" class="cls-2" d="M307.694,227.675a.789.789,0,0,0,1.036-1.036.916.916,0,0,0-.167-.263.927.927,0,0,0-.263-.167.8.8,0,0,0-.869.167.821.821,0,0,0-.167.263.789.789,0,0,0,.167.869A.819.819,0,0,0,307.694,227.675Z" transform="translate(-278.494 -209.399)"/>
          <path id="Path_1891" data-name="Path 1891" class="cls-2" d="M308.562,260.514a.925.925,0,0,0-.263-.167.8.8,0,0,0-.869.167.916.916,0,0,0-.167.263.751.751,0,0,0,0,.606.928.928,0,0,0,.167.263.8.8,0,0,0,1.364-.566.8.8,0,0,0-.064-.3A.912.912,0,0,0,308.562,260.514Z" transform="translate(-278.493 -240.348)"/>
          <path id="Path_1892" data-name="Path 1892" class="cls-2" d="M308.3,294.48a.8.8,0,0,0-.869.167.835.835,0,0,0-.231.566.789.789,0,0,0,.231.566.819.819,0,0,0,.263.167.79.79,0,0,0,1.1-.734.839.839,0,0,0-.231-.566A.922.922,0,0,0,308.3,294.48Z" transform="translate(-278.494 -271.292)"/>
          <path id="Path_1893" data-name="Path 1893" class="cls-2" d="M308.562,328.775a.928.928,0,0,0-.263-.167.8.8,0,0,0-.869.167.82.82,0,0,0-.167.263.789.789,0,0,0,.167.869.819.819,0,0,0,.263.167.789.789,0,0,0,1.036-1.036A.914.914,0,0,0,308.562,328.775Z" transform="translate(-278.493 -302.23)"/>
          <path id="Path_1894" data-name="Path 1894" class="cls-2" d="M308.3,192.079a.8.8,0,0,0-.869.167.835.835,0,0,0-.231.566.789.789,0,0,0,.231.566,1.147,1.147,0,0,0,.263.175.8.8,0,0,0,1.1-.741.839.839,0,0,0-.231-.566A.922.922,0,0,0,308.3,192.079Z" transform="translate(-278.494 -178.46)"/>
          <path id="Path_1895" data-name="Path 1895" class="cls-2" d="M308.563,158.114a.926.926,0,0,0-.263-.167.8.8,0,0,0-.869.167.915.915,0,0,0-.167.263.75.75,0,0,0,0,.606.924.924,0,0,0,.167.263.821.821,0,0,0,.263.167.789.789,0,0,0,.869-.167.925.925,0,0,0,.167-.263.75.75,0,0,0,0-.606A.914.914,0,0,0,308.563,158.114Z" transform="translate(-278.494 -147.517)"/>
          <path id="Path_1896" data-name="Path 1896" class="cls-2" d="M308.563,123.976a.927.927,0,0,0-.263-.167.8.8,0,0,0-.869.167.821.821,0,0,0-.167.263.789.789,0,0,0,.167.869.819.819,0,0,0,.263.167.789.789,0,0,0,.869-.167.926.926,0,0,0,.167-.263.75.75,0,0,0,0-.606A.913.913,0,0,0,308.563,123.976Z" transform="translate(-278.493 -116.568)"/>
          <path id="Path_1897" data-name="Path 1897" class="cls-2" d="M342.131,125.329h4.784a.8.8,0,1,0,0-1.595h-4.784a.8.8,0,1,0,0,1.595Z" transform="translate(-309.439 -116.558)"/>
          <path id="Path_1898" data-name="Path 1898" class="cls-2" d="M342.131,159.462h5.582a.8.8,0,0,0,0-1.595h-5.582a.8.8,0,1,0,0,1.595Z" transform="translate(-309.439 -147.501)"/>
          <path id="Path_1899" data-name="Path 1899" class="cls-2" d="M436.8,157.867H436a.8.8,0,0,0,0,1.595h.8a.8.8,0,1,0,0-1.595Z" transform="translate(-394.535 -147.501)"/>
          <path id="Path_1900" data-name="Path 1900" class="cls-2" d="M351.7,192h-9.569a.8.8,0,1,0,0,1.595H351.7a.8.8,0,0,0,0-1.595Z" transform="translate(-309.439 -178.445)"/>
          <path id="Path_1901" data-name="Path 1901" class="cls-2" d="M342.131,227.729h2.392a.8.8,0,0,0,0-1.595h-2.392a.8.8,0,1,0,0,1.595Z" transform="translate(-309.439 -209.389)"/>
          <path id="Path_1902" data-name="Path 1902" class="cls-2" d="M342.131,261.862h7.974a.8.8,0,0,0,0-1.595h-7.974a.8.8,0,1,0,0,1.595Z" transform="translate(-309.439 -240.333)"/>
          <path id="Path_1903" data-name="Path 1903" class="cls-2" d="M346.117,294.4H342.13a.8.8,0,1,0,0,1.595h3.987a.8.8,0,0,0,0-1.595Z" transform="translate(-309.438 -271.276)"/>
          <path id="Path_1904" data-name="Path 1904" class="cls-2" d="M421.323,294.4h-2.392a.8.8,0,1,0,0,1.595h2.392a.8.8,0,1,0,0-1.595Z" transform="translate(-379.062 -271.276)"/>
          <path id="Path_1905" data-name="Path 1905" class="cls-2" d="M344.524,328.533h-2.392a.8.8,0,1,0,0,1.595h2.392a.8.8,0,1,0,0-1.595Z" transform="translate(-309.439 -302.22)"/>
          <path id="Path_1906" data-name="Path 1906" class="cls-2" d="M402.431,328.781a.8.8,0,0,0-.869-.167.719.719,0,0,0-.431.431.75.75,0,0,0,0,.606.926.926,0,0,0,.167.263.789.789,0,0,0,.869.167.719.719,0,0,0,.431-.431.751.751,0,0,0,0-.606A.821.821,0,0,0,402.431,328.781Z" transform="translate(-363.591 -302.236)"/>
        </g>
      </g>
    </g>
  </g>
</svg>
