<svg xmlns="http://www.w3.org/2000/svg" viewBox="0 0 91.18 91.18">
  <defs>
    <style>
      .cls-1, .cls-4 {
        fill: none;
      }

      .cls-1 {
        stroke: #fff;
        stroke-width: 2px;
      }

      .cls-2 {
        fill: #fff;
      }

      .cls-3 {
        stroke: none;
      }
    </style>
  </defs>
  <g id="Group_3026" data-name="Group 3026" transform="translate(21958.766 -4315)">
    <g id="Ellipse_4003" data-name="Ellipse 4003" class="cls-1" transform="translate(-21958.766 4315)">
      <circle class="cls-3" cx="45.59" cy="45.59" r="45.59"/>
      <circle class="cls-4" cx="45.59" cy="45.59" r="44.59"/>
    </g>
    <g id="web-design" transform="translate(-21935.443 4342.176)">
      <path id="Path_1862" data-name="Path 1862" class="cls-2" d="M44.692.5h-43A1.7,1.7,0,0,0,0,2.194V38.589a1.7,1.7,0,0,0,1.694,1.694h43a1.7,1.7,0,0,0,1.694-1.694V2.194A1.7,1.7,0,0,0,44.692.5ZM43.667,3.218v2.03l-15.888.039a1.674,1.674,0,0,0-1.14.451L24.4,7.823H2.718V3.218ZM2.718,37.564V10.541h22.1a1.67,1.67,0,0,0,1.144-.451L28.195,8l15.473-.038v29.6Zm0,0" transform="translate(0 0)"/>
      <path id="Path_1863" data-name="Path 1863" class="cls-2" d="M96.914,42.906a1.135,1.135,0,0,0,.033.13c.013.041.028.084.045.125s.036.081.057.12.044.077.068.114a1.2,1.2,0,0,0,.08.107c.028.034.058.068.09.1a1.134,1.134,0,0,0,.1.09,1.315,1.315,0,0,0,.108.079c.036.024.075.048.114.069a1.2,1.2,0,0,0,.12.056,1.175,1.175,0,0,0,.125.045c.042.013.086.024.128.033a1.191,1.191,0,0,0,.132.02,1.3,1.3,0,0,0,.133.006,1.313,1.313,0,0,0,.134-.006,1.2,1.2,0,0,0,.131-.02c.044-.009.087-.02.13-.033a1.227,1.227,0,0,0,.125-.045,1.168,1.168,0,0,0,.121-.056c.039-.021.077-.044.114-.069a1.246,1.246,0,0,0,.107-.079,1.146,1.146,0,0,0,.1-.09,1.327,1.327,0,0,0,.09-.1c.028-.034.054-.07.08-.107s.047-.075.068-.114a1.2,1.2,0,0,0,.056-.12c.017-.041.033-.084.045-.125s.023-.086.033-.13a1.372,1.372,0,0,0,.02-.4,1.282,1.282,0,0,0-.02-.132c-.009-.043-.02-.087-.033-.128a1.282,1.282,0,0,0-.045-.125A1.1,1.1,0,0,0,99.444,42c-.021-.039-.044-.078-.068-.114s-.052-.074-.08-.108a1.189,1.189,0,0,0-.09-.1,1.089,1.089,0,0,0-.1-.09,1.184,1.184,0,0,0-.107-.08c-.037-.024-.075-.047-.114-.068s-.08-.04-.121-.057-.083-.032-.125-.044a1.1,1.1,0,0,0-.13-.033c-.044-.009-.088-.015-.131-.02a1.348,1.348,0,0,0-.267,0c-.044,0-.089.011-.132.02a1.14,1.14,0,0,0-.128.033c-.043.012-.085.028-.125.044s-.081.036-.12.057-.078.044-.114.068a1.246,1.246,0,0,0-.108.08,1.079,1.079,0,0,0-.1.09,1.191,1.191,0,0,0-.09.1,1.325,1.325,0,0,0-.08.108,1.3,1.3,0,0,0-.068.114c-.021.039-.04.079-.057.121s-.032.082-.045.125a1.065,1.065,0,0,0-.033.128,1.437,1.437,0,0,0-.027.266,1.3,1.3,0,0,0,.007.134C96.9,42.818,96.905,42.863,96.914,42.906Zm0,0" transform="translate(-88.109 -37.088)"/>
      <path id="Path_1864" data-name="Path 1864" class="cls-2" d="M49.388,43.691a1.3,1.3,0,0,0,.108.079,1.324,1.324,0,0,0,.114.069,1.277,1.277,0,0,0,.12.056,1.2,1.2,0,0,0,.125.045c.043.013.085.024.129.033a1.268,1.268,0,0,0,.132.02c.044,0,.088.006.133.006s.09,0,.134-.006a1.292,1.292,0,0,0,.131-.02c.044-.009.087-.02.13-.033a1.258,1.258,0,0,0,.125-.045,1.284,1.284,0,0,0,.121-.056c.039-.021.077-.045.114-.069a1.173,1.173,0,0,0,.107-.079A1.283,1.283,0,0,0,51.3,43.5a1.139,1.139,0,0,0,.079-.107c.024-.037.048-.075.069-.114a1.287,1.287,0,0,0,.056-.121c.017-.041.033-.083.045-.125s.023-.086.033-.13.015-.088.02-.131a1.311,1.311,0,0,0,.006-.134,1.293,1.293,0,0,0-.006-.133c0-.044-.011-.088-.02-.132s-.02-.086-.033-.129a1.282,1.282,0,0,0-.045-.125,1.166,1.166,0,0,0-.056-.12,1.27,1.27,0,0,0-.069-.114c-.024-.037-.051-.073-.079-.108a1.189,1.189,0,0,0-.09-.1c-.031-.032-.065-.062-.1-.091s-.07-.054-.107-.079a1.293,1.293,0,0,0-.114-.068c-.039-.021-.08-.04-.121-.057s-.083-.031-.125-.044a1.1,1.1,0,0,0-.13-.033,1.294,1.294,0,0,0-.131-.02,1.348,1.348,0,0,0-.267,0,1.27,1.27,0,0,0-.132.02,1.107,1.107,0,0,0-.129.033c-.042.013-.084.028-.125.044s-.081.036-.12.057a1.2,1.2,0,0,0-.114.068c-.037.024-.073.052-.108.079s-.068.059-.1.091a1.185,1.185,0,0,0-.09.1c-.028.035-.055.071-.08.108a1.26,1.26,0,0,0-.068.114c-.021.039-.04.079-.057.12s-.031.082-.044.125a1.107,1.107,0,0,0-.033.129,1.275,1.275,0,0,0-.02.132,1.3,1.3,0,0,0-.007.133,1.369,1.369,0,0,0,.4.961A1.19,1.19,0,0,0,49.388,43.691Zm0,0" transform="translate(-44.461 -37.088)"/>
      <path id="Path_1865" data-name="Path 1865" class="cls-2" d="M145.914,42.906a1.064,1.064,0,0,0,.033.13c.013.041.028.084.044.125s.036.081.057.12.044.077.068.114a1.2,1.2,0,0,0,.08.107c.028.034.058.068.09.1a1.188,1.188,0,0,0,.1.09c.035.028.071.054.108.079a1.317,1.317,0,0,0,.114.069,1.5,1.5,0,0,0,.246.1c.043.013.086.024.128.033a1.191,1.191,0,0,0,.132.02,1.4,1.4,0,0,0,.267,0,1.2,1.2,0,0,0,.132-.02c.043-.009.086-.02.129-.033a1.486,1.486,0,0,0,.245-.1A1.323,1.323,0,0,0,148,43.77c.037-.024.073-.051.108-.079a1.19,1.19,0,0,0,.1-.09c.031-.032.062-.065.09-.1a1.266,1.266,0,0,0,.08-.107c.024-.037.047-.075.068-.114a1.2,1.2,0,0,0,.056-.12,1.292,1.292,0,0,0,.045-.125c.013-.043.023-.086.033-.13a1.209,1.209,0,0,0,.02-.132,1.406,1.406,0,0,0,0-.267,1.2,1.2,0,0,0-.02-.132c-.009-.043-.02-.086-.033-.128a1.5,1.5,0,0,0-.1-.246c-.021-.039-.044-.078-.068-.114s-.051-.074-.08-.108a1.187,1.187,0,0,0-.09-.1,1.129,1.129,0,0,0-.1-.09,1.312,1.312,0,0,0-.108-.08,1.265,1.265,0,0,0-.114-.068c-.039-.021-.08-.04-.12-.057s-.082-.032-.125-.044-.086-.024-.129-.033-.088-.015-.132-.02a1.348,1.348,0,0,0-.267,0c-.044,0-.088.011-.132.02s-.086.02-.128.033-.084.028-.125.044-.081.036-.121.057a1.307,1.307,0,0,0-.114.068,1.25,1.25,0,0,0-.108.08,1.364,1.364,0,0,0-.188.188,1.334,1.334,0,0,0-.148.222c-.021.039-.04.08-.057.121s-.032.082-.044.125a1.032,1.032,0,0,0-.033.128,1.287,1.287,0,0,0-.02.132,1.267,1.267,0,0,0,0,.267A1.288,1.288,0,0,0,145.914,42.906Zm0,0" transform="translate(-132.67 -37.088)"/>
      <path id="Path_1866" data-name="Path 1866" class="cls-2" d="M112.22,184.485a1.359,1.359,0,0,0-1.921-.056l-5.728,5.4a1.422,1.422,0,0,0,0,2.068l5.727,5.4a1.359,1.359,0,1,0,1.864-1.978l-4.727-4.457,4.727-4.457A1.359,1.359,0,0,0,112.22,184.485Zm0,0" transform="translate(-94.692 -166.929)"/>
      <path id="Path_1867" data-name="Path 1867" class="cls-2" d="M220.363,184.172a1.359,1.359,0,0,0-1.794.689l-4.85,10.891a1.359,1.359,0,1,0,2.483,1.106l4.85-10.891A1.359,1.359,0,0,0,220.363,184.172Zm0,0" transform="translate(-194.249 -166.925)"/>
      <path id="Path_1868" data-name="Path 1868" class="cls-2" d="M316.733,184.429a1.359,1.359,0,1,0-1.864,1.977l4.727,4.457-4.727,4.457a1.359,1.359,0,1,0,1.864,1.978l5.727-5.4a1.421,1.421,0,0,0,0-2.069Zm0,0" transform="translate(-285.954 -166.929)"/>
    </g>
  </g>
</svg>
