<svg xmlns="http://www.w3.org/2000/svg" viewBox="0 0 91.18 91.18">
  <defs>
    <style>
      .cls-1 {
        fill: #fff;
      }

      .cls-2 {
        fill: #006ee5;
      }
    </style>
  </defs>
  <g id="Group_3017" data-name="Group 3017" transform="translate(22108.883 -4863)">
    <circle id="Ellipse_3860" data-name="Ellipse 3860" class="cls-1" cx="45.59" cy="45.59" r="45.59" transform="translate(-22108.883 4863)"/>
    <g id="business-plan" transform="translate(-22086.168 4883.625)">
      <g id="Layer_1_157_">
        <path id="Path_1850" data-name="Path 1850" class="cls-2" d="M41,13.046V1.863A1.864,1.864,0,0,0,39.137,0H27.956a1.864,1.864,0,0,0-1.864,1.863V6.523A19.585,19.585,0,0,0,7.163,21.214l-1.938-.341a.933.933,0,0,0-.994,1.34L6.251,26.2a7.45,7.45,0,1,0,8.595,8.28h6.587v1.863a.932.932,0,0,0,1.493.745l3.257-2.444a7.45,7.45,0,1,0,8.295-8.486V19.569h1.865a.932.932,0,0,0,.745-1.491L34.71,14.911h4.425A1.866,1.866,0,0,0,41,13.046ZM7.455,37.274a3.727,3.727,0,1,1,3.727-3.726A3.731,3.731,0,0,1,7.455,37.274Zm29.82-3.727a3.727,3.727,0,1,1-3.728-3.728A3.732,3.732,0,0,1,37.276,33.547ZM29.918,19.053a.932.932,0,0,0,.833.515h1.864v6.587a7.461,7.461,0,0,0-6.432,6.294L22.924,30a.932.932,0,0,0-1.491.746v1.863H14.846a7.461,7.461,0,0,0-6.471-6.46.458.458,0,0,0,.013-.062v-.01l2.82-2.641a.932.932,0,0,0-.475-1.6L9,21.538A17.721,17.721,0,0,1,26.093,8.386v4.659a1.863,1.863,0,0,0,1.864,1.863h4.426l-2.376,3.168A.928.928,0,0,0,29.918,19.053Zm7.358-7.871H29.819V3.728h7.456Z"/>
      </g>
    </g>
  </g>
</svg>
