<svg xmlns="http://www.w3.org/2000/svg" viewBox="0 0 91.18 91.18">
  <defs>
    <style>
      .cls-1 {
        fill: #fff;
      }

      .cls-2 {
        fill: #006ee5;
      }
    </style>
  </defs>
  <g id="Group_3019" data-name="Group 3019" transform="translate(21810.648 -4863)">
    <circle id="Ellipse_3907" data-name="Ellipse 3907" class="cls-1" cx="45.59" cy="45.59" r="45.59" transform="translate(-21810.648 4863)"/>
    <g id="handshake" transform="translate(-21789.469 4804.408)">
      <g id="Group_2310" data-name="Group 2310" transform="translate(0 90.526)">
        <g id="Group_2309" data-name="Group 2309" transform="translate(0 0)">
          <path id="Path_1869" data-name="Path 1869" class="cls-2" d="M48.036,98.738a.957.957,0,0,0,.957-.957v-6.3a.957.957,0,0,0-.957-.957H42.869a1.917,1.917,0,0,0-1.822,1.329H27.582l-.03-.016a13.56,13.56,0,0,0-8.253-.969l-7.73,1.508H8.035a1.915,1.915,0,0,0-1.911-1.853H.957A.957.957,0,0,0,0,91.483v6.152a.957.957,0,0,0,1.914,0V92.44h4.21v18.142H1.914v-5.1a.957.957,0,1,0-1.914,0v6.057a.957.957,0,0,0,.957.957H6.124a1.916,1.916,0,0,0,1.914-1.914v-.011a3.561,3.561,0,0,1,1.217.61l.447.346a3.037,3.037,0,0,0,3.02,2.7c.069,0,.137,0,.205-.008a3.039,3.039,0,0,0,3.016,2.661c.069,0,.137,0,.205-.008a3.043,3.043,0,0,0,3.014,2.663c.07,0,.14,0,.21-.008a3.04,3.04,0,0,0,3.012,2.662q.148,0,.3-.014a3.024,3.024,0,0,0,2.056-1.094l.778-.945a3.028,3.028,0,0,0,.515-.906,3.149,3.149,0,0,0,1.487.37h.047a3.166,3.166,0,0,0,2.917-2.043l.33.321a3.167,3.167,0,0,0,5.225-1.3,3.169,3.169,0,0,0,3.619-5.109l-.665-.648,1.964-1.06v.82a1.916,1.916,0,0,0,1.914,1.914h5.167a.957.957,0,0,0,.957-.957v-6.344a.957.957,0,0,0-1.914,0v5.387h-4.21V92.44h4.21v5.342A.957.957,0,0,0,48.036,98.738ZM14.375,110.963l-.778.945a1.13,1.13,0,0,1-1.744-1.437l.778-.945a1.122,1.122,0,0,1,.763-.406q.056-.005.111-.005a1.13,1.13,0,0,1,.87,1.849Zm3.221,2.654-.778.945a1.13,1.13,0,1,1-1.744-1.437l.778-.945a1.122,1.122,0,0,1,.763-.406q.056-.005.111-.005a1.13,1.13,0,0,1,.87,1.849Zm3.222,2.653-.778.945a1.13,1.13,0,1,1-1.744-1.437l.778-.945a1.13,1.13,0,0,1,1.744,1.437Zm3.221,2.654-.778.945a1.13,1.13,0,0,1-1.744-1.437l.778-.945a1.122,1.122,0,0,1,.764-.406q.056-.005.111-.005a1.13,1.13,0,0,1,.87,1.849Zm14.307-4.308a1.257,1.257,0,0,1-1.775.025L33.4,111.557l-.011-.01-3.125-3.037a.957.957,0,1,0-1.334,1.372l4.966,4.827a1.255,1.255,0,0,1-1.749,1.8l-4.967-4.827c-.01-.01-.021-.018-.031-.027l-2.386-2.319a.957.957,0,1,0-1.334,1.372l4.966,4.827a1.255,1.255,0,1,1-1.749,1.8l-1.391-1.352a.961.961,0,0,0-.1-.082l-.053-.046a3.033,3.033,0,0,0-2.139-.685,3.035,3.035,0,0,0-3.22-2.654,3.041,3.041,0,0,0-3.223-2.655,3.042,3.042,0,0,0-5.367-1.553l-.778.945q-.1.119-.182.245a5.5,5.5,0,0,0-2.155-.888V94.293h3.625a.952.952,0,0,0,.183-.018l7.82-1.526a11.692,11.692,0,0,1,3.978-.09,9.189,9.189,0,0,0-2.7,1.854L13.7,101.681a3.391,3.391,0,0,0,4.053,5.363l7.592-4.289h2.621L38.32,112.841a1.255,1.255,0,0,1,.025,1.775Zm2.609-7.029-3.4,1.835-6.843-6.667h.672a.957.957,0,0,0,0-1.914H25.1a.956.956,0,0,0-.471.124l-7.811,4.413a1.477,1.477,0,0,1-1.765-2.336l7.245-7.168a7.234,7.234,0,0,1,5.119-2.1H40.955Z" transform="translate(0 -90.526)"/>
        </g>
      </g>
      <g id="Group_2312" data-name="Group 2312" transform="translate(47.079 100.554)">
        <g id="Group_2311" data-name="Group 2311">
          <path id="Path_1870" data-name="Path 1870" class="cls-2" d="M493.633,195.6a.956.956,0,1,0,.28.677A.96.96,0,0,0,493.633,195.6Z" transform="translate(-492 -195.324)"/>
        </g>
      </g>
      <g id="Group_2314" data-name="Group 2314" transform="translate(0 100.554)">
        <g id="Group_2313" data-name="Group 2313">
          <path id="Path_1871" data-name="Path 1871" class="cls-2" d="M1.633,195.6A.957.957,0,0,0,0,196.281a.957.957,0,0,0,.957.957.957.957,0,0,0,.677-1.633Z" transform="translate(0 -195.324)"/>
        </g>
      </g>
    </g>
  </g>
</svg>
