<svg xmlns="http://www.w3.org/2000/svg" viewBox="0 0 91.18 91.18">
  <defs>
    <style>
      .cls-1 {
        fill: #fff;
      }

      .cls-2 {
        fill: #006ee5;
      }
    </style>
  </defs>
  <g id="Group_3021" data-name="Group 3021" transform="translate(21512.414 -4863)">
    <circle id="Ellipse_3909" data-name="Ellipse 3909" class="cls-1" cx="45.59" cy="45.59" r="45.59" transform="translate(-21512.414 4863)"/>
    <g id="smartphone" transform="translate(-21492.473 4885.225)">
      <path id="Path_1872" data-name="Path 1872" class="cls-2" d="M36.454,0H16.491A3.5,3.5,0,0,0,13,3.491V44.059a3.5,3.5,0,0,0,3.491,3.492H36.454a3.5,3.5,0,0,0,3.492-3.491V3.491A3.5,3.5,0,0,0,36.454,0ZM14.585,6.34H38.36V36.455H14.585Zm1.906-4.755H36.454A1.908,1.908,0,0,1,38.36,3.491V4.755H14.585V3.491A1.908,1.908,0,0,1,16.491,1.585ZM36.454,45.966H16.491a1.908,1.908,0,0,1-1.906-1.906V38.04H38.36V44.06A1.908,1.908,0,0,1,36.454,45.966Z" transform="translate(0 0)"/>
      <path id="Path_1873" data-name="Path 1873" class="cls-2" d="M29.17,49a3.17,3.17,0,1,0,3.17,3.17A3.173,3.173,0,0,0,29.17,49Zm0,4.755a1.585,1.585,0,1,1,1.585-1.585A1.587,1.587,0,0,1,29.17,53.755Z" transform="translate(-2.697 -10.167)"/>
      <path id="Path_1874" data-name="Path 1874" class="cls-2" d="M25.793,4.585h3.17a.793.793,0,0,0,0-1.585h-3.17a.793.793,0,1,0,0,1.585Z" transform="translate(-2.49 -0.622)"/>
      <path id="Path_1875" data-name="Path 1875" class="cls-2" d="M32.793,4.585h.793a.793.793,0,1,0,0-1.585h-.793a.793.793,0,1,0,0,1.585Z" transform="translate(-3.942 -0.622)"/>
      <path id="Path_1876" data-name="Path 1876" class="cls-2" d="M33.643,18.925a3.963,3.963,0,0,0,0-7.925H20.963A3.967,3.967,0,0,0,17,14.963v8.253l4.291-4.291Zm-15.058.464V14.963a2.38,2.38,0,0,1,2.378-2.378h12.68a2.378,2.378,0,0,1,0,4.755H20.634Z" transform="translate(-0.83 -2.282)"/>
      <path id="Path_1877" data-name="Path 1877" class="cls-2" d="M33.643,28H20.963a3.963,3.963,0,0,0,0,7.925H33.315l4.291,4.291V31.963A3.967,3.967,0,0,0,33.643,28Zm2.378,8.389L33.971,34.34H20.963a2.378,2.378,0,0,1,0-4.755h12.68a2.38,2.38,0,0,1,2.378,2.378Z" transform="translate(-0.83 -5.81)"/>
    </g>
  </g>
</svg>
