<svg xmlns="http://www.w3.org/2000/svg" viewBox="0 0 91.18 91.18">
  <defs>
    <style>
      .cls-1 {
        fill: #fff;
      }

      .cls-2 {
        fill: #006ee5;
      }
    </style>
  </defs>
  <g id="Group_3022" data-name="Group 3022" transform="translate(21363.297 -4863)">
    <circle id="Ellipse_3910" data-name="Ellipse 3910" class="cls-1" cx="45.59" cy="45.59" r="45.59" transform="translate(-21363.297 4863)"/>
    <g id="startup" transform="translate(-21339.422 4883.718)">
      <g id="Group_2318" data-name="Group 2318" transform="translate(0 42.401)">
        <g id="Group_2317" data-name="Group 2317">
          <circle id="Ellipse_3913" data-name="Ellipse 3913" class="cls-2" cx="0.842" cy="0.842" r="0.842"/>
        </g>
      </g>
      <g id="Group_2320" data-name="Group 2320" transform="translate(21.502 21.054)">
        <g id="Group_2319" data-name="Group 2319">
          <circle id="Ellipse_3914" data-name="Ellipse 3914" class="cls-2" cx="0.84" cy="0.84" r="0.84"/>
        </g>
      </g>
      <g id="Group_2322" data-name="Group 2322" transform="translate(27.241 10.197)">
        <g id="Group_2321" data-name="Group 2321">
          <path id="Path_1907" data-name="Path 1907" class="cls-2" d="M331.654,106.563a3.574,3.574,0,1,0,0,5.057A3.552,3.552,0,0,0,331.654,106.563Zm-1.188,3.869a1.9,1.9,0,1,1,0-2.681A1.9,1.9,0,0,1,330.466,110.432Z" transform="translate(-325.551 -105.516)"/>
        </g>
      </g>
      <g id="Group_2324" data-name="Group 2324" transform="translate(2.707 33.216)">
        <g id="Group_2323" data-name="Group 2323">
          <path id="Path_1908" data-name="Path 1908" class="cls-2" d="M40.137,383.2a.84.84,0,0,0-1.126.378l-1,2.009a2.772,2.772,0,0,1-2.284,1.525l-1.164.08a.5.5,0,0,1-.531-.531l.08-1.164a2.773,2.773,0,0,1,1.525-2.284l2.009-1a.84.84,0,1,0-.749-1.5l-2.009,1a4.459,4.459,0,0,0-2.452,3.673l-.08,1.164a2.178,2.178,0,0,0,2.173,2.327c.049,0,.1,0,.149-.005l1.164-.08a4.459,4.459,0,0,0,3.673-2.452l1-2.009A.84.84,0,0,0,40.137,383.2Z" transform="translate(-32.35 -380.616)"/>
        </g>
      </g>
      <g id="Group_2326" data-name="Group 2326" transform="translate(0.001 1.492)">
        <g id="Group_2325" data-name="Group 2325">
          <path id="Path_1909" data-name="Path 1909" class="cls-2" d="M42.279,2.052A1.945,1.945,0,0,0,40.79,1.5l-.782.05A25.347,25.347,0,0,0,22,10.835L20.158,13.1,15.34,12.96h-.025A14.213,14.213,0,0,0,5.2,17.15L.264,22.085a.84.84,0,0,0,.551,1.433l10.447.537-.426.524a.84.84,0,0,0-.086.931q.246.451.514.888L8.786,29.34a.841.841,0,0,0-.117.9,10.939,10.939,0,0,0,5.252,5.252.84.84,0,0,0,.889-.107c.534-.433,1.149-.946,1.744-1.443.424-.354.858-.716,1.264-1.05q.363.219.736.422a.84.84,0,0,0,.916-.074l.573-.444.539,10.491a.84.84,0,0,0,1.433.551L26.95,38.9a14.213,14.213,0,0,0,4.19-10.116v-4.6l1.947-1.511A25.246,25.246,0,0,0,42.836,3.941l.02-.409A1.946,1.946,0,0,0,42.279,2.052ZM2.788,21.937l3.6-3.6a12.544,12.544,0,0,1,8.916-3.7l3.522.1-6.251,7.7Zm12.69,10.715c-.439.366-.888.741-1.305,1.084A9.229,9.229,0,0,1,10.43,30l1.814-2.153a19.476,19.476,0,0,0,1.8,2.086h0a19.477,19.477,0,0,0,2.313,1.988ZM29.46,28.786a12.543,12.543,0,0,1-3.7,8.928l-3.6,3.6-.5-9.773,7.8-6.052v3.3Zm11.7-24.927a23.568,23.568,0,0,1-9.1,17.487L18.881,31.57a17.789,17.789,0,0,1-3.043-2.246l4.442-4.442a.84.84,0,0,0-1.188-1.188l-4.438,4.438A17.786,17.786,0,0,1,12.5,25.194l10.8-13.3A23.661,23.661,0,0,1,40.115,3.223l.782-.05a.265.265,0,0,1,.281.277Z" transform="translate(-0.018 -1.492)"/>
        </g>
      </g>
    </g>
  </g>
</svg>
