<svg xmlns="http://www.w3.org/2000/svg" viewBox="0 0 91.18 91.18">
  <defs>
    <style>
      .cls-1, .cls-4 {
        fill: none;
      }

      .cls-1 {
        stroke: #fff;
        stroke-width: 2px;
      }

      .cls-2 {
        fill: #fff;
      }

      .cls-3 {
        stroke: none;
      }
    </style>
  </defs>
  <g id="Group_3031" data-name="Group 3031" transform="translate(21213.18 -4315)">
    <g id="Ellipse_3998" data-name="Ellipse 3998" class="cls-1" transform="translate(-21213.18 4315)">
      <circle class="cls-3" cx="45.59" cy="45.59" r="45.59"/>
      <circle class="cls-4" cx="45.59" cy="45.59" r="44.59"/>
    </g>
    <g id="customer-support" transform="translate(-21188.238 4340.045)">
      <path id="Path_1910" data-name="Path 1910" class="cls-2" d="M.4,3.915,3.2,8.8a.7.7,0,0,0,.436.331l2.605.651,8.936,8.936.987-.987L7.085,8.657a.7.7,0,0,0-.324-.184l-2.5-.628L1.88,3.682,3.919,1.643l4.165,2.38.628,2.5a.7.7,0,0,0,.184.325l9.076,9.076.987-.987L10.023,6,9.371,3.4a.7.7,0,0,0-.331-.437L4.153.17a.7.7,0,0,0-.838.112L.523,3.075A.7.7,0,0,0,.4,3.915Zm0,0" transform="translate(-0.038 -0.073)"/>
      <path id="Path_1911" data-name="Path 1911" class="cls-2" d="M190.327,174.706l-15.359,15.36-.987-.987,15.36-15.359Zm0,0" transform="translate(-160.935 -160.946)"/>
      <path id="Path_1912" data-name="Path 1912" class="cls-2" d="M55.333,399.175a.7.7,0,0,0-.6-.339H50.545a.7.7,0,0,0-.6.339l-2.095,3.491a.7.7,0,0,0,0,.719l2.095,3.491a.7.7,0,0,0,.6.339h4.189a.7.7,0,0,0,.6-.339l2.094-3.491a.7.7,0,0,0,0-.719Zm-.993,6.643h-3.4l-1.676-2.792,1.676-2.793h3.4l1.676,2.793Zm0,0" transform="translate(-43.989 -369.512)"/>
      <path id="Path_1913" data-name="Path 1913" class="cls-2" d="M33.785,16.757a8.349,8.349,0,0,0,8.121-10.4.7.7,0,0,0-1.171-.325l-4.346,4.343L32.941,9.223l-1.15-3.447,4.346-4.347A.7.7,0,0,0,35.809.258a8.352,8.352,0,0,0-10.4,8.121,8.194,8.194,0,0,0,.17,1.636L10.287,25.3a8.236,8.236,0,0,0-1.636-.17,8.378,8.378,0,1,0,8.378,8.378,8.216,8.216,0,0,0-.17-1.636l3.66-3.66,1.6,1.6a.7.7,0,0,0,.987,0l.349-.349a.783.783,0,0,1,1.109,1.106h0l-.349.349a.7.7,0,0,0,0,.987l8.328,8.328a5.635,5.635,0,1,0,8-7.932l-.036-.036-8.328-8.328a.7.7,0,0,0-.987,0l-.349.349a.783.783,0,0,1-1.109-1.106h0l.349-.349a.7.7,0,0,0,0-.987l-1.6-1.6,3.66-3.66A8.215,8.215,0,0,0,33.785,16.757Zm2.743,23.737a4.242,4.242,0,0,1-1.485-.271L40.5,34.771a4.234,4.234,0,0,1-3.968,5.724ZM28.618,22.349a2.179,2.179,0,0,0,3.072,3.068l7.835,7.842c.085.085.165.175.242.267L33.8,39.494c-.092-.077-.182-.156-.267-.242L25.69,31.411a2.179,2.179,0,0,0-3.072-3.068L21.5,27.227l6-5.992Zm2.819-7.022L15.6,31.162a.7.7,0,0,0-.184.663,7.028,7.028,0,1,1-5.077-5.077A.7.7,0,0,0,11,26.564L26.836,10.729a.7.7,0,0,0,.184-.663,6.948,6.948,0,0,1,7.162-8.657L30.5,5.093a.7.7,0,0,0-.169.714L31.726,10a.7.7,0,0,0,.442.441l4.189,1.4a.7.7,0,0,0,.714-.168l3.683-3.683c.008.133.013.265.013.4A6.946,6.946,0,0,1,32.1,15.144a.7.7,0,0,0-.663.184h0Zm0,0" transform="translate(0 0)"/>
      <path id="Path_1914" data-name="Path 1914" class="cls-2" d="M390.859,389.606l-.987.987-6.981-6.981.987-.987Zm0,0" transform="translate(-354.486 -354.493)"/>
    </g>
  </g>
</svg>
