<svg xmlns="http://www.w3.org/2000/svg" xmlns:xlink="http://www.w3.org/1999/xlink" viewBox="0 0 109.18 109.18">
  <defs>
    <style>
      .cls-1 {
        fill: #fff;
      }

      .cls-2 {
        fill: #006ee5;
      }

      .cls-3 {
        filter: url(#Path_1923);
      }
    </style>
    <filter id="Path_1923" x="0" y="0" width="109.18" height="109.18" filterUnits="userSpaceOnUse">
      <feOffset dy="3" input="SourceAlpha"/>
      <feGaussianBlur stdDeviation="3" result="blur"/>
      <feFlood flood-opacity="0.161"/>
      <feComposite operator="in" in2="blur"/>
      <feComposite in="SourceGraphic"/>
    </filter>
  </defs>
  <g id="Group_2623" data-name="Group 2623" transform="translate(-374 -5170)">
    <g class="cls-3" transform="matrix(1, 0, 0, 1, 374, 5170)">
      <path id="Path_1923-2" data-name="Path 1923" class="cls-1" d="M45.59,0A45.59,45.59,0,1,1,0,45.59,45.59,45.59,0,0,1,45.59,0Z" transform="translate(9 6)"/>
    </g>
    <g id="favorites" transform="translate(408.047 5198.103)">
      <g id="Group_2337" data-name="Group 2337" transform="translate(2.365 3.81)">
        <g id="Group_2336" data-name="Group 2336" transform="translate(0 0)">
          <g id="Group_2348" data-name="Group 2348">
            <path id="Path_1916" data-name="Path 1916" class="cls-2" d="M64.975,19.638a2.7,2.7,0,0,0-1.5-4.606l-8.96-1.3a.54.54,0,0,1-.407-.3L50.105,5.315a2.7,2.7,0,0,0-4.843,0l-4.007,8.119a.54.54,0,0,1-.407.3l-8.96,1.3a2.7,2.7,0,0,0-1.5,4.606l6.483,6.32a.54.54,0,0,1,.155.478L35.5,35.359a2.7,2.7,0,0,0,3.918,2.847l8.014-4.213a.54.54,0,0,1,.5,0l8.014,4.213a2.7,2.7,0,0,0,3.918-2.847l-1.531-8.924a.541.541,0,0,1,.155-.478ZM56.208,26.8l1.531,8.924a.54.54,0,0,1-.784.569L48.94,32.081a2.7,2.7,0,0,0-2.513,0l-8.014,4.213a.54.54,0,0,1-.784-.569L39.16,26.8a2.7,2.7,0,0,0-.777-2.39L31.9,18.091a.54.54,0,0,1,.3-.921l8.96-1.3a2.7,2.7,0,0,0,2.033-1.477L47.2,6.271a.54.54,0,0,1,.969,0h0l4.007,8.119a2.7,2.7,0,0,0,2.033,1.477l8.96,1.3a.54.54,0,0,1,.3.921l-6.483,6.32A2.7,2.7,0,0,0,56.208,26.8Z" transform="translate(-29.574 -3.81)"/>
            <path id="Path_1922" data-name="Path 1922" class="cls-2" d="M19.228,1.807l5.222,9.372,10.321,1.561v1.955L28.4,21.984l-.4,2.275L29.544,32.4l-1.552,1.4L18.168,29.1,8.343,34.4,7.19,31.032,8.9,22.5,1.394,15.057v-1.83l11-2.049,5.032-9.372Z" transform="translate(-0.239 -0.31)"/>
          </g>
        </g>
      </g>
      <g id="Group_2339" data-name="Group 2339" transform="translate(30.232 5.108)">
        <g id="Group_2338" data-name="Group 2338">
          <path id="Path_1917" data-name="Path 1917" class="cls-2" d="M380.862,20.251a1.08,1.08,0,0,0-1.509.239l-1.147,1.578a1.08,1.08,0,0,0,1.748,1.27L381.1,21.76A1.08,1.08,0,0,0,380.862,20.251Z" transform="translate(-378.001 -20.045)"/>
        </g>
      </g>
      <g id="Group_2340" data-name="Group 2340" transform="translate(7.405 5.102)">
        <path id="Path_1918" data-name="Path 1918" class="cls-2" d="M95.691,21.99l-1.147-1.578a1.08,1.08,0,1,0-1.748,1.27l1.147,1.578a1.08,1.08,0,1,0,1.748-1.27Z" transform="translate(-92.59 -19.966)"/>
      </g>
      <g id="Group_2343" data-name="Group 2343" transform="translate(0 27.298)">
        <g id="Group_2342" data-name="Group 2342" transform="translate(0 0)">
          <path id="Path_1919" data-name="Path 1919" class="cls-2" d="M3.963,298.24a1.08,1.08,0,0,0-1.361-.694l-1.855.6a1.08,1.08,0,1,0,.668,2.055l1.855-.6A1.08,1.08,0,0,0,3.963,298.24Z" transform="translate(0 -297.493)"/>
        </g>
      </g>
      <g id="Group_2345" data-name="Group 2345" transform="translate(19.395 40.038)">
        <g id="Group_2344" data-name="Group 2344">
          <path id="Path_1920" data-name="Path 1920" class="cls-2" d="M243.579,456.786a1.08,1.08,0,0,0-1.08,1.08v1.951a1.08,1.08,0,1,0,2.16,0v-1.951A1.08,1.08,0,0,0,243.579,456.786Z" transform="translate(-242.499 -456.786)"/>
        </g>
      </g>
      <g id="Group_2347" data-name="Group 2347" transform="translate(36.933 27.3)">
        <g id="Group_2346" data-name="Group 2346">
          <path id="Path_1921" data-name="Path 1921" class="cls-2" d="M465.053,298.169l-1.855-.6a1.08,1.08,0,0,0-.668,2.055l1.855.6a1.08,1.08,0,0,0,.668-2.055Z" transform="translate(-461.783 -297.513)"/>
        </g>
      </g>
    </g>
  </g>
</svg>
