<svg xmlns="http://www.w3.org/2000/svg" viewBox="0 0 984.533 3.691">
  <defs>
    <style>
      .cls-1 {
        fill: #ebebeb;
      }
    </style>
  </defs>
  <g id="Group_316" data-name="Group 316" transform="translate(0 0)">
    <path id="Path_241" data-name="Path 241" class="cls-1" d="M73.134,96.992H69.645a1.849,1.849,0,0,1,0-3.692h3.489a1.849,1.849,0,0,1,0,3.692Z" transform="translate(-67.9 -93.3)"/>
    <path id="Path_242" data-name="Path 242" class="cls-1" d="M1038.126,96.992h-6.979a1.849,1.849,0,0,1,0-3.692h6.979a1.849,1.849,0,0,1,0,3.692Zm-14.083,0h-6.979a1.849,1.849,0,0,1,0-3.692h6.979a1.849,1.849,0,0,1,0,3.692Zm-13.958,0h-6.979a1.849,1.849,0,0,1,0-3.692h6.979a1.849,1.849,0,0,1,0,3.692Zm-13.958,0h-6.979a1.849,1.849,0,0,1,0-3.692h6.979a1.755,1.755,0,0,1,1.745,1.846A1.835,1.835,0,0,1,996.128,96.992Zm-14.083,0h-6.979a1.849,1.849,0,0,1,0-3.692h6.979a1.849,1.849,0,0,1,0,3.692Zm-13.958,0h-6.979a1.849,1.849,0,0,1,0-3.692h6.979a1.755,1.755,0,0,1,1.745,1.846A1.835,1.835,0,0,1,968.087,96.992Zm-14.083,0h-6.979a1.849,1.849,0,0,1,0-3.692H954a1.849,1.849,0,0,1,0,3.692Zm-13.958,0h-6.979a1.849,1.849,0,0,1,0-3.692h6.979a1.755,1.755,0,0,1,1.745,1.846A1.835,1.835,0,0,1,940.047,96.992Zm-14.083,0h-6.979a1.849,1.849,0,0,1,0-3.692h6.979a1.849,1.849,0,0,1,0,3.692Zm-13.958,0h-6.979a1.849,1.849,0,0,1,0-3.692h6.979a1.849,1.849,0,0,1,0,3.692Zm-14.083,0h-6.979a1.849,1.849,0,0,1,0-3.692h6.979a1.849,1.849,0,0,1,0,3.692Zm-13.958,0h-6.979a1.849,1.849,0,0,1,0-3.692h6.979a1.849,1.849,0,0,1,0,3.692Zm-14.083,0H862.9a1.849,1.849,0,0,1,0-3.692h6.979a1.849,1.849,0,0,1,0,3.692Zm-13.958,0h-6.979a1.849,1.849,0,0,1,0-3.692h6.979a1.849,1.849,0,0,1,0,3.692Zm-13.958,0h-7.1a1.849,1.849,0,0,1,0-3.692h6.979a1.755,1.755,0,0,1,1.745,1.846A1.737,1.737,0,0,1,841.967,96.992Zm-14.082,0h-6.979a1.849,1.849,0,0,1,0-3.692h6.979a1.849,1.849,0,0,1,0,3.692Zm-13.958,0h-6.979a1.849,1.849,0,0,1,0-3.692h6.979a1.755,1.755,0,0,1,1.745,1.846A1.835,1.835,0,0,1,813.927,96.992Zm-14.082,0h-6.979a1.849,1.849,0,0,1,0-3.692h6.979a1.849,1.849,0,0,1,0,3.692Zm-13.958,0h-7.1a1.849,1.849,0,0,1,0-3.692h6.979a1.755,1.755,0,0,1,1.745,1.846A1.737,1.737,0,0,1,785.886,96.992Zm-14.083,0h-6.979a1.849,1.849,0,0,1,0-3.692H771.8a1.849,1.849,0,0,1,0,3.692Zm-13.958,0h-6.979a1.849,1.849,0,0,1,0-3.692h6.979a1.849,1.849,0,0,1,0,3.692Zm-14.083,0h-6.979a1.849,1.849,0,0,1,0-3.692h6.979a1.849,1.849,0,0,1,0,3.692Zm-13.958,0h-6.979a1.849,1.849,0,0,1,0-3.692h6.979a1.849,1.849,0,0,1,0,3.692Zm-14.082,0h-6.979a1.849,1.849,0,0,1,0-3.692h6.979a1.849,1.849,0,0,1,0,3.692Zm-13.958,0h-6.979a1.849,1.849,0,0,1,0-3.692h6.979a1.849,1.849,0,0,1,0,3.692Zm-14.082,0H680.7a1.849,1.849,0,0,1,0-3.692h6.979a1.849,1.849,0,0,1,0,3.692Zm-13.958,0h-6.979a1.849,1.849,0,0,1,0-3.692h6.979a1.849,1.849,0,0,1,0,3.692Zm-13.958,0h-6.979a1.849,1.849,0,0,1,0-3.692h6.979a1.755,1.755,0,0,1,1.745,1.846A1.835,1.835,0,0,1,659.766,96.992Zm-14.083,0H638.7a1.849,1.849,0,0,1,0-3.692h6.979a1.849,1.849,0,0,1,0,3.692Zm-13.958,0h-6.979a1.849,1.849,0,0,1,0-3.692h6.979a1.755,1.755,0,0,1,1.745,1.846A1.835,1.835,0,0,1,631.726,96.992Zm-14.083,0h-6.979a1.849,1.849,0,0,1,0-3.692h6.979a1.849,1.849,0,0,1,0,3.692Zm-13.958,0h-6.979a1.849,1.849,0,0,1,0-3.692h6.979a1.849,1.849,0,0,1,0,3.692Zm-14.083,0h-6.979a1.849,1.849,0,0,1,0-3.692H589.6a1.849,1.849,0,0,1,0,3.692Zm-13.958,0h-6.979a1.849,1.849,0,0,1,0-3.692h6.979a1.849,1.849,0,0,1,0,3.692Zm-14.083,0h-6.979a1.849,1.849,0,0,1,0-3.692h6.979a1.849,1.849,0,0,1,0,3.692Zm-13.958,0h-6.979a1.849,1.849,0,0,1,0-3.692H547.6a1.849,1.849,0,0,1,0,3.692Zm-14.083,0h-6.979a1.849,1.849,0,0,1,0-3.692h6.979a1.849,1.849,0,0,1,0,3.692Zm-13.958,0h-6.979a1.849,1.849,0,0,1,0-3.692h6.979a1.849,1.849,0,0,1,0,3.692Zm-13.958,0h-6.979a1.849,1.849,0,0,1,0-3.692h6.979a1.755,1.755,0,0,1,1.745,1.846A1.835,1.835,0,0,1,505.606,96.992Zm-14.082,0h-6.979a1.849,1.849,0,0,1,0-3.692h6.979a1.849,1.849,0,0,1,0,3.692Zm-13.958,0h-6.979a1.849,1.849,0,0,1,0-3.692h6.979a1.755,1.755,0,0,1,1.745,1.846A1.835,1.835,0,0,1,477.566,96.992Zm-14.083,0H456.5a1.849,1.849,0,0,1,0-3.692h6.979a1.849,1.849,0,0,1,0,3.692Zm-13.958,0h-6.979a1.849,1.849,0,0,1,0-3.692h6.979a1.755,1.755,0,0,1,1.745,1.846A1.835,1.835,0,0,1,449.525,96.992Zm-14.083,0h-6.979a1.849,1.849,0,0,1,0-3.692h6.979a1.849,1.849,0,0,1,0,3.692Zm-13.958,0h-6.979a1.849,1.849,0,0,1,0-3.692h6.979a1.849,1.849,0,0,1,0,3.692Zm-14.083,0h-6.979a1.849,1.849,0,0,1,0-3.692H407.4a1.849,1.849,0,0,1,0,3.692Zm-13.958,0h-6.979a1.849,1.849,0,0,1,0-3.692h6.979a1.849,1.849,0,0,1,0,3.692Zm-14.083,0h-6.979a1.849,1.849,0,0,1,0-3.692h6.979a1.849,1.849,0,0,1,0,3.692Zm-13.958,0h-6.979a1.849,1.849,0,0,1,0-3.692H365.4a1.849,1.849,0,0,1,0,3.692Zm-13.958,0h-6.979a1.849,1.849,0,0,1,0-3.692h6.979a1.755,1.755,0,0,1,1.745,1.846A1.835,1.835,0,0,1,351.446,96.992Zm-14.083,0h-6.979a1.849,1.849,0,0,1,0-3.692h6.979a1.849,1.849,0,0,1,0,3.692Zm-13.958,0h-6.979a1.849,1.849,0,0,1,0-3.692h6.979a1.755,1.755,0,0,1,1.745,1.846A1.835,1.835,0,0,1,323.405,96.992Zm-14.083,0h-6.979a1.849,1.849,0,0,1,0-3.692h6.979a1.849,1.849,0,0,1,0,3.692Zm-13.958,0h-6.979a1.849,1.849,0,0,1,0-3.692h6.979a1.755,1.755,0,0,1,1.745,1.846A1.835,1.835,0,0,1,295.365,96.992Zm-14.083,0H274.3a1.849,1.849,0,0,1,0-3.692h6.979a1.849,1.849,0,0,1,0,3.692Zm-13.958,0h-6.979a1.849,1.849,0,0,1,0-3.692h6.979a1.849,1.849,0,0,1,0,3.692Zm-14.083,0h-6.979a1.849,1.849,0,0,1,0-3.692h6.979a1.849,1.849,0,0,1,0,3.692Zm-13.958,0h-6.979a1.849,1.849,0,0,1,0-3.692h6.979a1.849,1.849,0,0,1,0,3.692Zm-14.083,0h-6.979a1.849,1.849,0,0,1,0-3.692H225.2a1.849,1.849,0,0,1,0,3.692Zm-13.958,0h-6.979a1.849,1.849,0,0,1,0-3.692h6.979a1.849,1.849,0,0,1,0,3.692Zm-13.958,0h-6.979a1.849,1.849,0,0,1,0-3.692h6.979a1.755,1.755,0,0,1,1.745,1.846A1.835,1.835,0,0,1,197.286,96.992Zm-14.083,0h-6.979a1.849,1.849,0,0,1,0-3.692H183.2a1.849,1.849,0,0,1,0,3.692Zm-13.958,0h-6.979a1.849,1.849,0,0,1,0-3.692h6.979a1.755,1.755,0,0,1,1.745,1.846A1.835,1.835,0,0,1,169.245,96.992Zm-14.083,0h-6.979a1.849,1.849,0,0,1,0-3.692h6.979a1.849,1.849,0,0,1,0,3.692Zm-13.958,0h-6.979a1.849,1.849,0,0,1,0-3.692H141.2a1.755,1.755,0,0,1,1.745,1.846A1.835,1.835,0,0,1,141.2,96.992Zm-14.083,0h-6.979a1.849,1.849,0,0,1,0-3.692h6.979a1.849,1.849,0,0,1,0,3.692Zm-13.958,0h-6.979a1.849,1.849,0,0,1,0-3.692h6.979a1.849,1.849,0,0,1,0,3.692Zm-14.083,0H92.1a1.849,1.849,0,0,1,0-3.692h6.979a1.849,1.849,0,0,1,0,3.692Zm-13.958,0H78.145a1.849,1.849,0,0,1,0-3.692h6.979a1.849,1.849,0,0,1,0,3.692Z" transform="translate(-65.807 -93.3)"/>
    <path id="Path_243" data-name="Path 243" class="cls-1" d="M857.534,96.992h-3.49a1.849,1.849,0,0,1,0-3.692h3.49a1.849,1.849,0,0,1,0,3.692Z" transform="translate(125.253 -93.3)"/>
  </g>
</svg>
