<svg xmlns="http://www.w3.org/2000/svg" xmlns:xlink="http://www.w3.org/1999/xlink" width="56" height="56" viewBox="0 0 56 56">
    <defs>
        <path id="a" d="M0 .053h35.93v18.449H0z"/>
    </defs>
    <g fill="none" fill-rule="evenodd">
        <circle cx="28" cy="28" r="28" fill="#2A90FF"/>
        <path fill="#A6D3FF" d="M33.283 17.614c-.465 0-.843-.252-.843-.561v-2.246c0-.31.378-.561.843-.561.465 0 .843.25.843.561v2.246c0 .309-.378.561-.843.561M22.616 17.614c-.465 0-.842-.252-.842-.561v-2.246c0-.31.377-.561.842-.561.466 0 .843.25.843.561v2.246c0 .309-.377.561-.843.561M44.246 31.088H11.684a.561.561 0 0 0-.561.561v9.544A2.81 2.81 0 0 0 13.93 44H42a2.81 2.81 0 0 0 2.807-2.807V31.65c0-.31-.25-.561-.561-.561"/>
        <g transform="translate(10 17)">
            <mask id="b" fill="#fff">
                <use xlink:href="#a"/>
            </mask>
            <path fill="#D4EDFF" d="M33.123.053H2.807A2.81 2.81 0 0 0 0 2.859v9.77c0 1.129.679 2.146 1.728 2.594a41.298 41.298 0 0 0 14.552 3.279h3.392a41.302 41.302 0 0 0 14.53-3.279 2.823 2.823 0 0 0 1.727-2.594v-9.77A2.81 2.81 0 0 0 33.123.053" mask="url(#b)"/>
        </g>
        <path fill="#59A9FF" d="M28.526 37.263h-1.122c-.62 0-1.123-.502-1.123-1.122v-2.246c0-.62.503-1.122 1.123-1.122h1.122c.62 0 1.123.502 1.123 1.122v2.246c0 .62-.503 1.122-1.123 1.122"/>
        <path fill="#D4EDFF" d="M34.14 15.07c-.107 0-.215-.016-.323-.048-1.687-.508-3.71-.776-5.852-.776-2.141 0-4.165.268-5.852.776a1.122 1.122 0 1 1-.647-2.15c1.894-.57 4.142-.871 6.499-.871 2.357 0 4.605.3 6.499.87a1.123 1.123 0 0 1-.323 2.199"/>
    </g>
</svg>
