<svg xmlns="http://www.w3.org/2000/svg" width="98" height="56" viewBox="0 0 98 56">
    <defs>
        <linearGradient id="a" x1="50%" x2="50%" y1="0%" y2="100%">
            <stop offset="0%" stop-color="#00CCE9"/>
            <stop offset="39.017%" stop-color="#1D6DCC"/>
            <stop offset="100%" stop-color="#04A"/>
        </linearGradient>
        <linearGradient id="b" x1="50%" x2="50%" y1="0%" y2="100%">
            <stop offset="0%" stop-color="#2A90FF"/>
            <stop offset="33.333%" stop-color="#1D6DCC"/>
            <stop offset="100%" stop-color="#04A"/>
        </linearGradient>
        <linearGradient id="c" x1="4.561%" x2="83.221%" y1="47.147%" y2="47.147%">
            <stop offset="0%" stop-color="#003CC1"/>
            <stop offset="100%" stop-color="#001B8A"/>
        </linearGradient>
    </defs>
    <g fill="none" fill-rule="evenodd">
        <g fill="#2053AF">
            <path d="M45.911 27.971c0-.223.126-.344.357-.344h.189c.231 0 .357.12.357.344v5.978h2.732l4.055-6.1a.448.448 0 0 1 .42-.222h.294c.296 0 .4.182.254.425l-4.245 6.262v.041l4.538 7.053c.169.223.064.405-.23.405h-.317a.447.447 0 0 1-.42-.223l-4.349-6.83h-2.732v6.709c0 .222-.126.344-.357.344h-.189c-.231 0-.357-.122-.357-.344V27.971zM59.058 41.035c2.131 0 3.343-2.255 3.343-4.23v-.538h-.625c-1.662 0-5.22 0-5.22 2.594 0 1.057.84 2.174 2.502 2.174m2.697-5.546h.646v-.339c0-2.215-1.114-2.973-2.678-2.973-1.193 0-2.092.48-2.522.758-.177.12-.332.1-.47-.079l-.077-.119c-.138-.18-.118-.36.058-.48.45-.319 1.505-.897 3.05-.897 2.248 0 3.46 1.277 3.46 3.77v6.105c0 .22-.117.339-.332.339h-.157c-.215 0-.332-.12-.332-.339v-.978c0-.539.079-.898.079-.898h-.04c.02 0-.88 2.454-3.421 2.454-1.584 0-3.324-.897-3.324-2.892 0-3.392 4.32-3.432 6.06-3.432M66.87 31.927h-1.032c-.232 0-.358-.118-.358-.336v-.08c0-.217.126-.335.358-.335h1.033V28.71c0-.217.126-.336.358-.336h.168c.232 0 .359.12.359.336v2.467h2.402c.232 0 .358.118.358.336v.08c0 .217-.126.335-.358.335h-2.402v5.429c0 2.645 1.706 2.9 2.57 2.94.316.021.422.119.422.336v.1c0 .197-.083.335-.358.335-2.486 0-3.52-1.481-3.52-3.652v-5.488zM75.616 41.035c2.131 0 3.343-2.255 3.343-4.23v-.538h-.625c-1.662 0-5.22 0-5.22 2.594 0 1.057.84 2.174 2.502 2.174m2.697-5.546h.646v-.339c0-2.215-1.114-2.973-2.678-2.973-1.193 0-2.092.48-2.522.758-.177.12-.332.1-.47-.079l-.077-.119c-.138-.18-.118-.36.058-.48.45-.319 1.505-.897 3.05-.897 2.248 0 3.46 1.277 3.46 3.77v6.105c0 .22-.117.339-.332.339h-.157c-.215 0-.332-.12-.332-.339v-.978c0-.539.079-.898.079-.898h-.04c.02 0-.88 2.454-3.421 2.454-1.584 0-3.324-.897-3.324-2.892 0-3.392 4.32-3.432 6.06-3.432M82.79 40.723c0-.261.148-.403.42-.403h.666c.272 0 .42.142.42.403v.688c0 .26-.148.402-.42.402h-.666c-.272 0-.42-.141-.42-.402v-.688zM89.916 41.035c2.131 0 3.343-2.255 3.343-4.23v-.538h-.625c-1.662 0-5.22 0-5.22 2.594 0 1.057.84 2.174 2.502 2.174m2.697-5.546h.646v-.339c0-2.215-1.113-2.973-2.678-2.973-1.193 0-2.092.48-2.521.758-.178.12-.333.1-.47-.079l-.078-.119c-.138-.18-.118-.36.058-.48.45-.319 1.505-.897 3.05-.897 2.248 0 3.46 1.277 3.46 3.77v6.105c0 .22-.117.339-.332.339h-.157c-.215 0-.332-.12-.332-.339v-.978c0-.539.08-.898.08-.898h-.04c.018 0-.88 2.454-3.422 2.454-1.584 0-3.323-.897-3.323-2.892 0-3.392 4.32-3.432 6.06-3.432M97.15 32.024c0-.223.09-.344.256-.344h.12c.166 0 .256.12.256.344v9.445c0 .223-.09.344-.255.344h-.12c-.167 0-.257-.12-.257-.344v-9.445zm-.06-3.263v-.79c0-.223.09-.344.256-.344h.241c.166 0 .256.12.256.344v.79c0 .223-.09.344-.256.344h-.24c-.166 0-.256-.12-.256-.344z"/>
        </g>
        <path fill="url(#a)" d="M9.637 55.253c-5.3 0-9.637-4.232-9.637-9.406V9.677C0 4.505 4.337.272 9.637.272c5.3 0 9.638 4.233 9.638 9.407v36.169c0 5.174-4.337 9.406-9.638 9.406"/>
        <path fill="url(#b)" d="M35.467 43.786l-2.685-2.621a8.404 8.404 0 0 1 0-12.088l1.419-1.386a6.096 6.096 0 0 0 0-8.768c-3.89-3.797-10.195-3.797-14.085 0l-.949.926v25.995c0 1.295-.27 2.53-.76 3.656l2.976 2.905c3.889 3.798 10.195 3.798 14.084 0a5.993 5.993 0 0 0 0-8.619"/>
        <path fill="url(#c)" d="M19.233 45.677V19.444l-8.293 8.398c-3.775 3.824-3.782 10.017-.022 13.85L7.84 44.81h6.154l7.394 7.488-2.896-2.933a9.498 9.498 0 0 0 .74-3.688"/>
    </g>
</svg>
