<svg xmlns="http://www.w3.org/2000/svg" width="124" height="70" viewBox="0 0 124 70">
    <g fill="none" fill-rule="evenodd">
        <path fill="#B5DAFF" d="M11.933 70C5.37 70 0 64.611 0 58.024V11.976C0 5.389 5.37 0 11.933 0s11.933 5.389 11.933 11.976v46.048c0 6.587-5.37 11.976-11.933 11.976"/>
        <path fill="#D3ECFF" d="M23.866 58.024V24.936L13.312 35.528c-4.806 4.823-4.814 12.635-.03 17.47L9.366 56.93h7.832l5.727 5.746c.606-1.432.942-3.004.942-4.652"/>
        <path fill="#FFF" d="M44.049 55.404l-3.325-3.336c-4.234-4.25-4.234-11.138 0-15.387l1.757-1.763c3.071-3.082 3.071-8.08 0-11.161-4.816-4.833-12.624-4.833-17.44 0l-1.175 1.179v33.088c0 1.648-.336 3.22-.943 4.653l3.686 3.698c4.816 4.833 12.624 4.833 17.44 0a7.777 7.777 0 0 0 0-10.97M56.236 38.445c0-.285.155-.44.44-.44h.23c.285 0 .44.155.44.44v7.64H60.7l4.98-7.796a.546.546 0 0 1 .517-.285h.361c.363 0 .49.234.311.545l-5.214 8.003v.052l5.576 9.013c.206.285.076.518-.285.518h-.388a.545.545 0 0 1-.516-.285L60.7 47.122h-3.354v8.573c0 .285-.155.44-.44.44h-.23c-.286 0-.44-.155-.44-.44v-17.25zM73.503 55.435c2.813 0 4.413-2.927 4.413-5.49v-.7h-.825c-2.195 0-6.891 0-6.891 3.367 0 1.373 1.109 2.823 3.303 2.823m3.56-7.2h.853v-.44c0-2.875-1.47-3.86-3.536-3.86-1.574 0-2.76.622-3.329.985-.233.154-.438.129-.62-.103l-.102-.156c-.182-.234-.156-.467.077-.622.593-.414 1.986-1.165 4.026-1.165C77.4 42.874 79 44.532 79 47.77v7.926c0 .285-.154.44-.438.44h-.207c-.284 0-.438-.155-.438-.44v-1.27c0-.7.104-1.166.104-1.166h-.053c.025 0-1.16 3.186-4.516 3.186-2.09 0-4.388-1.165-4.388-3.755 0-4.404 5.703-4.455 8-4.455M83.414 44.246h-1.266c-.283 0-.438-.155-.438-.44v-.104c0-.285.155-.44.438-.44h1.266v-3.237c0-.285.155-.44.438-.44h.207c.284 0 .439.155.439.44v3.237h2.942c.284 0 .438.155.438.44v.104c0 .285-.154.44-.438.44h-2.942v7.124c0 3.47 2.09 3.805 3.148 3.858.387.027.516.155.516.44v.13c0 .259-.102.44-.438.44-3.045 0-4.31-1.943-4.31-4.791v-7.2zM94.047 55.435c2.813 0 4.412-2.927 4.412-5.49v-.7h-.825c-2.194 0-6.89 0-6.89 3.367 0 1.373 1.108 2.823 3.303 2.823m3.56-7.2h.852v-.44c0-2.875-1.47-3.86-3.536-3.86-1.574 0-2.76.622-3.328.985-.234.154-.438.129-.62-.103l-.103-.156c-.181-.234-.156-.467.077-.622.593-.414 1.986-1.165 4.027-1.165 2.967 0 4.566 1.658 4.566 4.895v7.926c0 .285-.154.44-.438.44h-.207c-.284 0-.438-.155-.438-.44v-1.27c0-.7.104-1.166.104-1.166h-.052c.025 0-1.161 3.186-4.517 3.186-2.09 0-4.387-1.165-4.387-3.755 0-4.404 5.703-4.455 8-4.455M103.466 54.943c0-.285.155-.44.44-.44h.696c.285 0 .439.155.439.44v.752c0 .285-.154.44-.44.44h-.696c-.284 0-.439-.155-.439-.44v-.752zM112.422 55.435c2.814 0 4.413-2.927 4.413-5.49v-.7h-.825c-2.195 0-6.891 0-6.891 3.367 0 1.373 1.11 2.823 3.303 2.823m3.56-7.2h.853v-.44c0-2.875-1.47-3.86-3.536-3.86-1.574 0-2.76.622-3.329.985-.233.154-.437.129-.62-.103l-.102-.156c-.181-.234-.156-.467.077-.622.593-.414 1.986-1.165 4.026-1.165 2.968 0 4.567 1.658 4.567 4.895v7.926c0 .285-.154.44-.438.44h-.207c-.284 0-.438-.155-.438-.44v-1.27c0-.7.104-1.166.104-1.166h-.053c.026 0-1.16 3.186-4.516 3.186-2.09 0-4.387-1.165-4.387-3.755 0-4.404 5.703-4.455 8-4.455M122.074 43.624c0-.285.155-.44.439-.44h.206c.284 0 .439.155.439.44v12.071c0 .285-.155.44-.439.44h-.206c-.284 0-.44-.155-.44-.44v-12.07zm-.103-4.17v-1.01c0-.285.155-.44.44-.44h.412c.285 0 .439.155.439.44v1.01c0 .286-.154.44-.44.44h-.412c-.284 0-.439-.154-.439-.44z"/>
    </g>
</svg>
