<?xml version="1.0" encoding="UTF-8" standalone="no"?>
<svg width="56px" height="56px" viewBox="0 0 56 56" version="1.1" xmlns="http://www.w3.org/2000/svg" xmlns:xlink="http://www.w3.org/1999/xlink">
    <!-- Generator: sketchtool 47.1 (45422) - http://www.bohemiancoding.com/sketch -->
    <title>4C492FAB-133A-4476-BD9D-A0A095760511</title>
    <desc>Created with sketchtool.</desc>
    <defs>
        <polygon id="path-1" points="5.36275833 0.154926829 0 0.154926829 0 31.6097561 5.36275833 31.6097561 10.7255167 31.6097561 10.7255167 0.154926829"></polygon>
        <polygon id="path-3" points="10.7016389 22.6341463 0.19075 22.6341463 0.19075 0.225931707 10.7016389 0.225931707"></polygon>
    </defs>
    <g id="Design" stroke="none" stroke-width="1" fill="none" fill-rule="evenodd">
        <g id="01-home" transform="translate(-135.000000, -1008.000000)">
            <g id="Section-1" transform="translate(135.000000, 910.000000)">
                <g id="word-1" transform="translate(0.000000, 98.000000)">
                    <g id="icon-1">
                        <circle id="Oval" fill="#2A90FF" cx="28" cy="28" r="28"></circle>
                        <g id="Icons/kata-icn" transform="translate(18.000000, 12.000000)">
                            <g id="Page-1">
                                <g id="Group-3" transform="translate(0.000000, 0.235200)">
                                    <mask id="mask-2" fill="white">
                                        <use xlink:href="#path-1"></use>
                                    </mask>
                                    <g id="Clip-2"></g>
                                    <path d="M5.36273889,31.6097561 L5.36273889,31.6097561 C2.41340556,31.6097561 -3.88888889e-05,29.1882927 -3.88888889e-05,26.2282927 L-3.88888889e-05,5.53639024 C-3.88888889e-05,2.57678049 2.41340556,0.154926829 5.36273889,0.154926829 L5.36273889,0.154926829 C8.31207222,0.154926829 10.7255167,2.57678049 10.7255167,5.53639024 L10.7255167,26.2282927 C10.7255167,29.1882927 8.31207222,31.6097561 5.36273889,31.6097561" id="Fill-1" fill="#B6DBFF" mask="url(#mask-2)"></path>
                                </g>
                                <g id="Group-6" transform="translate(10.111111, 9.210810)">
                                    <mask id="mask-4" fill="white">
                                        <use xlink:href="#path-3"></use>
                                    </mask>
                                    <g id="Clip-5"></g>
                                    <path d="M9.68430556,16.0755902 L8.19019444,14.5762732 C6.28736111,12.6668098 6.28736111,9.57139512 8.19019444,7.66232195 L8.97963889,6.86973659 C10.3598056,5.48476098 10.3598056,3.2396878 8.97963889,1.8547122 C6.81547222,-0.316995122 3.30652778,-0.316995122 1.14236111,1.8547122 L0.61425,2.38427317 L0.61425,17.2525659 C0.61425,17.9932488 0.463361111,18.6995902 0.19075,19.3434927 L1.84702778,21.0051512 C4.01119444,23.1772488 7.52013889,23.1772488 9.68430556,21.0051512 C11.04075,19.6439805 11.04075,17.436761 9.68430556,16.0755902" id="Fill-4" fill="#FFFFFF" mask="url(#mask-4)"></path>
                                </g>
                                <path d="M10.7254389,26.4634927 L10.7254389,11.5952 L5.98216111,16.3550049 C3.82266111,18.5220293 3.81877222,22.0322732 5.96932778,24.2051512 L4.20882778,25.9721756 L7.72866111,25.9721756 L11.9578278,30.216078 L10.30155,28.5540293 C10.57455,27.9105171 10.7254389,27.2037854 10.7254389,26.4634927" id="Fill-7" fill="#D4EDFF"></path>
                            </g>
                        </g>
                    </g>
                </g>
            </g>
        </g>
    </g>
</svg>