<svg xmlns="http://www.w3.org/2000/svg" width="1024" height="270" viewBox="0 0 1024 270">
    <g fill="none" fill-rule="nonzero">
        <g fill="#FFF">
            <path d="M327.702 107.932c0-2.161 1.176-3.337 3.337-3.337h41.817c23.954 0 41.817 15.116 41.817 40.051 0 24.935-17.863 40.445-41.817 40.445h-36.715v53.6c0 2.157-1.176 3.337-3.337 3.337h-1.765c-2.161 0-3.337-1.181-3.337-3.337V107.932zm44.763 69.304c20.024 0 33.374-11.977 33.374-32.592s-13.349-32.199-33.374-32.199h-36.323v64.791h36.323zM438.018 107.932c0-2.161 1.181-3.337 3.337-3.337h1.573c2.161 0 3.337 1.176 3.337 3.337v111.516c0 13.744 6.675 14.92 11.389 15.508 1.765.2 3.141.789 3.141 3.141v1.181c0 2.161-.789 3.533-3.538 3.533-5.69 0-19.24-2.161-19.24-20.617V107.932h.001zM534.802 182.144h6.479v-3.337c0-21.793-11.193-29.254-26.899-29.254-11.973 0-21.004 4.712-25.327 7.461-1.765 1.179-3.337.982-4.71-.786l-.784-1.176c-1.377-1.769-1.181-3.536.588-4.712 4.514-3.141 15.114-8.836 30.624-8.836 22.582 0 34.75 12.565 34.75 37.107v60.079c0 2.157-1.176 3.337-3.337 3.337h-1.568c-2.161 0-3.337-1.181-3.337-3.337v-9.622c0-5.302.784-8.836.784-8.836h-.392c.196 0-8.836 24.148-34.358 24.148-15.903 0-33.378-8.831-33.378-28.468-.001-33.375 43.389-33.768 60.865-33.768zm-27.096 54.581c21.401 0 33.574-22.185 33.574-41.623v-5.3h-6.283c-16.687 0-52.422 0-52.422 25.523.001 10.406 8.445 21.4 25.131 21.4zM583.085 151.91h-9.62c-2.157 0-3.337-1.179-3.337-3.337v-.786c0-2.159 1.181-3.337 3.337-3.337h9.62v-24.542c0-2.159 1.181-3.337 3.337-3.337h1.573c2.161 0 3.337 1.179 3.337 3.337v24.542h22.381c2.161 0 3.337 1.179 3.337 3.337v.786c0 2.159-1.176 3.337-3.337 3.337h-22.381v53.99c0 26.311 15.903 28.86 23.954 29.256 2.941.196 3.926 1.176 3.926 3.337v.98c0 1.965-.789 3.337-3.337 3.337-23.17 0-32.79-14.726-32.79-36.323V151.91zM641.58 151.91h-9.032c-2.161 0-3.337-1.179-3.337-3.337v-.786c0-2.159 1.176-3.337 3.337-3.337h9.032v-4.516c0-31.021 21.205-36.321 31.021-36.321h1.765c2.161 0 3.342 1.179 3.342 3.337v1.179c0 2.355-1.377 3.141-4.126 3.337-9.424.392-23.754 2.945-23.754 28.272v4.712h23.558c2.161 0 3.337 1.179 3.337 3.337v.786c0 2.159-1.176 3.337-3.337 3.337h-23.558v86.78c0 2.157-1.181 3.337-3.337 3.337h-1.573c-2.161 0-3.337-1.181-3.337-3.337v-86.78h-.001zM737.383 141.504c28.076 0 50.849 22.185 50.849 50.849 0 29.254-22.773 52.028-50.849 52.028-28.076 0-50.849-22.773-50.849-52.028 0-28.664 22.773-50.849 50.849-50.849zm0 94.829c23.366 0 42.214-19.046 42.214-43.98 0-24.344-18.848-42.8-42.214-42.8-23.362 0-42.209 18.456-42.209 42.8 0 24.934 18.848 43.98 42.209 43.98zM813.933 147.198c0-2.161 1.181-3.34 3.337-3.34h1.573c2.157 0 3.337 1.179 3.337 3.34v15.312c0 4.516-.784 8.051-.784 8.051h.392c4.906-15.118 16.491-27.291 32.982-27.291 2.749 0 4.126 1.179 4.126 3.337v1.767c0 2.161-1.769 3.34-4.322 3.34-21.989 0-32.393 26.111-32.393 47.904v39.072c0 2.157-1.181 3.337-3.337 3.337h-1.573c-2.157 0-3.337-1.181-3.337-3.337v-91.492h-.001zM876.947 147.198c0-2.161 1.181-3.34 3.337-3.34h1.573c2.161 0 3.337 1.179 3.337 3.34v13.94c0 4.514-.784 8.049-.784 8.049h.392c4.906-14.726 22.381-27.684 37.696-27.684 19.632 0 28.86 9.228 31.021 26.701h.392c5.498-13.744 20.416-26.701 37.304-26.701 25.326 0 32.785 14.92 32.785 38.284v58.903c0 2.157-1.176 3.337-3.337 3.337h-1.573c-2.157 0-3.337-1.181-3.337-3.337v-55.957c0-18.454-3.729-33.572-24.538-33.572-21.009 0-36.519 22.185-36.519 43.978v45.551c0 2.157-1.176 3.337-3.337 3.337h-1.573c-2.157 0-3.337-1.181-3.337-3.337v-55.957c0-16.885-2.353-33.572-23.95-33.572-21.205 0-37.304 22.381-37.304 43.978v45.551c0 2.157-1.176 3.337-3.337 3.337h-1.573c-2.157 0-3.337-1.181-3.337-3.337v-91.492h-.001z"/>
        </g>
        <path fill="#FFF" d="M252.721 78.633c-.924 0-1.673.749-1.673 1.673v187.38a1.673 1.673 0 1 0 3.346 0V80.306c0-.924-.75-1.673-1.673-1.673z"/>
        <path fill="#B5DAFF" d="M45.797 267.686C20.609 267.686 0 247.078 0 221.889V45.797C0 20.609 20.609 0 45.797 0c25.188 0 45.797 20.609 45.797 45.797v176.092c0 25.189-20.609 45.797-45.797 45.797z"/>
        <path fill="#FFF" d="M169.05 211.872l-12.76-12.76c-16.248-16.248-16.248-42.591 0-58.839l6.744-6.743c11.786-11.786 11.786-30.895 0-42.68-18.483-18.482-48.448-18.482-66.931 0l-4.508 4.508v126.533c0 6.301-1.29 12.315-3.618 17.792l14.144 14.144c18.483 18.482 48.448 18.482 66.931 0 11.583-11.588 11.583-30.371-.002-41.955z"/>
        <path fill="#D3ECFF" d="M91.594 221.889V95.357l-40.506 40.506c-18.443 18.443-18.475 48.316-.11 66.809l-15.036 15.036h30.06l36.118 36.117-14.145-14.145a45.36 45.36 0 0 0 3.619-17.791z"/>
    </g>
</svg>
