<?xml version="1.0" encoding="UTF-8" standalone="no"?>
<svg width="125px" height="72px" viewBox="0 0 125 72" version="1.1" xmlns="http://www.w3.org/2000/svg" xmlns:xlink="http://www.w3.org/1999/xlink">
    <!-- Generator: sketchtool 47.1 (45422) - http://www.bohemiancoding.com/sketch -->
    <title>864DC91E-8DF0-4FD9-875C-0C711E74DB3E</title>
    <desc>Created with sketchtool.</desc>
    <defs></defs>
    <g id="Symbols" stroke="none" stroke-width="1" fill="none" fill-rule="evenodd">
        <g id="Logo/kata-logo">
            <g id="word" transform="translate(58.000000, 35.000000)" fill="#FFFFFF">
                <path d="M0.56,0.962748718 C0.56,0.675897436 0.720359909,0.52 1.01542214,0.52 L1.25642018,0.52 C1.55148241,0.52 1.71184232,0.675897436 1.71184232,0.962748718 L1.71184232,8.64893773 L5.19669222,8.64893773 L10.3685284,0.806851282 C10.5032307,0.598394139 10.6635906,0.52 10.9045886,0.52 L11.2793727,0.52 C11.6569057,0.52 11.7897753,0.754291575 11.6028415,1.06697729 L6.18817463,9.11841172 L6.18817463,9.17097143 L11.9776255,18.2388571 C12.1920496,18.5257084 12.0582636,18.76 11.6825633,18.76 L11.2793727,18.76 C11.039291,18.76 10.8780147,18.6816059 10.7442287,18.4731487 L5.19669222,9.69211429 L1.71184232,9.69211429 L1.71184232,18.3172513 C1.71184232,18.6032117 1.55148241,18.76 1.25642018,18.76 L1.01542214,18.76 C0.720359909,18.76 0.56,18.6032117 0.56,18.3172513 L0.56,0.962748718 Z" id="Fill-9"></path>
                <path d="M17.3293073,17.7594754 C20.0473179,17.7594754 21.5930373,14.8604972 21.5930373,12.3219182 L21.5930373,11.6291799 L20.7958792,11.6291799 C18.675524,11.6291799 14.1372647,11.6291799 14.1372647,14.9639695 C14.1372647,16.3231396 15.208952,17.7594754 17.3293073,17.7594754 M20.7694494,10.6286553 L21.5930373,10.6286553 L21.5930373,10.192844 C21.5930373,7.34560188 20.1726465,6.37050695 18.1767673,6.37050695 C16.6557726,6.37050695 15.5090586,6.98695635 14.9608526,7.34560188 C14.7349201,7.49993345 14.5371226,7.47450382 14.361492,7.24388334 L14.2625933,7.09042866 C14.0869627,6.85805441 14.1116874,6.62831082 14.3367673,6.47397925 C14.9105506,6.06359757 16.2559147,5.32 18.2270693,5.32 C21.0942806,5.32 22.64,6.96152672 22.64,10.1682913 L22.64,18.0164024 C22.64,18.2987591 22.4907993,18.4522137 22.21627,18.4522137 L22.0167673,18.4522137 C21.742238,18.4522137 21.5930373,18.2987591 21.5930373,18.0164024 L21.5930373,16.7589509 C21.5930373,16.0662126 21.6936412,15.6049716 21.6936412,15.6049716 L21.6433393,15.6049716 C21.6672114,15.6049716 20.5213499,18.76 17.2790053,18.76 C15.259254,18.76 13.04,17.6060207 13.04,15.0411353 C13.04,10.6803915 18.5501954,10.6286553 20.7694494,10.6286553" id="Fill-11"></path>
                <path d="M27.2944182,6.04876695 L25.976699,6.04876695 C25.6808095,6.04876695 25.52,5.8969086 25.52,5.61748923 L25.52,5.51509332 C25.52,5.23567395 25.6808095,5.0838156 25.976699,5.0838156 L27.2944182,5.0838156 L27.2944182,1.91127772 C27.2944182,1.63272611 27.4552277,1.48 27.7511172,1.48 L27.9661425,1.48 C28.262032,1.48 28.4228415,1.63272611 28.4228415,1.91127772 L28.4228415,5.0838156 L31.4874115,5.0838156 C31.783301,5.0838156 31.9441105,5.23567395 31.9441105,5.51509332 L31.9441105,5.61748923 C31.9441105,5.8969086 31.783301,6.04876695 31.4874115,6.04876695 L28.4228415,6.04876695 L28.4228415,13.0290445 C28.4228415,16.4298038 30.5997429,16.7586856 31.7024368,16.8098836 C32.10492,16.8367842 32.24,16.9617419 32.24,17.2411613 L32.24,17.3687223 C32.24,17.6229766 32.1334063,17.8 31.783301,17.8 C28.6121373,17.8 27.2944182,15.8961302 27.2944182,13.1054076 L27.2944182,6.04876695 Z" id="Fill-13"></path>
                <path d="M38.4493073,17.7594754 C41.1673179,17.7594754 42.7130373,14.8604972 42.7130373,12.3219182 L42.7130373,11.6291799 L41.9158792,11.6291799 C39.795524,11.6291799 35.2572647,11.6291799 35.2572647,14.9639695 C35.2572647,16.3231396 36.328952,17.7594754 38.4493073,17.7594754 M41.8894494,10.6286553 L42.7130373,10.6286553 L42.7130373,10.192844 C42.7130373,7.34560188 41.2926465,6.37050695 39.2967673,6.37050695 C37.7757726,6.37050695 36.6290586,6.98695635 36.0808526,7.34560188 C35.8549201,7.49993345 35.6571226,7.47450382 35.481492,7.24388334 L35.3825933,7.09042866 C35.2069627,6.85805441 35.2316874,6.62831082 35.4567673,6.47397925 C36.0305506,6.06359757 37.3759147,5.32 39.3470693,5.32 C42.2142806,5.32 43.76,6.96152672 43.76,10.1682913 L43.76,18.0164024 C43.76,18.2987591 43.6107993,18.4522137 43.33627,18.4522137 L43.1367673,18.4522137 C42.862238,18.4522137 42.7130373,18.2987591 42.7130373,18.0164024 L42.7130373,16.7589509 C42.7130373,16.0662126 42.8136412,15.6049716 42.8136412,15.6049716 L42.7633393,15.6049716 C42.7872114,15.6049716 41.6413499,18.76 38.3990053,18.76 C36.379254,18.76 34.16,17.6060207 34.16,15.0411353 C34.16,10.6803915 39.6701954,10.6286553 41.8894494,10.6286553" id="Fill-15"></path>
                <path d="M47.6,17.3577645 C47.6,17.0223114 47.7883408,16.84 48.1348879,16.84 L48.9851121,16.84 C49.3316592,16.84 49.52,17.0223114 49.52,17.3577645 L49.52,18.2422355 C49.52,18.5776886 49.3316592,18.76 48.9851121,18.76 L48.1348879,18.76 C47.7883408,18.76 47.6,18.5776886 47.6,18.2422355 L47.6,17.3577645 Z" id="Fill-17"></path>
                <path d="M56.6893073,17.7594754 C59.4073179,17.7594754 60.9530373,14.8604972 60.9530373,12.3219182 L60.9530373,11.6291799 L60.1558792,11.6291799 C58.035524,11.6291799 53.4972647,11.6291799 53.4972647,14.9639695 C53.4972647,16.3231396 54.568952,17.7594754 56.6893073,17.7594754 M60.1294494,10.6286553 L60.9530373,10.6286553 L60.9530373,10.192844 C60.9530373,7.34560188 59.5326465,6.37050695 57.5367673,6.37050695 C56.0157726,6.37050695 54.8690586,6.98695635 54.3208526,7.34560188 C54.0949201,7.49993345 53.8971226,7.47450382 53.721492,7.24388334 L53.6225933,7.09042866 C53.4469627,6.85805441 53.4716874,6.62831082 53.6967673,6.47397925 C54.2705506,6.06359757 55.6159147,5.32 57.5870693,5.32 C60.4542806,5.32 62,6.96152672 62,10.1682913 L62,18.0164024 C62,18.2987591 61.8507993,18.4522137 61.57627,18.4522137 L61.3767673,18.4522137 C61.102238,18.4522137 60.9530373,18.2987591 60.9530373,18.0164024 L60.9530373,16.7589509 C60.9530373,16.0662126 61.0536412,15.6049716 61.0536412,15.6049716 L61.0033393,15.6049716 C61.0272114,15.6049716 59.8813499,18.76 56.6390053,18.76 C54.619254,18.76 52.4,17.6060207 52.4,15.0411353 C52.4,10.6803915 57.9101954,10.6286553 60.1294494,10.6286553" id="Fill-19"></path>
                <path d="M65.9161696,6.17356257 C65.9161696,5.88669727 66.0310807,5.73079222 66.2425171,5.73079222 L66.3961696,5.73079222 C66.607606,5.73079222 66.7225171,5.88669727 66.7225171,6.17356257 L66.7225171,18.3172297 C66.7225171,18.6040949 66.607606,18.76 66.3961696,18.76 L66.2425171,18.76 C66.0310807,18.76 65.9161696,18.6040949 65.9161696,18.3172297 L65.9161696,6.17356257 Z M65.84,1.97838038 L65.84,0.962770343 C65.84,0.67590505 65.9549111,0.52 66.1663475,0.52 L66.4736525,0.52 C66.6850889,0.52 66.8,0.67590505 66.8,0.962770343 L66.8,1.97838038 C66.8,2.26524568 66.6850889,2.42115073 66.4736525,2.42115073 L66.1663475,2.42115073 C65.9549111,2.42115073 65.84,2.26524568 65.84,1.97838038 L65.84,1.97838038 Z" id="Fill-21"></path>
            </g>
            <g id="icon">
                <path d="M12.2927109,71.04 L12.2927109,71.04 C5.53211657,71.04 -8.91428571e-05,65.5979852 -8.91428571e-05,58.9456593 L-8.91428571e-05,12.4425244 C-8.91428571e-05,5.79107556 5.53211657,0.348183704 12.2927109,0.348183704 L12.2927109,0.348183704 C19.0533051,0.348183704 24.5855109,5.79107556 24.5855109,12.4425244 L24.5855109,58.9456593 C24.5855109,65.5979852 19.0533051,71.04 12.2927109,71.04" id="Fill-1" fill="#B6DBFF"></path>
                <path d="M45.2388,56.2968182 L41.8139314,52.9264568 C37.4521714,48.6341148 37.4521714,41.6758361 41.8139314,37.3843713 L43.6235314,35.6026941 C46.7872114,32.4893644 46.7872114,27.4425948 43.6235314,24.3292651 C38.6627314,19.4474168 30.6193714,19.4474168 25.6585714,24.3292651 L24.4480114,25.5196817 L24.4480114,58.9425782 C24.4480114,60.6075823 24.1021371,62.1953892 23.4772457,63.6428375 L27.27384,67.3781313 C32.23464,72.2608568 40.278,72.2608568 45.2388,67.3781313 C48.3481029,64.3183134 48.3481029,59.3566361 45.2388,56.2968182" id="Fill-4" fill="#FFFFFF"></path>
                <path d="M24.5318157,58.7275547 L24.5318157,25 L13.9544715,35.7972437 C9.13886179,40.7129684 9.1301897,48.6756811 13.9258537,53.6046844 L10,57.6130405 L17.8491057,57.6130405 L27.28,67.24 L23.5865583,63.4697728 C24.1953388,62.0100159 24.5318157,60.4068505 24.5318157,58.7275547" id="Fill-7" fill="#D4EDFF"></path>
            </g>
        </g>
    </g>
</svg>