<svg xmlns="http://www.w3.org/2000/svg" width="56" height="56" viewBox="0 0 56 56">
    <g fill="none" fill-rule="evenodd">
        <circle cx="28" cy="28" r="28" fill="#2A90FF"/>
        <path fill="#80C0FF" d="M22 40a2.99 2.99 0 0 1-2.121-.879l-9-9a2.998 2.998 0 0 1 0-4.242 2.998 2.998 0 0 1 4.242 0l9 9A2.998 2.998 0 0 1 22 40"/>
        <path fill="#D4EDFF" d="M24.121 16.879a2.998 2.998 0 0 0-4.242 0l-9 9a2.998 2.998 0 0 0 0 4.242l4.08 4.079a2.987 2.987 0 0 1 .11-4.036l9.052-9.043a2.998 2.998 0 0 0 0-4.242"/>
        <g>
            <path fill="#80C0FF" d="M34 40a2.99 2.99 0 0 0 2.121-.879l9-9a2.998 2.998 0 0 0 0-4.242 2.998 2.998 0 0 0-4.242 0l-9 9A2.998 2.998 0 0 0 34 40"/>
            <path fill="#D4EDFF" d="M31.879 16.879a2.998 2.998 0 0 1 4.242 0l9 9a2.998 2.998 0 0 1 0 4.242L41.04 34.2a2.987 2.987 0 0 0-.11-4.036l-9.052-9.043a2.998 2.998 0 0 1 0-4.242"/>
        </g>
    </g>
</svg>
