<svg xmlns="http://www.w3.org/2000/svg" xmlns:xlink="http://www.w3.org/1999/xlink" width="160" height="160" viewBox="0 0 160 160">
    <defs>
        <linearGradient id="a" x1="37.638%" x2="92.631%" y1="14.377%" y2="102.846%">
            <stop offset="0%" stop-color="#6BDCFF"/>
            <stop offset="100%" stop-color="#007CFF"/>
        </linearGradient>
        <linearGradient id="c" x1="0%" x2="93.268%" y1="-13.697%" y2="152.519%">
            <stop offset="0%" stop-color="#80F0FF"/>
            <stop offset="100%" stop-color="#007CFF"/>
        </linearGradient>
        <path id="b" d="M19.64 40.408c10.848 0 19.642-9.045 19.642-20.204C39.282 9.046 30.488 0 19.64 0 8.794 0 0 9.046 0 20.204c0 11.159 8.794 20.204 19.64 20.204z"/>
        <linearGradient id="e" x1="-27.974%" x2="145.351%" y1="40.847%" y2="264.672%">
            <stop offset="0%" stop-color="#FFF"/>
            <stop offset="100%" stop-color="#7DEDFF"/>
        </linearGradient>
        <path id="f" d="M19.64 40.408c10.848 0 19.642-9.045 19.642-20.204C39.282 9.046 30.488 0 19.64 0 8.794 0 0 9.046 0 20.204c0 11.159 8.794 20.204 19.64 20.204z"/>
        <linearGradient id="h" x1="89.053%" x2="63.599%" y1="264.444%" y2="12.38%">
            <stop offset="0%" stop-color="#092F97"/>
            <stop offset="100%" stop-color="#007CFF"/>
        </linearGradient>
        <linearGradient id="i" x1="-1.849%" x2="79.783%" y1="-13.835%" y2="103.798%">
            <stop offset="0%" stop-color="#128CFF"/>
            <stop offset="100%" stop-color="#0051B5"/>
        </linearGradient>
    </defs>
    <g fill="none" fill-rule="evenodd">
        <path d="M0 0h160v160H0z"/>
        <path fill="url(#a)" d="M21.622 44.239c11.941 0 21.622-9.903 21.622-22.12C43.244 9.903 33.564 0 21.622 0S0 9.903 0 22.12c0 12.216 9.68 22.119 21.622 22.119z" transform="translate(18 57.905)"/>
        <g transform="translate(19.926 59.906)">
            <mask id="d" fill="#fff">
                <use xlink:href="#b"/>
            </mask>
            <use fill="url(#c)" fill-rule="nonzero" xlink:href="#b"/>
            <g fill="url(#e)" mask="url(#d)">
                <path d="M31.321 34.934c.01.16.018.321.021.484l.505 11.685H7.58l.51-11.801c.183-5.89 5.318-10.613 11.625-10.613 6.15 0 11.186 4.49 11.601 10.177h.002l.003.068zm-7.103-10.548c-3.54 0-6.41-2.914-6.41-6.509s2.87-6.51 6.41-6.51 6.41 2.915 6.41 6.51c0 3.595-2.87 6.51-6.41 6.51z"/>
            </g>
        </g>
        <path fill="url(#a)" d="M21.622 44.239c11.941 0 21.622-9.903 21.622-22.12C43.244 9.903 33.564 0 21.622 0S0 9.903 0 22.12c0 12.216 9.68 22.119 21.622 22.119z" transform="translate(97.606 57.804)"/>
        <g transform="translate(99.532 59.804)">
            <mask id="g" fill="#fff">
                <use xlink:href="#f"/>
            </mask>
            <use fill="url(#c)" fill-rule="nonzero" xlink:href="#f"/>
            <g fill="url(#e)" mask="url(#g)">
                <path d="M31.321 34.934c.01.16.018.321.021.484l.505 11.685H7.58l.51-11.801c.183-5.89 5.318-10.613 11.625-10.613 6.15 0 11.186 4.49 11.601 10.177h.002l.003.068zM17.598 24.386c-3.54 0-6.41-2.914-6.41-6.509s2.87-6.51 6.41-6.51 6.41 2.915 6.41 6.51c0 3.595-2.87 6.51-6.41 6.51z"/>
            </g>
        </g>
        <path fill="url(#h)" d="M61.65 59.893c6.941 0 12.569-5.688 12.569-12.705 0-7.016-5.628-12.704-12.57-12.704-6.941 0-12.569 5.688-12.569 12.704 0 7.017 5.628 12.705 12.57 12.705z" transform="translate(18 33)"/>
        <path fill="#FFF" d="M76 84.164l.98-1.358s1.078 1.05 2.478 1.05c.756 0 1.442-.392 1.442-1.204 0-1.68-4.732-1.512-4.732-4.522 0-1.442 1.078-2.562 2.632-2.814V74h1.204v1.288c1.624.14 2.464 1.022 2.464 1.022l-.784 1.47s-.952-.868-2.198-.868c-.84 0-1.498.49-1.498 1.19 0 1.666 4.718 1.372 4.718 4.508 0 1.428-.994 2.646-2.702 2.87v1.288H78.8V85.48c-1.806-.21-2.8-1.316-2.8-1.316z"/>
        <path stroke="url(#i)" stroke-width="1.2" d="M61.65 59.293c6.609 0 11.969-5.418 11.969-12.105 0-6.686-5.36-12.104-11.97-12.104-6.608 0-11.969 5.418-11.969 12.104 0 6.687 5.36 12.105 11.97 12.105z" transform="translate(18 33)"/>
        <path fill="#0D64C2" fill-rule="nonzero" d="M51.212 112.747A42.942 42.942 0 0 0 79.571 123.4c12.324 0 23.81-5.209 31.958-14.186a1.528 1.528 0 0 1 2.175-.095c.627.581.669 1.566.094 2.199-8.724 9.614-21.032 15.195-34.227 15.195-11.509 0-22.352-4.244-30.74-11.737v10.18c0 .86-.69 1.557-1.54 1.557-.851 0-1.54-.697-1.54-1.557v-15.321h15.222c.85 0 1.54.696 1.54 1.556 0 .86-.69 1.556-1.54 1.556h-9.76zM108.43 47.468c-7.85-7.08-18.035-11.097-28.859-11.097-12.471 0-24.083 5.336-32.24 14.5a1.528 1.528 0 0 1-2.175.117 1.568 1.568 0 0 1-.115-2.198c8.736-9.815 21.177-15.531 34.53-15.531 11.586 0 22.494 4.3 30.901 11.88v-9.88c0-.86.69-1.556 1.54-1.556.85 0 1.54.696 1.54 1.556v15.322H98.328c-.85 0-1.54-.697-1.54-1.557s.69-1.556 1.54-1.556h10.101z"/>
    </g>
</svg>
