<svg xmlns="http://www.w3.org/2000/svg" width="24" height="16" viewBox="0 0 24 16">
    <g fill="none" fill-rule="evenodd">
        <path fill="#FFF" d="M0 16h24V0H0z"/>
        <path fill="#F0F0F0" d="M1 15h22.001V1H1z"/>
        <path fill="#D80027" d="M10.625 1v5.688H1v2.624h9.626V15h2.75V9.312H23V6.688h-9.626V1z"/>
        <path fill="#0052B4" d="M17.92 10.435L23 13.129v-2.694zM14.391 10.435L23.001 15v-1.291l-6.176-3.274zM20.707 15l-6.316-3.35V15z"/>
        <path fill="#F0F0F0" d="M14.391 10.435L23.001 15v-1.291l-6.176-3.274z"/>
        <path fill="#D80027" d="M14.391 10.435L23.001 15v-1.291l-6.176-3.274z"/>
        <path fill="#0052B4" d="M1 10.434v2.058l3.882-2.058zM9.609 11.015V15H2.096z"/>
        <path fill="#D80027" d="M7.174 10.434L1 13.708V15l8.608-4.566z"/>
        <path fill="#0052B4" d="M1 5.565h5.08L1 2.871zM1 2.291l6.174 3.274h2.435L.999 1zM3.293 1L9.61 4.349V1z"/>
        <path fill="#F0F0F0" d="M1 2.291l6.174 3.274h2.435L.999 1z"/>
        <path fill="#D80027" d="M1 2.291l6.174 3.274h2.435L.999 1z"/>
        <path fill="#0052B4" d="M19.118 5.565L23 3.506v2.06zM14.391 4.985V1h7.513z"/>
        <path fill="#D80027" d="M16.826 5.565L23 2.291v-1.29l-8.608 4.564z"/>
    </g>
</svg>
