<svg xmlns="http://www.w3.org/2000/svg" viewBox="0 0 96 96">
  <defs>
    <style>
      .cls-1, .cls-4 {
        fill: none;
      }

      .cls-1 {
        stroke: #fff;
        stroke-width: 2px;
      }

      .cls-2 {
        fill: #fff;
        stroke: #006ee5;
      }

      .cls-3 {
        stroke: none;
      }
    </style>
  </defs>
  <g id="Group_2150" data-name="Group 2150" transform="translate(21920 -117.3)">
    <g id="Ellipse_3859" data-name="Ellipse 3859" class="cls-1" transform="translate(-21920 117.3)">
      <circle class="cls-3" cx="48" cy="48" r="48"/>
      <circle class="cls-4" cx="48" cy="48" r="47"/>
    </g>
    <g id="work" transform="translate(-21903 111.925)">
      <g id="Group_2143" data-name="Group 2143" transform="translate(26.63 57.232)">
        <g id="Group_2142" data-name="Group 2142">
          <path id="Path_1817" data-name="Path 1817" class="cls-2" d="M227.353,344.906a3.659,3.659,0,1,0,4.115,3.631A3.9,3.9,0,0,0,227.353,344.906Zm0,4.875c-.937,0-1.729-.57-1.729-1.245s.792-1.245,1.729-1.245,1.729.57,1.729,1.245S228.29,349.781,227.353,349.781Z" transform="translate(-223.238 -344.906)"/>
        </g>
      </g>
      <g id="Group_2145" data-name="Group 2145" transform="translate(24.407 54.562)">
        <g id="Group_2144" data-name="Group 2144">
          <path id="Path_1818" data-name="Path 1818" class="cls-2" d="M205.882,322.523H205.8a1.193,1.193,0,1,0,0,2.386h.079a1.193,1.193,0,1,0,0-2.386Z" transform="translate(-204.61 -322.523)"/>
        </g>
      </g>
      <g id="Group_2147" data-name="Group 2147" transform="translate(0 20.275)">
        <g id="Group_2146" data-name="Group 2146">
          <path id="Path_1819" data-name="Path 1819" class="cls-2" d="M60.6,89.883l-2.6-14.038a1.193,1.193,0,0,0-1.173-.976H53.616a5.661,5.661,0,0,0-.314-1.075L47.185,58.589a5.653,5.653,0,0,0-7.117-3.217H35.894v-.109a10.782,10.782,0,0,0,5.2-11.829,4.343,4.343,0,0,0,1.991-2.719A1.193,1.193,0,0,0,41.5,39.34a3.069,3.069,0,0,1-1.057.214,2.541,2.541,0,0,1-1.927-1.06A10.009,10.009,0,0,0,30.8,35.1h-.034c-4.914.014-8.089,2.2-10.288,7.075l0,.009-.01.022c0,.011-.008.021-.012.032s-.019.046-.027.069-.011.035-.016.053-.01.03-.014.045,0,.021-.007.031v.006a12.293,12.293,0,0,0,.7,8.024,10.7,10.7,0,0,0,4.431,4.91h-4.7a5.653,5.653,0,0,0-7.117,3.217L7.589,73.794a5.658,5.658,0,0,0-.314,1.075H3.215a1.193,1.193,0,0,0-1.181,1.023L.012,89.93a1.193,1.193,0,0,0,1.181,1.363h58.23a1.193,1.193,0,0,0,1.173-1.41ZM36.554,57.757h3.731a1.191,1.191,0,0,0,.445-.086,3.264,3.264,0,0,1,4.242,1.808l6.117,15.206a3.273,3.273,0,0,1-1.808,4.241,5.626,5.626,0,0,1-3.107.031L46.988,66A1.193,1.193,0,0,0,45.8,64.735H35.688l-.767-4.019Zm-14.6,11.625H16.809l-.142-2.261h27.86L43.512,83.286H17.682l-.723-11.518h5a1.193,1.193,0,0,0,0-2.386ZM32.965,59.325H29.143l-1.005-1.568h5.692Zm.295,5.41h-4.2l.46-3.025h3.166ZM30.773,37.481H30.8a7.685,7.685,0,0,1,5.932,2.593,5.362,5.362,0,0,0,2.458,1.684l-.034.017a8.381,8.381,0,0,1-3.186.542,17.522,17.522,0,0,1-6.86-1.574,7.338,7.338,0,0,0-2.984-.621,8.548,8.548,0,0,0-1.8.2A7.582,7.582,0,0,1,30.773,37.481ZM22.6,43.49a7.739,7.739,0,0,1,3.53-.982,4.969,4.969,0,0,1,2.02.418A19.666,19.666,0,0,0,35.97,44.7a11.874,11.874,0,0,0,2.88-.331,8.395,8.395,0,0,1-4.661,9.09,1.193,1.193,0,0,0-.681,1.077v.832H28.032V54.7a1.193,1.193,0,0,0-.71-1.091C23.738,52.021,21.768,47.736,22.6,43.49ZM9.8,74.685l6.117-15.206a3.264,3.264,0,0,1,4.242-1.808,1.193,1.193,0,0,0,.445.086h4.7l1.941,3.026-.6,3.952H15.4A1.193,1.193,0,0,0,14.206,66l.806,12.835a5.483,5.483,0,0,1-3.4.089A3.273,3.273,0,0,1,9.8,74.685ZM2.57,88.907h0L4.248,77.255h3.1a5.736,5.736,0,0,0,.288.859A5.607,5.607,0,0,0,10.72,81.14a6.475,6.475,0,0,0,2.374.41,8.3,8.3,0,0,0,2.072-.262l.205,3.266a1.193,1.193,0,0,0,1.191,1.118h28.07a1.193,1.193,0,0,0,1.191-1.118l.2-3.179a8.539,8.539,0,0,0,1.729.176,6.655,6.655,0,0,0,2.42-.41,5.606,5.606,0,0,0,3.082-3.026,5.759,5.759,0,0,0,.288-.859H55.83l2.158,11.652H2.57Z" transform="translate(0 -35.095)"/>
        </g>
      </g>
    </g>
  </g>
</svg>
