<svg xmlns="http://www.w3.org/2000/svg" viewBox="0 0 96 96">
  <defs>
    <style>
      .cls-1, .cls-4 {
        fill: none;
      }

      .cls-1 {
        stroke: #fff;
        stroke-width: 2px;
      }

      .cls-2 {
        fill: #fff;
        stroke: #006ee5;
        stroke-width: 0.7px;
      }

      .cls-3 {
        stroke: none;
      }
    </style>
  </defs>
  <g id="Group_2154" data-name="Group 2154" transform="translate(21292 -117.3)">
    <g id="Ellipse_3863" data-name="Ellipse 3863" class="cls-1" transform="translate(-21292 117.3)">
      <circle class="cls-3" cx="48" cy="48" r="48"/>
      <circle class="cls-4" cx="48" cy="48" r="47"/>
    </g>
    <g id="shield" transform="translate(-21323 138.686)">
      <g id="Group_1816" data-name="Group 1816" transform="translate(60.648 21.62)">
        <g id="Group_1815" data-name="Group 1815" transform="translate(0)">
          <path id="Path_1660" data-name="Path 1660" class="cls-2" d="M97.161,186a1.162,1.162,0,1,0,1.162,1.162A1.163,1.163,0,0,0,97.161,186Z" transform="translate(-95.999 -185.998)"/>
        </g>
      </g>
      <g id="Group_1818" data-name="Group 1818" transform="translate(67.623 16.97)">
        <g id="Group_1817" data-name="Group 1817">
          <path id="Path_1661" data-name="Path 1661" class="cls-2" d="M178.084,152.972h-5.812V147.16A1.162,1.162,0,0,0,171.11,146h-6.974a1.162,1.162,0,0,0-1.162,1.162v5.812h-5.812A1.162,1.162,0,0,0,156,154.135v6.974a1.162,1.162,0,0,0,1.162,1.162h5.812v5.812a1.162,1.162,0,0,0,1.162,1.162h6.974a1.162,1.162,0,0,0,1.162-1.162v-5.812h5.812a1.162,1.162,0,0,0,1.162-1.162v-6.974A1.162,1.162,0,0,0,178.084,152.972Zm-1.162,6.974H171.11a1.162,1.162,0,0,0-1.162,1.162v5.812H165.3v-5.812a1.162,1.162,0,0,0-1.162-1.162h-5.812V155.3h5.812a1.162,1.162,0,0,0,1.162-1.162v-5.812h4.649v5.812a1.162,1.162,0,0,0,1.162,1.162h5.812Z" transform="translate(-155.999 -145.998)"/>
        </g>
      </g>
      <g id="Group_1820" data-name="Group 1820" transform="translate(55.999)">
        <g id="Group_1819" data-name="Group 1819">
          <path id="Path_1662" data-name="Path 1662" class="cls-2" d="M97.19,3.573a11.578,11.578,0,0,1-6.32,1.868,11.6,11.6,0,0,1-8.91-4.16h0a3.513,3.513,0,0,0-5.426,0,11.6,11.6,0,0,1-8.91,4.16A11.579,11.579,0,0,1,61.3,3.573,3.471,3.471,0,0,0,56,6.545V30.254a24.242,24.242,0,0,0,4.763,14.509A49.255,49.255,0,0,0,78.788,59.418a1.161,1.161,0,0,0,.917,0A49.257,49.257,0,0,0,97.73,44.763a24.248,24.248,0,0,0,4.763-14.51V6.545A3.471,3.471,0,0,0,97.19,3.573ZM95.872,43.366a48.209,48.209,0,0,1-16.627,13.7,48.061,48.061,0,0,1-16.626-13.7,21.9,21.9,0,0,1-4.3-13.111V6.545a1.147,1.147,0,0,1,1.713-1.022,13.9,13.9,0,0,0,7.586,2.242,13.923,13.923,0,0,0,10.691-4.99,1.19,1.19,0,0,1,1.864,0A13.924,13.924,0,0,0,90.87,7.765a13.9,13.9,0,0,0,7.586-2.242,1.147,1.147,0,0,1,1.713,1.022V30.254h0A21.909,21.909,0,0,1,95.872,43.366Z" transform="translate(-55.999)"/>
        </g>
      </g>
      <g id="Group_1822" data-name="Group 1822" transform="translate(60.649 5.642)">
        <g id="Group_1821" data-name="Group 1821" transform="translate(0)">
          <path id="Path_1663" data-name="Path 1663" class="cls-2" d="M132.7,52.2a1.163,1.163,0,0,0-1.059-.146,16.232,16.232,0,0,1-16.273-3.218,1.162,1.162,0,0,0-1.548,0,16.232,16.232,0,0,1-16.273,3.218A1.162,1.162,0,0,0,96,53.148V61.03a1.162,1.162,0,1,0,2.325,0V54.719a18.552,18.552,0,0,0,16.273-3.5,18.552,18.552,0,0,0,16.273,3.5V73.151a17.212,17.212,0,0,1-3.363,10.315,43.026,43.026,0,0,1-12.9,11.248,43.419,43.419,0,0,1-12.921-11.246,17.227,17.227,0,0,1-3.363-10.317V70.329a1.162,1.162,0,1,0-2.325,0v2.822a19.564,19.564,0,0,0,3.83,11.714,45.891,45.891,0,0,0,14.217,12.2,1.162,1.162,0,0,0,1.118,0,45.447,45.447,0,0,0,14.2-12.2,19.551,19.551,0,0,0,3.83-11.713v-20A1.162,1.162,0,0,0,132.7,52.2Z" transform="translate(-96 -48.539)"/>
        </g>
      </g>
    </g>
  </g>
</svg>
