<svg xmlns="http://www.w3.org/2000/svg" viewBox="0 0 96 96">
  <defs>
    <style>
      .cls-1, .cls-4 {
        fill: none;
      }

      .cls-1 {
        stroke: #fff;
        stroke-width: 2px;
      }

      .cls-2 {
        fill: #fff;
        stroke: #006ee5;
      }

      .cls-3 {
        stroke: none;
      }
    </style>
  </defs>
  <g id="Group_2155" data-name="Group 2155" transform="translate(21135 -117.3)">
    <g id="Ellipse_3864" data-name="Ellipse 3864" class="cls-1" transform="translate(-21135 117.3)">
      <circle class="cls-3" cx="48" cy="48" r="48"/>
      <circle class="cls-4" cx="48" cy="48" r="47"/>
    </g>
    <g id="open-book" transform="translate(-21118.473 144.422)">
      <path id="Path_1664" data-name="Path 1664" class="cls-2" d="M58.486,0H40.221a12.808,12.808,0,0,0-5.053,1.069,10.28,10.28,0,0,1-8.1-.012A12.572,12.572,0,0,0,22.02,0H3.882A3.92,3.92,0,0,0,0,3.869V41.838a3.9,3.9,0,0,0,3.882,3.844H22.02a10.064,10.064,0,0,1,4.048.827,12.9,12.9,0,0,0,10.106,0,10.064,10.064,0,0,1,4.048-.827H58.486a3.907,3.907,0,0,0,3.882-3.844V3.869A3.92,3.92,0,0,0,58.486,0ZM22.02,43.149H3.882a1.355,1.355,0,0,1-1.336-1.3V3.869A1.377,1.377,0,0,1,3.882,2.546H22.02a9.916,9.916,0,0,1,4.009.866,12.748,12.748,0,0,0,3.755,1.005v40.5a10.423,10.423,0,0,1-2.737-.738A12.684,12.684,0,0,0,22.02,43.149Zm37.8-1.3a1.355,1.355,0,0,1-1.336,1.3H40.221A12.953,12.953,0,0,0,35.13,44.18a9.66,9.66,0,0,1-2.8.738V4.417a12.159,12.159,0,0,0,3.818-1.005,10.214,10.214,0,0,1,4.073-.866H58.486a1.377,1.377,0,0,1,1.336,1.324Zm0,0"/>
      <path id="Path_1665" data-name="Path 1665" class="cls-2" d="M58.273,78.546h5.753a1.273,1.273,0,0,0,0-2.546H58.273a1.273,1.273,0,0,0,0,2.546Zm0,0" transform="translate(-49.745 -66.327)"/>
      <path id="Path_1666" data-name="Path 1666" class="cls-2" d="M72.936,138H58.273a1.273,1.273,0,1,0,0,2.546H72.936a1.273,1.273,0,1,0,0-2.546Zm0,0" transform="translate(-49.745 -120.435)"/>
      <path id="Path_1667" data-name="Path 1667" class="cls-2" d="M72.936,201H58.273a1.273,1.273,0,1,0,0,2.546H72.936a1.273,1.273,0,1,0,0-2.546Zm0,0" transform="translate(-49.745 -175.416)"/>
      <path id="Path_1668" data-name="Path 1668" class="cls-2" d="M72.936,264H58.273a1.273,1.273,0,0,0,0,2.546H72.936a1.273,1.273,0,0,0,0-2.546Zm0,0" transform="translate(-49.745 -230.397)"/>
      <path id="Path_1669" data-name="Path 1669" class="cls-2" d="M318.854,153.336l-5.219,5.219L311.1,156a1.269,1.269,0,1,0-1.807,1.782l3.437,3.462a1.291,1.291,0,0,0,1.807,0l6.122-6.122a1.268,1.268,0,0,0,0-1.794A1.3,1.3,0,0,0,318.854,153.336Zm0,0" transform="translate(-269.609 -133.493)"/>
    </g>
  </g>
</svg>
