<svg xmlns="http://www.w3.org/2000/svg" viewBox="0 0 96 96">
  <defs>
    <style>
      .cls-1, .cls-5 {
        fill: none;
      }

      .cls-1 {
        stroke: #fff;
        stroke-width: 2px;
      }

      .cls-2, .cls-3 {
        fill: #fff;
      }

      .cls-2 {
        stroke: #006ee5;
        stroke-width: 0.5px;
      }

      .cls-3 {
        font-size: 10px;
        font-family: ArialRoundedMTBold, Arial Rounded MT Bold;
      }

      .cls-4 {
        stroke: none;
      }
    </style>
  </defs>
  <g id="Group_2152" data-name="Group 2152" transform="translate(21606 -117.3)">
    <g id="Ellipse_3861" data-name="Ellipse 3861" class="cls-1" transform="translate(-21606 117.3)">
      <circle class="cls-4" cx="48" cy="48" r="48"/>
      <circle class="cls-5" cx="48" cy="48" r="47"/>
    </g>
    <g id="money" transform="translate(-21586 136.629)">
      <g id="Group_1785" data-name="Group 1785" transform="translate(20.914 6.747)">
        <g id="Group_1784" data-name="Group 1784">
          <path id="Path_1644" data-name="Path 1644" class="cls-2" d="M187.124,60a1.124,1.124,0,1,0,1.124,1.124A1.125,1.125,0,0,0,187.124,60Z" transform="translate(-186 -60)"/>
        </g>
      </g>
      <g id="Group_1789" data-name="Group 1789" transform="translate(32.833 16.417)">
        <g id="Group_1788" data-name="Group 1788">
          <path id="Path_1646" data-name="Path 1646" class="cls-2" d="M312.24,146a4.5,4.5,0,0,0-4.5,4.5v8.014a4.5,4.5,0,0,0-4.3,1.175l-7.541,7.541a5.582,5.582,0,0,0-1.648,3.977v6.617h-1.124A1.124,1.124,0,0,0,292,178.946v7.084a1.124,1.124,0,0,0,1.124,1.124h15.742a1.124,1.124,0,0,0,1.124-1.124v-7.084a1.124,1.124,0,0,0-1.124-1.124h-1.124v-.531a1.132,1.132,0,0,1,.33-.795l7.019-7.019a5.587,5.587,0,0,0,1.647-3.976v-15A4.5,4.5,0,0,0,312.24,146Zm-4.5,38.9H294.249V180.07h13.493Zm6.747-19.4a3.352,3.352,0,0,1-.988,2.386l-7.019,7.019a3.4,3.4,0,0,0-.988,2.385v.531h-9V171.2a3.349,3.349,0,0,1,.988-2.386l7.542-7.541a2.245,2.245,0,0,1,3.087-.086l.019.017c.026.022.05.046.074.07a2.247,2.247,0,0,1,0,3.179l-5.587,5.587a1.124,1.124,0,0,0,1.59,1.59l5.587-5.587a4.495,4.495,0,0,0,.193-6.153v-9.4a2.249,2.249,0,1,1,4.5,0Z" transform="translate(-292 -146)"/>
        </g>
      </g>
      <g id="Group_1791" data-name="Group 1791" transform="translate(0 16.417)">
        <g id="Group_1790" data-name="Group 1790">
          <path id="Path_1647" data-name="Path 1647" class="cls-2" d="M23.613,177.821H22.488V171.2a5.582,5.582,0,0,0-1.647-3.976L13.3,159.686A4.5,4.5,0,0,0,9,158.511V150.5a4.5,4.5,0,0,0-9,0v15a5.587,5.587,0,0,0,1.647,3.976L8.666,176.5a1.132,1.132,0,0,1,.33.795v.531H7.871a1.124,1.124,0,0,0-1.124,1.124v7.084a1.124,1.124,0,0,0,1.124,1.124H23.613a1.124,1.124,0,0,0,1.124-1.124v-7.084A1.124,1.124,0,0,0,23.613,177.821ZM3.237,167.887a3.353,3.353,0,0,1-.988-2.386v-15a2.249,2.249,0,1,1,4.5,0v9.4a4.494,4.494,0,0,0,.193,6.153l5.622,5.622a1.124,1.124,0,1,0,1.59-1.59L8.53,164.456a2.247,2.247,0,0,1,0-3.179c.025-.024.049-.048.074-.07l.019-.017a2.245,2.245,0,0,1,3.087.086l7.542,7.542a3.348,3.348,0,0,1,.988,2.385v6.617h-9v-.531a3.4,3.4,0,0,0-.988-2.385ZM22.488,184.9H9V180.07H22.488Z" transform="translate(0 -146)"/>
        </g>
      </g>
      <g id="Group_1793" data-name="Group 1793" transform="translate(11.919)">
        <g id="Group_1792" data-name="Group 1792">
          <path id="Path_1648" data-name="Path 1648" class="cls-2" d="M122.866,0a16.866,16.866,0,1,0,16.866,16.866A16.885,16.885,0,0,0,122.866,0Zm0,31.484a14.617,14.617,0,1,1,14.617-14.617A14.634,14.634,0,0,1,122.866,31.484Z" transform="translate(-106)"/>
        </g>
      </g>
      <g id="Group_1795" data-name="Group 1795" transform="translate(16.417 4.501)">
        <g id="Group_1794" data-name="Group 1794">
          <path id="Path_1649" data-name="Path 1649" class="cls-2" d="M166.133,42.768a12.454,12.454,0,0,0-10.5-2.445,1.124,1.124,0,1,0,.474,2.2,10.215,10.215,0,0,1,8.618,2,10.118,10.118,0,1,1-15.275,3.1,1.124,1.124,0,0,0-1.982-1.063,12.37,12.37,0,1,0,18.669-3.787Z" transform="translate(-146 -40.031)"/>
        </g>
      </g>
      <text id="Rp" class="cls-3" transform="translate(28.713 19.794)"><tspan x="-6.721" y="0">Rp</tspan></text>
    </g>
  </g>
</svg>
