<svg xmlns="http://www.w3.org/2000/svg" viewBox="0 0 96 96">
  <defs>
    <style>
      .cls-1, .cls-4 {
        fill: none;
      }

      .cls-1 {
        stroke: #fff;
        stroke-width: 2px;
      }

      .cls-2 {
        fill: #fff;
      }

      .cls-3 {
        stroke: none;
      }
    </style>
  </defs>
  <g id="Group_2151" data-name="Group 2151" transform="translate(21763 -117.3)">
    <g id="Ellipse_3860" data-name="Ellipse 3860" class="cls-1" transform="translate(-21763 117.3)">
      <circle class="cls-3" cx="48" cy="48" r="48"/>
      <circle class="cls-4" cx="48" cy="48" r="47"/>
    </g>
    <g id="clock" transform="translate(-21745 135.199)">
      <path id="Path_1634" data-name="Path 1634" class="cls-2" d="M30,0A30,30,0,1,0,60,30,30.034,30.034,0,0,0,30,0Zm0,58A28,28,0,1,1,58,30,28.032,28.032,0,0,1,30,58Z"/>
      <path id="Path_1635" data-name="Path 1635" class="cls-2" d="M31,26.021V15.879a1,1,0,1,0-2,0V26.021a4,4,0,0,0-2.858,2.858H19a1,1,0,0,0,0,2h7.142A3.992,3.992,0,1,0,31,26.021Zm-1,5.858a2,2,0,1,1,2-2A2,2,0,0,1,30,31.879Z"/>
      <path id="Path_1636" data-name="Path 1636" class="cls-2" d="M30,9.879a1,1,0,0,0,1-1v-1a1,1,0,0,0-2,0v1A1,1,0,0,0,30,9.879Z"/>
      <path id="Path_1637" data-name="Path 1637" class="cls-2" d="M30,49.879a1,1,0,0,0-1,1v1a1,1,0,0,0,2,0v-1A1,1,0,0,0,30,49.879Z"/>
      <path id="Path_1638" data-name="Path 1638" class="cls-2" d="M52,28.879H51a1,1,0,0,0,0,2h1a1,1,0,0,0,0-2Z"/>
      <path id="Path_1639" data-name="Path 1639" class="cls-2" d="M9,28.879H8a1,1,0,1,0,0,2H9a1,1,0,0,0,0-2Z"/>
      <path id="Path_1640" data-name="Path 1640" class="cls-2" d="M44.849,13.615l-.707.707a1,1,0,1,0,1.414,1.414l.707-.707a1,1,0,1,0-1.414-1.414Z"/>
      <path id="Path_1641" data-name="Path 1641" class="cls-2" d="M14.444,44.021l-.707.707a1,1,0,1,0,1.414,1.414l.707-.707a1,1,0,0,0-1.414-1.414Z"/>
      <path id="Path_1642" data-name="Path 1642" class="cls-2" d="M45.556,44.021a1,1,0,0,0-1.414,1.414l.707.707a1,1,0,0,0,1.414-1.414Z"/>
      <path id="Path_1643" data-name="Path 1643" class="cls-2" d="M15.151,13.615a1,1,0,1,0-1.414,1.414l.707.707a1,1,0,1,0,1.414-1.414Z"/>
    </g>
  </g>
</svg>
