<svg xmlns="http://www.w3.org/2000/svg" xmlns:xlink="http://www.w3.org/1999/xlink" viewBox="0 0 164 175">
  <defs>
    <style>
      .cls-1 {
        fill: #fff;
      }

      .cls-2, .cls-3 {
        fill: none;
      }

      .cls-2 {
        stroke: #006ee5;
        stroke-linecap: round;
        stroke-linejoin: round;
        stroke-miterlimit: 10;
        stroke-width: 2px;
      }

      .cls-4 {
        filter: url(#Rectangle_63);
      }
    </style>
    <filter id="Rectangle_63" x="8.801" y="22.864" width="145" height="141" filterUnits="userSpaceOnUse">
      <feOffset dy="6" input="SourceAlpha"/>
      <feGaussianBlur stdDeviation="3" result="blur"/>
      <feFlood flood-opacity="0.161"/>
      <feComposite operator="in" in2="blur"/>
      <feComposite in="SourceGraphic"/>
    </filter>
  </defs>
  <g id="Group_3361" data-name="Group 3361" transform="translate(-250 -2721)">
    <g id="Group_1047" data-name="Group 1047" transform="translate(281.801 2760.258)">
      <g id="Group_1041" data-name="Group 1041" transform="translate(-14 -13.394)">
        <g id="Group_749" data-name="Group 749" transform="translate(0)">
          <g class="cls-4" transform="matrix(1, 0, 0, 1, -17.8, -25.86)">
            <rect id="Rectangle_63-2" data-name="Rectangle 63" class="cls-1" width="127" height="123" rx="61.5" transform="translate(17.8 25.86)"/>
          </g>
        </g>
      </g>
      <g id="Group_3301" data-name="Group 3301" transform="translate(17.384 14.999)">
        <g id="Group_3297" data-name="Group 3297" transform="translate(1 1)">
          <g id="Group_3296" data-name="Group 3296">
            <path id="Path_2402" data-name="Path 2402" class="cls-2" d="M3.431,29.281A2.606,2.606,0,0,1,1,26.57V11.611A2.606,2.606,0,0,1,3.431,8.9H29.047a2.606,2.606,0,0,1,2.431,2.711V26.476a2.606,2.606,0,0,1-2.431,2.711H3.431Z" transform="translate(-1 -1.514)"/>
            <g id="Group_3295" data-name="Group 3295" transform="translate(4.301 12.715)">
              <path id="Path_2403" data-name="Path 2403" class="cls-2" d="M28.761,17.031A2.431,2.431,0,1,1,26.331,14.6,2.414,2.414,0,0,1,28.761,17.031Z" transform="translate(-6.791 -14.6)"/>
              <path id="Path_2404" data-name="Path 2404" class="cls-2" d="M10.461,17.031a2.475,2.475,0,0,1-2.431,2.431,2.431,2.431,0,0,1,0-4.861A2.414,2.414,0,0,1,10.461,17.031Z" transform="translate(-5.6 -14.6)"/>
            </g>
            <line id="Line_54" data-name="Line 54" class="cls-2" x2="6.731" transform="translate(11.873 22.064)"/>
            <line id="Line_55" data-name="Line 55" class="cls-2" y1="7.386" transform="translate(15.239)"/>
          </g>
          <path id="Path_2405" data-name="Path 2405" class="cls-2" d="M32.372,60.855H17.04a3.751,3.751,0,0,1-3.74-3.74V35.8" transform="translate(-1.801 -3.266)"/>
          <path id="Path_2406" data-name="Path 2406" class="cls-2" d="M39.1,17.5H53.4a3.751,3.751,0,0,1,3.74,3.74V31.991" transform="translate(-3.48 -2.074)"/>
        </g>
        <g id="Group_3300" data-name="Group 3300" transform="translate(34.75 34.656)">
          <g id="Group_3298" data-name="Group 3298">
            <path id="Path_2407" data-name="Path 2407" class="cls-2" d="M46.263,40.74a2.588,2.588,0,0,1-.093-.841,2.9,2.9,0,1,1,5.8,0V67.1c-5.89,3.366-7.666-2.337-7.666-2.337" transform="translate(-37.569 -37)"/>
            <path id="Path_2408" data-name="Path 2408" class="cls-2" d="M44.766,46.731a3.366,3.366,0,1,1,0-6.731,4.737,4.737,0,0,1,1.215.187" transform="translate(-37.38 -37.195)"/>
            <path id="Path_2409" data-name="Path 2409" class="cls-2" d="M41.459,51.444A3.8,3.8,0,0,1,38,47.985,3.113,3.113,0,0,1,41.085,44.9" transform="translate(-37.159 -37.514)"/>
            <path id="Path_2410" data-name="Path 2410" class="cls-2" d="M38.97,50.7a3.1,3.1,0,0,0-1.87,2.9c0,1.776,1.4,3.74,3.179,3.74,0,0,2.244.28,3.085-.561" transform="translate(-37.1 -37.892)"/>
            <path id="Path_2411" data-name="Path 2411" class="cls-2" d="M38.645,57.1s-2.618,3.366,1.683,5.89" transform="translate(-37.149 -38.309)"/>
            <path id="Path_2412" data-name="Path 2412" class="cls-2" d="M41.242,61s-3.459,5.89,3.74,7.479" transform="translate(-37.316 -38.562)"/>
            <path id="Path_2413" data-name="Path 2413" class="cls-2" d="M48.118,53.7s-5.142.187-3.833,5.142" transform="translate(-37.554 -38.087)"/>
            <path id="Path_2414" data-name="Path 2414" class="cls-2" d="M52.181,50.045s-1.4-1.776-4.581,0" transform="translate(-37.784 -37.798)"/>
            <path id="Path_2415" data-name="Path 2415" class="cls-2" d="M52.135,63.267S48.209,65.324,46.9,62.8" transform="translate(-37.738 -38.68)"/>
            <path id="Path_2416" data-name="Path 2416" class="cls-2" d="M52.233,44.5s-3.085,1.5-3.833,0" transform="translate(-37.836 -37.488)"/>
            <path id="Path_2417" data-name="Path 2417" class="cls-2" d="M52.259,58.3s-2.057.841-3.459,0" transform="translate(-37.862 -38.387)"/>
          </g>
          <g id="Group_3299" data-name="Group 3299" transform="translate(14.491)">
            <path id="Path_2418" data-name="Path 2418" class="cls-2" d="M58.3,40.74A2.588,2.588,0,0,0,58.4,39.9a2.9,2.9,0,1,0-5.8,0V67.1c5.89,3.366,7.666-2.337,7.666-2.337" transform="translate(-52.6 -37)"/>
            <path id="Path_2419" data-name="Path 2419" class="cls-2" d="M60.115,46.731a3.366,3.366,0,0,0,0-6.731,4.737,4.737,0,0,0-1.215.187" transform="translate(-53.01 -37.195)"/>
            <path id="Path_2420" data-name="Path 2420" class="cls-2" d="M63.5,51.444a3.8,3.8,0,0,0,3.459-3.459A3.113,3.113,0,0,0,63.874,44.9" transform="translate(-53.31 -37.514)"/>
            <path id="Path_2421" data-name="Path 2421" class="cls-2" d="M65.794,50.7a3.1,3.1,0,0,1,1.87,2.9c0,1.776-1.4,3.74-3.179,3.74,0,0-2.244.28-3.085-.561" transform="translate(-53.173 -37.892)"/>
            <path id="Path_2422" data-name="Path 2422" class="cls-2" d="M66.383,57.1S69,60.466,64.7,62.99" transform="translate(-53.388 -38.309)"/>
            <path id="Path_2423" data-name="Path 2423" class="cls-2" d="M63.54,61S67,66.89,59.8,68.479" transform="translate(-53.069 -38.562)"/>
            <path id="Path_2424" data-name="Path 2424" class="cls-2" d="M56.7,53.7s5.142.187,3.833,5.142" transform="translate(-52.867 -38.087)"/>
            <path id="Path_2425" data-name="Path 2425" class="cls-2" d="M52.6,50.045s1.4-1.776,4.581,0" transform="translate(-52.6 -37.798)"/>
            <path id="Path_2426" data-name="Path 2426" class="cls-2" d="M52.6,63.267s3.927,2.057,5.235-.467" transform="translate(-52.6 -38.68)"/>
            <path id="Path_2427" data-name="Path 2427" class="cls-2" d="M52.6,44.5s3.085,1.5,3.833,0" transform="translate(-52.6 -37.488)"/>
            <path id="Path_2428" data-name="Path 2428" class="cls-2" d="M52.6,58.3s2.057.841,3.459,0" transform="translate(-52.6 -38.387)"/>
          </g>
        </g>
      </g>
    </g>
    <rect id="Rectangle_228" data-name="Rectangle 228" class="cls-3" width="164" height="175" transform="translate(250 2721)"/>
  </g>
</svg>
