<svg xmlns="http://www.w3.org/2000/svg" xmlns:xlink="http://www.w3.org/1999/xlink" viewBox="0 0 164 175">
  <defs>
    <style>
      .cls-1 {
        fill: #fff;
      }

      .cls-2, .cls-3 {
        fill: none;
      }

      .cls-2 {
        stroke: #006ee5;
        stroke-linecap: round;
        stroke-linejoin: round;
        stroke-miterlimit: 10;
        stroke-width: 2px;
      }

      .cls-4 {
        filter: url(#Rectangle_63);
      }
    </style>
    <filter id="Rectangle_63" x="9.043" y="23.282" width="145" height="141" filterUnits="userSpaceOnUse">
      <feOffset dy="6" input="SourceAlpha"/>
      <feGaussianBlur stdDeviation="3" result="blur"/>
      <feFlood flood-opacity="0.161"/>
      <feComposite operator="in" in2="blur"/>
      <feComposite in="SourceGraphic"/>
    </filter>
  </defs>
  <g id="Group_2114" data-name="Group 2114" transform="translate(-250 -2721)">
    <g id="Group_1047" data-name="Group 1047" transform="translate(282.043 2760.676)">
      <g id="Group_1041" data-name="Group 1041" transform="translate(-14 -13.394)">
        <g id="Group_749" data-name="Group 749" transform="translate(0)">
          <g class="cls-4" transform="matrix(1, 0, 0, 1, -18.04, -26.28)">
            <rect id="Rectangle_63-2" data-name="Rectangle 63" class="cls-1" width="127" height="123" rx="61.5" transform="translate(18.04 26.28)"/>
          </g>
        </g>
      </g>
      <g id="Group_3338" data-name="Group 3338" transform="translate(18.675 16.025)">
        <g id="Group_3336" data-name="Group 3336" transform="translate(1 1.667)">
          <path id="Path_2446" data-name="Path 2446" class="cls-2" d="M18.686,8.977A4.421,4.421,0,0,1,18.5,7.37a5.67,5.67,0,0,1,11.34,0V60.2C18.4,66.812,15,55.661,15,55.661" transform="translate(-1.77 -1.7)"/>
          <path id="Path_2447" data-name="Path 2447" class="cls-2" d="M15.715,20.53a6.615,6.615,0,1,1,0-13.23,6.191,6.191,0,0,1,2.363.473" transform="translate(-1.445 -2.008)"/>
          <path id="Path_2448" data-name="Path 2448" class="cls-2" d="M9.41,29.658a7.293,7.293,0,0,1-6.71-6.71A6.091,6.091,0,0,1,8.748,16.9" transform="translate(-1.093 -2.536)"/>
          <path id="Path_2449" data-name="Path 2449" class="cls-2" d="M4.591,28A6.227,6.227,0,0,0,1,33.67c0,3.4,2.741,7.277,6.237,7.277,0,0,4.347.567,5.954-1.04" transform="translate(-1 -3.146)"/>
          <path id="Path_2450" data-name="Path 2450" class="cls-2" d="M4.012,40.3S-1,46.915,7.225,51.64" transform="translate(-1.083 -3.822)"/>
          <path id="Path_2451" data-name="Path 2451" class="cls-2" d="M9.006,47.8S2.3,59.235,16.283,62.353" transform="translate(-1.352 -4.234)"/>
          <path id="Path_2452" data-name="Path 2452" class="cls-2" d="M22.347,33.8s-9.923.378-7.371,9.923" transform="translate(-1.745 -3.465)"/>
          <path id="Path_2453" data-name="Path 2453" class="cls-2" d="M30.083,26.91s-2.741-3.5-8.883,0" transform="translate(-2.11 -3)"/>
          <path id="Path_2454" data-name="Path 2454" class="cls-2" d="M30.006,52.345S22.446,56.22,19.8,51.4" transform="translate(-2.034 -4.432)"/>
          <path id="Path_2455" data-name="Path 2455" class="cls-2" d="M30.171,16.2s-6.048,2.93-7.371,0" transform="translate(-2.198 -2.497)"/>
          <path id="Path_2456" data-name="Path 2456" class="cls-2" d="M30.21,42.7s-3.969,1.607-6.71,0" transform="translate(-2.237 -3.954)"/>
        </g>
        <g id="Group_3337" data-name="Group 3337" transform="translate(30.39 1.1)">
          <path id="Path_2457" data-name="Path 2457" class="cls-2" d="M32.289,63h2.457l.662-7.56a23.591,23.591,0,0,0,8.316-3.686l6.048,5.1,5.765-5.765-5.2-6.237a24.7,24.7,0,0,0,3.213-8.033l8.222-.756V27.939l-8.222-.756a23.13,23.13,0,0,0-3.213-8.033l5.2-6.237L49.772,7.148l-6.048,5.2A23.591,23.591,0,0,0,35.408,8.66L34.746,1.1H32.1" transform="translate(-32.1 -1.1)"/>
          <path id="Path_2458" data-name="Path 2458" class="cls-2" d="M33.5,18.5a14.793,14.793,0,0,1,12,14.459A14.611,14.611,0,0,1,33.784,47.323" transform="translate(-32.177 -2.057)"/>
        </g>
      </g>
    </g>
    <rect id="Rectangle_228" data-name="Rectangle 228" class="cls-3" width="164" height="175" transform="translate(250 2721)"/>
  </g>
</svg>
