<svg xmlns="http://www.w3.org/2000/svg" xmlns:xlink="http://www.w3.org/1999/xlink" viewBox="0 0 164 175">
  <defs>
    <style>
      .cls-1 {
        fill: #fff;
      }

      .cls-2, .cls-4 {
        fill: none;
      }

      .cls-2, .cls-3 {
        stroke: #fff;
        stroke-width: 0.5px;
      }

      .cls-3 {
        fill: #006ee5;
      }

      .cls-5 {
        filter: url(#Rectangle_63);
      }
    </style>
    <filter id="Rectangle_63" x="8.801" y="22.864" width="145" height="141" filterUnits="userSpaceOnUse">
      <feOffset dy="6" input="SourceAlpha"/>
      <feGaussianBlur stdDeviation="3" result="blur"/>
      <feFlood flood-opacity="0.161"/>
      <feComposite operator="in" in2="blur"/>
      <feComposite in="SourceGraphic"/>
    </filter>
  </defs>
  <g id="Group_2109" data-name="Group 2109" transform="translate(-250 -2721)">
    <g id="Group_1047" data-name="Group 1047" transform="translate(281.801 2760.258)">
      <g id="Group_1041" data-name="Group 1041" transform="translate(-14 -13.394)">
        <g id="Group_749" data-name="Group 749" transform="translate(0)">
          <g class="cls-5" transform="matrix(1, 0, 0, 1, -17.8, -25.86)">
            <rect id="Rectangle_63-2" data-name="Rectangle 63" class="cls-1" width="127" height="123" rx="61.5" transform="translate(17.8 25.86)"/>
          </g>
        </g>
      </g>
      <g id="cms" transform="translate(18.442 16.915)">
        <path id="Path_2368" data-name="Path 2368" class="cls-2" d="M64.633,31.932l4.477-1.958-2.033-4.647-4.483,1.961a25.874,25.874,0,0,0-10.88-10.449l1.94-4.956L48.93,10.033l-1.94,4.956a25.869,25.869,0,0,0-14.8.2l-2.261-5.17-4.647,2.033,2.236,5.111A25.881,25.881,0,0,0,17.11,27.537L11.84,25.474,9.991,30.2l5.135,2.01A25.861,25.861,0,0,0,14.9,47.043L9.976,49.2l2.033,4.647,4.736-2.072A25.9,25.9,0,0,0,27.231,62.693l-1.8,4.595,4.723,1.849,1.727-4.412a25.866,25.866,0,0,0,15.426.2l1.847,4.222L53.8,67.119l-1.793-4.1a25.887,25.887,0,0,0,10.965-11L67.246,53.7,69.1,48.972l-4.227-1.654A25.878,25.878,0,0,0,64.633,31.932Z" transform="translate(-8.78 -8.796)"/>
        <rect id="Rectangle_436" data-name="Rectangle 436" class="cls-2" width="38.042" height="17.753" transform="translate(12.25 22.165)"/>
        <path id="Path_2369" data-name="Path 2369" class="cls-3" d="M60.753,39.057,57.532,37.8a26.98,26.98,0,0,0-.216-13.988l3.5-1.53a1.2,1.2,0,0,0,.619-1.583L59.4,16.048a1.236,1.236,0,0,0-1.583-.619l-3.5,1.533a27.007,27.007,0,0,0-9.868-9.478l1.55-3.961a1.236,1.236,0,0,0-.681-1.557L40.588.118A1.2,1.2,0,0,0,39.031.8l-1.55,3.961a27.033,27.033,0,0,0-13.39.183L22.253.74A1.206,1.206,0,0,0,20.67.12L16.023,2.153A1.2,1.2,0,0,0,15.4,3.736l1.8,4.12a27.044,27.044,0,0,0-9.4,9.387L3.5,15.559a1.235,1.235,0,0,0-1.557.681L.092,20.963A1.234,1.234,0,0,0,.773,22.52l4.11,1.609A27.032,27.032,0,0,0,4.7,37.557L.714,39.3a1.216,1.216,0,0,0-.62,1.583l2.033,4.647a1.227,1.227,0,0,0,1.583.62l3.717-1.626a27.006,27.006,0,0,0,9.529,9.894l-1.423,3.637a1.23,1.23,0,0,0,.681,1.557l4.723,1.849a1.2,1.2,0,0,0,1.557-.681L23.816,57.4a26.984,26.984,0,0,0,14.027.168l1.429,3.268a1.239,1.239,0,0,0,1.583.619L45.5,59.424a1.237,1.237,0,0,0,.62-1.583L44.77,54.748a26.969,26.969,0,0,0,9.973-10.015l3.286,1.286a1.2,1.2,0,0,0,1.557-.681l1.849-4.723A1.2,1.2,0,0,0,60.753,39.057Zm-2.968,4.285-3.153-1.234a1.2,1.2,0,0,0-1.5.565A24.611,24.611,0,0,1,42.671,53.16a1.2,1.2,0,0,0-.543,1.546l1.311,3-2.445,1.069-1.365-3.12a1.2,1.2,0,0,0-1.443-.67,24.619,24.619,0,0,1-14.71-.2,1.2,1.2,0,0,0-1.492.7l-1.289,3.292-2.485-.972,1.36-3.476a1.2,1.2,0,0,0-.534-1.488,24.639,24.639,0,0,1-10-10.416,1.2,1.2,0,0,0-1.554-.558l-3.635,1.59L2.779,41.02,6.6,39.348a1.2,1.2,0,0,0,.675-1.427,24.653,24.653,0,0,1,.217-14.148,1.2,1.2,0,0,0-.708-1.481L2.769,20.72l.972-2.485L7.892,19.86a1.2,1.2,0,0,0,1.493-.544,24.663,24.663,0,0,1,9.927-9.894,1.2,1.2,0,0,0,.528-1.538l-1.754-4.01L20.532,2.8l1.78,4.068a1.2,1.2,0,0,0,1.459.666A24.65,24.65,0,0,1,37.883,7.35a1.2,1.2,0,0,0,1.447-.718l1.5-3.837,2.485.972L41.815,7.6a1.2,1.2,0,0,0,.575,1.51,24.636,24.636,0,0,1,10.376,9.965,1.2,1.2,0,0,0,1.53.514l3.382-1.479,1.069,2.445-3.376,1.477a1.2,1.2,0,0,0-.661,1.475,24.617,24.617,0,0,1,.224,14.673,1.2,1.2,0,0,0,.715,1.459l3.108,1.216Z" transform="translate(0 0)"/>
        <path id="Path_2370" data-name="Path 2370" class="cls-3" d="M131.188,174.281H93.147a1.2,1.2,0,0,0-1.2,1.2v17.753a1.2,1.2,0,0,0,1.2,1.2h38.042a1.2,1.2,0,0,0,1.2-1.2V175.483A1.2,1.2,0,0,0,131.188,174.281Zm-1.2,17.753H94.349V176.685h35.638Z" transform="translate(-80.897 -153.317)"/>
        <path id="Path_2371" data-name="Path 2371" class="cls-3" d="M145,223.509a3.517,3.517,0,0,0,2.4.8,3.823,3.823,0,0,0,2.488-.779,2.54,2.54,0,0,0,.959-2.077.85.85,0,0,0-.952-.923q-.88,0-.923.591c-.068.921-.492,1.544-1.471,1.544q-1.543,0-1.543-1.659v-4.024q0-1.658,1.514-1.659a1.353,1.353,0,0,1,1.464,1.1c.1.653.249.915.973.915a.832.832,0,0,0,.938-.923,2.4,2.4,0,0,0-.959-1.99,3.9,3.9,0,0,0-2.474-.75,3.545,3.545,0,0,0-2.409.8,3.14,3.14,0,0,0-.923,2.5v4.024A3.153,3.153,0,0,0,145,223.509Z" transform="translate(-126.771 -187.981)"/>
        <path id="Path_2372" data-name="Path 2372" class="cls-3" d="M223.2,224.061a1.4,1.4,0,0,0,.661.162c.332,0,.938-.14.938-.591v-6.317l1.659,3.115a.722.722,0,0,0,1.255,0l1.688-3v6.2c0,.451.585.592.937.592.33,0,.938-.148.938-.591v-9.014a.9.9,0,0,0-.938-.938,1.588,1.588,0,0,0-1.471,1l-1.774,3.231-1.774-3.231a1.551,1.551,0,0,0-1.457-1,.883.883,0,0,0-.937.937v9.013A.492.492,0,0,0,223.2,224.061Z" transform="translate(-196.136 -187.981)"/>
        <path id="Path_2373" data-name="Path 2373" class="cls-3" d="M315.469,223.285a4.649,4.649,0,0,0,2.351.562,3.708,3.708,0,0,0,2.488-.8,2.832,2.832,0,0,0,.945-2.283,3.1,3.1,0,0,0-1.2-2.538c-.946-.64-2.234-.879-3.079-1.637a.992.992,0,0,1,.079-1.544,2.093,2.093,0,0,1,1.2-.3c.717,0,1.33.548,1.99.548.479,0,.75-.6.751-1.007,0-.544-.608-.848-1.06-.963a6.052,6.052,0,0,0-2.935-.068,2.8,2.8,0,0,0-2.25,2.774,2.734,2.734,0,0,0,.916,2.1,18.572,18.572,0,0,0,2.8,1.486,1.6,1.6,0,0,1,.916,1.334c0,.885-.843,1.255-1.615,1.255a3.193,3.193,0,0,1-2.027-.974.651.651,0,0,0-.995.159,1.123,1.123,0,0,0-.252.671Q314.488,222.723,315.469,223.285Z" transform="translate(-276.694 -187.476)"/>
        <path id="Path_2374" data-name="Path 2374" class="cls-3" d="M245.358,134.487a1.2,1.2,0,1,0-1.2-1.2A1.2,1.2,0,0,0,245.358,134.487Z" transform="translate(-214.815 -116.191)"/>
        <path id="Path_2375" data-name="Path 2375" class="cls-3" d="M285.36,134.487h8.413a1.2,1.2,0,0,0,0-2.4H285.36a1.2,1.2,0,0,0,0,2.4Z" transform="translate(-250.009 -116.191)"/>
        <path id="Path_2376" data-name="Path 2376" class="cls-3" d="M135.353,134.487h8.413a1.2,1.2,0,0,0,0-2.4h-8.413a1.2,1.2,0,1,0,0,2.4Z" transform="translate(-118.031 -116.191)"/>
        <path id="Path_2377" data-name="Path 2377" class="cls-3" d="M245.358,364.192a1.2,1.2,0,1,0,1.2,1.2A1.2,1.2,0,0,0,245.358,364.192Z" transform="translate(-214.815 -320.403)"/>
        <path id="Path_2378" data-name="Path 2378" class="cls-3" d="M293.773,364.192H285.36a1.2,1.2,0,0,0,0,2.4h8.413a1.2,1.2,0,0,0,0-2.4Z" transform="translate(-250.009 -320.403)"/>
        <path id="Path_2379" data-name="Path 2379" class="cls-3" d="M143.766,364.192h-8.413a1.2,1.2,0,1,0,0,2.4h8.413a1.2,1.2,0,0,0,0-2.4Z" transform="translate(-118.031 -320.403)"/>
      </g>
    </g>
    <rect id="Rectangle_228" data-name="Rectangle 228" class="cls-4" width="164" height="175" transform="translate(250 2721)"/>
  </g>
</svg>
