<svg xmlns="http://www.w3.org/2000/svg" xmlns:xlink="http://www.w3.org/1999/xlink" viewBox="0 0 164 175">
  <defs>
    <style>
      .cls-1 {
        fill: #fff;
      }

      .cls-2, .cls-3 {
        fill: none;
      }

      .cls-2 {
        stroke: #006ee5;
        stroke-linecap: round;
        stroke-linejoin: round;
        stroke-miterlimit: 10;
        stroke-width: 2px;
      }

      .cls-4 {
        filter: url(#Rectangle_63);
      }
    </style>
    <filter id="Rectangle_63" x="9.406" y="22.845" width="145" height="141" filterUnits="userSpaceOnUse">
      <feOffset dy="6" input="SourceAlpha"/>
      <feGaussianBlur stdDeviation="3" result="blur"/>
      <feFlood flood-opacity="0.161"/>
      <feComposite operator="in" in2="blur"/>
      <feComposite in="SourceGraphic"/>
    </filter>
  </defs>
  <g id="Group_3359" data-name="Group 3359" transform="translate(-250 -2721)">
    <g id="Group_1047" data-name="Group 1047" transform="translate(282.406 2760.845)">
      <g id="Group_1041" data-name="Group 1041" transform="translate(-14 -14)">
        <g id="Group_749" data-name="Group 749" transform="translate(0)">
          <g class="cls-4" transform="matrix(1, 0, 0, 1, -18.41, -25.84)">
            <rect id="Rectangle_63-2" data-name="Rectangle 63" class="cls-1" width="127" height="123" rx="61.5" transform="translate(18.41 25.84)"/>
          </g>
        </g>
      </g>
      <g id="Group_3294" data-name="Group 3294" transform="translate(10.723 19.408)">
        <g id="Group_3291" data-name="Group 3291" transform="translate(18.651 1)">
          <path id="Path_2380" data-name="Path 2380" class="cls-2" d="M26.569,4.235a3.235,3.235,0,1,1-6.469,0,3.235,3.235,0,1,1,6.469,0Z" transform="translate(-20.1 -1)"/>
          <g id="Group_3290" data-name="Group 3290" transform="translate(6.469 3.235)">
            <path id="Path_2381" data-name="Path 2381" class="cls-2" d="M55.1,52.925H41.147V4.5H27.1" transform="translate(-27.1 -4.5)"/>
            <path id="Path_2382" data-name="Path 2382" class="cls-2" d="M57.4,56.635a3.235,3.235,0,1,1,3.235,3.235A3.274,3.274,0,0,1,57.4,56.635Z" transform="translate(-29.398 -8.209)"/>
          </g>
        </g>
        <g id="Group_3292" data-name="Group 3292" transform="translate(15.232 10.796)">
          <path id="Path_2383" data-name="Path 2383" class="cls-2" d="M18.5,54.835a3.235,3.235,0,1,1,3.235,3.235A3.274,3.274,0,0,1,18.5,54.835Z" transform="translate(-16.559 -14.634)"/>
          <path id="Path_2384" data-name="Path 2384" class="cls-2" d="M24.717,51.8H36.639V11.6H16.4" transform="translate(-16.4 -11.6)"/>
        </g>
        <g id="Group_3293" data-name="Group 3293" transform="translate(42.864 2.017)">
          <path id="Path_2385" data-name="Path 2385" class="cls-2" d="M65.569,5.335a3.235,3.235,0,1,1-6.469,0,3.235,3.235,0,1,1,6.469,0Z" transform="translate(-47.271 -2.1)"/>
          <path id="Path_2386" data-name="Path 2386" class="cls-2" d="M58.129,5.6H46.3V45.8H66.539" transform="translate(-46.3 -2.365)"/>
        </g>
        <path id="Path_2387" data-name="Path 2387" class="cls-2" d="M15.755,43.928h15.9V19.9H7.9" transform="translate(-0.523 -1.434)"/>
        <path id="Path_2388" data-name="Path 2388" class="cls-2" d="M66.888,14.8H50.9V38.828H74.651" transform="translate(-3.785 -1.047)"/>
        <path id="Path_2389" data-name="Path 2389" class="cls-2" d="M9.4,45.635a3.235,3.235,0,1,1,3.235,3.235A3.338,3.338,0,0,1,9.4,45.635Z" transform="translate(-0.637 -3.14)"/>
        <path id="Path_2390" data-name="Path 2390" class="cls-2" d="M74.569,14.535A3.235,3.235,0,1,1,71.335,11.3,3.274,3.274,0,0,1,74.569,14.535Z" transform="translate(-5.09 -0.781)"/>
        <path id="Path_2391" data-name="Path 2391" class="cls-2" d="M17.7,36.235a3.235,3.235,0,0,1,6.469,0,3.356,3.356,0,0,1-3.327,3.235A3.2,3.2,0,0,1,17.7,36.235Z" transform="translate(-1.267 -2.427)"/>
        <path id="Path_2392" data-name="Path 2392" class="cls-2" d="M66.369,23.935A3.235,3.235,0,1,1,63.135,20.7,3.274,3.274,0,0,1,66.369,23.935Z" transform="translate(-4.468 -1.494)"/>
        <path id="Path_2393" data-name="Path 2393" class="cls-2" d="M9.4,11.335a3.235,3.235,0,0,1,6.469,0,3.236,3.236,0,0,1-6.469,0Z" transform="translate(-0.637 -0.539)"/>
        <path id="Path_2394" data-name="Path 2394" class="cls-2" d="M74.569,48.835A3.235,3.235,0,1,1,71.335,45.6,3.274,3.274,0,0,1,74.569,48.835Z" transform="translate(-5.09 -3.383)"/>
        <path id="Path_2395" data-name="Path 2395" class="cls-2" d="M1,19.635A3.274,3.274,0,0,1,4.235,16.4a3.235,3.235,0,1,1,0,6.469A3.274,3.274,0,0,1,1,19.635Z" transform="translate(0 -1.168)"/>
        <path id="Path_2396" data-name="Path 2396" class="cls-2" d="M82.969,40.535A3.235,3.235,0,1,1,79.735,37.3,3.158,3.158,0,0,1,82.969,40.535Z" transform="translate(-5.727 -2.753)"/>
        <path id="Path_2397" data-name="Path 2397" class="cls-2" d="M9.4,27.735a3.235,3.235,0,1,1,3.235,3.235A3.338,3.338,0,0,1,9.4,27.735Z" transform="translate(-0.637 -1.783)"/>
        <path id="Path_2398" data-name="Path 2398" class="cls-2" d="M74.569,32.435A3.235,3.235,0,1,1,71.335,29.2,3.274,3.274,0,0,1,74.569,32.435Z" transform="translate(-5.09 -2.139)"/>
        <path id="Path_2399" data-name="Path 2399" class="cls-2" d="M23.978,35.855H28.6V28H16.4" transform="translate(-1.168 -2.048)"/>
        <path id="Path_2400" data-name="Path 2400" class="cls-2" d="M59.521,24.2H54.9v7.855H67.191" transform="translate(-4.088 -1.76)"/>
      </g>
    </g>
    <rect id="Rectangle_228" data-name="Rectangle 228" class="cls-3" width="164" height="175" transform="translate(250 2721)"/>
  </g>
</svg>
