<svg xmlns="http://www.w3.org/2000/svg" xmlns:xlink="http://www.w3.org/1999/xlink" viewBox="0 0 164 175">
  <defs>
    <style>
      .cls-1 {
        fill: #fff;
      }

      .cls-2 {
        fill: #006ee5;
        stroke: #fff;
      }

      .cls-3 {
        fill: none;
      }

      .cls-4 {
        filter: url(#Rectangle_63);
      }
    </style>
    <filter id="Rectangle_63" x="9.945" y="23.974" width="145" height="141" filterUnits="userSpaceOnUse">
      <feOffset dy="6" input="SourceAlpha"/>
      <feGaussianBlur stdDeviation="3" result="blur"/>
      <feFlood flood-opacity="0.161"/>
      <feComposite operator="in" in2="blur"/>
      <feComposite in="SourceGraphic"/>
    </filter>
  </defs>
  <g id="Group_2107" data-name="Group 2107" transform="translate(-250 -2721)">
    <g id="Group_1047" data-name="Group 1047" transform="translate(282.945 2761.368)">
      <g id="Group_1041" data-name="Group 1041" transform="translate(-14 -13.394)">
        <g id="Group_749" data-name="Group 749" transform="translate(0)">
          <g class="cls-4" transform="matrix(1, 0, 0, 1, -18.95, -26.97)">
            <rect id="Rectangle_63-2" data-name="Rectangle 63" class="cls-1" width="127" height="123" rx="61.5" transform="translate(18.95 26.97)"/>
          </g>
        </g>
      </g>
      <g id="laptop_1_" data-name="laptop (1)" transform="translate(12.77 22.703)">
        <path id="Path_2363" data-name="Path 2363" class="cls-2" d="M71.012,41.628V6.122A6.129,6.129,0,0,0,64.891,0H8.57A6.129,6.129,0,0,0,2.449,6.122V41.628A2.449,2.449,0,0,0,0,44.077V45.3a6.129,6.129,0,0,0,6.122,6.122H67.339A6.129,6.129,0,0,0,73.461,45.3V44.077A2.449,2.449,0,0,0,71.012,41.628ZM4.9,6.122A3.673,3.673,0,0,1,8.57,2.449h56.32a3.673,3.673,0,0,1,3.673,3.673V41.628H4.9ZM71.012,45.3a3.673,3.673,0,0,1-3.673,3.673H6.122A3.673,3.673,0,0,1,2.449,45.3V44.077h28.16a2.449,2.449,0,0,0,2.449,2.449H40.4a2.449,2.449,0,0,0,2.449-2.449h28.16Zm0,0"/>
        <path id="Path_2364" data-name="Path 2364" class="cls-2" d="M319.206,138.855a1.224,1.224,0,0,0-.9-1.022l-6.69-1.792a1.224,1.224,0,0,0-1.5.866l-1.793,6.69a1.225,1.225,0,0,0,1.8,1.377l1.059-.612,1.224,2.12a1.225,1.225,0,0,0,1.674.45l4.241-2.449a1.225,1.225,0,0,0,.45-1.674l-1.224-2.121,1.059-.612A1.224,1.224,0,0,0,319.206,138.855Zm-5.291,5.347-1.224-2.121a1.222,1.222,0,0,0-.744-.57,1.278,1.278,0,0,0-.316-.042,1.255,1.255,0,0,0-.2.017l.735-2.758,2.758.735a1.225,1.225,0,0,0-.115,1.391l1.224,2.12Zm0,0" transform="translate(-262.941 -113.96)"/>
        <path id="Path_2365" data-name="Path 2365" class="cls-2" d="M151.179,83.673A3.673,3.673,0,0,0,147.506,80H115.673a3.673,3.673,0,1,0,0,7.346h31.833A3.673,3.673,0,0,0,151.179,83.673Zm-36.73,0a1.224,1.224,0,0,1,1.224-1.224h23.263V84.9H115.673A1.224,1.224,0,0,1,114.449,83.673Zm26.936-1.224h6.122a1.224,1.224,0,0,1,0,2.449h-6.122Zm0,0" transform="translate(-94.859 -67.757)"/>
        <path id="Path_2367" data-name="Path 2367" class="cls-2" d="M134.344,83.673A3.673,3.673,0,0,0,130.671,80h-15a3.673,3.673,0,1,0,0,7.346h15A3.673,3.673,0,0,0,134.344,83.673Zm-19.9,0a1.224,1.224,0,0,1,1.224-1.224H122.1V84.9h-6.428A1.224,1.224,0,0,1,114.449,83.673Zm10.1-1.224h6.122a1.224,1.224,0,1,1,0,2.449H124.55Zm0,0" transform="translate(-94.859 -57.962)"/>
        <path id="Path_2366" data-name="Path 2366" class="cls-2" d="M106.769,63.833V34.449A2.449,2.449,0,0,0,104.32,32H50.449A2.449,2.449,0,0,0,48,34.449V63.833a2.449,2.449,0,0,0,2.449,2.449H104.32A2.449,2.449,0,0,0,106.769,63.833ZM50.449,34.449H104.32V63.833H50.449Zm0,0" transform="translate(-40.654 -27.103)"/>
      </g>
    </g>
    <rect id="Rectangle_228" data-name="Rectangle 228" class="cls-3" width="164" height="175" transform="translate(250 2721)"/>
  </g>
</svg>
