<svg xmlns="http://www.w3.org/2000/svg" xmlns:xlink="http://www.w3.org/1999/xlink" viewBox="0 0 261 268.488">
  <defs>
    <style>
      .cls-1 {
        fill: none;
      }

      .cls-2 {
        fill: #006ee5;
      }

      .cls-3 {
        fill: #fff;
      }

      .cls-4 {
        clip-path: url(#clip-path);
      }

      .cls-5, .cls-9 {
        fill: #021447;
      }

      .cls-5, .cls-8 {
        opacity: 0.2;
      }

      .cls-6 {
        fill: #bae2f8;
      }

      .cls-7 {
        fill: #0044a9;
      }
    </style>
    <clipPath id="clip-path">
      <ellipse id="Ellipse_3971" data-name="Ellipse 3971" cx="90.243" cy="89.977" rx="90.243" ry="89.977"/>
    </clipPath>
  </defs>
  <g id="Group_2796" data-name="Group 2796" transform="translate(-735 -3794.756)">
    <rect id="Rectangle_231" data-name="Rectangle 231" class="cls-1" width="261" height="268.488" transform="translate(735 3794.756)"/>
    <g id="Group_2917" data-name="Group 2917" transform="translate(-391.059 3751.23)">
      <g id="Group_2900" data-name="Group 2900" transform="translate(1157.2 81.9)">
        <g id="Group_2894" data-name="Group 2894">
          <ellipse id="Ellipse_3970" data-name="Ellipse 3970" class="cls-2" cx="90.243" cy="89.977" rx="90.243" ry="89.977" transform="translate(6.311 6.293)"/>
          <path id="Path_2246" data-name="Path 2246" class="cls-3" d="M1253.754,88.193a89.977,89.977,0,1,1-90.243,89.977,90.112,90.112,0,0,1,90.243-89.977m0-6.293c-53.287,0-96.554,43.2-96.554,96.269s43.267,96.269,96.554,96.269c53.222,0,96.555-43.2,96.555-96.269S1306.976,81.9,1253.754,81.9Z" transform="translate(-1157.2 -81.9)"/>
        </g>
      </g>
      <g id="Group_2911" data-name="Group 2911" transform="translate(1190.057 82.808)">
        <path id="Path_2247" data-name="Path 2247" class="cls-5" d="M1354.288,130.892,1296.9,97.872a21.34,21.34,0,0,0-21.211,0l-57.386,33.02a21.1,21.1,0,0,0-10.605,18.294v66.039a21.1,21.1,0,0,0,10.605,18.294l57.386,33.02a21.13,21.13,0,0,0,21.211,0l57.386-33.02a21.1,21.1,0,0,0,10.605-18.294V149.185A21.1,21.1,0,0,0,1354.288,130.892Z" transform="translate(-1207.7 -87.428)"/>
        <g id="Group_2910" data-name="Group 2910" transform="translate(5.205)">
          <g id="Group_2907" data-name="Group 2907">
            <path id="Path_2248" data-name="Path 2248" class="cls-6" d="M1364.423,126.155l-57.386-33.02a17.813,17.813,0,0,0-8.783-2.335,17.457,17.457,0,0,0-8.784,2.335l-57.386,33.02A17.506,17.506,0,0,0,1223.3,141.4v44.632h149.972V141.4A17.566,17.566,0,0,0,1364.423,126.155Z" transform="translate(-1218.355 -85.935)"/>
            <path id="Path_2249" data-name="Path 2249" class="cls-3" d="M1295.6,260.2a22.816,22.816,0,0,1-11.256-2.984l-57.386-33.02a22.437,22.437,0,0,1-11.256-19.4V138.7a22.358,22.358,0,0,1,11.256-19.4l57.386-33.02a22.721,22.721,0,0,1,22.512,0l57.386,33.02a22.437,22.437,0,0,1,11.256,19.4v66.039a22.358,22.358,0,0,1-11.256,19.4l-57.386,33.02A22.04,22.04,0,0,1,1295.6,260.2Zm73.717-78.17V138.7a16.39,16.39,0,0,0-8.2-14.142L1303.8,91.539a16.333,16.333,0,0,0-8.2-2.206,16.514,16.514,0,0,0-8.2,2.206l-57.386,33.02a16.311,16.311,0,0,0-8.2,14.142v43.334Z" transform="translate(-1215.7 -83.3)"/>
            <path id="Path_2250" data-name="Path 2250" class="cls-3" d="M1364.288,121.092,1306.9,88.072a21.34,21.34,0,0,0-21.211,0l-57.386,33.02a21.1,21.1,0,0,0-10.605,18.294v66.039a21.1,21.1,0,0,0,10.605,18.294l57.386,33.02a21.13,21.13,0,0,0,21.211,0l57.386-33.02a21.1,21.1,0,0,0,10.605-18.294V139.385A21.24,21.24,0,0,0,1364.288,121.092Zm7.027,62.925H1221.344V139.385a17.8,17.8,0,0,1,8.784-15.245l57.386-33.02a17.813,17.813,0,0,1,8.784-2.335,17.457,17.457,0,0,1,8.784,2.335l57.386,33.02a17.506,17.506,0,0,1,8.784,15.245v44.632Z" transform="translate(-1216.399 -83.985)"/>
            <path id="Path_2251" data-name="Path 2251" class="cls-7" d="M1232.049,276.846l57.386,33.02a17.813,17.813,0,0,0,8.784,2.335,17.457,17.457,0,0,0,8.784-2.335l57.386-33.02a17.506,17.506,0,0,0,8.784-15.245V247.2H1223.2v14.4A17.566,17.566,0,0,0,1232.049,276.846Z" transform="translate(-1218.32 -140.876)"/>
            <g id="Group_2902" data-name="Group 2902" class="cls-8" transform="translate(59.859 38.469)">
              <g id="Group_2901" data-name="Group 2901">
                <path id="Path_2252" data-name="Path 2252" class="cls-9" d="M1316.744,142.6a9.1,9.1,0,0,0-9.044,9.017v34.706a9.044,9.044,0,0,0,18.088,0V151.617A9.053,9.053,0,0,0,1316.744,142.6Zm9.044,43.659a9.112,9.112,0,0,1-.716,3.5l-4.359-4.346h-5.921l2.993-2.984a9.3,9.3,0,0,1,0-13.169l8-7.979v24.976Z" transform="translate(-1307.7 -142.6)"/>
                <path id="Path_2253" data-name="Path 2253" class="cls-9" d="M1350.371,192.5l-2.537-2.53a8.244,8.244,0,0,1,0-11.612l1.3-1.3a5.939,5.939,0,0,0,0-8.433,9.366,9.366,0,0,0-13.208,0l-.911.908v24.911a9.112,9.112,0,0,1-.716,3.5l2.8,2.789a9.366,9.366,0,0,0,13.208,0A5.764,5.764,0,0,0,1350.371,192.5Z" transform="translate(-1316.993 -150.785)"/>
              </g>
            </g>
            <g id="Group_2904" data-name="Group 2904" transform="translate(62.006 36.263)">
              <g id="Group_2903" data-name="Group 2903">
                <path id="Path_2254" data-name="Path 2254" class="cls-3" d="M1320.044,139.2a9.1,9.1,0,0,0-9.044,9.017v34.706a9.044,9.044,0,0,0,18.088,0V148.217A9.053,9.053,0,0,0,1320.044,139.2Zm9.044,43.723a9.112,9.112,0,0,1-.716,3.5l-4.359-4.346h-5.921l2.993-2.984a9.3,9.3,0,0,1,0-13.169l8-7.979v24.976Z" transform="translate(-1311 -139.2)"/>
                <path id="Path_2255" data-name="Path 2255" class="cls-3" d="M1353.671,189.1l-2.537-2.53a8.244,8.244,0,0,1,0-11.612l1.3-1.3a5.939,5.939,0,0,0,0-8.433,9.366,9.366,0,0,0-13.208,0l-.911.908v24.911a9.112,9.112,0,0,1-.716,3.5l2.8,2.789a9.366,9.366,0,0,0,13.208,0A5.763,5.763,0,0,0,1353.671,189.1Z" transform="translate(-1320.293 -147.385)"/>
              </g>
            </g>
            <g id="Group_2905" data-name="Group 2905" class="cls-8" transform="translate(49.644 119.623)">
              <path id="Path_2256" data-name="Path 2256" class="cls-9" d="M1342.685,276.912H1296.62a4.606,4.606,0,1,1,0-9.212h46.065a4.606,4.606,0,1,1,0,9.212" transform="translate(-1292 -267.7)"/>
              <path id="Path_2257" data-name="Path 2257" class="cls-9" d="M1337.869,301.312h-25.05a4.606,4.606,0,1,1,0-9.212h25.05a4.606,4.606,0,1,1,0,9.212" transform="translate(-1297.66 -276.271)"/>
            </g>
            <g id="Group_2906" data-name="Group 2906" transform="translate(51.726 117.547)">
              <path id="Path_2258" data-name="Path 2258" class="cls-3" d="M1345.885,273.712h-46.065a4.606,4.606,0,1,1,0-9.212h46.065a4.606,4.606,0,1,1,0,9.212" transform="translate(-1295.2 -264.5)"/>
              <path id="Path_2259" data-name="Path 2259" class="cls-3" d="M1341.069,298.112h-25.05a4.606,4.606,0,1,1,0-9.212h25.05a4.606,4.606,0,1,1,0,9.212" transform="translate(-1300.86 -273.071)"/>
            </g>
          </g>
          <g id="Group_2909" data-name="Group 2909" transform="translate(107.095 7.914)">
            <path id="Path_2260" data-name="Path 2260" class="cls-5" d="M1398.387,99.6a18.034,18.034,0,1,0,18.088,18.034A18.064,18.064,0,0,0,1398.387,99.6Zm-13.6,23.743a13.465,13.465,0,0,1-1.106-4.217,13.02,13.02,0,0,0,1.106,4.217,14.552,14.552,0,0,0,3.188,4.671A13.3,13.3,0,0,1,1384.789,123.343Zm27.2,0a14.551,14.551,0,0,1-3.188,4.671,16.538,16.538,0,0,0,3.188-4.671,13.468,13.468,0,0,0,1.106-4.217A26.625,26.625,0,0,1,1411.986,123.343Z" transform="translate(-1380.3 -96.94)"/>
            <g id="Group_2908" data-name="Group 2908" transform="translate(1.887)">
              <ellipse id="Ellipse_3972" data-name="Ellipse 3972" class="cls-2" cx="14.704" cy="14.661" rx="14.704" ry="14.661" transform="translate(3.709 3.827)"/>
              <path id="Path_2261" data-name="Path 2261" class="cls-3" d="M1401.613,99.263a14.661,14.661,0,1,1-14.7,14.661,14.667,14.667,0,0,1,14.7-14.661m0-3.763a18.359,18.359,0,1,0,18.413,18.359A18.369,18.369,0,0,0,1401.613,95.5Z" transform="translate(-1383.2 -95.5)"/>
            </g>
            <path id="Path_2262" data-name="Path 2262" class="cls-3" d="M1402.48,126.963a2.118,2.118,0,0,1-1.562-.649l-3.9-3.7a2.205,2.205,0,1,1,3.058-3.179l2.537,2.4,9.76-7.4a2.227,2.227,0,1,1,2.668,3.568l-11.321,8.5A1.914,1.914,0,0,1,1402.48,126.963Z" transform="translate(-1385.889 -101.987)"/>
          </g>
        </g>
      </g>
    </g>
  </g>
</svg>
