<svg xmlns="http://www.w3.org/2000/svg" xmlns:xlink="http://www.w3.org/1999/xlink" viewBox="0 0 164 175">
  <defs>
    <style>
      .cls-1 {
        fill: #fff;
      }

      .cls-2 {
        fill: #006ee5;
        stroke: #fff;
        stroke-width: 0.3px;
      }

      .cls-3 {
        fill: none;
      }

      .cls-4 {
        filter: url(#Rectangle_63);
      }
    </style>
    <filter id="Rectangle_63" x="9.945" y="23.975" width="145" height="141" filterUnits="userSpaceOnUse">
      <feOffset dy="6" input="SourceAlpha"/>
      <feGaussianBlur stdDeviation="3" result="blur"/>
      <feFlood flood-opacity="0.161"/>
      <feComposite operator="in" in2="blur"/>
      <feComposite in="SourceGraphic"/>
    </filter>
  </defs>
  <g id="Group_2722" data-name="Group 2722" transform="translate(-250 -2721)">
    <g id="Group_1047" data-name="Group 1047" transform="translate(282.945 2761.368)">
      <g id="Group_1041" data-name="Group 1041" transform="translate(-14 -13.394)">
        <g id="Group_749" data-name="Group 749" transform="translate(0)">
          <g class="cls-4" transform="matrix(1, 0, 0, 1, -18.95, -26.97)">
            <rect id="Rectangle_63-2" data-name="Rectangle 63" class="cls-1" width="127" height="123" rx="61.5" transform="translate(18.95 26.97)"/>
          </g>
        </g>
      </g>
      <g id="Group_2108" data-name="Group 2108" transform="translate(21.281 13.148)">
        <g id="stack" transform="translate(-3.398 4.322)">
          <path id="Path_2096" data-name="Path 2096" class="cls-2" d="M28.945,166.68c0-3.807-6.222-6.68-14.473-6.68S0,162.872,0,166.68a4.028,4.028,0,0,0,1.214,2.783,3.8,3.8,0,0,0,0,5.566,3.8,3.8,0,0,0,0,5.566A4.032,4.032,0,0,0,0,183.379c0,3.807,6.222,6.68,14.473,6.68s14.473-2.872,14.473-6.68a4.032,4.032,0,0,0-1.214-2.783,3.8,3.8,0,0,0,0-5.566,3.8,3.8,0,0,0,0-5.566A4.032,4.032,0,0,0,28.945,166.68Zm-14.473-4.453c7.013,0,12.246,2.351,12.246,4.453a2.672,2.672,0,0,1-1.336,1.88c-2.2,1.586-6.378,2.573-10.91,2.573-.566,0-1.128-.016-1.68-.046-3.868-.21-7.311-1.139-9.241-2.533a2.662,2.662,0,0,1-1.326-1.875C2.227,164.578,7.459,162.227,14.473,162.227Zm11.5,8.611a2.062,2.062,0,0,1,.75,1.408,2.672,2.672,0,0,1-1.336,1.88c-2.2,1.586-6.378,2.573-10.91,2.573-.566,0-1.128-.016-1.68-.046-3.868-.21-7.311-1.139-9.241-2.533a2.662,2.662,0,0,1-1.326-1.875,2.062,2.062,0,0,1,.75-1.408c.06.036.132.067.194.1.152.085.314.167.475.249.223.111.445.223.686.334.176.078.356.151.54.222.248.1.5.193.765.284.195.067.391.131.593.192.273.085.557.164.841.239.209.055.419.111.633.16.3.069.606.132.917.191.222.042.436.087.662.125.334.055.668.1,1.008.146.222.029.432.061.653.086.382.041.772.07,1.164.1.191.014.378.034.572.043.589.032,1.187.05,1.792.05s1.2-.018,1.792-.05c.2-.01.382-.03.575-.043.391-.028.78-.057,1.161-.1.223-.024.445-.058.662-.087.334-.045.668-.089,1-.143.23-.039.453-.085.679-.128.3-.059.6-.119.891-.187.222-.052.445-.111.661-.167.274-.073.544-.148.807-.229.214-.065.421-.134.626-.2.25-.086.49-.176.727-.269.2-.078.388-.156.573-.238.222-.1.44-.206.651-.313.17-.087.342-.173.5-.264C25.839,170.9,25.909,170.872,25.969,170.838Zm0,5.566a2.062,2.062,0,0,1,.75,1.408,2.672,2.672,0,0,1-1.336,1.88c-2.2,1.586-6.378,2.573-10.91,2.573-.566,0-1.128-.016-1.68-.046-3.868-.21-7.311-1.139-9.241-2.533a2.662,2.662,0,0,1-1.326-1.875,2.062,2.062,0,0,1,.75-1.408c.06.036.132.067.194.1.152.085.314.167.475.249.223.111.445.223.686.334.176.078.356.151.54.222.248.1.5.193.765.284.195.067.391.131.593.192.273.085.557.164.841.239.209.055.419.111.633.16.3.069.606.132.917.191.222.042.436.087.662.125.334.055.668.1,1.008.146.222.029.432.061.653.086.382.041.772.07,1.164.1.191.014.378.034.572.043.589.032,1.187.05,1.792.05s1.2-.018,1.792-.05c.2-.01.382-.03.575-.043.391-.028.78-.057,1.161-.1.223-.024.445-.058.662-.087.334-.045.668-.089,1-.144.23-.039.453-.085.679-.128.3-.059.6-.119.891-.187.222-.052.445-.111.661-.167.274-.073.544-.148.807-.229.214-.065.421-.134.626-.2.25-.086.49-.176.727-.269.2-.078.388-.156.573-.238.222-.1.44-.206.651-.313.17-.087.342-.173.5-.264C25.839,176.47,25.909,176.439,25.969,176.4Zm-11.5,11.428c-7.013,0-12.246-2.351-12.246-4.453a2.062,2.062,0,0,1,.75-1.408c.06.036.132.067.194.1.152.085.314.167.475.249.223.111.445.223.686.334.176.078.356.151.54.222.248.1.5.193.765.284.195.067.391.131.593.192.273.085.557.164.841.239.209.055.419.111.633.16.3.069.606.132.917.191.222.042.436.087.662.125.334.055.668.1,1.008.146.222.029.432.061.653.086.382.041.772.07,1.164.1.191.014.378.034.572.044.589.032,1.187.05,1.792.05s1.2-.018,1.792-.05c.2-.01.382-.03.575-.044.391-.028.78-.057,1.161-.1.223-.024.445-.058.662-.087.334-.045.668-.089,1-.143.23-.039.453-.085.679-.128.3-.059.6-.119.891-.187.222-.052.445-.111.661-.167.274-.073.544-.148.807-.229.214-.065.421-.134.626-.2.25-.086.49-.176.727-.269.2-.078.388-.156.573-.238.222-.1.44-.206.651-.313.17-.087.342-.173.5-.264.06-.035.13-.066.189-.1a2.062,2.062,0,0,1,.748,1.406C26.719,185.481,21.486,187.832,14.473,187.832Zm0,0" transform="translate(0 -137.734)"/>
          <path id="Path_2097" data-name="Path 2097" class="cls-2" d="M268.945,12.246a4.032,4.032,0,0,0-1.214-2.783,4.032,4.032,0,0,0,1.214-2.783c0-3.807-6.222-6.68-14.473-6.68S240,2.872,240,6.68a4.027,4.027,0,0,0,1.214,2.783,3.8,3.8,0,0,0,0,5.566,3.8,3.8,0,0,0,0,5.566,3.8,3.8,0,0,0,0,5.566,3.8,3.8,0,0,0,0,5.566,3.8,3.8,0,0,0,0,5.566,3.8,3.8,0,0,0,0,5.566A4.032,4.032,0,0,0,240,45.645c0,3.807,6.222,6.68,14.473,6.68s14.473-2.872,14.473-6.68a4.032,4.032,0,0,0-1.214-2.783,3.8,3.8,0,0,0,0-5.566,3.8,3.8,0,0,0,0-5.566,3.8,3.8,0,0,0,0-5.566,3.8,3.8,0,0,0,0-5.566,3.8,3.8,0,0,0,0-5.566A4.032,4.032,0,0,0,268.945,12.246ZM265.969,16.4a2.062,2.062,0,0,1,.75,1.408,2.672,2.672,0,0,1-1.336,1.88c-2.2,1.586-6.378,2.573-10.91,2.573-.566,0-1.128-.016-1.68-.046-3.868-.21-7.311-1.139-9.241-2.533a2.662,2.662,0,0,1-1.326-1.875,2.062,2.062,0,0,1,.75-1.408c.06.036.132.067.194.1.152.085.314.167.475.249.223.111.445.223.686.334.176.078.356.151.54.222.248.1.5.193.765.284.195.067.391.131.593.192.273.085.557.164.841.239.209.055.419.111.633.16.3.069.606.132.917.191.222.042.436.087.662.125.334.055.668.1,1.008.146.222.029.432.061.653.086.382.041.772.07,1.164.1.191.014.378.034.572.043.589.032,1.187.05,1.792.05s1.2-.018,1.792-.05c.2-.01.382-.03.575-.043.391-.028.779-.057,1.161-.1.223-.024.445-.058.662-.087.334-.045.668-.089,1-.144.23-.039.453-.085.679-.128.3-.059.6-.119.891-.187.222-.052.445-.111.661-.167.274-.073.544-.148.807-.229.214-.065.421-.134.626-.2.249-.086.49-.176.727-.269.2-.078.388-.156.574-.238.222-.1.445-.206.651-.313.17-.087.342-.173.5-.264C265.839,16.47,265.909,16.439,265.969,16.4Zm0,5.566a2.062,2.062,0,0,1,.75,1.408,2.672,2.672,0,0,1-1.336,1.88c-2.2,1.586-6.378,2.573-10.91,2.573-.566,0-1.128-.016-1.68-.046-3.868-.21-7.311-1.139-9.241-2.533a2.662,2.662,0,0,1-1.326-1.875,2.062,2.062,0,0,1,.75-1.408c.06.036.132.067.194.1.152.085.314.167.475.249.223.111.445.223.686.334.176.078.356.151.54.222.248.1.5.193.765.284.195.067.391.131.593.192.273.085.557.164.841.239.209.055.419.111.633.16.3.069.606.132.917.191.222.042.436.087.662.125.334.055.668.1,1.008.146.222.029.432.061.653.086.382.041.772.07,1.164.1.191.014.378.034.572.043.589.032,1.187.05,1.792.05s1.2-.018,1.792-.05c.2-.01.382-.03.575-.043.391-.028.779-.057,1.161-.1.223-.024.445-.058.662-.087.334-.045.668-.089,1-.144.23-.039.453-.085.679-.128.3-.059.6-.119.891-.187.222-.052.445-.111.661-.167.274-.073.544-.148.807-.229.214-.065.421-.134.626-.2.249-.086.49-.176.727-.269.2-.078.388-.156.574-.238.222-.1.445-.206.651-.313.17-.087.342-.173.5-.264C265.839,22.036,265.909,22.005,265.969,21.97Zm0,5.566a2.062,2.062,0,0,1,.75,1.408,2.672,2.672,0,0,1-1.336,1.88c-2.2,1.586-6.378,2.573-10.91,2.573-.566,0-1.128-.016-1.68-.046-3.868-.21-7.311-1.139-9.241-2.533a2.662,2.662,0,0,1-1.326-1.875,2.062,2.062,0,0,1,.75-1.408c.06.036.132.067.194.1.152.085.314.167.475.249.223.111.445.223.686.334.176.078.356.151.54.222.248.1.5.193.765.284.195.067.391.131.593.192.273.085.557.164.841.239.209.055.419.111.633.16.3.069.606.132.917.191.222.042.436.087.662.125.334.055.668.1,1.008.146.222.029.432.061.653.086.382.041.772.07,1.164.1.191.014.378.034.572.043.589.032,1.187.05,1.792.05s1.2-.018,1.792-.05c.2-.01.382-.03.575-.043.391-.028.779-.057,1.161-.1.223-.024.445-.058.662-.087.334-.045.668-.089,1-.144.23-.039.453-.085.679-.128.3-.059.6-.119.891-.187.222-.052.445-.111.661-.167.274-.073.544-.148.807-.229.214-.065.421-.134.626-.2.249-.086.49-.176.727-.269.2-.078.388-.156.574-.238.222-.1.445-.206.651-.313.17-.087.342-.173.5-.264C265.839,27.6,265.909,27.572,265.969,27.537Zm0,5.566a2.062,2.062,0,0,1,.75,1.408,2.672,2.672,0,0,1-1.336,1.88c-2.2,1.586-6.378,2.573-10.91,2.573-.566,0-1.128-.016-1.68-.046-3.868-.21-7.311-1.139-9.241-2.533a2.662,2.662,0,0,1-1.326-1.875,2.062,2.062,0,0,1,.75-1.408c.06.036.132.067.194.1.152.085.314.167.475.249.223.111.445.223.686.334.176.078.356.151.54.222.248.1.5.193.765.284.195.067.391.131.593.192.273.085.557.164.841.239.209.055.419.111.633.16.3.069.606.132.917.191.222.042.436.087.662.125.334.055.668.1,1.008.146.222.029.432.061.653.086.382.041.772.07,1.164.1.191.014.378.034.572.043.589.032,1.187.05,1.792.05s1.2-.018,1.792-.05c.2-.01.382-.03.575-.043.391-.028.779-.057,1.161-.1.223-.024.445-.058.662-.087.334-.045.668-.089,1-.144.23-.039.453-.085.679-.128.3-.059.6-.119.891-.187.222-.052.445-.111.661-.167.274-.073.544-.148.807-.229.214-.065.421-.134.626-.2.249-.086.49-.176.727-.269.2-.078.388-.156.574-.238.222-.1.445-.206.651-.313.17-.087.342-.173.5-.264C265.839,33.169,265.909,33.138,265.969,33.1Zm0,5.566a2.062,2.062,0,0,1,.75,1.408,2.672,2.672,0,0,1-1.336,1.88c-2.2,1.586-6.378,2.573-10.91,2.573-.566,0-1.128-.016-1.68-.046-3.868-.21-7.311-1.139-9.241-2.533a2.662,2.662,0,0,1-1.326-1.875,2.062,2.062,0,0,1,.75-1.408c.06.036.132.067.194.1.152.085.314.167.475.249.223.111.445.223.686.334.176.078.356.151.54.222.248.1.5.193.765.284.195.067.391.131.593.192.273.085.557.164.841.239.209.055.419.111.633.16.3.069.606.132.917.191.222.042.436.087.662.125.334.055.668.1,1.008.146.222.029.432.061.653.086.382.041.772.07,1.164.1.191.014.378.034.572.043.589.032,1.187.05,1.792.05s1.2-.018,1.792-.05c.2-.01.382-.03.575-.043.391-.028.779-.057,1.161-.1.223-.024.445-.058.662-.087.334-.045.668-.089,1-.144.23-.039.453-.085.679-.128.3-.059.6-.119.891-.187.222-.052.445-.111.661-.167.274-.073.544-.148.807-.229.214-.065.421-.134.626-.2.249-.086.49-.176.727-.269.2-.078.388-.156.574-.238.222-.1.445-.206.651-.313.17-.087.342-.173.5-.264C265.839,38.735,265.909,38.7,265.969,38.67Zm-.58-24.543c-2.2,1.586-6.384,2.573-10.916,2.573-.566,0-1.128-.016-1.68-.046-3.868-.21-7.311-1.139-9.241-2.533a2.662,2.662,0,0,1-1.326-1.875,2.062,2.062,0,0,1,.75-1.408c.06.036.132.067.194.1.152.085.314.167.475.249.223.111.445.223.686.334.176.078.356.151.54.222.248.1.5.193.765.284.195.067.391.131.593.192.273.085.557.164.841.239.209.055.419.111.633.16.3.069.606.132.917.191.222.042.436.087.662.125.334.055.668.1,1.008.146.222.029.432.061.653.086.382.041.772.07,1.164.1.191.014.378.034.572.043.589.032,1.187.05,1.792.05s1.2-.018,1.792-.05c.2-.01.382-.03.575-.043.391-.028.779-.057,1.161-.1.223-.024.445-.058.662-.087.334-.045.668-.089,1-.144.23-.039.453-.085.679-.128.3-.059.6-.119.891-.187.222-.052.445-.111.661-.167.274-.073.544-.148.807-.229.214-.065.421-.134.626-.2.249-.086.49-.176.727-.269.2-.078.388-.156.574-.238.222-.1.445-.206.651-.313.17-.087.342-.173.5-.264.06-.035.13-.066.189-.1a2.062,2.062,0,0,1,.748,1.406A2.671,2.671,0,0,1,265.389,14.126Zm-10.916-11.9c7.013,0,12.246,2.351,12.246,4.453a2.672,2.672,0,0,1-1.336,1.88c-2.2,1.586-6.378,2.573-10.91,2.573-.566,0-1.128-.016-1.68-.046-3.868-.21-7.311-1.139-9.241-2.533a2.662,2.662,0,0,1-1.326-1.875C242.227,4.578,247.459,2.227,254.473,2.227Zm0,47.871c-7.013,0-12.246-2.351-12.246-4.453a2.062,2.062,0,0,1,.75-1.408c.06.036.132.067.194.1.152.085.314.167.475.249.223.111.445.223.686.334.176.078.356.151.54.222.248.1.5.193.765.284.195.067.391.131.593.192.273.085.557.164.841.239.209.055.419.111.633.16.3.069.606.132.917.191.222.042.436.087.662.125.334.055.668.1,1.008.146.222.029.432.061.653.086.382.041.772.07,1.164.1.191.014.378.034.572.043.589.032,1.187.05,1.792.05s1.2-.018,1.792-.05c.2-.01.382-.03.575-.043.391-.028.779-.057,1.161-.1.223-.024.445-.058.662-.087.334-.045.668-.089,1-.144.23-.039.453-.085.679-.128.3-.059.6-.119.891-.187.222-.052.445-.111.661-.167.274-.073.544-.148.807-.229.214-.065.421-.134.626-.2.249-.086.49-.176.727-.269.2-.078.388-.156.574-.238.222-.1.445-.206.651-.313.17-.087.342-.173.5-.264.06-.035.13-.066.189-.1a2.062,2.062,0,0,1,.748,1.406C266.719,47.747,261.486,50.1,254.473,50.1Zm0,0" transform="translate(-206.602)"/>
        </g>
      </g>
    </g>
    <rect id="Rectangle_228" data-name="Rectangle 228" class="cls-3" width="164" height="175" transform="translate(250 2721)"/>
  </g>
</svg>
