<svg xmlns="http://www.w3.org/2000/svg" xmlns:xlink="http://www.w3.org/1999/xlink" viewBox="0 0 164 175">
  <defs>
    <style>
      .cls-1 {
        fill: #fff;
      }

      .cls-2 {
        fill: #006ee5;
      }

      .cls-3 {
        fill: none;
      }

      .cls-4 {
        filter: url(#Rectangle_63);
      }
    </style>
    <filter id="Rectangle_63" x="8.801" y="22.865" width="145" height="141" filterUnits="userSpaceOnUse">
      <feOffset dy="6" input="SourceAlpha"/>
      <feGaussianBlur stdDeviation="3" result="blur"/>
      <feFlood flood-opacity="0.161"/>
      <feComposite operator="in" in2="blur"/>
      <feComposite in="SourceGraphic"/>
    </filter>
  </defs>
  <g id="Group_2723" data-name="Group 2723" transform="translate(-250 -2721)">
    <g id="Group_1047" data-name="Group 1047" transform="translate(281.801 2760.258)">
      <g id="Group_1041" data-name="Group 1041" transform="translate(-14 -13.394)">
        <g id="Group_749" data-name="Group 749" transform="translate(0)">
          <g class="cls-4" transform="matrix(1, 0, 0, 1, -17.8, -25.86)">
            <rect id="Rectangle_63-2" data-name="Rectangle 63" class="cls-1" width="127" height="123" rx="61.5" transform="translate(17.8 25.86)"/>
          </g>
        </g>
      </g>
      <path id="bow_1_" data-name="bow (1)" class="cls-2" d="M59.892.5H46.468a11.283,11.283,0,0,0-8.03,3.328c-.155.155-.293.31-.435.473a10.3,10.3,0,0,0-14.043,0c-.142-.158-.279-.317-.434-.472A11.287,11.287,0,0,0,15.489.5H2.065A2.065,2.065,0,0,0,0,2.565V21.152a2.065,2.065,0,0,0,2.065,2.065H15.489c.355,0,.707-.031,1.058-.064l-8.08,14.27a1.033,1.033,0,0,0,.837,1.54l8.7.516,4.811,7.282a1.032,1.032,0,0,0,.861.464h.035a1.033,1.033,0,0,0,.864-.523l6.336-11.2,6.464,11.2a1.031,1.031,0,0,0,.863.516h.031a1.032,1.032,0,0,0,.861-.465l4.807-7.282,8.7-.516a1.033,1.033,0,0,0,.833-1.549l-8.24-14.271a11.874,11.874,0,0,0,1.227.074H59.892a2.065,2.065,0,0,0,2.065-2.065V2.565A2.065,2.065,0,0,0,59.892.5ZM30.978,3.6a8.268,8.268,0,0,1,8.261,8.261,8.1,8.1,0,0,1-.634,3.153,6.1,6.1,0,0,1-.426.883,7.975,7.975,0,0,1-.894,1.295,8.255,8.255,0,0,1-12.615-.006A8.254,8.254,0,0,1,30.978,3.6ZM2.065,21.152V2.565H15.489a9.231,9.231,0,0,1,6.569,2.723q.28.28.523.567a10.273,10.273,0,0,0-1.873,4.971H9.294a1.033,1.033,0,1,0,0,2.065H20.707a9.777,9.777,0,0,0,.608,2.582,9.952,9.952,0,0,0,1.251,2.375,9.283,9.283,0,0,1-7.078,3.3ZM23.611,44.215,19.448,37.91a1.031,1.031,0,0,0-.8-.461L11.08,37l8.177-14.44a11.358,11.358,0,0,0,4.7-3.148,10.035,10.035,0,0,0,1.665,1.269,10.283,10.283,0,0,0,5.356,1.5c.344,0,.685-.023,1.024-.056.1-.01.2-.025.3-.038.246-.032.49-.072.732-.121.1-.021.206-.04.3-.064q.43-.1.85-.237c.04-.014.082-.023.122-.036.318-.109.63-.235.935-.375.082-.037.16-.079.241-.117.228-.111.451-.229.671-.357.088-.05.174-.1.261-.156q.353-.22.69-.469c.048-.036.1-.069.15-.1.019-.015.038-.027.057-.04l-7.307,12.9a.166.166,0,0,1-.009.02Zm19.7-6.766a1.031,1.031,0,0,0-.8.461l-4.171,6.32L32.1,33.417l7.215-12.744a11.488,11.488,0,0,0,3.162,1.805L50.86,37Zm16.583-16.3H46.468a9.182,9.182,0,0,1-6.673-2.836c-.141-.144-.28-.3-.413-.466a9.371,9.371,0,0,0,.6-.939,7.941,7.941,0,0,0,.545-1.136,10.055,10.055,0,0,0,.726-2.884h11.41a1.033,1.033,0,1,0,0-2.065H41.249a10.268,10.268,0,0,0-1.873-4.971q.242-.286.522-.567a9.235,9.235,0,0,1,6.57-2.723H59.892Zm0,0" transform="translate(18.221 30.879)"/>
    </g>
    <rect id="Rectangle_228" data-name="Rectangle 228" class="cls-3" width="164" height="175" transform="translate(250 2721)"/>
  </g>
</svg>
