<svg xmlns="http://www.w3.org/2000/svg" xmlns:xlink="http://www.w3.org/1999/xlink" viewBox="0 0 164 175">
  <defs>
    <style>
      .cls-1 {
        fill: #fff;
      }

      .cls-2 {
        fill: #006ee5;
      }

      .cls-3 {
        fill: none;
      }

      .cls-4 {
        filter: url(#Rectangle_63);
      }
    </style>
    <filter id="Rectangle_63" x="7.816" y="22.304" width="145" height="141" filterUnits="userSpaceOnUse">
      <feOffset dy="6" input="SourceAlpha"/>
      <feGaussianBlur stdDeviation="3" result="blur"/>
      <feFlood flood-opacity="0.161"/>
      <feComposite operator="in" in2="blur"/>
      <feComposite in="SourceGraphic"/>
    </filter>
  </defs>
  <g id="Group_2721" data-name="Group 2721" transform="translate(-250 -2721)">
    <g id="Group_1047" data-name="Group 1047" transform="translate(280.816 2759.304)">
      <g id="Group_1041" data-name="Group 1041" transform="translate(-14 -13)">
        <g id="Group_749" data-name="Group 749">
          <g class="cls-4" transform="matrix(1, 0, 0, 1, -16.82, -25.3)">
            <rect id="Rectangle_63-2" data-name="Rectangle 63" class="cls-1" width="127" height="123" rx="61.5" transform="translate(16.82 25.3)"/>
          </g>
        </g>
      </g>
      <g id="plant" transform="translate(17.916 16.841)">
        <g id="Group_2745" data-name="Group 2745" transform="translate(0 0.26)">
          <g id="Group_2744" data-name="Group 2744" transform="translate(0 0)">
            <path id="Path_2098" data-name="Path 2098" class="cls-2" d="M57.4,41.548h0L52.92,43.042a4.728,4.728,0,0,0-2.95-2.976,5.215,5.215,0,0,0-5.455-4.424,8.864,8.864,0,0,0-8.162-4.155,4.179,4.179,0,0,0-2.764-2.941,20.213,20.213,0,0,1,5.066-8.391c.126.144.243.3.376.432A11.239,11.239,0,0,0,47,23.96c.211,0,.423-.006.635-.019a9.145,9.145,0,0,0,6.853-3.584C59.02,14.388,62.358,2.393,62.5,1.885a1.042,1.042,0,0,0-.869-1.31C61.014.493,46.5-1.329,39.237,4.8a9.429,9.429,0,0,0-1.387,1.45,23.575,23.575,0,0,0-8.786-.712,1.043,1.043,0,0,0-.877,1.342c.07.226,1.726,5.563,4,8.236a5.185,5.185,0,0,0,4,1.755c.149,0,.3-.011.452-.023a11.774,11.774,0,0,0,.764,1.565,22.226,22.226,0,0,0-5.941,10.017A4.2,4.2,0,0,0,28.991,30a7.27,7.27,0,0,0-8.328,1.772,6.062,6.062,0,0,0-1.9-.308A6.258,6.258,0,0,0,12.6,36.675H10.671a4.688,4.688,0,0,0-3.9-2.085H4.69A4.7,4.7,0,0,0,0,39.281V58.041a4.7,4.7,0,0,0,4.69,4.69H6.775a4.644,4.644,0,0,0,2.912-1.042H36.791a8.336,8.336,0,0,0,4.335-1.216L60.663,48.582A3.9,3.9,0,0,0,57.4,41.548ZM37.889,12.068a7.8,7.8,0,0,1,2.693-5.674c3.99-3.369,10.77-4.033,15.5-4.033,1.691,0,3.119.085,4.062.161C59.176,5.709,56.317,14.5,52.823,19.1A7.094,7.094,0,0,1,47.5,21.86a9.077,9.077,0,0,1-6.977-2.727c-.133-.136-.252-.286-.375-.431a35.529,35.529,0,0,1,7.21-5.064,1.042,1.042,0,0,0-.917-1.872,36.454,36.454,0,0,0-7.483,5.164A9.681,9.681,0,0,1,37.889,12.068Zm-2.082-.1a11.491,11.491,0,0,0,.228,2.816,3.063,3.063,0,0,1-2.254-1.015A22.838,22.838,0,0,1,30.6,7.519a20.458,20.458,0,0,1,6.139.574A10.44,10.44,0,0,0,35.807,11.966ZM9.38,58.041a2.609,2.609,0,0,1-2.606,2.606H4.69a2.609,2.609,0,0,1-2.606-2.606V39.281A2.609,2.609,0,0,1,4.69,36.675H6.775A2.609,2.609,0,0,1,9.38,39.281Zm9.38-24.493a4.116,4.116,0,0,1,1.779.416,1.044,1.044,0,0,0,1.293-.331,5.189,5.189,0,0,1,7.006-1.358,1.042,1.042,0,0,0,1.532-.509,2.06,2.06,0,0,1,1.857-1.332c.028,0,.056.008.084.008s.05-.011.075-.013A2.073,2.073,0,0,1,34.4,32.45c0,.029-.015.128-.017.157a1.042,1.042,0,0,0,1.25,1.08A6.845,6.845,0,0,1,37,33.548a6.75,6.75,0,0,1,6.028,3.694,1.041,1.041,0,0,0,1.144.544A3.142,3.142,0,0,1,47.943,40.8c0,.035,0,.07,0,.1a1.042,1.042,0,0,0,.9,1.032,2.612,2.612,0,0,1,2.1,1.776L38.108,47.98a3.124,3.124,0,0,1-.989.16h-.6a4.8,4.8,0,0,0-.39-4.106l-.093-.153a6.283,6.283,0,0,0-5.362-3.037H25.224a8.5,8.5,0,0,1-5.292-1.856,10.588,10.588,0,0,0-5.224-2.213A4.17,4.17,0,0,1,18.761,33.548ZM60.418,45.6A1.793,1.793,0,0,1,59.58,46.8L40.043,58.693a6.253,6.253,0,0,1-3.251.912H11.177a4.633,4.633,0,0,0,.288-1.563V39.281a4.576,4.576,0,0,0-.053-.521h1.927a8.5,8.5,0,0,1,5.292,1.856,10.592,10.592,0,0,0,6.593,2.313h5.451a4.19,4.19,0,0,1,3.575,2.025l.093.153a2.724,2.724,0,0,1-.154,3.033H27.854a10.385,10.385,0,0,0-5.781,1.751l-.764.509a1.042,1.042,0,1,0,1.156,1.734l.764-.509a8.309,8.309,0,0,1,4.625-1.4h9.264a5.215,5.215,0,0,0,1.648-.267l13.3-4.433c.017,0,.031.01.048.01a1.021,1.021,0,0,0,.638-.239l5.309-1.77a1.812,1.812,0,0,1,2.028.638A1.794,1.794,0,0,1,60.418,45.6Z" transform="translate(0 -0.26)"/>
            <path id="Path_2099" data-name="Path 2099" class="cls-2" d="M188.992,276.955a1.043,1.043,0,0,0,1.229-.814,1.568,1.568,0,0,1,1.532-1.25,1.549,1.549,0,0,1,.937.312,1.042,1.042,0,0,0,1.252-1.666,3.615,3.615,0,0,0-2.189-.73,3.659,3.659,0,0,0-3.575,2.919A1.042,1.042,0,0,0,188.992,276.955Z" transform="translate(-165.176 -239.518)"/>
            <path id="Path_2100" data-name="Path 2100" class="cls-2" d="M282.168,292.281a1.042,1.042,0,0,0,1.041-.065h0a1.568,1.568,0,0,1,1.967.2,1.549,1.549,0,0,1,.442.884,1.042,1.042,0,0,0,1.031.9,1.143,1.143,0,0,0,.149-.01,1.043,1.043,0,0,0,.885-1.179,3.649,3.649,0,0,0-5.625-2.527,1.042,1.042,0,0,0,.11,1.8Z" transform="translate(-247.197 -254.5)"/>
          </g>
        </g>
      </g>
    </g>
    <rect id="Rectangle_228" data-name="Rectangle 228" class="cls-3" width="164" height="175" transform="translate(250 2721)"/>
  </g>
</svg>
