<svg xmlns="http://www.w3.org/2000/svg" xmlns:xlink="http://www.w3.org/1999/xlink" viewBox="0 0 164 175">
  <defs>
    <style>
      .cls-1 {
        fill: #fff;
      }

      .cls-2, .cls-3 {
        fill: none;
      }

      .cls-2 {
        stroke: #00cce9;
        stroke-miterlimit: 10;
        stroke-width: 3px;
      }

      .cls-4 {
        filter: url(#Rectangle_63);
      }
    </style>
    <filter id="Rectangle_63" x="5" y="16" width="154" height="148.111" filterUnits="userSpaceOnUse">
      <feOffset dy="3" input="SourceAlpha"/>
      <feGaussianBlur stdDeviation="3" result="blur"/>
      <feFlood flood-opacity="0.161"/>
      <feComposite operator="in" in2="blur"/>
      <feComposite in="SourceGraphic"/>
    </filter>
  </defs>
  <g id="Group_2109" data-name="Group 2109" transform="translate(-250 -2721)">
    <g id="Group_1047" data-name="Group 1047" transform="translate(264 2743)">
      <g id="Group_1041" data-name="Group 1041" transform="translate(0 0)">
        <g id="Group_749" data-name="Group 749" transform="translate(0)">
          <g class="cls-4" transform="matrix(1, 0, 0, 1, -14, -22)">
            <rect id="Rectangle_63-2" data-name="Rectangle 63" class="cls-1" width="136" height="130.112" rx="50" transform="translate(14 22)"/>
          </g>
        </g>
      </g>
      <g id="Group_2110" data-name="Group 2110" transform="translate(28.286 25.147)">
        <g id="Group_762" data-name="Group 762" transform="translate(0 0)">
          <g id="Group_761" data-name="Group 761" transform="translate(19.479 16.885)">
            <path id="Path_655" data-name="Path 655" class="cls-2" d="M41.952,54.3H77.629a2.734,2.734,0,0,1,2.752,2.752V79.866a2.734,2.734,0,0,1-2.752,2.752H41.952A2.734,2.734,0,0,1,39.2,79.866V57.052A2.767,2.767,0,0,1,41.952,54.3Z" transform="translate(-39.2 -43.714)"/>
            <path id="Path_656" data-name="Path 656" class="cls-2" d="M53.4,62.5H75.313a4.5,4.5,0,0,1,4.5,4.5v.371a4.5,4.5,0,0,1-4.5,4.5H53.4a4.5,4.5,0,0,1-4.5-4.5V67A4.53,4.53,0,0,1,53.4,62.5Z" transform="translate(-43.766 -47.573)"/>
            <line id="Line_6" data-name="Line 6" class="cls-2" x2="14.715" transform="translate(13.233 32.659)"/>
            <line id="Line_7" data-name="Line 7" class="cls-2" y1="4.552" transform="translate(20.591 4.499)"/>
            <path id="Path_657" data-name="Path 657" class="cls-2" d="M78.352,36.576A2.276,2.276,0,1,1,76.076,34.3,2.293,2.293,0,0,1,78.352,36.576Z" transform="translate(-55.485 -34.3)"/>
          </g>
          <path id="Path_658" data-name="Path 658" class="cls-2" d="M96,103.879l3.652-.847-2.064-8.787a30.363,30.363,0,0,0,6.087-3.229l6.193,6.617,6.775-6.352-6.193-6.617A30.354,30.354,0,0,0,114.1,78.79l8.628,2.647,2.7-8.893L116.8,69.9a29.868,29.868,0,0,0,.212-6.881l8.787-2.064L123.684,51.9l-2.964.688" transform="translate(-46.455 -25.699)"/>
          <path id="Path_659" data-name="Path 659" class="cls-2" d="M23.217,110.6,16.6,116.793l6.352,6.775,6.617-6.193a30.353,30.353,0,0,0,5.875,3.652L32.8,129.656l8.893,2.7,2.647-8.628a29.868,29.868,0,0,0,6.881.212l2.064,8.787" transform="translate(-9.084 -53.327)"/>
          <path id="Path_660" data-name="Path 660" class="cls-2" d="M13.833,55.015,13.3,53.585,4.517,55.65,2.4,46.6l8.787-2.064a29.775,29.775,0,0,1,.212-6.881L2.771,35.006l2.7-8.893L14.1,28.76a33.93,33.93,0,0,1,3.652-5.875l-6.14-6.564,6.775-6.352,6.193,6.617a30.362,30.362,0,0,1,6.087-3.229L28.6,4.517,37.653,2.4l2.064,8.787A29.775,29.775,0,0,1,46.6,11.4l2.647-8.628,8.893,2.7L55.491,14.1a33.93,33.93,0,0,1,5.875,3.652l6.617-6.193,6.352,6.775-6.617,6.193a30.362,30.362,0,0,1,3.229,6.087" transform="translate(-2.4 -2.4)"/>
        </g>
      </g>
    </g>
    <rect id="Rectangle_228" data-name="Rectangle 228" class="cls-3" width="164" height="175" transform="translate(250 2721)"/>
  </g>
</svg>
