<svg xmlns="http://www.w3.org/2000/svg" xmlns:xlink="http://www.w3.org/1999/xlink" viewBox="0 0 164 175">
  <defs>
    <style>
      .cls-1 {
        fill: #fff;
      }

      .cls-2 {
        fill: #00cce9;
        stroke: #00cce9;
        stroke-width: 0.5px;
      }

      .cls-3 {
        fill: none;
      }

      .cls-4 {
        filter: url(#Rectangle_63);
      }
    </style>
    <filter id="Rectangle_63" x="5" y="16" width="154" height="148.111" filterUnits="userSpaceOnUse">
      <feOffset dy="3" input="SourceAlpha"/>
      <feGaussianBlur stdDeviation="3" result="blur"/>
      <feFlood flood-opacity="0.161"/>
      <feComposite operator="in" in2="blur"/>
      <feComposite in="SourceGraphic"/>
    </filter>
  </defs>
  <g id="Group_2106" data-name="Group 2106" transform="translate(-250 -2721)">
    <g id="Group_1047" data-name="Group 1047" transform="translate(264 2743)">
      <g id="Group_1041" data-name="Group 1041" transform="translate(0 0)">
        <g id="Group_749" data-name="Group 749" transform="translate(0)">
          <g class="cls-4" transform="matrix(1, 0, 0, 1, -14, -22)">
            <rect id="Rectangle_63-2" data-name="Rectangle 63" class="cls-1" width="136" height="130.112" rx="50" transform="translate(14 22)"/>
          </g>
        </g>
      </g>
      <g id="Group_1042" data-name="Group 1042" transform="translate(30.431 27.087)">
        <g id="Group_746" data-name="Group 746" transform="translate(0 0)">
          <g id="Group_743" data-name="Group 743" transform="translate(0 0)">
            <path id="Path_595" data-name="Path 595" class="cls-2" d="M5.245,47.846c-1.39-2.631-1.887-3.972-1.688-6.653a8.784,8.784,0,0,1,7-7.993l.248,1.489a7.313,7.313,0,0,0-5.759,6.653c-.2,2.184.1,3.177,1.489,5.809Z" transform="translate(-1.748 -16.705)"/>
            <path id="Path_596" data-name="Path 596" class="cls-2" d="M134.848,105.247l-.248-1.489a7.318,7.318,0,0,0,5.759-6.752,7.13,7.13,0,0,0-1.936-5.213l.993-1.092a8.76,8.76,0,0,1,2.433,6.4A8.892,8.892,0,0,1,134.848,105.247Z" transform="translate(-67.752 -45.658)"/>
            <rect id="Rectangle_48" data-name="Rectangle 48" class="cls-2" width="1.489" height="5.511" transform="translate(41.131 20.07)"/>
            <path id="Path_597" data-name="Path 597" class="cls-2" d="M81.889,18.559H80.4V8.133a8.746,8.746,0,0,1,2.929-6.107A8.114,8.114,0,0,1,89.138-.009a7.832,7.832,0,0,1,7.546,6.851l-1.489.248A6.312,6.312,0,0,0,89.039,1.53a6.623,6.623,0,0,0-4.717,1.638,7.458,7.458,0,0,0-2.433,5.064Z" transform="translate(-40.461 0.021)"/>
            <path id="Path_598" data-name="Path 598" class="cls-2" d="M73.2,77.729H55.278A3.094,3.094,0,0,1,52.2,74.651V56.778A3.094,3.094,0,0,1,55.278,53.7H73.2a3.094,3.094,0,0,1,3.078,3.078V74.7A3.051,3.051,0,0,1,73.2,77.729ZM55.278,55.189a1.6,1.6,0,0,0-1.589,1.589V74.7a1.6,1.6,0,0,0,1.589,1.589H73.2A1.6,1.6,0,0,0,74.79,74.7V56.778A1.6,1.6,0,0,0,73.2,55.189Z" transform="translate(-26.262 -27.027)"/>
            <path id="Path_599" data-name="Path 599" class="cls-2" d="M55.6,25.606H54.109V17.96l1.142-3.277V8.13a6.576,6.576,0,0,0-3.028-5.759,7.26,7.26,0,0,0-2.83-.894,6.681,6.681,0,0,0-6.7,4.667l-1.39-.5A7.948,7.948,0,0,1,52.967,1.08,8.114,8.114,0,0,1,56.74,8.13v6.8L55.6,18.208Z" transform="translate(-20.773 0.024)"/>
            <path id="Path_600" data-name="Path 600" class="cls-2" d="M54.889,127.734H53.4V114.577H64.124V104.3h1.489v11.766H54.889Z" transform="translate(-26.866 -52.506)"/>
            <path id="Path_601" data-name="Path 601" class="cls-2" d="M88.195,128.478h-.5a7.782,7.782,0,0,1-7.3-8.142v-6.8l1.192-3.823V104.3h1.489v5.66l-1.192,3.823v6.553a6.576,6.576,0,0,0,3.029,5.759,7.261,7.261,0,0,0,2.83.894,6.681,6.681,0,0,0,6.7-4.667l1.39.5A8.218,8.218,0,0,1,88.195,128.478Z" transform="translate(-40.461 -52.506)"/>
            <path id="Path_602" data-name="Path 602" class="cls-2" d="M47.593,142.426h-.5a8.376,8.376,0,0,1-7.6-6.8l1.44-.3a6.952,6.952,0,0,0,6.256,5.61,6.623,6.623,0,0,0,4.717-1.638,7.458,7.458,0,0,0,2.433-5.064V132h1.489v2.284A8.746,8.746,0,0,1,52.9,140.39,7.906,7.906,0,0,1,47.593,142.426Z" transform="translate(-19.867 -66.453)"/>
            <rect id="Rectangle_49" data-name="Rectangle 49" class="cls-2" width="1.489" height="7.546" transform="translate(33.336 51.794)"/>
            <path id="Path_603" data-name="Path 603" class="cls-2" d="M118.389,77.771h-.546c-4.021-.248-5.362-3.426-6.355-7l-3.277-1.34H102.8V67.941h5.66l4.22,1.688.1.348c1.092,4.021,2.184,6.057,5.114,6.256a7.338,7.338,0,0,0,5.412-1.887,8.528,8.528,0,0,0,2.78-5.858,8.763,8.763,0,0,0-3.972-7.646l.794-1.241a10.135,10.135,0,0,1,4.617,8.986,9.7,9.7,0,0,1-3.277,6.851A8.342,8.342,0,0,1,118.389,77.771Z" transform="translate(-51.74 -29.998)"/>
            <rect id="Rectangle_50" data-name="Rectangle 50" class="cls-2" width="5.511" height="1.489" transform="translate(51.06 41.865)"/>
            <path id="Path_604" data-name="Path 604" class="cls-2" d="M108.188,117.917h-.6a9.885,9.885,0,0,1-8.192-5.61l1.34-.645a8.44,8.44,0,0,0,6.951,4.816,8.019,8.019,0,0,0,5.858-2.036,8.853,8.853,0,0,0,2.979-6.305,8.712,8.712,0,0,0-7.844-9.433l-.447-.05-2.085-4.965h-5.014V92.2h6.007l2.085,5.064a10.319,10.319,0,0,1,8.788,10.972,10.533,10.533,0,0,1-3.475,7.348A10.132,10.132,0,0,1,108.188,117.917Z" transform="translate(-50.028 -46.413)"/>
            <path id="Path_605" data-name="Path 605" class="cls-2" d="M101.473,114.378H90.7V104.3h1.489v8.589h9.284Z" transform="translate(-45.647 -52.506)"/>
            <path id="Path_606" data-name="Path 606" class="cls-2" d="M135.285,52.135l-.745-1.291a7.237,7.237,0,0,0,3.326-4.518c.943-3.972-1.142-7.944-4.667-8.887l.4-1.44c4.319,1.192,6.851,5.958,5.709,10.674A8.738,8.738,0,0,1,135.285,52.135Z" transform="translate(-67.047 -18.115)"/>
            <path id="Path_607" data-name="Path 607" class="cls-2" d="M103.013,37.4H96.757V35.908h4.766V29.4h2.036a7.383,7.383,0,0,0,5.461-1.887,8.528,8.528,0,0,0,2.78-5.858,8.116,8.116,0,0,0-7.249-8.738,7.558,7.558,0,0,0-6.7,3.326l-.2.348H92.189V31.34H90.7V15.155h6.107a9.045,9.045,0,0,1,7.795-3.674c5.064.3,8.937,4.915,8.639,10.277a9.7,9.7,0,0,1-3.277,6.851,9.041,9.041,0,0,1-6.5,2.284h-.5v6.5Z" transform="translate(-45.647 -5.76)"/>
            <rect id="Rectangle_51" data-name="Rectangle 51" class="cls-2" width="24.079" height="1.489" transform="translate(0.817 37.943)"/>
            <path id="Path_608" data-name="Path 608" class="cls-2" d="M12.735,100.484c-4.27-1.192-6.851-5.958-5.709-10.724A8.566,8.566,0,0,1,11.047,84.3l.149-.1H28.275v1.489H11.593a7.068,7.068,0,0,0-3.128,4.419c-.943,3.972,1.142,7.944,4.667,8.887Z" transform="translate(-3.379 -42.385)"/>
            <path id="Path_609" data-name="Path 609" class="cls-2" d="M35.589,103.668H34.1V92.1h7.944v1.489H35.589Z" transform="translate(-17.148 -46.363)"/>
            <path id="Path_610" data-name="Path 610" class="cls-2" d="M25.868,122.768h-.546a9.567,9.567,0,0,1-8.639-10.277A9.7,9.7,0,0,1,22.1,104.2l.645,1.34a8.29,8.29,0,0,0-4.568,7,8.116,8.116,0,0,0,7.249,8.738,7.659,7.659,0,0,0,6.6-3.177v-9.036h5.809V104.3h1.489v6.256H33.514v7.993l-.149.2A9.155,9.155,0,0,1,25.868,122.768Z" transform="translate(-8.37 -52.455)"/>
            <path id="Path_611" data-name="Path 611" class="cls-2" d="M4.793,75C2.41,74.11-.321,71.23-.023,65.918a9.7,9.7,0,0,1,3.277-6.851,9.041,9.041,0,0,1,6.5-2.284c3.525.248,3.972,2.135,4.468,4.568.1.4.2.794.3,1.241H24.851v1.489H13.382l-.149-.546c-.2-.7-.348-1.34-.447-1.887-.5-2.333-.7-3.227-3.128-3.376a7.549,7.549,0,0,0-5.412,1.887,8.528,8.528,0,0,0-2.78,5.858c-.149,3.029.943,6.553,3.773,7.546Z" transform="translate(0.045 -28.571)"/>
            <path id="Path_612" data-name="Path 612" class="cls-2" d="M32.863,36.14H26.806l-2.184-6.454a10.263,10.263,0,0,1-8.738-10.922,10.533,10.533,0,0,1,3.475-7.348A9.512,9.512,0,0,1,26.31,8.983a9.885,9.885,0,0,1,8.192,5.61l-1.34.645a8.44,8.44,0,0,0-6.951-4.816,8.018,8.018,0,0,0-5.858,2.036,8.853,8.853,0,0,0-2.979,6.305A8.712,8.712,0,0,0,25.217,28.2l.5.05,2.135,6.4h5.014Z" transform="translate(-7.967 -4.503)"/>
            <rect id="Rectangle_52" data-name="Rectangle 52" class="cls-2" width="1.489" height="13.554" transform="translate(29.414 12.027)"/>
            <path id="Path_613" data-name="Path 613" class="cls-2" d="M76.489,38.71H75V26h3.426v1.489H76.489Z" transform="translate(-37.742 -13.08)"/>
            <path id="Path_614" data-name="Path 614" class="cls-2" d="M47.155,36.468H33.8V32h1.489v2.979H47.155Z" transform="translate(-16.997 -16.101)"/>
            <path id="Path_615" data-name="Path 615" class="cls-2" d="M31.473,25.846a3.773,3.773,0,1,1,3.773-3.773A3.772,3.772,0,0,1,31.473,25.846Zm0-6.007a2.284,2.284,0,0,0,0,4.568,2.247,2.247,0,0,0,2.284-2.284A2.344,2.344,0,0,0,31.473,19.839Z" transform="translate(-13.925 -9.202)"/>
            <path id="Path_616" data-name="Path 616" class="cls-2" d="M103.489,40.578H102V30.5h4.468v1.489h-2.979Z" transform="translate(-51.337 -15.345)"/>
            <path id="Path_617" data-name="Path 617" class="cls-2" d="M113.173,31.946a3.773,3.773,0,1,1,3.773-3.773A3.772,3.772,0,0,1,113.173,31.946Zm0-6.007a2.278,2.278,0,0,0-2.284,2.284,2.284,2.284,0,1,0,4.568,0A2.278,2.278,0,0,0,113.173,25.939Z" transform="translate(-55.063 -12.274)"/>
            <path id="Path_618" data-name="Path 618" class="cls-2" d="M114.573,123.046a3.773,3.773,0,1,1,3.773-3.773A3.772,3.772,0,0,1,114.573,123.046Zm0-6.007a2.278,2.278,0,0,0-2.284,2.284,2.247,2.247,0,0,0,2.284,2.284,2.284,2.284,0,0,0,0-4.568Z" transform="translate(-55.768 -58.145)"/>
            <path id="Path_619" data-name="Path 619" class="cls-2" d="M31.773,119.646a3.773,3.773,0,1,1,3.773-3.773A3.772,3.772,0,0,1,31.773,119.646Zm0-6.007a2.278,2.278,0,0,0-2.284,2.284,2.247,2.247,0,0,0,2.284,2.284,2.278,2.278,0,0,0,2.284-2.284A2.247,2.247,0,0,0,31.773,113.639Z" transform="translate(-14.076 -56.433)"/>
            <path id="Path_620" data-name="Path 620" class="cls-2" d="M57.78,19.859a2.88,2.88,0,1,1,2.88-2.88A2.882,2.882,0,0,1,57.78,19.859Zm0-4.22a1.388,1.388,0,0,0-1.39,1.39,1.39,1.39,0,0,0,2.78,0A1.388,1.388,0,0,0,57.78,15.639Z" transform="translate(-27.621 -7.088)"/>
            <path id="Path_621" data-name="Path 621" class="cls-2" d="M105.832,109.864a2.532,2.532,0,1,1,2.532-2.532A2.543,2.543,0,0,1,105.832,109.864Zm0-3.624a1.049,1.049,0,0,0-1.043,1.043,1.043,1.043,0,0,0,2.085,0A1.049,1.049,0,0,0,105.832,106.24Z" transform="translate(-51.992 -52.757)"/>
            <path id="Path_622" data-name="Path 622" class="cls-2" d="M101.225,107.775H97.7V104.3h1.489v1.986h2.036Z" transform="translate(-49.172 -52.506)"/>
            <path id="Path_623" data-name="Path 623" class="cls-2" d="M119.531,75.2h-4.915V69.989H102.8V68.5h13.306v5.213h3.426Z" transform="translate(-51.74 -34.479)"/>
            <path id="Path_624" data-name="Path 624" class="cls-2" d="M137.532,80.464a2.532,2.532,0,1,1,2.532-2.532A2.543,2.543,0,0,1,137.532,80.464Zm0-3.575a1.049,1.049,0,0,0-1.043,1.043,1.043,1.043,0,1,0,2.085,0A1.049,1.049,0,0,0,137.532,76.889Z" transform="translate(-67.953 -37.954)"/>
            <path id="Path_625" data-name="Path 625" class="cls-2" d="M92.189,10.984H90.7V5.324h3.475V1.7h1.489V6.814H92.189Z" transform="translate(-45.647 -0.844)"/>
            <path id="Path_626" data-name="Path 626" class="cls-2" d="M13.563,96.209H8.3V94.719h3.773V90.4h6.6v1.489H13.563Z" transform="translate(-4.157 -45.507)"/>
            <path id="Path_627" data-name="Path 627" class="cls-2" d="M129.713,57.563H124.5V56.073h3.724V52.3h1.489Z" transform="translate(-62.666 -26.322)"/>
            <path id="Path_628" data-name="Path 628" class="cls-2" d="M92.31,134.81H86.7V129.2h1.489v4.121H92.31Z" transform="translate(-43.633 -65.043)"/>
            <path id="Path_629" data-name="Path 629" class="cls-2" d="M17.657,48.412H11.6V43.1h1.489v3.823h4.568Z" transform="translate(-5.818 -21.69)"/>
            <path id="Path_630" data-name="Path 630" class="cls-2" d="M45.421,46.6H41.4V39.5h1.489v5.61h1.043V41.933H48.1v1.489H45.421Z" transform="translate(-20.824 -19.877)"/>
            <rect id="Rectangle_53" data-name="Rectangle 53" class="cls-2" width="4.865" height="1.489" transform="translate(17.697 51.05)"/>
          </g>
          <g id="Group_745" data-name="Group 745" transform="translate(29.364 31.191)">
            <g id="Group_744" data-name="Group 744">
              <rect id="Rectangle_54" data-name="Rectangle 54" class="cls-2" width="1.043" height="3.575" transform="translate(3.873 5.709)"/>
              <rect id="Rectangle_55" data-name="Rectangle 55" class="cls-2" width="1.043" height="3.575" transform="translate(9.532 5.709)"/>
              <path id="Path_631" data-name="Path 631" class="cls-2" d="M72.139,77.867h0A1.515,1.515,0,0,1,70.6,76.328V74.739A1.547,1.547,0,0,1,72.139,73.2a1.515,1.515,0,0,1,1.539,1.539v1.589A1.515,1.515,0,0,1,72.139,77.867Zm0-3.575a.458.458,0,0,0-.5.447v1.589a.445.445,0,0,0,.447.447h.05a.445.445,0,0,0,.447-.447V74.739C72.636,74.491,72.387,74.292,72.139,74.292Z" transform="translate(-64.891 -68.037)"/>
              <rect id="Rectangle_56" data-name="Rectangle 56" class="cls-2" width="1.043" height="3.575" transform="translate(15.192 5.709)"/>
              <path id="Path_632" data-name="Path 632" class="cls-2" d="M83.539,77.867h0A1.515,1.515,0,0,1,82,76.328V74.739A1.547,1.547,0,0,1,83.539,73.2a1.515,1.515,0,0,1,1.539,1.539v1.589A1.515,1.515,0,0,1,83.539,77.867Zm0-3.575a.458.458,0,0,0-.5.447v1.589a.445.445,0,0,0,.447.447h.05a.445.445,0,0,0,.447-.447V74.739A.445.445,0,0,0,83.539,74.292Z" transform="translate(-70.631 -68.037)"/>
              <rect id="Rectangle_57" data-name="Rectangle 57" class="cls-2" width="1.043" height="3.575" transform="translate(6.702 0.546)"/>
              <path id="Path_633" data-name="Path 633" class="cls-2" d="M66.439,67.467h0A1.515,1.515,0,0,1,64.9,65.928V64.339A1.547,1.547,0,0,1,66.439,62.8a1.515,1.515,0,0,1,1.539,1.539v1.589A1.515,1.515,0,0,1,66.439,67.467Zm0-3.575a.458.458,0,0,0-.5.447v1.589a.445.445,0,0,0,.447.447h.05a.445.445,0,0,0,.447-.447V64.339C66.936,64.091,66.737,63.892,66.439,63.892Z" transform="translate(-62.02 -62.8)"/>
              <path id="Path_634" data-name="Path 634" class="cls-2" d="M77.839,67.467h0A1.515,1.515,0,0,1,76.3,65.928V64.339A1.547,1.547,0,0,1,77.839,62.8a1.515,1.515,0,0,1,1.539,1.539v1.589A1.515,1.515,0,0,1,77.839,67.467Zm0-3.575a.458.458,0,0,0-.5.447v1.589a.445.445,0,0,0,.447.447h.05a.445.445,0,0,0,.447-.447V64.339A.445.445,0,0,0,77.839,63.892Z" transform="translate(-67.761 -62.8)"/>
              <rect id="Rectangle_58" data-name="Rectangle 58" class="cls-2" width="1.043" height="3.575" transform="translate(12.362 0.546)"/>
              <path id="Path_635" data-name="Path 635" class="cls-2" d="M89.239,67.467h0A1.515,1.515,0,0,1,87.7,65.928V64.339A1.547,1.547,0,0,1,89.239,62.8a1.515,1.515,0,0,1,1.539,1.539v1.589A1.515,1.515,0,0,1,89.239,67.467Zm0-3.575a.458.458,0,0,0-.5.447v1.589a.445.445,0,0,0,.447.447h.05a.445.445,0,0,0,.447-.447V64.339A.445.445,0,0,0,89.239,63.892Z" transform="translate(-73.501 -62.8)"/>
              <path id="Path_636" data-name="Path 636" class="cls-2" d="M60.639,77.867h0A1.515,1.515,0,0,1,59.1,76.328V74.739A1.547,1.547,0,0,1,60.639,73.2a1.515,1.515,0,0,1,1.539,1.539v1.589A1.515,1.515,0,0,1,60.639,77.867Zm0-3.575a.458.458,0,0,0-.5.447v1.589a.445.445,0,0,0,.447.447h.05a.445.445,0,0,0,.447-.447V74.739C61.136,74.491,60.887,74.292,60.639,74.292Z" transform="translate(-59.1 -68.037)"/>
              <rect id="Rectangle_59" data-name="Rectangle 59" class="cls-2" width="1.043" height="3.575" transform="translate(0.993 0.546)"/>
            </g>
            <rect id="Rectangle_60" data-name="Rectangle 60" class="cls-2" width="1.043" height="3.575" transform="translate(6.702 10.873)"/>
            <path id="Path_637" data-name="Path 637" class="cls-2" d="M66.439,88.267h0A1.515,1.515,0,0,1,64.9,86.728V85.139A1.547,1.547,0,0,1,66.439,83.6a1.515,1.515,0,0,1,1.539,1.539v1.638A1.5,1.5,0,0,1,66.439,88.267Zm0-3.575a.458.458,0,0,0-.5.447v1.638a.445.445,0,0,0,.447.447h.05a.445.445,0,0,0,.447-.447V85.189A.411.411,0,0,0,66.439,84.692Z" transform="translate(-62.02 -73.273)"/>
            <path id="Path_638" data-name="Path 638" class="cls-2" d="M77.839,88.267h0A1.515,1.515,0,0,1,76.3,86.728V85.139A1.547,1.547,0,0,1,77.839,83.6a1.515,1.515,0,0,1,1.539,1.539v1.638A1.5,1.5,0,0,1,77.839,88.267Zm0-3.575a.458.458,0,0,0-.5.447v1.638a.445.445,0,0,0,.447.447h.05a.445.445,0,0,0,.447-.447V85.189A.458.458,0,0,0,77.839,84.692Z" transform="translate(-67.761 -73.273)"/>
            <rect id="Rectangle_61" data-name="Rectangle 61" class="cls-2" width="1.043" height="3.575" transform="translate(12.362 10.873)"/>
            <path id="Path_639" data-name="Path 639" class="cls-2" d="M89.239,88.267h0A1.515,1.515,0,0,1,87.7,86.728V85.139A1.547,1.547,0,0,1,89.239,83.6a1.515,1.515,0,0,1,1.539,1.539v1.638A1.5,1.5,0,0,1,89.239,88.267Zm0-3.575a.458.458,0,0,0-.5.447v1.638a.445.445,0,0,0,.447.447h.05a.445.445,0,0,0,.447-.447V85.189A.458.458,0,0,0,89.239,84.692Z" transform="translate(-73.501 -73.273)"/>
            <rect id="Rectangle_62" data-name="Rectangle 62" class="cls-2" width="1.043" height="3.575" transform="translate(0.993 10.873)"/>
          </g>
        </g>
      </g>
    </g>
    <rect id="Rectangle_228" data-name="Rectangle 228" class="cls-3" width="164" height="175" transform="translate(250 2721)"/>
  </g>
</svg>
