<svg xmlns="http://www.w3.org/2000/svg" viewBox="0 0 358 192">
  <defs>
    <style>
      .cls-1 {
        fill: #006ee5;
      }

      .cls-2 {
        fill: #fff;
      }

      .cls-3 {
        fill: none;
      }
    </style>
  </defs>
  <g id="Group_2130" data-name="Group 2130" transform="translate(-153 -1563)">
    <g id="Group_2129" data-name="Group 2129">
      <circle id="Ellipse_3856" data-name="Ellipse 3856" class="cls-1" cx="82" cy="82" r="82" transform="translate(251 1575.3)"/>
      <g id="Group_1768" data-name="Group 1768" transform="translate(287.951 1606.328)">
        <path id="Path_1547" data-name="Path 1547" class="cls-2" d="M73.858,69.686c5.745-7.163,8.207-16.116,9.252-22.421A61.88,61.88,0,0,0,84,35.291,34.371,34.371,0,0,0,73.224,9.961,37.868,37.868,0,0,0,47.11,0C35.135,0,25.174,3.619,18.385,10.446,11.633,17.235,8.014,27.084,7.977,38.984v.075l-.037.075L.329,61.144a4.007,4.007,0,0,0,.41,3.731,3.943,3.943,0,0,0,3.32,1.753h7.312l2.5,16.265a6.437,6.437,0,0,0,6.417,5.484H30.994l.037,11.975a.828.828,0,0,0,.821.821H65.39a.843.843,0,0,0,.821-.746l.97-13.915A29.945,29.945,0,0,1,73.858,69.686ZM65.539,86.4l-.933,13.169H32.635L32.6,87.593a.828.828,0,0,0-.821-.821H20.25a4.76,4.76,0,0,1-4.775-4.1L12.864,65.695a.839.839,0,0,0-.821-.709H4.06a2.314,2.314,0,0,1-1.977-1.045A2.39,2.39,0,0,1,1.859,61.7v-.037L9.581,39.432a.635.635,0,0,0,.037-.261c0-23.5,13.99-37.529,37.492-37.529,20.108,0,35.254,14.474,35.254,33.687v.037c0,.187.821,20.145-9.811,33.314A31.659,31.659,0,0,0,65.539,86.4Z"/>
        <g id="Group_1767" data-name="Group 1767" transform="translate(19.206 10.595)">
          <g id="Group_1752" data-name="Group 1752">
            <g id="Group_1678" data-name="Group 1678" transform="translate(3.87 3.842)">
              <g id="Group_1663" data-name="Group 1663" transform="translate(26.795 26.823)">
                <g id="Group_1650" data-name="Group 1650" transform="translate(4.71 4.71)">
                  <path id="Path_1548" data-name="Path 1548" class="cls-2" d="M156.027,133.512a.456.456,0,0,1-.336-.149l-9.326-9.326a.475.475,0,1,1,.672-.671l9.326,9.326a.473.473,0,0,1,0,.671A.405.405,0,0,1,156.027,133.512Z" transform="translate(-146.225 -123.225)"/>
                </g>
                <g id="Group_1651" data-name="Group 1651" transform="translate(4.945 11.175)">
                  <path id="Path_1549" data-name="Path 1549" class="cls-2" d="M151.087,146.839a.456.456,0,0,1-.336-.149l-3.395-3.395-.485-2.164a.461.461,0,0,1,.9-.224l.448,1.9,3.208,3.208a.473.473,0,0,1,0,.672A.456.456,0,0,1,151.087,146.839Z" transform="translate(-146.855 -140.555)"/>
                </g>
                <g id="Group_1652" data-name="Group 1652" transform="translate(11.172 4.942)">
                  <path id="Path_1550" data-name="Path 1550" class="cls-2" d="M169.35,128.568a.456.456,0,0,1-.336-.149l-3.208-3.208-1.9-.448a.461.461,0,0,1,.224-.9l2.164.485,3.395,3.395a.473.473,0,0,1,0,.671A.456.456,0,0,1,169.35,128.568Z" transform="translate(-163.549 -123.849)"/>
                </g>
                <g id="Group_1653" data-name="Group 1653" transform="translate(16.33 8.506)">
                  <path id="Path_1551" data-name="Path 1551" class="cls-2" d="M179.212,137.131a1.75,1.75,0,0,1-1.306-.56,1.869,1.869,0,0,1,0-2.611,1.9,1.9,0,0,1,1.306-.56,1.75,1.75,0,0,1,1.306.56,1.869,1.869,0,0,1,0,2.611A1.75,1.75,0,0,1,179.212,137.131Zm0-2.761a1.073,1.073,0,0,0-.671.261.9.9,0,0,0,0,1.306.972.972,0,0,0,1.306,0,.9.9,0,0,0,0-1.306A.769.769,0,0,0,179.212,134.37Z" transform="translate(-177.375 -133.4)"/>
                </g>
                <g id="Group_1660" data-name="Group 1660">
                  <g id="Group_1656" data-name="Group 1656" transform="translate(9.364)">
                    <g id="Group_1654" data-name="Group 1654">
                      <path id="Path_1552" data-name="Path 1552" class="cls-2" d="M167.019,114.48a.456.456,0,0,1-.336-.149l-2.089-2.089a1.948,1.948,0,0,0-1.194-.522l-4.253-.187a.467.467,0,1,1,.037-.933l4.253.187a2.717,2.717,0,0,1,1.791.783l2.089,2.089a.473.473,0,0,1,0,.671A.339.339,0,0,1,167.019,114.48Z" transform="translate(-158.7 -110.6)"/>
                    </g>
                    <g id="Group_1655" data-name="Group 1655" transform="translate(7.676 2.723)">
                      <path id="Path_1553" data-name="Path 1553" class="cls-2" d="M181.112,121.631a1.75,1.75,0,0,1-1.306-.56,1.869,1.869,0,0,1,0-2.611,1.9,1.9,0,0,1,1.306-.56,1.75,1.75,0,0,1,1.306.56,1.869,1.869,0,0,1,0,2.611A1.75,1.75,0,0,1,181.112,121.631Zm0-2.761a1.072,1.072,0,0,0-.671.261.9.9,0,0,0,0,1.306.972.972,0,0,0,1.306,0,.9.9,0,0,0,0-1.306A.768.768,0,0,0,181.112,118.87Z" transform="translate(-179.275 -117.9)"/>
                    </g>
                  </g>
                  <g id="Group_1659" data-name="Group 1659" transform="translate(0 9.401)">
                    <g id="Group_1657" data-name="Group 1657">
                      <path id="Path_1554" data-name="Path 1554" class="cls-2" d="M136.995,144.567a.456.456,0,0,1-.336-.149l-2.089-2.089a2.717,2.717,0,0,1-.783-1.791l-.187-4.253a.467.467,0,0,1,.933-.037l.187,4.253a1.672,1.672,0,0,0,.522,1.156l2.089,2.089a.473.473,0,0,1,0,.671A.456.456,0,0,1,136.995,144.567Z" transform="translate(-133.6 -135.8)"/>
                    </g>
                    <g id="Group_1658" data-name="Group 1658" transform="translate(2.751 7.61)">
                      <path id="Path_1555" data-name="Path 1555" class="cls-2" d="M142.812,159.931a1.75,1.75,0,0,1-1.306-.56,1.869,1.869,0,0,1,0-2.611,1.9,1.9,0,0,1,1.306-.56,1.75,1.75,0,0,1,1.306.56,1.869,1.869,0,0,1,0,2.611A1.75,1.75,0,0,1,142.812,159.931Zm0-2.761a1.073,1.073,0,0,0-.671.261.9.9,0,0,0,0,1.306.972.972,0,0,0,1.306,0,.9.9,0,0,0,0-1.306A.818.818,0,0,0,142.812,157.17Z" transform="translate(-140.975 -156.2)"/>
                    </g>
                  </g>
                </g>
                <g id="Group_1661" data-name="Group 1661" transform="translate(13.868 13.878)">
                  <path id="Path_1556" data-name="Path 1556" class="cls-2" d="M172.612,151.531a1.75,1.75,0,0,1-1.306-.56,1.869,1.869,0,0,1,0-2.611,1.9,1.9,0,0,1,1.306-.56,1.75,1.75,0,0,1,1.306.56,1.869,1.869,0,0,1,0,2.611A1.693,1.693,0,0,1,172.612,151.531Zm0-2.8a1.072,1.072,0,0,0-.671.261.9.9,0,0,0,0,1.306.972.972,0,0,0,1.306,0,.914.914,0,0,0-.634-1.567Z" transform="translate(-170.775 -147.8)"/>
                </g>
                <g id="Group_1662" data-name="Group 1662" transform="translate(8.534 16.34)">
                  <path id="Path_1557" data-name="Path 1557" class="cls-2" d="M158.312,158.131a1.75,1.75,0,0,1-1.306-.56,1.869,1.869,0,0,1,0-2.611,1.9,1.9,0,0,1,1.306-.56,1.75,1.75,0,0,1,1.306.56,1.869,1.869,0,0,1,0,2.611A1.9,1.9,0,0,1,158.312,158.131Zm0-2.8a1.073,1.073,0,0,0-.671.261.9.9,0,0,0,0,1.306.972.972,0,0,0,1.306,0,.9.9,0,0,0,0-1.306A.973.973,0,0,0,158.312,155.333Z" transform="translate(-156.475 -154.4)"/>
                </g>
              </g>
              <g id="Group_1677" data-name="Group 1677">
                <g id="Group_1664" data-name="Group 1664" transform="translate(5.689 5.754)">
                  <path id="Path_1558" data-name="Path 1558" class="cls-2" d="M87.051,64.6a.456.456,0,0,1-.336-.149l-9.55-9.513a.475.475,0,1,1,.671-.671l9.513,9.513a.473.473,0,0,1,0,.671A.461.461,0,0,1,87.051,64.6Z" transform="translate(-77.025 -54.125)"/>
                </g>
                <g id="Group_1665" data-name="Group 1665" transform="translate(3.264 11.126)">
                  <path id="Path_1559" data-name="Path 1559" class="cls-2" d="M76.335,73.253h-.112l-2.164-.522-3.395-3.395a.475.475,0,0,1,.672-.671l3.208,3.208,1.9.448a.475.475,0,0,1-.112.933Z" transform="translate(-70.525 -68.525)"/>
                </g>
                <g id="Group_1666" data-name="Group 1666" transform="translate(11.061 3.292)">
                  <path id="Path_1560" data-name="Path 1560" class="cls-2" d="M95.668,53.82a.443.443,0,0,1-.448-.373l-.448-1.9-3.208-3.208a.475.475,0,1,1,.671-.671l3.395,3.395.485,2.164a.469.469,0,0,1-.336.56A.137.137,0,0,1,95.668,53.82Z" transform="translate(-91.425 -47.525)"/>
                </g>
                <g id="Group_1667" data-name="Group 1667" transform="translate(8.506 0.709)">
                  <path id="Path_1561" data-name="Path 1561" class="cls-2" d="M86.412,44.331a1.75,1.75,0,0,1-1.306-.56,1.869,1.869,0,0,1,0-2.611,1.9,1.9,0,0,1,1.306-.56,1.75,1.75,0,0,1,1.306.56,1.869,1.869,0,0,1,0,2.611A1.81,1.81,0,0,1,86.412,44.331Zm0-2.8a1.073,1.073,0,0,0-.672.261.9.9,0,0,0,0,1.306.972.972,0,0,0,1.306,0,.9.9,0,0,0,0-1.306A.973.973,0,0,0,86.412,41.533Z" transform="translate(-84.575 -40.6)"/>
                </g>
                <g id="Group_1674" data-name="Group 1674">
                  <g id="Group_1670" data-name="Group 1670" transform="translate(14.288)">
                    <g id="Group_1668" data-name="Group 1668" transform="translate(2.555 2.583)">
                      <path id="Path_1562" data-name="Path 1562" class="cls-2" d="M110.31,54.382a.431.431,0,0,1-.448-.448l-.187-4.253a1.672,1.672,0,0,0-.522-1.156l-2.089-2.089a.475.475,0,0,1,.672-.671l2.089,2.089a2.717,2.717,0,0,1,.783,1.791L110.8,53.9a.47.47,0,0,1-.485.485Z" transform="translate(-106.925 -45.625)"/>
                    </g>
                    <g id="Group_1669" data-name="Group 1669">
                      <path id="Path_1563" data-name="Path 1563" class="cls-2" d="M101.912,42.431a1.75,1.75,0,0,1-1.306-.56,1.869,1.869,0,0,1,0-2.611,1.9,1.9,0,0,1,1.306-.56,1.75,1.75,0,0,1,1.306.56,1.869,1.869,0,0,1,0,2.611A1.75,1.75,0,0,1,101.912,42.431Zm0-2.761a1.073,1.073,0,0,0-.672.261.9.9,0,0,0,0,1.306.972.972,0,0,0,1.306,0,.9.9,0,0,0,0-1.306A.818.818,0,0,0,101.912,39.67Z" transform="translate(-100.075 -38.7)"/>
                    </g>
                  </g>
                  <g id="Group_1673" data-name="Group 1673" transform="translate(0 14.288)">
                    <g id="Group_1671" data-name="Group 1671" transform="translate(2.555 2.583)">
                      <path id="Path_1564" data-name="Path 1564" class="cls-2" d="M76.9,87.8h0l-4.29-.187a2.717,2.717,0,0,1-1.791-.783l-2.052-2.089a.475.475,0,0,1,.672-.672l2.089,2.089a1.948,1.948,0,0,0,1.194.522l4.253.187a.463.463,0,0,1,.448.485A.553.553,0,0,1,76.9,87.8Z" transform="translate(-68.625 -83.925)"/>
                    </g>
                    <g id="Group_1672" data-name="Group 1672">
                      <path id="Path_1565" data-name="Path 1565" class="cls-2" d="M63.612,80.731a1.75,1.75,0,0,1-1.306-.56,1.869,1.869,0,0,1,0-2.611A1.9,1.9,0,0,1,63.612,77a1.75,1.75,0,0,1,1.306.56,1.869,1.869,0,0,1,0,2.611A1.81,1.81,0,0,1,63.612,80.731Zm0-2.761a1.073,1.073,0,0,0-.671.261.9.9,0,0,0,0,1.306.972.972,0,0,0,1.306,0,.9.9,0,0,0,0-1.306A.874.874,0,0,0,63.612,77.97Z" transform="translate(-61.775 -77)"/>
                    </g>
                  </g>
                </g>
                <g id="Group_1675" data-name="Group 1675" transform="translate(3.134 3.171)">
                  <path id="Path_1566" data-name="Path 1566" class="cls-2" d="M72.012,50.931a1.75,1.75,0,0,1-1.306-.56,1.869,1.869,0,0,1,0-2.611,1.9,1.9,0,0,1,1.306-.56,1.75,1.75,0,0,1,1.306.56,1.869,1.869,0,0,1,0,2.611A1.9,1.9,0,0,1,72.012,50.931Zm0-2.8a1.073,1.073,0,0,0-.671.261.9.9,0,0,0,0,1.306.972.972,0,0,0,1.306,0,.914.914,0,0,0-.634-1.567Z" transform="translate(-70.175 -47.2)"/>
                </g>
                <g id="Group_1676" data-name="Group 1676" transform="translate(0.671 8.506)">
                  <path id="Path_1567" data-name="Path 1567" class="cls-2" d="M65.412,65.231a1.75,1.75,0,0,1-1.306-.56,1.869,1.869,0,0,1,0-2.611,1.9,1.9,0,0,1,1.306-.56,1.75,1.75,0,0,1,1.306.56,1.869,1.869,0,0,1,0,2.611A1.693,1.693,0,0,1,65.412,65.231Zm0-2.761a1.073,1.073,0,0,0-.672.261.9.9,0,0,0,0,1.306.972.972,0,0,0,1.306,0,.9.9,0,0,0,0-1.306A.768.768,0,0,0,65.412,62.47Z" transform="translate(-63.575 -61.5)"/>
                </g>
              </g>
            </g>
            <g id="Group_1707" data-name="Group 1707" transform="translate(3.87 3.842)">
              <g id="Group_1692" data-name="Group 1692" transform="translate(0 26.823)">
                <g id="Group_1679" data-name="Group 1679" transform="translate(5.689 4.71)">
                  <path id="Path_1568" data-name="Path 1568" class="cls-2" d="M77.5,133.512a.456.456,0,0,1-.336-.149.473.473,0,0,1,0-.671l9.326-9.326a.475.475,0,1,1,.671.671l-9.326,9.326A.364.364,0,0,1,77.5,133.512Z" transform="translate(-77.025 -123.225)"/>
                </g>
                <g id="Group_1680" data-name="Group 1680" transform="translate(3.264 4.945)">
                  <path id="Path_1569" data-name="Path 1569" class="cls-2" d="M71,128.572a.456.456,0,0,1-.336-.149.473.473,0,0,1,0-.671l3.395-3.395,2.164-.485a.461.461,0,0,1,.224.9l-1.9.448-3.208,3.208A.456.456,0,0,1,71,128.572Z" transform="translate(-70.525 -123.855)"/>
                </g>
                <g id="Group_1681" data-name="Group 1681" transform="translate(11.061 11.172)">
                  <path id="Path_1570" data-name="Path 1570" class="cls-2" d="M91.9,146.835a.456.456,0,0,1-.336-.149.473.473,0,0,1,0-.671l3.208-3.208.448-1.9a.461.461,0,0,1,.9.224l-.485,2.164-3.395,3.395A.456.456,0,0,1,91.9,146.835Z" transform="translate(-91.425 -140.549)"/>
                </g>
                <g id="Group_1682" data-name="Group 1682" transform="translate(8.506 16.34)">
                  <path id="Path_1571" data-name="Path 1571" class="cls-2" d="M86.412,158.131a1.75,1.75,0,0,1-1.306-.56,1.869,1.869,0,0,1,0-2.611,1.9,1.9,0,0,1,1.306-.56,1.75,1.75,0,0,1,1.306.56,1.869,1.869,0,0,1,0,2.611A1.973,1.973,0,0,1,86.412,158.131Zm0-2.8a1.073,1.073,0,0,0-.672.261.9.9,0,0,0,0,1.306.972.972,0,0,0,1.306,0,.9.9,0,0,0,0-1.306A.973.973,0,0,0,86.412,155.333Z" transform="translate(-84.575 -154.4)"/>
                </g>
                <g id="Group_1689" data-name="Group 1689">
                  <g id="Group_1685" data-name="Group 1685" transform="translate(14.288 9.364)">
                    <g id="Group_1683" data-name="Group 1683" transform="translate(2.555)">
                      <path id="Path_1572" data-name="Path 1572" class="cls-2" d="M107.4,144.5a.456.456,0,0,1-.336-.149.473.473,0,0,1,0-.672l2.089-2.089a1.948,1.948,0,0,0,.522-1.194l.187-4.253a.467.467,0,1,1,.933.037l-.187,4.253a2.717,2.717,0,0,1-.783,1.791l-2.089,2.089A.4.4,0,0,1,107.4,144.5Z" transform="translate(-106.925 -135.7)"/>
                    </g>
                    <g id="Group_1684" data-name="Group 1684" transform="translate(0 7.648)">
                      <path id="Path_1573" data-name="Path 1573" class="cls-2" d="M101.912,159.931a1.75,1.75,0,0,1-1.306-.56,1.869,1.869,0,0,1,0-2.611,1.9,1.9,0,0,1,1.306-.56,1.75,1.75,0,0,1,1.306.56,1.869,1.869,0,0,1,0,2.611A1.75,1.75,0,0,1,101.912,159.931Zm0-2.761a1.073,1.073,0,0,0-.672.261.9.9,0,0,0,0,1.306.972.972,0,0,0,1.306,0,.9.9,0,0,0,0-1.306A.818.818,0,0,0,101.912,157.17Z" transform="translate(-100.075 -156.2)"/>
                    </g>
                  </g>
                  <g id="Group_1688" data-name="Group 1688">
                    <g id="Group_1686" data-name="Group 1686" transform="translate(2.555)">
                      <path id="Path_1574" data-name="Path 1574" class="cls-2" d="M69.1,114.48a.456.456,0,0,1-.336-.149.473.473,0,0,1,0-.671l2.089-2.089a2.717,2.717,0,0,1,1.791-.783L76.9,110.6a.467.467,0,0,1,.037.933l-4.253.187a1.672,1.672,0,0,0-1.156.522l-2.089,2.089A.456.456,0,0,1,69.1,114.48Z" transform="translate(-68.625 -110.6)"/>
                    </g>
                    <g id="Group_1687" data-name="Group 1687" transform="translate(0 2.723)">
                      <path id="Path_1575" data-name="Path 1575" class="cls-2" d="M63.612,121.631a1.75,1.75,0,0,1-1.306-.56,1.869,1.869,0,0,1,0-2.611,1.9,1.9,0,0,1,1.306-.56,1.75,1.75,0,0,1,1.306.56,1.869,1.869,0,0,1,0,2.611A1.81,1.81,0,0,1,63.612,121.631Zm0-2.761a1.073,1.073,0,0,0-.671.261.9.9,0,0,0,0,1.306.972.972,0,0,0,1.306,0,.9.9,0,0,0,0-1.306A.874.874,0,0,0,63.612,118.87Z" transform="translate(-61.775 -117.9)"/>
                    </g>
                  </g>
                </g>
                <g id="Group_1690" data-name="Group 1690" transform="translate(3.134 13.878)">
                  <path id="Path_1576" data-name="Path 1576" class="cls-2" d="M72.012,151.531a1.75,1.75,0,0,1-1.306-.56,1.869,1.869,0,0,1,0-2.611,1.9,1.9,0,0,1,1.306-.56,1.75,1.75,0,0,1,1.306.56,1.869,1.869,0,0,1,0,2.611A1.75,1.75,0,0,1,72.012,151.531Zm0-2.8a1.072,1.072,0,0,0-.671.261.9.9,0,0,0,0,1.306.972.972,0,0,0,1.306,0,.914.914,0,0,0-.634-1.567Z" transform="translate(-70.175 -147.8)"/>
                </g>
                <g id="Group_1691" data-name="Group 1691" transform="translate(0.671 8.506)">
                  <path id="Path_1577" data-name="Path 1577" class="cls-2" d="M65.412,137.131a1.75,1.75,0,0,1-1.306-.56,1.869,1.869,0,0,1,0-2.611,1.9,1.9,0,0,1,1.306-.56,1.75,1.75,0,0,1,1.306.56,1.869,1.869,0,0,1,0,2.611A1.693,1.693,0,0,1,65.412,137.131Zm0-2.761a1.073,1.073,0,0,0-.672.261.9.9,0,0,0,0,1.306.972.972,0,0,0,1.306,0,.9.9,0,0,0,0-1.306A.768.768,0,0,0,65.412,134.37Z" transform="translate(-63.575 -133.4)"/>
                </g>
              </g>
              <g id="Group_1706" data-name="Group 1706" transform="translate(26.791)">
                <g id="Group_1693" data-name="Group 1693" transform="translate(4.527 5.754)">
                  <path id="Path_1578" data-name="Path 1578" class="cls-2" d="M146.2,64.6a.456.456,0,0,1-.336-.149.473.473,0,0,1,0-.671l9.513-9.513a.475.475,0,0,1,.671.671l-9.513,9.513A.67.67,0,0,1,146.2,64.6Z" transform="translate(-145.725 -54.125)"/>
                </g>
                <g id="Group_1694" data-name="Group 1694" transform="translate(4.909 3.33)">
                  <path id="Path_1579" data-name="Path 1579" class="cls-2" d="M147.215,53.883H147.1a.442.442,0,0,1-.336-.56l.485-2.164,3.395-3.395a.475.475,0,1,1,.671.672l-3.208,3.208-.448,1.9A.413.413,0,0,1,147.215,53.883Z" transform="translate(-146.749 -47.625)"/>
                </g>
                <g id="Group_1695" data-name="Group 1695" transform="translate(11.142 11.126)">
                  <path id="Path_1580" data-name="Path 1580" class="cls-2" d="M163.92,73.253a.443.443,0,0,1-.448-.373.469.469,0,0,1,.336-.56l1.9-.448,3.208-3.208a.475.475,0,0,1,.671.671L166.2,72.731l-2.164.485A.137.137,0,0,1,163.92,73.253Z" transform="translate(-163.455 -68.525)"/>
                </g>
                <g id="Group_1696" data-name="Group 1696" transform="translate(16.335 8.506)">
                  <path id="Path_1581" data-name="Path 1581" class="cls-2" d="M179.212,65.231a1.75,1.75,0,0,1-1.306-.56,1.869,1.869,0,0,1,0-2.611,1.9,1.9,0,0,1,1.306-.56,1.75,1.75,0,0,1,1.306.56,1.869,1.869,0,0,1,0,2.611A1.75,1.75,0,0,1,179.212,65.231Zm0-2.761a1.072,1.072,0,0,0-.671.261.9.9,0,0,0,0,1.306.972.972,0,0,0,1.306,0,.9.9,0,0,0,0-1.306A.769.769,0,0,0,179.212,62.47Z" transform="translate(-177.375 -61.5)"/>
                </g>
                <g id="Group_1703" data-name="Group 1703">
                  <g id="Group_1699" data-name="Group 1699" transform="translate(9.405 14.288)">
                    <g id="Group_1697" data-name="Group 1697" transform="translate(0 2.583)">
                      <path id="Path_1582" data-name="Path 1582" class="cls-2" d="M159.248,87.8a.431.431,0,0,1-.448-.448.463.463,0,0,1,.448-.485l4.253-.187a1.672,1.672,0,0,0,1.156-.522l2.089-2.089a.475.475,0,0,1,.671.672l-2.089,2.089a2.717,2.717,0,0,1-1.791.783l-4.29.187Z" transform="translate(-158.8 -83.925)"/>
                    </g>
                    <g id="Group_1698" data-name="Group 1698" transform="translate(7.638)">
                      <path id="Path_1583" data-name="Path 1583" class="cls-2" d="M181.112,80.731a1.75,1.75,0,0,1-1.306-.56,1.869,1.869,0,0,1,0-2.611,1.9,1.9,0,0,1,1.306-.56,1.75,1.75,0,0,1,1.306.56,1.869,1.869,0,0,1,0,2.611A1.75,1.75,0,0,1,181.112,80.731Zm0-2.761a1.072,1.072,0,0,0-.671.261.9.9,0,0,0,0,1.306.972.972,0,0,0,1.306,0,.9.9,0,0,0,0-1.306A.769.769,0,0,0,181.112,77.97Z" transform="translate(-179.275 -77)"/>
                    </g>
                  </g>
                  <g id="Group_1702" data-name="Group 1702">
                    <g id="Group_1700" data-name="Group 1700" transform="translate(0 2.583)">
                      <path id="Path_1584" data-name="Path 1584" class="cls-2" d="M134.041,54.382h0a.441.441,0,0,1-.448-.485l.187-4.253a2.717,2.717,0,0,1,.783-1.791l2.089-2.089a.475.475,0,0,1,.671.671l-2.089,2.089a1.948,1.948,0,0,0-.522,1.194l-.187,4.253A.459.459,0,0,1,134.041,54.382Z" transform="translate(-133.589 -45.625)"/>
                    </g>
                    <g id="Group_1701" data-name="Group 1701" transform="translate(2.755)">
                      <path id="Path_1585" data-name="Path 1585" class="cls-2" d="M142.812,42.431a1.75,1.75,0,0,1-1.306-.56,1.869,1.869,0,0,1,0-2.611,1.9,1.9,0,0,1,1.306-.56,1.75,1.75,0,0,1,1.306.56,1.869,1.869,0,0,1,0,2.611A1.75,1.75,0,0,1,142.812,42.431Zm0-2.761a1.073,1.073,0,0,0-.671.261.9.9,0,0,0,0,1.306.972.972,0,0,0,1.306,0,.9.9,0,0,0,0-1.306A.818.818,0,0,0,142.812,39.67Z" transform="translate(-140.975 -38.7)"/>
                    </g>
                  </g>
                </g>
                <g id="Group_1704" data-name="Group 1704" transform="translate(13.872 3.171)">
                  <path id="Path_1586" data-name="Path 1586" class="cls-2" d="M172.612,50.931a1.75,1.75,0,0,1-1.306-.56,1.869,1.869,0,0,1,0-2.611,1.9,1.9,0,0,1,1.306-.56,1.75,1.75,0,0,1,1.306.56,1.869,1.869,0,0,1,0,2.611A1.831,1.831,0,0,1,172.612,50.931Zm0-2.8a1.073,1.073,0,0,0-.671.261.9.9,0,0,0,0,1.306.972.972,0,0,0,1.306,0,.914.914,0,0,0-.634-1.567Z" transform="translate(-170.775 -47.2)"/>
                </g>
                <g id="Group_1705" data-name="Group 1705" transform="translate(8.538 0.709)">
                  <path id="Path_1587" data-name="Path 1587" class="cls-2" d="M158.312,44.331a1.75,1.75,0,0,1-1.306-.56,1.869,1.869,0,0,1,0-2.611,1.9,1.9,0,0,1,1.306-.56,1.75,1.75,0,0,1,1.306.56,1.869,1.869,0,0,1,0,2.611A1.75,1.75,0,0,1,158.312,44.331Zm0-2.8a1.073,1.073,0,0,0-.671.261.9.9,0,0,0,0,1.306.972.972,0,0,0,1.306,0,.9.9,0,0,0,0-1.306A.973.973,0,0,0,158.312,41.533Z" transform="translate(-156.475 -40.6)"/>
                </g>
              </g>
            </g>
            <g id="Group_1714" data-name="Group 1714" transform="translate(11.415 11.453)">
              <g id="Group_1710" data-name="Group 1710" transform="translate(0 12.647)">
                <g id="Group_1708" data-name="Group 1708" transform="translate(31.486)">
                  <rect id="Rectangle_167" data-name="Rectangle 167" class="cls-2" width="0.933" height="7.125"/>
                </g>
                <g id="Group_1709" data-name="Group 1709">
                  <rect id="Rectangle_168" data-name="Rectangle 168" class="cls-2" width="0.933" height="7.125"/>
                </g>
              </g>
              <g id="Group_1713" data-name="Group 1713" transform="translate(12.647)">
                <g id="Group_1711" data-name="Group 1711" transform="translate(0 31.448)">
                  <rect id="Rectangle_169" data-name="Rectangle 169" class="cls-2" width="7.125" height="0.933"/>
                </g>
                <g id="Group_1712" data-name="Group 1712">
                  <rect id="Rectangle_170" data-name="Rectangle 170" class="cls-2" width="7.125" height="0.933"/>
                </g>
              </g>
            </g>
            <g id="Group_1720" data-name="Group 1720" transform="translate(0 25.778)">
              <g id="Group_1719" data-name="Group 1719">
                <g id="Group_1715" data-name="Group 1715" transform="translate(3.096 1.418)">
                  <path id="Path_1588" data-name="Path 1588" class="cls-2" d="M74.212,102.2H60.148a.454.454,0,0,1-.448-.448.481.481,0,0,1,.448-.448H74.212a.448.448,0,1,1,0,.9Z" transform="translate(-59.7 -101.3)"/>
                </g>
                <g id="Group_1716" data-name="Group 1716">
                  <path id="Path_1589" data-name="Path 1589" class="cls-2" d="M53.265,101.231A1.871,1.871,0,0,1,51.4,99.365,1.847,1.847,0,0,1,53.265,97.5a1.865,1.865,0,0,1,0,3.731Zm0-2.8a.933.933,0,1,0,.933.933A.924.924,0,0,0,53.265,98.433Z" transform="translate(-51.4 -97.5)"/>
                </g>
                <g id="Group_1717" data-name="Group 1717" transform="translate(37.156 1.418)">
                  <path id="Path_1590" data-name="Path 1590" class="cls-2" d="M165.512,102.2H151.448a.454.454,0,0,1-.448-.448.481.481,0,0,1,.448-.448h14.064a.448.448,0,1,1,0,.9Z" transform="translate(-151 -101.3)"/>
                </g>
                <g id="Group_1718" data-name="Group 1718" transform="translate(51.519)">
                  <path id="Path_1591" data-name="Path 1591" class="cls-2" d="M191.365,101.231a1.871,1.871,0,0,1-1.865-1.865,1.847,1.847,0,0,1,1.865-1.865,1.865,1.865,0,0,1,0,3.731Zm0-2.8a.933.933,0,1,0,.933.933A.948.948,0,0,0,191.365,98.433Z" transform="translate(-189.5 -97.5)"/>
                </g>
              </g>
            </g>
            <g id="Group_1726" data-name="Group 1726" transform="translate(25.741)">
              <g id="Group_1725" data-name="Group 1725">
                <g id="Group_1721" data-name="Group 1721" transform="translate(1.418 37.193)">
                  <path id="Path_1592" data-name="Path 1592" class="cls-2" d="M124.648,143.059a.454.454,0,0,1-.448-.448V128.548a.448.448,0,0,1,.9,0v14.064A.412.412,0,0,1,124.648,143.059Z" transform="translate(-124.2 -128.1)"/>
                </g>
                <g id="Group_1722" data-name="Group 1722" transform="translate(0 51.519)">
                  <path id="Path_1593" data-name="Path 1593" class="cls-2" d="M122.265,170.231a1.865,1.865,0,1,1,1.865-1.865A1.847,1.847,0,0,1,122.265,170.231Zm0-2.761a.933.933,0,1,0,.933.933A.924.924,0,0,0,122.265,167.47Z" transform="translate(-120.4 -166.5)"/>
                </g>
                <g id="Group_1723" data-name="Group 1723" transform="translate(1.418 3.134)">
                  <path id="Path_1594" data-name="Path 1594" class="cls-2" d="M124.648,51.759a.454.454,0,0,1-.448-.448V37.248a.448.448,0,1,1,.9,0V51.312A.412.412,0,0,1,124.648,51.759Z" transform="translate(-124.2 -36.8)"/>
                </g>
                <g id="Group_1724" data-name="Group 1724">
                  <path id="Path_1595" data-name="Path 1595" class="cls-2" d="M122.265,32.131a1.865,1.865,0,1,1,1.865-1.865A1.847,1.847,0,0,1,122.265,32.131Zm0-2.761a.933.933,0,1,0,.933.933A.924.924,0,0,0,122.265,29.37Z" transform="translate(-120.4 -28.4)"/>
                </g>
              </g>
            </g>
            <g id="Group_1732" data-name="Group 1732" transform="translate(21.369 23.465)">
              <g id="Group_1729" data-name="Group 1729" transform="translate(0 0)">
                <g id="Group_1727" data-name="Group 1727" transform="translate(1.536 4.551)">
                  <path id="Path_1596" data-name="Path 1596" class="cls-2" d="M117.612,104.4h-4.365a.454.454,0,0,1-.448-.448.481.481,0,0,1,.448-.448h4.365a.448.448,0,0,1,0,.9Z" transform="translate(-112.8 -103.5)"/>
                </g>
                <g id="Group_1728" data-name="Group 1728">
                  <path id="Path_1597" data-name="Path 1597" class="cls-2" d="M116.635,99.656a.459.459,0,0,1-.41-.261l-3.32-6.6-3.32,6.64a.476.476,0,0,1-.858-.41l3.731-7.461a.453.453,0,0,1,.821,0l3.731,7.461a.46.46,0,0,1-.224.634Z" transform="translate(-108.682 -91.3)"/>
                </g>
              </g>
              <g id="Group_1731" data-name="Group 1731" transform="translate(10.639)">
                <g id="Group_1730" data-name="Group 1730">
                  <path id="Path_1598" data-name="Path 1598" class="cls-2" d="M137.648,99.656a.454.454,0,0,1-.448-.448V91.748a.448.448,0,1,1,.9,0v7.461A.412.412,0,0,1,137.648,99.656Z" transform="translate(-137.2 -91.3)"/>
                </g>
              </g>
            </g>
            <g id="Group_1751" data-name="Group 1751" transform="translate(13.355 13.393)">
              <g id="Group_1733" data-name="Group 1733" transform="translate(6.23 6.23)">
                <path id="Path_1599" data-name="Path 1599" class="cls-2" d="M115.726,97.041h-7.573a4.251,4.251,0,0,1-4.253-4.253V85.253A4.251,4.251,0,0,1,108.153,81h7.573a4.251,4.251,0,0,1,4.253,4.253v7.573A4.292,4.292,0,0,1,115.726,97.041Zm-7.573-15.109a3.328,3.328,0,0,0-3.32,3.32v7.573a3.328,3.328,0,0,0,3.32,3.32h7.573a3.328,3.328,0,0,0,3.32-3.32V85.253a3.328,3.328,0,0,0-3.32-3.32Z" transform="translate(-103.9 -81)"/>
              </g>
              <g id="Group_1734" data-name="Group 1734" transform="translate(4.029 3.992)">
                <path id="Path_1600" data-name="Path 1600" class="cls-2" d="M114.6,95.518H101.88L98,91.638V78.88L101.88,75H114.6l3.88,3.88V91.6Zm-12.348-.933h11.975l3.357-3.357V79.29l-3.357-3.357H102.253L98.9,79.29V91.265Z" transform="translate(-98 -75)"/>
              </g>
              <g id="Group_1738" data-name="Group 1738" transform="translate(7.648)">
                <g id="Group_1735" data-name="Group 1735" transform="translate(12.348)">
                  <path id="Path_1601" data-name="Path 1601" class="cls-2" d="M141.248,69.15a.454.454,0,0,1-.448-.448V64.748a.454.454,0,0,1,.448-.448.481.481,0,0,1,.448.448V68.7A.431.431,0,0,1,141.248,69.15Z" transform="translate(-140.8 -64.3)"/>
                </g>
                <g id="Group_1736" data-name="Group 1736">
                  <path id="Path_1602" data-name="Path 1602" class="cls-2" d="M108.148,69.15a.454.454,0,0,1-.448-.448V64.748a.448.448,0,0,1,.9,0V68.7A.431.431,0,0,1,108.148,69.15Z" transform="translate(-107.7 -64.3)"/>
                </g>
                <g id="Group_1737" data-name="Group 1737" transform="translate(3.096 4.178)">
                  <path id="Path_1603" data-name="Path 1603" class="cls-2" d="M116.448,78a.454.454,0,0,1-.448-.448v-1.6a.448.448,0,1,1,.9,0v1.6A.481.481,0,0,1,116.448,78Z" transform="translate(-116 -75.5)"/>
                </g>
              </g>
              <g id="Group_1742" data-name="Group 1742" transform="translate(7.648 21.861)">
                <g id="Group_1739" data-name="Group 1739" transform="translate(9.252)">
                  <path id="Path_1604" data-name="Path 1604" class="cls-2" d="M132.948,125.549a.454.454,0,0,1-.448-.448v-1.753a.448.448,0,0,1,.9,0V125.1A.454.454,0,0,1,132.948,125.549Z" transform="translate(-132.5 -122.9)"/>
                </g>
                <g id="Group_1740" data-name="Group 1740" transform="translate(12.348 1.791)">
                  <path id="Path_1605" data-name="Path 1605" class="cls-2" d="M141.248,132.55a.454.454,0,0,1-.448-.448v-3.954a.454.454,0,0,1,.448-.448.481.481,0,0,1,.448.448V132.1A.431.431,0,0,1,141.248,132.55Z" transform="translate(-140.8 -127.7)"/>
                </g>
                <g id="Group_1741" data-name="Group 1741" transform="translate(0 1.791)">
                  <path id="Path_1606" data-name="Path 1606" class="cls-2" d="M108.148,132.55a.454.454,0,0,1-.448-.448v-3.954a.448.448,0,0,1,.9,0V132.1A.431.431,0,0,1,108.148,132.55Z" transform="translate(-107.7 -127.7)"/>
                </g>
              </g>
              <g id="Group_1746" data-name="Group 1746" transform="translate(21.861 7.648)">
                <g id="Group_1743" data-name="Group 1743" transform="translate(1.791 12.348)">
                  <path id="Path_1607" data-name="Path 1607" class="cls-2" d="M155,118.8h-3.954a.448.448,0,1,1,0-.9H155a.454.454,0,0,1,.448.448A.43.43,0,0,1,155,118.8Z" transform="translate(-150.6 -117.9)"/>
                </g>
                <g id="Group_1744" data-name="Group 1744" transform="translate(1.791)">
                  <path id="Path_1608" data-name="Path 1608" class="cls-2" d="M155,85.7h-3.954a.448.448,0,1,1,0-.9H155a.454.454,0,0,1,.448.448A.43.43,0,0,1,155,85.7Z" transform="translate(-150.6 -84.8)"/>
                </g>
                <g id="Group_1745" data-name="Group 1745" transform="translate(0 3.096)">
                  <path id="Path_1609" data-name="Path 1609" class="cls-2" d="M148,94h-1.753a.448.448,0,1,1,0-.9H148a.448.448,0,0,1,0,.9Z" transform="translate(-145.8 -93.1)"/>
                </g>
              </g>
              <g id="Group_1750" data-name="Group 1750" transform="translate(0 7.648)">
                <g id="Group_1747" data-name="Group 1747" transform="translate(4.029 9.252)">
                  <path id="Path_1610" data-name="Path 1610" class="cls-2" d="M100.2,110.5H98.448a.448.448,0,0,1,0-.9H100.2a.448.448,0,0,1,0,.9Z" transform="translate(-98 -109.6)"/>
                </g>
                <g id="Group_1748" data-name="Group 1748" transform="translate(0 12.348)">
                  <path id="Path_1611" data-name="Path 1611" class="cls-2" d="M91.6,118.8H87.648a.448.448,0,0,1,0-.9H91.6a.454.454,0,0,1,.448.448A.43.43,0,0,1,91.6,118.8Z" transform="translate(-87.2 -117.9)"/>
                </g>
                <g id="Group_1749" data-name="Group 1749">
                  <path id="Path_1612" data-name="Path 1612" class="cls-2" d="M91.6,85.7H87.648a.448.448,0,0,1,0-.9H91.6a.454.454,0,0,1,.448.448A.43.43,0,0,1,91.6,85.7Z" transform="translate(-87.2 -84.8)"/>
                </g>
              </g>
            </g>
          </g>
          <g id="Group_1759" data-name="Group 1759" transform="translate(24.845 4.738)">
            <g id="Group_1755" data-name="Group 1755">
              <g id="Group_1753" data-name="Group 1753">
                <path id="Path_1613" data-name="Path 1613" class="cls-2" d="M118.448,44.234a.454.454,0,0,1-.448-.448V41.548a.448.448,0,1,1,.9,0v2.238A.454.454,0,0,1,118.448,44.234Z" transform="translate(-118 -41.1)"/>
              </g>
              <g id="Group_1754" data-name="Group 1754" transform="translate(4.663)">
                <path id="Path_1614" data-name="Path 1614" class="cls-2" d="M130.948,44.234a.454.454,0,0,1-.448-.448V41.548a.448.448,0,1,1,.9,0v2.238A.454.454,0,0,1,130.948,44.234Z" transform="translate(-130.5 -41.1)"/>
              </g>
            </g>
            <g id="Group_1758" data-name="Group 1758" transform="translate(0 42.715)">
              <g id="Group_1756" data-name="Group 1756">
                <path id="Path_1615" data-name="Path 1615" class="cls-2" d="M118.448,158.734a.454.454,0,0,1-.448-.448v-2.238a.448.448,0,1,1,.9,0v2.238A.454.454,0,0,1,118.448,158.734Z" transform="translate(-118 -155.6)"/>
              </g>
              <g id="Group_1757" data-name="Group 1757" transform="translate(4.663)">
                <path id="Path_1616" data-name="Path 1616" class="cls-2" d="M130.948,158.734a.454.454,0,0,1-.448-.448v-2.238a.448.448,0,1,1,.9,0v2.238A.454.454,0,0,1,130.948,158.734Z" transform="translate(-130.5 -155.6)"/>
              </g>
            </g>
          </g>
          <g id="Group_1766" data-name="Group 1766" transform="translate(4.7 24.883)">
            <g id="Group_1762" data-name="Group 1762" transform="translate(42.715)">
              <g id="Group_1760" data-name="Group 1760">
                <path id="Path_1617" data-name="Path 1617" class="cls-2" d="M181.186,96h-2.238a.454.454,0,0,1-.448-.448.481.481,0,0,1,.448-.448h2.238a.448.448,0,0,1,0,.9Z" transform="translate(-178.5 -95.1)"/>
              </g>
              <g id="Group_1761" data-name="Group 1761" transform="translate(0 4.663)">
                <path id="Path_1618" data-name="Path 1618" class="cls-2" d="M181.186,108.5h-2.238a.454.454,0,0,1-.448-.448.481.481,0,0,1,.448-.448h2.238a.448.448,0,1,1,0,.9Z" transform="translate(-178.5 -107.6)"/>
              </g>
            </g>
            <g id="Group_1765" data-name="Group 1765">
              <g id="Group_1763" data-name="Group 1763">
                <path id="Path_1619" data-name="Path 1619" class="cls-2" d="M66.686,96H64.448A.454.454,0,0,1,64,95.548a.481.481,0,0,1,.448-.448h2.238a.448.448,0,0,1,0,.9Z" transform="translate(-64 -95.1)"/>
              </g>
              <g id="Group_1764" data-name="Group 1764" transform="translate(0 4.663)">
                <path id="Path_1620" data-name="Path 1620" class="cls-2" d="M66.686,108.5H64.448a.454.454,0,0,1-.448-.448.481.481,0,0,1,.448-.448h2.238a.448.448,0,1,1,0,.9Z" transform="translate(-64 -107.6)"/>
              </g>
            </g>
          </g>
        </g>
      </g>
    </g>
    <rect id="Rectangle_234" data-name="Rectangle 234" class="cls-3" width="358" height="192" transform="translate(153 1563)"/>
  </g>
</svg>
