<svg xmlns="http://www.w3.org/2000/svg" xmlns:xlink="http://www.w3.org/1999/xlink" viewBox="0 0 164 175">
  <defs>
    <style>
      .cls-1 {
        fill: #fff;
      }

      .cls-2, .cls-3 {
        fill: none;
      }

      .cls-2 {
        stroke: #00cce9;
        stroke-width: 4px;
      }

      .cls-4 {
        filter: url(#Rectangle_63);
      }
    </style>
    <filter id="Rectangle_63" x="5" y="16" width="154" height="148.111" filterUnits="userSpaceOnUse">
      <feOffset dy="3" input="SourceAlpha"/>
      <feGaussianBlur stdDeviation="3" result="blur"/>
      <feFlood flood-opacity="0.161"/>
      <feComposite operator="in" in2="blur"/>
      <feComposite in="SourceGraphic"/>
    </filter>
  </defs>
  <g id="Group_2111" data-name="Group 2111" transform="translate(-250 -2721)">
    <g id="Group_1047" data-name="Group 1047" transform="translate(264 2743)">
      <g id="Group_1041" data-name="Group 1041" transform="translate(0 0)">
        <g id="Group_749" data-name="Group 749" transform="translate(0)">
          <g class="cls-4" transform="matrix(1, 0, 0, 1, -14, -22)">
            <rect id="Rectangle_63-2" data-name="Rectangle 63" class="cls-1" width="136" height="130.112" rx="50" transform="translate(14 22)"/>
          </g>
        </g>
      </g>
      <g id="Group_2113" data-name="Group 2113" transform="translate(19.242 21)">
        <path id="Path_661" data-name="Path 661" class="cls-2" d="M71.019,18.184a32.142,32.142,0,0,0-13.531-13.1A43.3,43.3,0,0,0,37.036,0C35.589.078,34.1.156,32.617.274A41.006,41.006,0,0,0,19.712,3.559,33.688,33.688,0,0,0,4.695,15.525,24.686,24.686,0,0,0,.589,35.352,27.447,27.447,0,0,0,9.974,50.6,39.427,39.427,0,0,0,30,59.559a17.151,17.151,0,0,1,2.7.7,2.355,2.355,0,0,1,1.76,2.385,16.474,16.474,0,0,1-.156,2.425c-.156,1.251-.391,2.5-.587,3.754-.156,1.251.391,1.8,1.682,1.682a1.406,1.406,0,0,0,.43-.078,25.422,25.422,0,0,0,2.385-.978A132.451,132.451,0,0,0,55.455,58.112,70.562,70.562,0,0,0,67.7,46.693a26.613,26.613,0,0,0,6.14-13.57A24.516,24.516,0,0,0,71.019,18.184ZM19.634,35.274a5.279,5.279,0,1,1,5.279-5.279A5.257,5.257,0,0,1,19.634,35.274Zm17.4,0a5.279,5.279,0,1,1,5.279-5.279A5.257,5.257,0,0,1,37.036,35.274Zm17.4,0a5.279,5.279,0,1,1,5.279-5.279A5.257,5.257,0,0,1,54.438,35.274Z" transform="translate(-0.004)"/>
        <path id="Path_662" data-name="Path 662" class="cls-2" d="M156.67,87.611a27.784,27.784,0,0,0-12.2-9.7,31.72,31.72,0,0,0-3.207-1.212,26.7,26.7,0,0,1-.156,4.3,26.3,26.3,0,0,1-6.14,13.57,70.562,70.562,0,0,1-12.24,11.419,140.732,140.732,0,0,1-14.626,9.855,71.156,71.156,0,0,0,7.313,6.374,106.559,106.559,0,0,0,14,9.19,19.722,19.722,0,0,0,1.916.782,1.142,1.142,0,0,0,.352.078c1.017.117,1.486-.352,1.369-1.369s-.352-2.034-.469-3.05a16.9,16.9,0,0,1-.117-1.955,1.94,1.94,0,0,1,1.408-1.955,20.012,20.012,0,0,1,2.19-.587,31.96,31.96,0,0,0,16.268-7.274,22.445,22.445,0,0,0,7.626-12.4A19.816,19.816,0,0,0,156.67,87.611Z" transform="translate(-62.153 -43.766)"/>
      </g>
    </g>
    <rect id="Rectangle_228" data-name="Rectangle 228" class="cls-3" width="164" height="175" transform="translate(250 2721)"/>
  </g>
</svg>
