<svg xmlns="http://www.w3.org/2000/svg" viewBox="0 0 358 257.344">
  <defs>
    <style>
      .cls-1 {
        fill: #bae2f8;
      }

      .cls-2, .cls-7 {
        fill: none;
      }

      .cls-2 {
        stroke: #006ee5;
        stroke-linecap: round;
        stroke-linejoin: round;
        stroke-width: 4px;
        stroke-dasharray: 1.9 9;
      }

      .cls-3 {
        fill: #fbb040;
      }

      .cls-4 {
        fill: #00cbe8;
      }

      .cls-5 {
        fill: #fff;
      }

      .cls-6 {
        fill: #006ee5;
      }
    </style>
  </defs>
  <g id="Group_2101" data-name="Group 2101" transform="translate(-153 -1082)">
    <g id="Group_2092" data-name="Group 2092" transform="translate(0.294 -5.722)">
      <g id="Group_2100" data-name="Group 2100">
        <g id="Group_2099" data-name="Group 2099" transform="translate(-516.485 -88.081)">
          <g id="Group_565" data-name="Group 565" transform="translate(744.194 1409.414) rotate(-90)">
            <circle id="Ellipse_37" data-name="Ellipse 37" class="cls-1" cx="95.584" cy="95.584" r="95.584" transform="translate(10.221 10.221)"/>
            <g id="Group_555" data-name="Group 555" transform="translate(0 0)">
              <ellipse id="Ellipse_38" data-name="Ellipse 38" class="cls-2" cx="105.805" cy="105.805" rx="105.805" ry="105.805"/>
            </g>
          </g>
        </g>
        <g id="Group_710" data-name="Group 710" transform="translate(259.708 1141.722)">
          <g id="Group_559" data-name="Group 559" transform="translate(22.008 4.292)">
            <path id="Path_476" data-name="Path 476" class="cls-3" d="M59.614,82.648a18.147,18.147,0,0,1-17.6-1.354.423.423,0,0,0-.677,0L19,100.473,64.8,87.838l-4.287-4.964A1.706,1.706,0,0,0,59.614,82.648Z" transform="translate(1.758 -63.22)"/>
            <path id="Path_477" data-name="Path 477" class="cls-4" d="M19.954,113.376l32.04-27.527a1.684,1.684,0,0,1,2.031,0A13.677,13.677,0,0,0,71.4,87.2a1.718,1.718,0,0,1,2.031.226L81.1,96.454,86.065,95.1,70.044,76.372a9.016,9.016,0,0,0-12.861-.9L9.8,116.309Z" transform="translate(-9.8 -73.189)"/>
          </g>
          <path id="Path_478" data-name="Path 478" class="cls-5" d="M90.646,135.881a18.277,18.277,0,0,1,12.861-22.563l22.112-6.092-4.287-15.569a11.4,11.4,0,0,0-14.215-7.9L7.838,111.287a8.462,8.462,0,0,1-4.738,0l21.661,78.521a11.4,11.4,0,0,0,14.215,7.9l92.736-25.722a11.4,11.4,0,0,0,7.9-14.215L135.322,142.2l-22.112,6.092A17.843,17.843,0,0,1,90.646,135.881Z" transform="translate(3.791 -56.204)"/>
          <g id="Group_560" data-name="Group 560" transform="translate(4.461 16.133)">
            <path id="Path_479" data-name="Path 479" class="cls-5" d="M7.838,101.741l1.354-.451L25.437,87.3,5.356,92.941a4.572,4.572,0,1,0,2.482,8.8Z" transform="translate(-2.023 -67.304)"/>
            <path id="Path_480" data-name="Path 480" class="cls-5" d="M56.112,85.347c.677-.226,1.354-.226,2.031-.451A11.563,11.563,0,0,0,44.831,78.8l-2.031.451,6.543,7.672Z" transform="translate(49.207 -78.438)"/>
          </g>
          <path id="Path_481" data-name="Path 481" class="cls-3" d="M77.224,95.765l-23.466,6.543a13.715,13.715,0,1,0,7.446,26.4l23.466-6.543a3.038,3.038,0,0,0,2.031-3.836L81.059,97.8A3.246,3.246,0,0,0,77.224,95.765Zm-17.6,28.43a9.143,9.143,0,1,1,6.318-11.282A8.859,8.859,0,0,1,59.624,124.195Z" transform="translate(54.894 -40.682)"/>
          <path id="Path_513" data-name="Path 513" class="cls-5" d="M4.513,0A4.513,4.513,0,1,1,0,4.513,4.513,4.513,0,0,1,4.513,0Z" transform="translate(107.524 70.201)"/>
          <g id="Group_563" data-name="Group 563">
            <g id="Group_561" data-name="Group 561">
              <path id="Path_482" data-name="Path 482" class="cls-6" d="M133.969,121.407l-4.287-15.794A16.368,16.368,0,0,0,116.821,94.1a16.12,16.12,0,0,0-19.4-10.6l-4.061,1.128-7.672-8.574a13.643,13.643,0,0,0-19.4-1.354L36.044,100.648,6.711,108.771A9.023,9.023,0,0,0,.393,120.053l23.917,86.192a16.216,16.216,0,0,0,19.856,11.282L136.9,191.8a16.216,16.216,0,0,0,11.282-19.856L143.9,156.154a7.1,7.1,0,0,0,2.708-7.446L140.512,126.6C139.159,123.663,136.677,121.632,133.969,121.407ZM98.544,88.013A11.2,11.2,0,0,1,111.857,94.1a6.588,6.588,0,0,0-2.031.451l-6.543,1.805L96.739,88.69ZM69.212,78.085a9,9,0,0,1,12.861.9l16.02,18.728-4.964,1.354-7.672-9.025a1.68,1.68,0,0,0-2.031-.226,13.656,13.656,0,0,1-17.374-1.354,1.684,1.684,0,0,0-2.031,0l-31.814,27.3L21.829,118.7ZM88.391,100.2l-45.8,12.636L64.925,93.654a.423.423,0,0,1,.677,0,18.147,18.147,0,0,0,17.6,1.354c.226-.226.677,0,.9.226ZM7.839,113.058l20.081-5.641L11.675,121.407l-1.354.451a4.572,4.572,0,0,1-2.482-8.8Zm135.606,60.019a11.678,11.678,0,0,1-7.9,14.215l-92.962,25.5a11.678,11.678,0,0,1-14.215-7.9L6.711,126.371a8.462,8.462,0,0,0,4.738,0l99.5-27.527a11.678,11.678,0,0,1,14.215,7.9l4.287,15.569L107.344,128.4a18.365,18.365,0,0,0,9.7,35.425l22.112-6.092Zm-1.805-24.143a3.139,3.139,0,0,1-2.031,3.836l-23.466,6.543a13.715,13.715,0,0,1-7.446-26.4l23.466-6.543A3.139,3.139,0,0,1,136,128.4Z" transform="translate(-0.046 -71.287)"/>
            </g>
            <g id="Group_562" data-name="Group 562" transform="translate(103.115 65.582)">
              <path id="Path_483" data-name="Path 483" class="cls-6" d="M52.411,100.684A9.143,9.143,0,1,0,63.693,107,9.3,9.3,0,0,0,52.411,100.684ZM56.021,114a4.572,4.572,0,1,1,3.159-5.641A4.512,4.512,0,0,1,56.021,114Z" transform="translate(-45.746 -100.353)"/>
            </g>
          </g>
        </g>
      </g>
    </g>
    <rect id="Rectangle_224" data-name="Rectangle 224" class="cls-7" width="358" height="257.344" transform="translate(153 1082)"/>
  </g>
</svg>
