<?xml version="1.0" encoding="UTF-8"?>
<svg width="160px" height="80px" viewBox="0 0 160 80" version="1.1" xmlns="http://www.w3.org/2000/svg" xmlns:xlink="http://www.w3.org/1999/xlink">
    <!-- Generator: Sketch 48.2 (47327) - http://www.bohemiancoding.com/sketch -->
    <title>client logo 4</title>
    <desc>Created with Sketch.</desc>
    <defs></defs>
    <g id="client-pricing-(desktop)" stroke="none" stroke-width="1" fill="none" fill-rule="evenodd" transform="translate(-723.000000, -284.000000)">
        <g id="Clients-+-Partners">
            <g id="clients-+-partners" transform="translate(135.000000, 284.000000)">
                <g id="client-logo-4" transform="translate(588.000000, 0.000000)">
                    <rect id="bound-3-copy" fill="#FFFFFF" x="0" y="0" width="160" height="80"></rect>
                    <g id="Logo/Clients/BRI-2" transform="translate(43.000000, 7.000000)" fill="#949A9D">
                        <g id="Page-1" transform="translate(0.000000, 0.525926)">
                            <path d="M6.47484076,60.6241185 C6.47484076,61.5623111 4.98152866,61.7841778 3.97882166,61.7841778 L3.19872611,61.7841778 L3.19872611,58.9994667 L4.60270701,58.9994667 C5.58821656,58.9994667 6.47484076,59.2772741 6.47484076,60.2372741 L6.47484076,60.6241185 Z M3.19872611,54.3582815 L4.0566879,54.3582815 C5.00207006,54.3582815 6.16289809,54.4559407 6.16289809,55.3637926 L6.16289809,55.750637 C6.16289809,56.5252741 4.96146497,56.8338963 4.13503185,56.8338963 L3.19872611,56.8338963 L3.19872611,54.3582815 Z M9.67308917,60.2372741 C9.67308917,59.0473481 8.48073248,57.9939556 7.33280255,57.9939556 L7.33280255,57.8389333 C8.24140127,57.7640296 9.3611465,56.6248296 9.3611465,55.6728889 L9.3611465,54.8219259 C9.3611465,53.0432 7.54203822,52.114963 5.69522293,52.114963 L0,52.114963 L0,64.0270222 L4.52436306,64.0270222 C7.04140127,64.0270222 9.67308917,63.4007704 9.67308917,61.0104889 L9.67308917,60.2372741 Z" id="Fill-1"></path>
                            <path d="M45.6349204,52.1151052 L41.7674045,52.1388089 L38.1459076,56.9108385 L38.1459076,52.1151052 L34.9476592,52.1151052 L34.9476592,64.0271644 L38.1459076,64.0271644 L38.1459076,58.6127644 C38.733965,59.0399052 41.6737739,64.0271644 42.0463854,64.0271644 L45.9468631,64.0271644 C45.7500478,63.2961422 41.2658121,57.950957 41.2658121,57.6845274 C41.2658121,57.4422756 45.1734554,52.7991941 45.6349204,52.1151052" id="Fill-3"></path>
                            <polygon id="Fill-5" points="71.3775478 64.0270222 74.5757962 64.0270222 74.5757962 52.114963 71.3775478 52.114963"></polygon>
                            <path d="M14.2748885,59.2310993 L15.8078503,54.6065067 L15.9139013,54.5903881 L17.2696338,59.2225659 L14.2748885,59.2310993 Z M14.0417675,52.1152474 C13.7608758,52.1152474 12.9540287,54.5918104 12.7930414,54.9767585 C12.3831688,55.9628326 12.0253662,57.0228622 11.6346019,58.0051437 C11.2342834,59.0078104 10.9022771,59.9583289 10.5000478,60.9794844 C10.1560987,61.8527289 9.56230892,63.172077 9.36119427,64.0273067 L12.4037102,64.0273067 C12.6755255,64.0273067 13.4623089,61.8702696 13.4957484,61.4748919 L17.864379,61.4748919 C18.3506847,61.4748919 18.5952707,64.0273067 19.1121497,64.0273067 L22.4322134,64.0107141 L17.864379,52.1152474 L14.0417675,52.1152474 Z" id="Fill-7"></path>
                            <polygon id="Fill-8" points="30.9118471 60.0331378 26.990828 52.1151526 22.8567516 52.1151526 22.8567516 64.0272119 25.8042038 64.0276859 25.7707643 55.9684267 29.8771338 64.0272119 33.8554777 64.0272119 33.8554777 52.1151526 30.9696497 52.1151526"></polygon>
                            <path d="M66.6969268,55.8278163 C66.6969268,56.9309867 65.4109395,57.0656237 64.2787739,57.0656237 L63.5770223,57.0656237 L63.5770223,54.3581867 L64.5907166,54.3581867 C65.4634873,54.3581867 66.6969268,54.6369422 66.6969268,55.4414459 L66.6969268,55.8278163 Z M68.7372134,59.2202904 C68.3961306,58.3513126 68.0149204,58.4826311 67.7110987,58.0711348 C68.7472452,57.9858015 69.8951752,56.766483 69.8951752,55.6727941 L69.8951752,54.8218311 C69.8951752,52.8330904 67.8567994,52.1148681 65.7610987,52.1148681 L60.3782962,52.1148681 L60.3782962,64.0269274 L63.5770223,64.0269274 L63.5770223,59.3089422 L64.2787739,59.3089422 C65.4921497,59.3089422 65.9321178,60.2324385 66.2411943,61.1530904 C66.5201752,61.9846163 66.9711306,63.2020385 67.1650796,64.0269274 L70.441672,64.0269274 C70.4325955,63.6329719 69.5287739,61.2957867 69.3396019,60.7880533 C69.1547293,60.2921719 68.930207,59.7128533 68.7372134,59.2202904 Z" id="Fill-9"></path>
                            <path d="M53.9042675,61.78432 L53.1236943,61.78432 L53.1236943,58.9218607 L53.9042675,58.9218607 C55.0655732,58.9218607 56.4786306,59.1375644 56.4786306,60.2369422 C56.4786306,61.6089126 55.2791083,61.78432 53.9042675,61.78432 Z M53.1236943,54.3579496 L54.2935987,54.3579496 C55.307293,54.3579496 56.1662102,54.5921422 56.1662102,55.5962311 C56.1662102,56.4803793 55.0593631,56.8340385 54.1378662,56.8340385 L53.1236943,56.8340385 L53.1236943,54.3579496 Z M57.4144586,57.9936237 L57.4144586,57.8390756 C58.4276752,57.605357 59.3639809,56.5543348 59.3639809,55.2866607 C59.3639809,53.2045274 57.8329299,52.1151052 55.7764013,52.1151052 L49.9254459,52.1151052 L49.9254459,64.0271644 L54.8400955,64.0271644 C57.351879,64.0271644 59.6764013,63.1880533 59.6764013,60.7788089 L59.6764013,60.7015348 C59.6764013,59.2333274 58.7209873,58.0230163 57.4144586,57.9936237 Z" id="Fill-10"></path>
                            <path d="M14.291465,8.91415704 L14.291465,38.23232 C14.291465,42.3302163 18.1565924,46.0810904 22.3556369,46.0810904 L52.8180573,46.0810904 C56.5460828,46.0810904 60.2846178,42.0737422 60.2846178,38.084883 L60.2846178,8.02574222 C60.2846178,4.11131259 56.366465,0.473742222 52.2209236,0.473742222 L22.3556369,0.473742222 C17.7424204,0.473742222 14.291465,4.27344593 14.291465,8.91415704 Z M50.5776115,9.80209778 C50.5776115,7.31036444 49.1143949,6.2854163 48.1885987,4.91629037 C52.2013376,4.91629037 54.4885987,4.48393481 55.5715605,7.6640237 C56.216465,9.55605333 55.8051592,15.0278163 55.8051592,17.502957 L55.8051592,37.6406756 L41.4371656,23.1610311 C43.68,19.8567348 50.5776115,16.2461867 50.5776115,11.4314904 L50.5776115,9.80209778 Z M38.0349363,10.8398459 C38.0349363,9.74189037 37.7258599,8.27605333 37.4220382,7.44832 C37.1000637,6.56843852 36.0510191,5.31119407 35.9440127,4.91629037 L39.9763376,4.91629037 C42.5182166,4.91629037 45.5019745,7.22266074 45.5019745,9.65466074 L45.5019745,10.987757 C45.5019745,14.2218904 34.7502229,21.867757 34.7502229,23.2776533 C34.7502229,23.2975644 42.9438535,31.6260978 43.7464013,32.4220681 C45.3013376,33.9623348 46.7473567,35.3954607 48.3003822,36.9366756 C49.1678981,37.7966459 52.1588217,40.7354311 52.6680573,41.4906311 L36.243535,41.4906311 C37.2553185,39.9911348 38.3339809,38.6954904 38.3339809,36.1596681 L38.3339809,35.4191644 C38.3339809,32.440083 36.096879,30.23232 34.5663057,28.6422756 C33.5392357,27.5741867 30.2507006,23.8602904 29.3736306,23.2776533 C31.8008599,19.6846459 38.0349363,17.0890904 38.0349363,11.13472 L38.0349363,10.8398459 Z M18.9204459,8.02574222 C18.9204459,6.39919407 20.938758,4.91629037 22.8032484,4.91629037 L26.8350955,4.91629037 C29.7858917,4.91629037 32.5097771,7.55403852 32.5097771,10.3946904 L32.5097771,10.987757 C32.5097771,15.67872 24.9018153,19.9491793 22.6537261,23.2776533 C23.3421019,24.2969126 26.7663057,27.7348978 27.843535,28.7930311 C29.2092994,30.1351348 32.0612102,32.7145719 32.0612102,35.1238163 L32.0612102,36.3080533 C32.0612102,38.6030459 29.2690127,41.4906311 27.1336624,41.4906311 L22.2061146,41.4906311 C20.713758,41.4906311 18.9204459,39.838957 18.9204459,38.5286163 L18.9204459,8.02574222 Z" id="Fill-11"></path>
                        </g>
                    </g>
                </g>
            </g>
        </g>
    </g>
</svg>