<?xml version="1.0" encoding="UTF-8"?>
<svg width="160px" height="80px" viewBox="0 0 160 80" version="1.1" xmlns="http://www.w3.org/2000/svg" xmlns:xlink="http://www.w3.org/1999/xlink">
    <!-- Generator: Sketch 48.2 (47327) - http://www.bohemiancoding.com/sketch -->
    <title>client logo 2</title>
    <desc>Created with Sketch.</desc>
    <defs></defs>
    <g id="client-pricing-(desktop-logo-color)" stroke="none" stroke-width="1" fill="none" fill-rule="evenodd" transform="translate(-359.000000, -284.000000)">
        <g id="Clients-+-Partners">
            <g id="clients-+-partners" transform="translate(135.000000, 284.000000)">
                <g id="client-logo-2" transform="translate(224.000000, 0.000000)">
                    <rect id="bound" fill="#FFFFFF" x="0" y="0" width="160" height="80"></rect>
                    <g id="Logo/Clients/telkomsel-color" transform="translate(6.000000, 17.000000)">
                        <g id="Page-1" transform="translate(0.780120, 0.876190)">
                            <polygon id="Fill-1" fill="#434244" points="31.8457177 9.2 39.5783133 19.463068 34.5574118 31.2906695 21.8048847 32.8571429 14.0722892 22.5950448 19.0931906 10.7664734"></polygon>
                            <polygon id="Fill-2" fill="#CC2229" points="28.3269696 7.88571429 36.060241 18.1483615 31.0395304 29.976448 18.2874882 31.5428571 10.5542169 21.2802099 15.5749274 9.45212344"></polygon>
                            <path d="M34.3498129,11.6439622 C33.4728395,5.1975003 31.0112795,0.632876488 27.5403729,0.0729907738 C22.0322795,-0.81349494 16.0141595,8.71817054 14.1414662,21.2883824 C12.2697462,33.8615104 15.2345195,44.8356592 20.7435862,45.724089 C25.0973062,46.4249182 29.7683329,40.6151318 32.4605729,31.9427354 C29.7780662,37.8662485 25.5226529,40.6423485 22.4615195,39.8530652 C20.2111729,39.273739 18.6956929,36.1418783 18.2440662,31.680289 C17.9092395,28.3530515 18.1039062,24.3045723 18.9623862,20.0772408 C20.9693995,10.1975908 25.8243862,2.9317128 29.7488662,3.97858244 C32.2240529,4.63858661 33.8933195,9.75045982 34.3498129,11.6439622" id="Fill-3" fill="#808183"></path>
                            <path d="M22.6422675,12.410889 C7.37748085,14.0341687 -0.417945815,20.5049312 0.260467518,25.2590997 C0.939854185,30.0113241 6.90930752,32.0720146 13.5406275,32.8768503 C10.6809742,32.0827068 3.29824085,29.7479057 4.83610752,25.9453485 C6.25814752,22.4305104 14.0934809,18.8486027 23.5348142,17.7638241 C34.7106275,16.4788086 43.8755342,19.3569711 44.3534409,23.4491914 C44.7242809,26.6277092 39.4809342,29.3202152 35.4026675,30.9823759 C42.9810409,28.6456307 49.0789742,24.9004229 48.3723342,19.9489336 C47.6656942,14.9955003 39.1733609,10.6534699 22.6422675,12.410889" id="Fill-6" fill="#808183"></path>
                            <path d="M22.6422675,12.410889 C22.1575475,12.4624062 21.6796409,12.5187836 21.2104942,12.5800211 C21.8480275,11.0374193 22.5507742,9.65034137 23.2934275,8.46155625 L17.5945609,9.16044137 C16.9833075,10.5066943 16.4216942,11.9695902 15.9252942,13.5287164 C15.0794675,13.7260372 14.2677075,13.9389104 13.4890409,14.167336 L10.4697609,21.268942 L10.4707342,21.268942 C11.6465209,20.7080842 12.9663609,20.1851354 14.4000809,19.7166199 C14.3076142,20.2347086 14.2200142,20.7586295 14.1411742,21.2883824 C13.9280142,22.7279497 13.7771475,24.1461324 13.6856542,25.5322384 L18.2311209,31.5539259 L18.2320942,31.5539259 C17.9147875,28.250989 18.1152942,24.251111 18.9620942,20.0772408 C19.0759742,19.5192991 19.1986142,18.9691336 19.3300142,18.4277164 C20.6819742,18.1545777 22.0903875,17.9300402 23.5348142,17.7638241 C28.2330942,17.2243509 32.5761075,17.4197277 36.0674542,18.1322211 L36.0674542,18.1312491 L31.4733209,12.0415199 C28.8394809,11.9569539 25.8961209,12.0658205 22.6422675,12.410889" id="Fill-9" fill="#FEFEFE"></path>
                            <path d="M137.217033,30.2652167 L139.789553,15.5128114 L142.319246,15.5128114 L140.193486,27.6446405 L146.219393,27.6446405 L145.728833,30.2652167 L137.217033,30.2652167 Z M126.623273,30.2652167 L129.195793,15.5128114 L138.1271,15.5128114 L137.704673,18.1333876 L131.25634,18.1333876 L130.718086,21.2331715 L136.671966,21.2331715 L136.209633,23.8527757 L130.261593,23.8527757 L129.6007,27.6446405 L136.330326,27.6446405 L135.839766,30.2652167 L126.623273,30.2652167 Z M124.357353,19.9384358 C124.383633,19.1540126 124.247366,18.5824626 123.94174,18.2121215 C123.63806,17.8456685 123.15042,17.660984 122.476873,17.660984 C121.81306,17.660984 121.257286,17.8320602 120.8115,18.1712965 C120.366686,18.5144209 120.094153,18.9722441 119.997793,19.5486542 C119.916033,20.0181417 120.022126,20.3661263 120.317046,20.6033001 C120.591526,20.8356138 121.218353,21.0863959 122.19558,21.3537024 C123.929086,21.8290221 125.08054,22.3947399 125.64702,23.048912 C126.077233,23.5174274 126.285526,24.152159 126.27774,24.9463024 C126.278713,25.2476298 126.246593,25.5732578 126.188193,25.9183263 C125.92442,27.4055227 125.285913,28.5700072 124.267806,29.4127518 C123.263326,30.2477203 121.990206,30.6656905 120.450393,30.6656905 C118.856073,30.6656905 117.69294,30.2477203 116.961966,29.4127518 C116.400353,28.7478876 116.115166,27.8332132 116.108353,26.6619245 L116.167726,25.6889286 L118.667246,25.6889286 C118.581593,26.5044566 118.71494,27.1139155 119.07118,27.5143893 C119.429366,27.9148632 120.018233,28.1180161 120.841673,28.1180161 C121.5853,28.1180161 122.203366,27.949856 122.693926,27.6106197 C123.184486,27.2713834 123.476486,26.8164763 123.574793,26.2410382 C123.675046,25.6928167 123.543646,25.2787346 123.180593,24.9978197 C122.831166,24.723709 122.059313,24.4252977 120.868926,24.1035578 C119.32522,23.6885036 118.313926,23.1684709 117.823366,22.5385995 C117.478806,22.1031328 117.305553,21.5150584 117.305553,20.7704882 C117.306526,20.4448602 117.340593,20.0890995 117.405806,19.7090382 C117.658873,18.2704429 118.269153,17.1438673 119.229833,16.3322274 C120.190513,15.5205876 121.397446,15.1133096 122.85842,15.1133096 C124.35054,15.1133096 125.43386,15.5273917 126.113246,16.355556 C126.649553,17.0000078 126.915273,17.8592768 126.915273,18.9353072 C126.909433,19.2502429 126.881206,19.5826751 126.840326,19.9384358 L124.357353,19.9384358 Z M104.921833,30.2652167 L102.5323,30.2652167 L105.10482,15.5128114 L108.80154,15.5128114 L108.945593,27.3433132 L113.112433,15.5128114 L116.810126,15.5128114 L114.237606,30.2652167 L111.8471,30.2652167 L114.014713,17.8320602 L114.021526,17.8320602 L109.6279,30.2652167 L107.142006,30.2652167 L107.089446,17.8223399 L107.09334,17.8223399 L104.921833,30.2652167 Z M95.8377129,28.0344221 C97.0718995,28.0344221 98.1007129,27.3705298 98.9241529,26.0456614 C99.7446729,24.7169048 100.15542,23.051828 100.15542,21.0552911 C100.156393,20.0181417 99.9286329,19.2055298 99.4838195,18.6203715 C99.0341395,18.0342411 98.4170462,17.743606 97.6286462,17.743606 C96.3934862,17.743606 95.3636995,18.4074983 94.5451262,19.7333388 C93.7246062,21.0620953 93.3138595,22.7300882 93.3138595,24.7334292 C93.3138595,25.7705786 93.5367529,26.5793024 93.9796195,27.1625167 C94.4244329,27.744759 95.0454195,28.0353941 95.8377129,28.0344221 Z M95.3831662,30.6656905 C93.9416595,30.6656905 92.7989662,30.2000911 91.9550862,29.2650042 C91.1121795,28.3338054 90.6897529,27.0730905 90.6897529,25.4867477 L90.6907262,25.4488388 C90.6975395,22.4180685 91.3895795,19.9384358 92.7678195,18.0070245 C94.1509262,16.0785292 95.9204462,15.1133096 98.0841662,15.1133096 C99.5246995,15.1133096 100.662526,15.5818251 101.50446,16.516912 C102.344446,17.4549149 102.764926,18.7195179 102.764926,20.3116929 L102.7659,20.3496018 C102.759086,23.3735679 102.066073,25.8502846 100.690753,27.7758638 C99.3154329,29.703387 97.5459129,30.6656905 95.3831662,30.6656905 Z M81.3934462,15.5128114 L83.9095129,15.5128114 L82.8446862,21.6433655 L88.5610729,15.5128114 L91.8918195,15.5128114 L85.8337929,21.6472536 L89.5314862,30.2652167 L86.2737395,30.2652167 L83.6905129,23.8129227 L82.2032595,25.3234477 L81.3379662,30.2652167 L78.8209262,30.2652167 L81.3934462,15.5128114 Z M68.9892862,30.2652167 L71.5618062,15.5128114 L74.0924729,15.5128114 L71.9657395,27.6446405 L77.9916462,27.6446405 L77.5010862,30.2652167 L68.9892862,30.2652167 Z M58.3964995,30.2652167 L60.9680462,15.5128114 L69.8983795,15.5128114 L69.4769262,18.1333876 L63.0285929,18.1333876 L62.4903395,21.2331715 L68.4451929,21.2331715 L67.9818862,23.8527757 L62.0338462,23.8527757 L61.3729529,27.6446405 L68.1016062,27.6446405 L67.6100729,30.2652167 L58.3964995,30.2652167 Z M53.4899262,18.1333876 L49.8087795,18.1333876 L50.3129662,15.5128114 L60.1076195,15.5128114 L59.6861662,18.1333876 L56.0050195,18.1333876 L53.8958062,30.2652167 L51.3797395,30.2652167 L53.4899262,18.1333876 Z" id="Fill-11" fill="#000000"></path>
                        </g>
                    </g>
                </g>
            </g>
        </g>
    </g>
</svg>