<?xml version="1.0" encoding="UTF-8"?>
<svg width="160px" height="80px" viewBox="0 0 160 80" version="1.1" xmlns="http://www.w3.org/2000/svg" xmlns:xlink="http://www.w3.org/1999/xlink">
    <!-- Generator: Sketch 48.2 (47327) - http://www.bohemiancoding.com/sketch -->
    <title>client logo 1</title>
    <desc>Created with Sketch.</desc>
    <defs></defs>
    <g id="client-pricing-(desktop-logo-color)" stroke="none" stroke-width="1" fill="none" fill-rule="evenodd" transform="translate(-135.000000, -284.000000)">
        <g id="Clients-+-Partners">
            <g id="clients-+-partners" transform="translate(135.000000, 284.000000)">
                <g id="client-logo-1">
                    <rect id="bound-1" fill="#FFFFFF" x="0" y="0" width="160" height="80"></rect>
                    <g id="Logo/Clients/accenture-color" transform="translate(0.000000, 12.000000)">
                        <g id="Logo/Clients/accenture">
                            <path d="M0.340425532,35.7 C0.382978723,35.574 0.425531915,35.406 0.468085106,35.28 C0.723404255,33.39 1.74468085,32.046 3.4893617,31.248 C4.5106383,30.744 5.61702128,30.492 6.76595745,30.366 C7.65957447,30.24 8.59574468,30.24 9.4893617,30.24 C10.0851064,30.24 10.7234043,30.24 11.3191489,30.24 C11.3617021,30.198 11.3617021,30.198 11.3617021,30.156 C11.4042553,29.568 11.4042553,28.938 11.2765957,28.35 C11.0212766,27.216 10.3404255,26.628 9.14893617,26.46 C8.72340426,26.418 8.25531915,26.418 7.82978723,26.502 C6.80851064,26.754 6.21276596,27.384 5.95744681,28.392 C5.91489362,28.518 5.91489362,28.602 5.87234043,28.77 C4.25531915,28.77 2.63829787,28.77 0.978723404,28.77 C0.936170213,28.518 1.0212766,28.266 1.06382979,28.014 C1.53191489,25.746 2.89361702,24.276 5.0212766,23.436 C6.29787234,22.932 7.61702128,22.806 8.9787234,22.806 C10.1702128,22.806 11.3191489,22.932 12.4255319,23.31 C13.106383,23.52 13.7446809,23.856 14.3404255,24.318 C15.5319149,25.242 16.1702128,26.418 16.3829787,27.846 C16.4680851,28.35 16.5106383,28.854 16.5106383,29.4 C16.5106383,33.222 16.5106383,37.086 16.5106383,40.908 C16.5106383,41.034 16.5106383,41.16 16.5106383,41.328 C14.8085106,41.328 13.1489362,41.328 11.4893617,41.328 C11.4893617,40.656 11.4893617,40.026 11.4893617,39.354 C11.4042553,39.438 11.3617021,39.48 11.3191489,39.522 C10.3829787,40.74 9.10638298,41.412 7.57446809,41.664 C7.23404255,41.706 6.89361702,41.748 6.55319149,41.79 C6.5106383,41.79 6.42553191,41.79 6.38297872,41.79 C6.25531915,41.79 6.12765957,41.748 6,41.748 C5.40425532,41.706 4.85106383,41.622 4.29787234,41.496 C2.17021277,40.866 0.85106383,39.522 0.553191489,37.296 C0.553191489,37.17 0.468085106,37.044 0.425531915,36.918 C0.340425532,36.456 0.340425532,36.078 0.340425532,35.7 Z M11.3617021,33.558 C11.106383,33.558 10.893617,33.558 10.6808511,33.558 C9.82978723,33.6 8.93617021,33.6 8.08510638,33.642 C7.53191489,33.684 6.9787234,33.81 6.46808511,34.104 C5.95744681,34.398 5.61702128,34.818 5.53191489,35.406 C5.4893617,35.658 5.4893617,35.952 5.4893617,36.204 C5.53191489,37.128 6.04255319,37.8 6.9787234,38.01 C7.95744681,38.262 8.93617021,38.178 9.87234043,37.716 C10.6808511,37.296 11.2340426,36.624 11.3191489,35.7 C11.3617021,35.028 11.3617021,34.314 11.3617021,33.558 Z" id="Shape" fill="#000000" fill-rule="nonzero"></path>
                            <path d="M66.3404255,41.748 C66.1276596,41.748 65.9574468,41.706 65.7446809,41.706 C64.5106383,41.622 63.2765957,41.37 62.1276596,40.866 C60.0425532,39.9 58.7234043,38.262 58.0425532,36.12 C57.7446809,35.196 57.6170213,34.272 57.5744681,33.306 C57.4893617,31.836 57.5744681,30.366 58,28.938 C58.5106383,27.216 59.4042553,25.704 60.8510638,24.57 C62.0425532,23.646 63.4042553,23.1 64.893617,22.932 C66.4680851,22.722 68,22.806 69.5319149,23.31 C72.212766,24.192 73.787234,26.04 74.4255319,28.728 C74.6382979,29.568 74.6808511,30.45 74.7234043,31.332 C74.7234043,31.962 74.7234043,32.592 74.7234043,33.264 C74.7234043,33.348 74.7234043,33.432 74.6808511,33.558 C70.7234043,33.558 66.7659574,33.558 62.7659574,33.558 C62.8085106,33.81 62.8085106,34.02 62.8085106,34.188 C62.893617,34.734 62.9787234,35.28 63.1914894,35.784 C63.7446809,37.17 64.7659574,37.926 66.2553191,38.01 C66.7659574,38.052 67.2765957,38.01 67.787234,37.842 C68.7659574,37.548 69.4468085,36.918 69.787234,35.994 C69.8297872,35.91 69.8723404,35.784 69.9148936,35.7 C69.9148936,35.7 69.9148936,35.7 69.9574468,35.658 C71.4893617,35.658 73.0638298,35.658 74.6382979,35.658 C74.6382979,35.784 74.5957447,35.91 74.5957447,35.994 C74.0425532,38.514 72.5106383,40.152 70.0851064,41.076 C69.1489362,41.454 68.1276596,41.622 67.1489362,41.664 C66.9787234,41.664 66.8085106,41.706 66.6382979,41.706 C66.5531915,41.748 66.4255319,41.748 66.3404255,41.748 Z M62.8510638,30.114 C63.2765957,30.198 69.4893617,30.156 69.7021277,30.072 C69.6595745,29.274 69.5319149,28.476 69.1489362,27.762 C68.7659574,27.048 68.1702128,26.586 67.3617021,26.418 C67.1489362,26.376 66.9361702,26.334 66.7234043,26.334 C65.787234,26.25 64.893617,26.418 64.1702128,27.09 C63.3191489,27.93 63.0212766,29.022 62.8510638,30.114 Z" id="Shape" fill="#000000" fill-rule="nonzero"></path>
                            <path d="M151.319149,41.748 C151.106383,41.748 150.893617,41.706 150.680851,41.706 C149.489362,41.622 148.340426,41.412 147.234043,40.908 C145.106383,39.942 143.744681,38.346 143.021277,36.162 C142.468085,34.524 142.425532,32.802 142.553191,31.08 C142.638298,29.862 142.893617,28.686 143.404255,27.594 C144.638298,24.948 146.723404,23.394 149.617021,22.932 C151.06383,22.68 152.510638,22.764 153.914894,23.1 C156.808511,23.856 158.595745,25.662 159.319149,28.476 C159.489362,29.106 159.574468,29.736 159.617021,30.408 C159.617021,30.492 159.659574,30.618 159.659574,30.702 C159.659574,31.626 159.659574,32.55 159.659574,33.474 C159.531915,33.474 159.361702,33.474 159.234043,33.474 C155.531915,33.474 151.87234,33.474 148.170213,33.474 C148.042553,33.474 147.914894,33.474 147.702128,33.474 C147.744681,33.81 147.744681,34.062 147.787234,34.356 C147.914894,35.112 148.085106,35.826 148.468085,36.456 C148.851064,37.086 149.404255,37.548 150.12766,37.8 C150.851064,38.01 151.574468,38.052 152.297872,37.926 C153.531915,37.716 154.382979,37.044 154.765957,35.868 C154.808511,35.784 154.808511,35.7 154.851064,35.658 C155.319149,35.574 159.319149,35.616 159.531915,35.7 C159.531915,35.784 159.531915,35.868 159.531915,35.994 C159.531915,36.078 159.489362,36.12 159.489362,36.204 C158.978723,38.304 157.702128,39.858 155.744681,40.824 C154.595745,41.37 153.404255,41.622 152.170213,41.706 C151.957447,41.706 151.744681,41.748 151.531915,41.748 C151.489362,41.748 151.404255,41.748 151.319149,41.748 Z M154.638298,30.156 C154.595745,29.316 154.468085,28.518 154.085106,27.804 C153.702128,27.132 153.106383,26.67 152.340426,26.502 C152.12766,26.46 151.914894,26.418 151.702128,26.376 C150.255319,26.25 149.06383,26.796 148.382979,28.14 C148.085106,28.728 147.914894,29.316 147.829787,29.946 C147.829787,29.988 147.829787,30.072 147.829787,30.114 C150.12766,30.156 152.382979,30.156 154.638298,30.156 Z" id="Shape" fill="#000000" fill-rule="nonzero"></path>
                            <path d="M115.957447,41.748 C115.829787,41.748 115.702128,41.706 115.574468,41.706 C115.021277,41.664 114.468085,41.58 113.957447,41.412 C112.170213,40.824 111.148936,39.564 110.638298,37.8 C110.425532,37.086 110.340426,36.372 110.340426,35.616 C110.340426,31.584 110.340426,27.552 110.340426,23.562 C110.340426,23.478 110.340426,23.352 110.340426,23.226 C112.085106,23.226 113.787234,23.226 115.489362,23.226 C115.489362,23.352 115.489362,23.478 115.489362,23.604 C115.489362,27.258 115.489362,30.912 115.489362,34.566 C115.489362,35.028 115.489362,35.49 115.617021,35.952 C115.87234,37.002 116.595745,37.632 117.702128,37.716 C118.170213,37.758 118.638298,37.758 119.106383,37.632 C120.340426,37.296 121.06383,36.498 121.276596,35.28 C121.319149,34.986 121.361702,34.692 121.361702,34.356 C121.361702,30.786 121.361702,27.174 121.361702,23.604 C121.361702,23.478 121.361702,23.352 121.361702,23.226 C121.617021,23.142 126,23.142 126.468085,23.184 C126.468085,29.19 126.468085,35.238 126.468085,41.244 C126.255319,41.328 121.87234,41.328 121.361702,41.286 C121.361702,40.866 121.361702,40.446 121.361702,40.068 C121.361702,39.648 121.361702,39.27 121.319149,38.85 C121.276596,38.934 121.234043,39.018 121.191489,39.06 C120.297872,40.53 118.93617,41.37 117.234043,41.622 C116.978723,41.664 116.723404,41.664 116.425532,41.706 C116.340426,41.706 116.255319,41.748 116.12766,41.748 C116.085106,41.748 116.042553,41.748 115.957447,41.748 Z" id="Shape" fill="#000000" fill-rule="nonzero"></path>
                            <path d="M28,41.748 C27.787234,41.748 27.6170213,41.706 27.4042553,41.706 C26.1276596,41.622 24.893617,41.37 23.7446809,40.782 C21.7446809,39.774 20.5106383,38.136 19.8723404,36.078 C19.4042553,34.608 19.3191489,33.054 19.4042553,31.5 C19.4893617,30.324 19.6595745,29.148 20.1276596,28.056 C21.3191489,25.2 23.4893617,23.52 26.5531915,23.016 C28.212766,22.722 29.8723404,22.848 31.4893617,23.394 C33.9574468,24.234 35.4468085,25.956 36.0425532,28.434 C36.1276596,28.77 36.1702128,29.148 36.212766,29.484 C36.212766,29.526 36.212766,29.61 36.212766,29.694 C34.5957447,29.694 32.9361702,29.694 31.3191489,29.694 C31.2765957,29.568 31.2340426,29.4 31.1914894,29.274 C31.106383,28.98 31.0212766,28.728 30.893617,28.434 C30.3404255,27.216 29.2765957,26.712 27.9574468,26.796 C26.6808511,26.922 25.8297872,27.552 25.2765957,28.686 C24.893617,29.4 24.7234043,30.198 24.6808511,30.996 C24.5957447,32.214 24.5957447,33.39 24.8085106,34.608 C24.893617,35.112 25.0212766,35.616 25.2765957,36.078 C25.9148936,37.464 27.1489362,38.094 28.6808511,37.968 C30.0851064,37.842 30.9787234,37.002 31.4468085,35.742 C31.5744681,35.406 31.6595745,35.07 31.7446809,34.734 C33.2765957,34.734 34.8085106,34.734 36.3829787,34.734 C36.4255319,35.028 36.3404255,35.28 36.2978723,35.532 C36,37.212 35.3191489,38.682 34.0425532,39.816 C33.0212766,40.74 31.8297872,41.286 30.4680851,41.538 C29.8723404,41.664 29.2340426,41.664 28.6382979,41.748 C28.5531915,41.748 28.4680851,41.79 28.3404255,41.79 C28.1702128,41.748 28.0851064,41.748 28,41.748 Z" id="Shape" fill="#000000" fill-rule="nonzero"></path>
                            <path d="M47.106383,41.748 C46.893617,41.748 46.7234043,41.706 46.5106383,41.706 C45.1489362,41.622 43.8297872,41.328 42.6382979,40.656 C40.8085106,39.69 39.6595745,38.178 39.0212766,36.246 C38.6808511,35.238 38.5106383,34.23 38.4680851,33.18 C38.3829787,31.71 38.4680851,30.282 38.893617,28.896 C39.4893617,26.838 40.6382979,25.158 42.5531915,24.024 C43.7021277,23.352 44.9361702,22.974 46.2553191,22.848 C47.7446809,22.722 49.2340426,22.806 50.6382979,23.31 C53.0638298,24.15 54.5531915,25.872 55.1489362,28.35 C55.2340426,28.686 55.2765957,29.022 55.3191489,29.358 C55.3191489,29.442 55.3191489,29.484 55.3191489,29.568 C53.7021277,29.568 52.0851064,29.568 50.4255319,29.568 C50.3829787,29.442 50.3404255,29.316 50.2978723,29.19 C50.212766,28.896 50.1276596,28.644 50,28.35 C49.4468085,27.132 48.4255319,26.586 47.0638298,26.712 C45.8297872,26.796 44.9361702,27.426 44.3829787,28.518 C44,29.274 43.787234,30.072 43.7446809,30.912 C43.6595745,32.13 43.6595745,33.306 43.8723404,34.524 C43.9574468,35.028 44.1276596,35.532 44.3404255,36.036 C45.0212766,37.422 46.212766,38.01 47.7021277,37.884 C49.0212766,37.758 49.9148936,37.002 50.4255319,35.826 C50.5957447,35.448 50.6808511,35.07 50.8085106,34.65 C52.3404255,34.65 53.8723404,34.65 55.4468085,34.65 C55.4042553,34.944 55.4042553,35.196 55.3617021,35.448 C55.0638298,37.17 54.3404255,38.682 52.9787234,39.858 C51.8723404,40.782 50.5957447,41.328 49.1914894,41.58 C48.6808511,41.664 48.212766,41.664 47.7021277,41.748 C47.6170213,41.748 47.5319149,41.79 47.4042553,41.79 C47.2765957,41.748 47.1914894,41.748 47.106383,41.748 Z" id="Shape" fill="#000000" fill-rule="nonzero"></path>
                            <path d="M93.2765957,0.252 C93.4042553,0.294 93.4893617,0.378 93.6170213,0.42 C98.5957447,2.394 103.617021,4.41 108.595745,6.384 C108.93617,6.51 108.893617,6.468 108.893617,6.846 C108.893617,7.938 108.893617,8.988 108.893617,10.08 C108.893617,10.164 108.893617,10.29 108.893617,10.416 C103.659574,12.516 98.4255319,14.574 93.1914894,16.674 C93.1914894,15.036 93.1914894,13.44 93.1914894,11.844 C96.212766,10.752 99.2340426,9.618 102.255319,8.526 C102.255319,8.484 102.255319,8.484 102.255319,8.442 C99.2340426,7.266 96.212766,6.132 93.1914894,4.956 C93.1914894,3.402 93.1914894,1.806 93.1914894,0.252 C93.2340426,0.252 93.2765957,0.252 93.2765957,0.252 Z" id="Shape" fill="#AA1133" fill-rule="nonzero"></path>
                            <path d="M77.8723404,23.226 C79.5744681,23.226 81.2765957,23.226 82.9787234,23.226 C82.9787234,24.066 82.9787234,24.906 82.9787234,25.746 C82.9787234,25.746 83.0212766,25.746 83.0212766,25.746 C83.0638298,25.662 83.1489362,25.578 83.1914894,25.494 C84.1702128,23.982 85.6170213,23.184 87.3617021,22.89 C88.2553191,22.764 89.1489362,22.764 90.0425532,22.974 C91.787234,23.352 92.9361702,24.402 93.5319149,26.04 C93.8723404,27.006 94.0425532,27.972 94.0425532,28.98 C94.0425532,32.97 94.0425532,37.002 94.0425532,40.992 C94.0425532,41.076 94.0425532,41.16 94.0425532,41.286 C92.3404255,41.286 90.6382979,41.286 88.9361702,41.286 C88.9361702,41.16 88.9361702,41.034 88.9361702,40.908 C88.9361702,37.296 88.9361702,33.642 88.9361702,30.03 C88.9361702,29.652 88.893617,29.316 88.8510638,28.938 C88.6808511,27.762 88,27.132 86.8085106,26.964 C86.2553191,26.88 85.7021277,26.922 85.1489362,27.048 C84,27.384 83.3191489,28.182 83.0638298,29.316 C82.9787234,29.652 82.9787234,29.988 82.9787234,30.366 C82.9787234,33.894 82.9787234,37.38 82.9787234,40.908 C82.9787234,41.034 82.9787234,41.16 82.9787234,41.286 C82.7234043,41.37 78.2553191,41.37 77.8723404,41.328 C77.8723404,35.28 77.8723404,29.274 77.8723404,23.226 Z" id="Shape" fill="#000000" fill-rule="nonzero"></path>
                            <path d="M98.5106383,26.964 C97.787234,26.964 97.106383,26.964 96.3829787,26.964 C96.3829787,25.704 96.3829787,24.486 96.3829787,23.184 C97.0638298,23.184 97.787234,23.184 98.4680851,23.184 C98.4680851,22.05 98.4680851,20.916 98.4680851,19.782 C100.170213,19.11 101.87234,18.396 103.617021,17.724 C103.702128,17.85 103.659574,17.976 103.659574,18.102 C103.659574,19.656 103.659574,21.21 103.659574,22.806 C103.659574,22.932 103.659574,23.058 103.659574,23.226 C104.851064,23.226 105.957447,23.226 107.106383,23.226 C107.191489,23.478 107.191489,26.502 107.148936,27.006 C106,27.006 104.851064,27.006 103.659574,27.006 C103.659574,27.174 103.659574,27.258 103.659574,27.384 C103.659574,30.114 103.659574,32.844 103.659574,35.574 C103.659574,35.826 103.702128,36.12 103.744681,36.372 C103.914894,37.128 104.425532,37.548 105.234043,37.59 C105.87234,37.632 106.468085,37.59 107.106383,37.38 C107.148936,37.38 107.191489,37.338 107.276596,37.338 C107.276596,38.64 107.276596,39.942 107.276596,41.286 C107.106383,41.328 106.93617,41.37 106.723404,41.412 C105.148936,41.748 103.574468,41.79 102.042553,41.37 C100.851064,41.076 99.9148936,40.488 99.2765957,39.396 C98.8510638,38.682 98.6382979,37.926 98.5957447,37.128 C98.5531915,36.708 98.5531915,36.246 98.5531915,35.826 C98.5531915,33.054 98.5531915,30.24 98.5531915,27.468 C98.5106383,27.258 98.5106383,27.132 98.5106383,26.964 Z" id="Shape" fill="#000000" fill-rule="nonzero"></path>
                            <path d="M135.446809,26.376 C136.510638,24.066 138.297872,22.932 140.893617,22.974 C140.893617,24.654 140.893617,26.292 140.893617,27.93 C140.765957,27.93 140.595745,27.972 140.468085,27.972 C139.659574,27.972 138.851064,28.056 138.085106,28.308 C137.87234,28.392 137.617021,28.476 137.404255,28.56 C136.297872,29.064 135.659574,29.946 135.489362,31.122 C135.446809,31.5 135.404255,31.878 135.404255,32.256 C135.404255,35.154 135.404255,38.052 135.404255,40.95 C135.404255,41.076 135.404255,41.202 135.404255,41.328 C133.702128,41.328 132,41.328 130.297872,41.328 C130.297872,35.28 130.297872,29.274 130.297872,23.226 C132,23.226 133.702128,23.226 135.404255,23.226 C135.404255,24.276 135.404255,25.326 135.404255,26.334 C135.404255,26.334 135.446809,26.334 135.446809,26.376 Z" id="Shape" fill="#000000" fill-rule="nonzero"></path>
                        </g>
                    </g>
                </g>
            </g>
        </g>
    </g>
</svg>