<svg xmlns="http://www.w3.org/2000/svg" width="75" height="64" viewBox="0 0 75 64">
    <g fill="none" fill-rule="evenodd">
        <path d="M-43-8h160v80H-43z"/>
        <g fill="#59A9FF">
            <path d="M6.475 60.15c0 .938-1.493 1.16-2.496 1.16h-.78v-2.785h1.404c.985 0 1.872.278 1.872 1.238v.387zm-3.276-6.266h.858c.945 0 2.106.098 2.106 1.006v.387c0 .774-1.202 1.083-2.028 1.083h-.936v-2.476zm6.474 5.88c0-1.19-1.192-2.244-2.34-2.244v-.155c.908-.075 2.028-1.214 2.028-2.166v-.851c0-1.779-1.819-2.707-3.666-2.707H0v11.912h4.524c2.517 0 5.15-.626 5.15-3.017v-.773zM45.635 51.641l-3.868.024-3.621 4.772V51.64h-3.198v11.912h3.198V58.14c.588.427 3.528 5.414 3.9 5.414h3.9c-.196-.73-4.68-6.076-4.68-6.343 0-.242 3.907-4.885 4.369-5.569M71.378 63.553h3.198V51.64h-3.198zM14.275 58.757l1.533-4.625.106-.016 1.356 4.632-2.995.009zm-.233-7.116c-.281 0-1.088 2.477-1.249 2.862-.41.986-.768 2.046-1.158 3.028-.4 1.003-.733 1.953-1.135 2.974-.344.874-.938 2.193-1.139 3.048h3.043c.272 0 1.058-2.157 1.092-2.552h4.368c.487 0 .731 2.552 1.248 2.552l3.32-.016-4.568-11.896h-3.822zM30.912 59.56L26.99 51.64h-4.134v11.912h2.947l-.033-8.059 4.106 8.06h3.978V51.64H30.97zM66.697 55.354c0 1.103-1.286 1.238-2.418 1.238h-.702v-2.708h1.014c.872 0 2.106.279 2.106 1.083v.387zm2.04 3.392c-.34-.869-.722-.737-1.026-1.149 1.036-.085 2.184-1.305 2.184-2.398v-.851c0-1.989-2.038-2.707-4.134-2.707h-5.383v11.912h3.199v-4.718h.702c1.213 0 1.653.923 1.962 1.844.28.832.73 2.049.924 2.874h3.277c-.01-.394-.913-2.731-1.102-3.239-.185-.496-.41-1.075-.603-1.568zM53.904 61.31h-.78v-2.862h.78c1.162 0 2.575.215 2.575 1.315 0 1.372-1.2 1.547-2.575 1.547zm-.78-7.426h1.17c1.013 0 1.872.234 1.872 1.238 0 .884-1.107 1.238-2.028 1.238h-1.014v-2.476zm4.29 3.636v-.155c1.014-.234 1.95-1.285 1.95-2.552 0-2.083-1.531-3.172-3.588-3.172h-5.85v11.912h4.914c2.512 0 4.836-.839 4.836-3.248v-.078c0-1.468-.955-2.678-2.262-2.707zM14.291 8.44v29.318c0 4.098 3.866 7.849 8.065 7.849h30.462c3.728 0 7.467-4.007 7.467-7.996V7.55C60.285 3.638 56.366 0 52.22 0H22.356c-4.614 0-8.065 3.8-8.065 8.44zm36.287.888c0-2.492-1.464-3.517-2.39-4.886 4.013 0 6.3-.432 7.384 2.748.644 1.892.233 7.364.233 9.839v20.138l-14.368-14.48c2.243-3.304 9.14-6.915 9.14-11.73V9.328zm-12.543 1.038c0-1.098-.31-2.564-.613-3.392-.322-.88-1.371-2.137-1.478-2.532h4.032c2.542 0 5.526 2.307 5.526 4.739v1.333c0 3.234-10.752 10.88-10.752 12.29 0 .02 8.194 8.348 8.996 9.144 1.555 1.54 3.001 2.973 4.554 4.515.868.86 3.859 3.798 4.368 4.554H36.244c1.011-1.5 2.09-2.796 2.09-5.331v-.74c0-2.98-2.237-5.188-3.768-6.778-1.027-1.068-4.315-4.782-5.192-5.364 2.427-3.593 8.66-6.189 8.66-12.143v-.295zM18.92 7.552c0-1.627 2.019-3.11 3.883-3.11h4.032c2.95 0 5.675 2.638 5.675 5.479v.593c0 4.69-7.608 8.961-9.856 12.29.688 1.019 4.112 4.457 5.19 5.515 1.365 1.342 4.217 3.921 4.217 6.33v1.185c0 2.295-2.792 5.183-4.927 5.183h-4.928c-1.492 0-3.286-1.652-3.286-2.962V7.552z"/>
        </g>
    </g>
</svg>
