<?xml version="1.0" encoding="UTF-8"?>
<svg width="175px" height="96px" viewBox="0 0 175 96" version="1.1" xmlns="http://www.w3.org/2000/svg" xmlns:xlink="http://www.w3.org/1999/xlink">
    <!-- Generator: Sketch 48.2 (47327) - http://www.bohemiancoding.com/sketch -->
    <title>client logo 6</title>
    <desc>Created with Sketch.</desc>
    <defs></defs>
    <g id="01-t-home" stroke="none" stroke-width="1" fill="none" fill-rule="evenodd" transform="translate(-512.000000, -838.000000)">
        <g id="Hero">
            <g id="clients-+-partners" transform="translate(82.000000, 702.000000)">
                <g id="client-logo-6" transform="translate(430.000000, 136.000000)">
                    <rect id="bound-4" opacity="0" fill="#FFFFFF" x="0" y="0" width="175" height="96"></rect>
                    <g id="Logo/Clients/microsoft-default" transform="translate(0.000000, 29.000000)" fill="#59A9FF">
                        <g id="microsoft">
                            <path d="M174.957012,17.1667149 L174.957012,14.0407421 L171.136122,14.0407421 L171.136122,9.18104072 L171.007495,9.22127602 L167.418641,10.3368597 L167.347897,10.3586968 L167.347897,14.040914 L161.683414,14.040914 L161.683414,11.9896018 C161.683414,11.0344434 161.893617,10.3035023 162.30793,9.8160362 C162.719367,9.33441629 163.307834,9.08956561 164.058438,9.08956561 C164.597993,9.08956561 165.156673,9.21869683 165.718907,9.47334842 L165.859889,9.53731222 L165.859889,6.24523982 L165.793544,6.22047964 C165.269052,6.02893213 164.555682,5.93247059 163.671373,5.93247059 C162.556891,5.93247059 161.544294,6.17886878 160.66117,6.66719457 C159.777539,7.15620814 159.082447,7.85430769 158.595527,8.7418914 C158.1103,9.62844344 157.864047,10.6523801 157.864047,11.7855023 L157.864047,14.0407421 L155.203506,14.0407421 L155.203506,17.1667149 L157.864047,17.1667149 L157.864047,30.3358643 L161.683414,30.3358643 L161.683414,17.1667149 L167.347897,17.1667149 L167.347897,25.5354842 C167.347897,28.9821357 168.948114,30.7287602 172.104038,30.7287602 C172.622606,30.7287602 173.168424,30.6670317 173.72575,30.5461538 C174.293061,30.422009 174.679449,30.2980362 174.906915,30.165638 L174.957181,30.1353756 L174.957181,26.9805158 L174.801813,27.0848869 C174.594487,27.2251946 174.336388,27.3398824 174.033777,27.4251674 C173.729811,27.512 173.475943,27.5555023 173.279279,27.5555023 C172.540015,27.5555023 171.993013,27.3531222 171.653675,26.9536923 C171.310445,26.5506516 171.136291,25.8458462 171.136291,24.8599095 L171.136291,17.1667149 L174.957012,17.1667149 Z M146.674202,27.5560181 C145.287911,27.5560181 144.194923,27.0890136 143.424686,26.1691041 C142.64971,25.244552 142.25706,23.9264163 142.25706,22.2516652 C142.25706,20.5237828 142.64971,19.1714299 143.425024,18.230543 C144.195769,17.2958462 145.278264,16.821448 146.643061,16.821448 C147.967408,16.821448 149.021639,17.2745249 149.776813,18.1688145 C150.535711,19.0677466 150.920914,20.409267 150.920914,22.157267 C150.920914,23.9267602 150.558728,25.285991 149.844512,26.1952398 C149.135203,27.0976109 148.068617,27.5560181 146.674202,27.5560181 Z M146.843956,13.64819 C144.199154,13.64819 142.098477,14.4355294 140.600653,15.988371 C139.103844,17.5413846 138.344947,19.6905339 138.344947,22.3766697 C138.344947,24.928 139.085735,26.9801719 140.547002,28.4752398 C142.008269,29.9708235 143.996905,30.7284163 146.457229,30.7284163 C149.020962,30.7284163 151.079836,29.9300724 152.576983,28.3557376 C154.07396,26.7831222 154.83235,24.6542624 154.83235,22.0308869 C154.83235,19.4396652 154.120672,17.37219 152.716441,15.887095 C151.311533,14.4013122 149.335421,13.64819 146.843956,13.64819 Z M132.186944,13.64819 C130.387863,13.64819 128.899686,14.1157104 127.762863,15.0375113 C126.619101,15.9648145 126.038926,17.1809864 126.038926,18.6526697 C126.038926,19.4176561 126.164168,20.0971855 126.41059,20.6735475 C126.658535,21.2518009 127.042215,21.7609321 127.551983,22.1882172 C128.057858,22.6120633 128.838757,23.0560271 129.873525,23.5077285 C130.743448,23.8713937 131.392166,24.1790045 131.804279,24.421448 C132.207084,24.6590769 132.49294,24.8979095 132.6544,25.130552 C132.811291,25.3582081 132.890837,25.6697738 132.890837,26.0542443 C132.890837,27.1490226 132.083873,27.6817104 130.423404,27.6817104 C129.807519,27.6817104 129.104981,27.5510317 128.335421,27.293457 C127.571328,27.0397767 126.850157,26.6682773 126.197171,26.1919729 L126.038588,26.0764253 L126.038588,29.8122896 L126.096809,29.8398009 C126.63721,30.0932489 127.318593,30.3069774 128.121663,30.4751403 C128.923211,30.6434751 129.651475,30.7291041 130.284115,30.7291041 C132.236364,30.7291041 133.808486,30.2593484 134.955633,29.3320452 C136.110058,28.3983801 136.69514,27.1534932 136.69514,25.630914 C136.69514,24.5325249 136.380174,23.5906063 135.759381,22.8309502 C135.142819,22.0774842 134.072679,21.3857466 132.580102,20.7743077 C131.390982,20.2894208 130.629207,19.8868959 130.314918,19.5779095 C130.011968,19.2794118 129.858124,18.8572851 129.858124,18.3227059 C129.858124,17.8488235 130.048017,17.4691674 130.43779,17.1617285 C130.830609,16.8527421 131.377442,16.6955837 132.063225,16.6955837 C132.699589,16.6955837 133.350677,16.7977195 133.998211,16.9978643 C134.645237,17.198009 135.213564,17.4660724 135.687959,17.7939729 L135.844004,17.9022986 L135.844004,14.3584977 L135.784091,14.332362 C135.346422,14.1416742 134.769294,13.9784977 134.068279,13.8460995 C133.370479,13.7145611 132.7375,13.64819 132.186944,13.64819 Z M116.082036,27.5560181 C114.696083,27.5560181 113.602756,27.0890136 112.832689,26.1691041 C112.057544,25.244552 111.665571,23.9267602 111.665571,22.2516652 C111.665571,20.5237828 112.058051,19.1714299 112.833535,18.230543 C113.603603,17.2958462 114.685928,16.821448 116.051402,16.821448 C117.375242,16.821448 118.429473,17.2745249 119.184816,18.1688145 C119.943883,19.0677466 120.328917,20.409267 120.328917,22.157267 C120.328917,23.9267602 119.966562,25.285991 119.252345,26.1952398 C118.543037,27.0976109 117.476958,27.5560181 116.082036,27.5560181 Z M116.252297,13.64819 C113.606818,13.64819 111.505972,14.4355294 110.008994,15.988371 C108.512186,17.5413846 107.75278,19.6905339 107.75278,22.3766697 C107.75278,24.9290317 108.494076,26.9801719 109.955343,28.4752398 C111.41661,29.9708235 113.405077,30.7284163 115.865401,30.7284163 C118.428796,30.7284163 120.488177,29.9300724 121.985324,28.3557376 C123.481963,26.7831222 124.240691,24.6542624 124.240691,22.0308869 C124.240691,19.4396652 123.528844,17.37219 122.124275,15.887095 C120.719028,14.4013122 118.743254,13.64819 116.252297,13.64819 Z M101.955102,16.8627149 L101.955102,14.0407421 L98.1822776,14.0407421 L98.1822776,30.3355204 L101.955102,30.3355204 L101.955102,22.0001086 C101.955102,20.5827602 102.271422,19.4183439 102.8956,18.5388416 C103.511823,17.6698281 104.333003,17.2294751 105.335614,17.2294751 C105.675459,17.2294751 106.056939,17.2863891 106.470068,17.3990136 C106.878965,17.5109502 107.175145,17.6325158 107.349807,17.7604434 L107.50839,17.8771946 L107.50839,14.0128869 L107.447292,13.9862353 C107.095938,13.8345792 106.598864,13.7580633 105.969947,13.7580633 C105.021833,13.7580633 104.173404,14.0675656 103.446663,14.6769412 C102.808777,15.212552 102.347751,15.9469321 101.995213,16.8627149 L101.955102,16.8627149 Z M91.4258221,13.64819 C89.6949468,13.64819 88.151088,14.025267 86.837911,14.7685882 C85.5220261,15.513629 84.504352,16.5772851 83.8119681,17.92981 C83.1226306,19.2790679 82.7726306,20.8551222 82.7726306,22.6127511 C82.7726306,24.1523529 83.1119681,25.5652308 83.7826886,26.8104615 C84.4537476,28.0577557 85.4035542,29.0335475 86.6058752,29.7103258 C87.8065039,30.3862443 89.1941489,30.7289321 90.7305609,30.7289321 C92.5235493,30.7289321 94.0543762,30.3647511 95.2817456,29.6465339 L95.3313346,29.6176471 L95.3313346,26.106 L95.1727515,26.2236109 C94.6167795,26.6350769 93.9954787,26.9634932 93.3269584,27.2000905 C92.6601306,27.4365158 92.0522002,27.5560181 91.5190764,27.5560181 C90.0386847,27.5560181 88.8502418,27.0854027 87.9875967,26.1575837 C87.1230899,25.2285611 86.6847437,23.924009 86.6847437,22.2824434 C86.6847437,20.6305611 87.1418762,19.2924796 88.0427708,18.3051674 C88.9409574,17.3207783 90.1316006,16.821448 91.5813588,16.821448 C92.8214217,16.821448 94.0298356,17.2480452 95.1730899,18.0905792 L95.3313346,18.2073303 L95.3313346,14.5072308 L95.2802224,14.478 C94.85,14.2333213 94.2632253,14.0312851 93.5347921,13.8780814 C92.8094052,13.7252217 92.0999275,13.64819 91.4258221,13.64819 Z M80.1742021,14.040914 L76.4013781,14.040914 L76.4013781,30.3355204 L80.1742021,30.3355204 L80.1742021,14.040914 Z M78.3263781,7.09929412 C77.7054159,7.09929412 77.1638298,7.3140543 76.718883,7.73961991 C76.2720745,8.16638914 76.0454545,8.70371946 76.0454545,9.3378552 C76.0454545,9.9620181 76.2693665,10.4895475 76.7119439,10.9049683 C77.1516441,11.3191855 77.6949226,11.5291312 78.3265474,11.5291312 C78.9580029,11.5291312 79.5033124,11.3191855 79.9482592,10.9056561 C80.3960832,10.4895475 80.6232108,9.96219005 80.6232108,9.3378552 C80.6232108,8.72590045 80.402176,8.1940724 79.966707,7.75681448 C79.5315764,7.32041629 78.9794971,7.09929412 78.3263781,7.09929412 Z M68.9129352,12.8386697 L68.9129352,30.3355204 L72.7632737,30.3355204 L72.7632737,7.5981086 L67.434236,7.5981086 L60.6606867,24.4867873 L54.0873549,7.5981086 L48.5413443,7.5981086 L48.5413443,30.3355204 L52.159647,30.3353484 L52.159647,12.8369502 L52.2838733,12.8369502 L59.2251451,30.3355204 L61.9557544,30.3355204 L68.7887089,12.8386697 L68.9129352,12.8386697 Z" id="Shape" fill-rule="nonzero"></path>
                            <polygon id="Shape" fill-rule="nonzero" points="17.7484526 18.0316018 0 18.0316018 0 0 17.7484526 0"></polygon>
                            <polygon id="Shape" fill-rule="nonzero" points="37.3447292 18.0316018 19.5966151 18.0316018 19.5966151 0 37.3447292 0"></polygon>
                            <polygon id="Shape" fill-rule="nonzero" points="17.7479449 37.9475566 0 37.9475566 0 19.9161267 17.7479449 19.9161267"></polygon>
                            <polygon id="Shape" fill-rule="nonzero" points="37.3447292 37.9475566 19.5966151 37.9475566 19.5966151 19.9161267 37.3447292 19.9161267"></polygon>
                        </g>
                    </g>
                </g>
            </g>
        </g>
    </g>
</svg>