<?xml version="1.0" encoding="UTF-8"?>
<svg width="175px" height="96px" viewBox="0 0 175 96" version="1.1" xmlns="http://www.w3.org/2000/svg" xmlns:xlink="http://www.w3.org/1999/xlink">
    <!-- Generator: Sketch 48.2 (47327) - http://www.bohemiancoding.com/sketch -->
    <title>client logo 2</title>
    <desc>Created with Sketch.</desc>
    <defs></defs>
    <g id="01-t-home" stroke="none" stroke-width="1" fill="none" fill-rule="evenodd" transform="translate(-297.000000, -702.000000)">
        <g id="Hero">
            <g id="clients-+-partners" transform="translate(82.000000, 702.000000)">
                <g id="client-logo-2" transform="translate(215.000000, 0.000000)">
                    <rect id="bound-3" opacity="0" fill="#FFFFFF" x="0" y="0" width="175" height="96"></rect>
                    <g id="Logo/Clients/unilever-default" transform="translate(50.000000, 8.000000)" fill="#59A9FF" fill-rule="nonzero">
                        <path d="M60.4384443,16.2807453 C60.7322799,18.362236 63.9942662,21.167205 64.8773142,21.1016149 C65.4680676,21.1016149 65.6930676,18.3840994 65.6930676,16.2807453 C65.6930676,15.0752795 65.7624169,14.1326708 65.1048827,13.9135404 C64.0625881,15.9522981 61.3214923,16.3686957 60.4384443,16.2807453 Z M60.6192662,15.36 C62.9740608,15.36 65.1279991,13.5418634 65.1279991,11.9418634 C65.1279991,11.1965217 64.7648142,10.5838509 63.8355334,10.4745342 C63.9942662,10.6718012 64.0620745,10.8253416 64.0620745,11.1746584 C64.0620745,12.3806211 62.1608758,13.717764 60.0978621,13.717764 C59.3494032,13.717764 59.1238895,14.2206211 59.1238895,14.4834783 C59.1244032,15.0971429 59.7351909,15.36 60.6192662,15.36 Z M60.1204649,12.884472 C59.8045402,12.884472 59.3499169,12.884472 59.1023142,12.4024845 C58.8968347,12.0079503 58.9656703,11.3724224 58.5803964,11.087205 C58.9656703,11.1965217 59.3730334,11.1965217 59.6899854,11.1965217 C60.7101909,11.1965217 61.6846772,10.5182609 62.4310813,10.5182609 C62.9298827,10.5182609 63.0870745,10.8253416 63.0870745,11.1309317 C63.0870745,12.0949068 61.0733758,12.884472 60.1204649,12.884472 Z M9.44717719,30.0626087 C10.216184,30.0626087 10.0564238,25.5050932 11.3031703,25.5050932 C11.5985471,25.5050932 11.688958,25.7903106 11.688958,26.1401242 C11.688958,27.1701863 11.1675539,28.682236 11.1675539,29.5150311 C11.1675539,29.9309317 11.2810813,30.0626087 11.484506,30.0626087 C12.0290265,30.0626087 12.9798827,25.0449689 13.9091635,25.0449689 C14.2035128,25.0449689 14.3391292,25.3296894 14.3391292,25.6149068 C14.3391292,26.6658385 12.9572799,29.6899379 12.9572799,30.5436025 C12.9572799,30.6752795 13.0029991,30.7845963 13.1154991,30.7845963 C13.6826224,30.7845963 14.8158416,28.4183851 15.1779991,27.2357764 C15.3814238,26.6221118 15.6531703,26.2936646 15.9018005,26.2936646 C16.1283416,26.2936646 16.3322799,26.5351553 16.3322799,27.0385093 C16.3322799,28.2216149 15.2006018,31.0047205 14.2029991,32.8670807 C13.4324512,34.3125466 12.2324512,36.3950311 12.2324512,37.5567702 C12.2324512,38.1480745 12.3464923,38.7612422 13.2285128,39.5065839 C11.7788553,39.4191304 11.1906703,39.2879503 10.6461498,38.1922981 C8.22200596,42.8581366 15.1091635,42.4 12.7533416,46.5406211 C12.3238895,45.7957764 8.92525938,45.0285714 8.92525938,40.6906832 C8.92525938,36.9426087 12.3238895,34.7518012 12.3238895,33.1960248 C12.3238895,32.889441 12.2098484,32.6265839 11.9160128,32.386087 C11.1675539,31.7724224 11.1454649,31.2680745 10.5562525,31.2680745 C10.1262868,31.2680745 9.60539637,32.2325466 10.1483758,33.0862112 C10.3297114,33.3709317 10.488958,33.5468323 10.488958,33.8101863 C10.488958,34.4238509 9.49289637,36.0665839 8.79015664,36.0665839 C8.08793061,36.0665839 7.54392377,34.3801242 7.54392377,31.6631056 C7.54392377,29.2521739 8.11001966,26.8208696 8.81275938,26.8208696 C9.01618404,26.8208696 9.08450596,26.9520497 9.08450596,27.1274534 C9.08450596,27.4121739 8.9935813,27.9806211 8.9935813,28.9455901 C8.9930676,29.9746584 9.24272514,30.0626087 9.44717719,30.0626087 Z M44.1495745,8.52273292 C44.5127594,8.52273292 44.5810813,9.37838509 44.6483758,9.88223602 C44.6935813,10.1450932 44.7387868,10.1674534 44.8528279,10.1674534 C45.1245745,10.1674534 45.5550539,9.15875776 45.8483758,9.15875776 C46.2809101,9.15875776 47.4357046,10.3209938 49.3600197,10.3209938 C52.1011155,10.3209938 54.684506,8.45763975 54.684506,5.17118012 C54.684506,1.99354037 52.3728621,0.13068323 49.1791977,0.13068323 C47.6612183,0.13068323 46.5516292,0.853664596 45.9624169,0.853664596 C45.6002594,0.87552795 45.0562525,0 44.7834786,0 C44.6699512,0 44.5579649,0.218136646 44.5579649,0.590807453 C44.5579649,0.831801242 44.5579649,1.59950311 44.2851909,1.59950311 C43.7422114,1.59950311 41.6355334,0.0864596273 41.6355334,0.635031056 C41.6355334,1.13937888 43.0399854,2.67378882 43.0399854,3.06732919 C43.0399854,3.46236025 41.6586498,3.83453416 41.6586498,4.0973913 C41.6586498,4.57987578 43.1314238,4.66732919 43.1314238,5.28099379 C43.1314238,5.8936646 41.5893005,6.37614907 41.5893005,6.83677019 C41.5893005,7.20944099 43.1314238,6.94608696 43.1314238,7.40670807 C43.1314238,7.8668323 41.9987183,9.39975155 41.9987183,9.83850932 C41.9987183,9.94881988 42.0208073,9.94881988 42.1122457,9.94881988 C42.541184,9.94832298 43.8336498,8.52273292 44.1495745,8.52273292 Z M15.0870745,40.9093168 C15.063958,40.4710559 15.3814238,40.0541615 15.856595,40.0104348 C16.3322799,39.9443478 16.7632731,40.2951553 16.8079649,40.7552795 C16.8541977,41.2159006 16.5136155,41.6109317 16.0374169,41.6760248 C15.5627594,41.698882 15.1327936,41.369441 15.0870745,40.9093168 Z M12.5730334,41.5885714 C12.663958,42.333913 13.3877594,42.9018634 14.2035128,42.8149068 C14.4978621,42.7925466 14.7706361,42.7050932 14.9509443,42.5947826 C15.1327936,43.2968944 15.6978621,43.7351553 16.5362183,43.647205 C17.3745745,43.5821118 17.9643005,42.9018634 17.8733758,42.0929193 C17.8733758,41.8742857 17.8055676,41.7426087 17.7377594,41.5885714 L17.8964923,41.5667081 C18.6886155,41.4792547 19.2999169,40.7776398 19.231595,40.0104348 C19.1416977,39.2208696 18.3947799,38.6514286 17.624232,38.7170186 C17.329369,38.7831056 17.0802251,38.8700621 16.8994032,39.0236025 C16.6949512,38.367205 16.1057388,37.8409938 15.2684101,37.9289441 C14.4752594,37.9726708 13.8629306,38.7170186 13.9538553,39.5274534 C13.9538553,39.637764 13.9985471,39.8131677 14.0673827,39.9662112 L13.9086498,39.9875776 C13.1154991,40.0973913 12.5047114,40.733913 12.5730334,41.5885714 Z M63.0428964,1.40223602 C63.0410893,1.54803686 63.1001341,1.68838383 63.2066768,1.79153475 C63.3132194,1.89468567 63.4582591,1.9519263 63.6089923,1.95031056 C63.9259443,1.95031056 64.1761155,1.70981366 64.1761155,1.40223602 C64.1761155,1.09515528 63.926458,0.853664596 63.6089923,0.853664596 C63.2910128,0.853664596 63.0428964,1.09515528 63.0428964,1.40223602 Z M50.4033416,22.1744099 C50.4033416,22.6787578 50.833821,23.0951553 51.353684,23.0951553 C51.8780266,23.0921678 52.3022484,22.6816017 52.3050539,22.1744099 C52.3014145,21.6676361 51.8775962,21.2576818 51.353684,21.2541615 C50.833821,21.2541615 50.4033416,21.6715528 50.4033416,22.1744099 Z M50.4706361,24.9346584 C50.470269,25.3024866 50.6728002,25.6425633 51.0019381,25.8267849 C51.331076,26.0110065 51.7368167,26.0113854 52.0663217,25.8277787 C52.3958266,25.6441721 52.5990362,25.3044742 52.5994032,24.936646 C52.5999706,24.3680328 52.1238898,23.9066358 51.5360471,23.906087 C50.9482043,23.9055381 50.4712035,24.3660452 50.4706361,24.9346584 Z M47.2086498,26.7975155 C47.2100639,27.6320303 47.9090979,28.3081974 48.7718347,28.3095652 C49.6339363,28.3071067 50.3320174,27.6314173 50.3339923,26.7975155 C50.332015,25.9637759 49.6337702,25.2883722 48.7718347,25.2864596 C47.9092642,25.2872803 47.2100653,25.9631623 47.2086498,26.7975155 Z M48.0464923,23.7088199 C48.0464923,24.1918012 48.4538553,24.5858385 48.9526566,24.5858385 C49.451458,24.5858385 49.8598484,24.1918012 49.8598484,23.7088199 C49.8598484,23.2268323 49.451458,22.8322981 48.9526566,22.8322981 C48.4538553,22.8322981 48.0464923,23.2268323 48.0464923,23.7088199 Z M45.0778279,25.4613665 C45.0778279,25.9457305 45.4837615,26.3383851 45.984506,26.3383851 C46.4852504,26.3383851 46.891184,25.9457305 46.891184,25.4613665 C46.8747253,24.9884892 46.4736522,24.6133775 45.984506,24.6133775 C45.4953597,24.6133775 45.0942866,24.9884892 45.0778279,25.4613665 Z M47.4125881,20.3344099 C47.4176303,21.1068952 48.063638,21.7319919 48.8622457,21.7371429 C49.6607377,21.7317244 50.3065845,21.1067834 50.3119032,20.3344099 C50.306858,19.5620068 49.6607703,18.9370541 48.8622457,18.9321739 C48.0637211,18.9370541 47.4176334,19.5620068 47.4125881,20.3344099 Z M49.1119032,17.6387578 C49.1039933,17.9410372 49.2660915,18.2237144 49.5353901,18.3772616 C49.8046888,18.5308087 50.1388716,18.5310981 50.4084541,18.3780176 C50.6780365,18.2249371 50.8406577,17.9425411 50.8333073,17.6402484 C50.8223193,17.1883525 50.4406646,16.8274402 49.9733572,16.8270356 C49.5060499,16.8266309 49.1237277,17.1868816 49.1119032,17.6387578 Z M45.0105334,19.7421118 C45.0105334,20.2023262 45.3962278,20.5754037 45.872006,20.5754037 C46.3477841,20.5754037 46.7334786,20.2023262 46.7334786,19.7421118 C46.7334786,19.2814907 46.3482046,18.9103106 45.8714923,18.9103106 C45.3958073,18.9103106 45.0105334,19.2814907 45.0105334,19.7421118 Z M44.897006,22.5908075 C44.897006,23.3361491 45.508821,23.9284472 46.2803964,23.9284472 C46.6475584,23.9303147 47.0002113,23.7899209 47.2596445,23.5386008 C47.5190777,23.2872808 47.6636949,22.9459556 47.6612183,22.5908075 C47.6635584,22.2357903 47.5188641,21.8946436 47.2594307,21.6435102 C46.9999973,21.3923767 46.6474213,21.252162 46.2803964,21.2541615 C45.9130119,21.2517646 45.559934,21.3917714 45.3000033,21.6429191 C45.0400725,21.8940668 44.8949375,22.2354385 44.897006,22.5908075 Z M42.0439238,23.9940373 C42.0439238,24.6737888 42.6326224,25.2427329 43.3353621,25.2427329 C44.0365608,25.2427329 44.6257731,24.6737888 44.6257731,23.9940373 C44.6257731,23.3147826 44.0370745,22.7448447 43.3353621,22.7448447 C42.6326224,22.7448447 42.0439238,23.3147826 42.0439238,23.9940373 Z M42.8134443,20.9043478 C42.8134443,21.3863354 43.2218347,21.7813665 43.7206361,21.7813665 C44.2201931,21.7791843 44.624367,21.3875662 44.6257731,20.9043478 C44.6257731,20.4218634 44.2184101,20.0273292 43.7206361,20.0273292 C43.2202766,20.028421 42.8148565,20.4203569 42.8134443,20.9043478 Z M39.8011155,53.2034783 C39.8011155,53.6834783 40.2084786,54.0775155 40.7072799,54.0775155 C41.2040265,54.0775155 41.6124169,53.6834783 41.6124169,53.2034783 C41.6115746,52.719872 41.2072366,52.3276509 40.7072799,52.3254658 C40.2084786,52.3254658 39.8011155,52.7195031 39.8011155,53.2034783 Z M15.4276566,16.8934161 C15.4276566,17.3759006 15.834506,17.7704348 16.3322799,17.7704348 C16.8326394,17.7693429 17.2380595,17.3774071 17.2394717,16.8934161 C17.2372142,16.4100075 16.8320405,16.0189757 16.3322799,16.0178882 C15.834506,16.0178882 15.4276566,16.4124224 15.4276566,16.8934161 Z M14.2487183,14.9217391 C14.2501305,15.4057301 14.6555506,15.7976659 15.1559101,15.7987578 C15.6531703,15.7987578 16.0600197,15.4042236 16.0600197,14.9217391 C16.0600197,14.4397516 15.6531703,14.0447205 15.1559101,14.0447205 C14.6555506,14.0458123 14.2501305,14.4377482 14.2487183,14.9217391 Z M15.2232046,36.4824845 C16.1740608,36.4824845 16.9677251,35.8027329 16.9677251,34.291677 L16.9677251,32.0571429 C16.9677251,31.2019876 17.034506,30.2370186 17.624232,29.5587578 C17.5564238,29.8439752 17.5564238,30.150559 17.5564238,30.4342857 C17.5564238,32.3195031 18.6434101,33.6124224 18.6434101,35.4320497 C18.6434101,36.1103106 18.4399854,36.4829814 17.8964923,36.4829814 C17.3745745,36.4829814 17.4202936,36.0228571 17.3072799,36.0228571 C17.216869,36.0228571 17.0807388,36.3075776 17.0807388,36.6136646 C17.0807388,37.0747826 17.4208073,37.797764 18.3726909,37.797764 C19.1874169,37.797764 19.8444375,37.0747826 19.8444375,36.263354 C19.8444375,34.2921739 18.2601909,32.1013665 18.2601909,29.9975155 C18.2601909,29.0767702 18.5072799,28.4636025 18.711732,27.9806211 C18.711732,32.3423602 22.5403279,35.52 22.5403279,37.3381366 C22.5403279,37.7545342 22.2233758,38.0834783 21.7471772,38.0834783 C21.2273142,38.0834783 20.9776566,37.6889441 20.9776566,37.3818634 C20.9776566,37.2278261 20.9550539,37.1845963 20.8872457,37.1845963 C20.7511155,37.1845963 20.3427251,37.6228571 20.3427251,38.192795 C20.3427251,38.9147826 20.9545402,39.7918012 22.0872457,39.7918012 C23.378684,39.7918012 24.0819375,38.7398758 24.0819375,37.797764 C24.0819375,35.4976398 19.4370745,32.0124224 19.4370745,28.2877019 C19.4370745,27.651677 19.5500881,26.6226087 20.0262868,25.8340373 C17.0350197,27.6954037 16.1067662,30.1729193 16.1067662,32.3418634 C16.1067662,34.2255901 16.0384443,35.1681988 15.0423827,35.1681988 C14.5214923,35.1681988 14.3858758,34.7080745 14.2045402,34.7080745 C14.0684101,34.7080745 14.0000881,35.1031056 14.0000881,35.2124224 C13.9985471,36.0223602 14.6108758,36.4824845 15.2232046,36.4824845 Z M54.4805676,14.5932919 C55.4766292,14.5932919 56.2250881,14.1545342 56.2250881,13.891677 C56.2250881,13.8037267 56.0884443,13.7396273 55.7935813,13.7396273 C55.4997457,13.7396273 54.909506,13.717764 53.7999169,13.5418634 C52.8475197,13.3888199 52.1221772,13.0385093 51.8504306,13.0385093 C51.7589923,13.0385093 51.7148142,13.0817391 51.7148142,13.1473292 C51.7158416,13.7172671 52.8033416,14.5932919 54.4805676,14.5932919 Z M49.5423827,11.8101863 C49.8362183,11.6347826 51.1035128,11.9195031 52.7591635,11.1304348 C52.9384985,11.0326151 53.1404511,10.9801468 53.346321,10.9778882 C54.1410128,10.9778882 53.9360471,11.853913 54.6624169,11.853913 C55.2285128,11.853913 55.9538553,11.3937888 56.3843347,11.3937888 C57.0613895,11.3937888 58.0369032,13.453913 58.0369032,14.4178882 C58.0369032,15.5349068 56.2939238,16.2146584 54.2314238,16.2146584 C51.2175539,16.2146584 49.4062525,13.6725466 49.4062525,12.0288199 C49.4062525,11.8976398 49.4740608,11.853913 49.5423827,11.8101863 Z M15.6973484,44.743354 C14.9504306,44.9192547 13.7499169,46.0586335 13.7499169,47.8568944 C13.7499169,50.0019876 16.1283416,53.3122981 20.0478621,53.3122981 C23.3555676,53.3122981 24.1697799,51.0981366 24.1697799,49.6074534 C24.1697799,46.3001242 22.0631018,43.9761491 19.3225197,43.9761491 C17.8271429,43.9761491 16.4904991,45.0285714 16.4904991,46.5843478 C16.4904991,48.0313043 17.6232046,50.1997516 20.319095,50.1997516 C21.5869032,50.1997516 22.3348484,49.322236 22.3348484,48.3140373 C22.3348484,47.3301863 21.4050539,45.9706832 20.0468347,45.9706832 C19.6384443,45.9706832 19.344095,46.2335404 19.344095,46.6504348 C19.344095,47.1761491 20.0925539,47.7023602 21.021321,47.7023602 C21.2478621,47.7023602 21.4276566,47.6586335 21.519095,47.6144099 C21.5643005,47.6804969 21.5869032,47.7903106 21.5869032,47.877764 C21.5869032,48.3801242 21.0896429,48.6867081 20.319095,48.6867081 C19.1632731,48.6867081 18.053684,47.8559006 18.053684,46.5401242 C18.053684,45.7510559 18.7548827,45.1806211 19.7756018,45.1806211 C21.7903279,45.1806211 22.991869,46.9132919 22.991869,48.6424845 C22.991869,50.1997516 22.1077936,51.0976398 20.2964923,51.0976398 C16.6723484,51.0981366 14.9057388,47.943354 15.6973484,44.743354 Z M13.4329649,20.9262112 C12.9115608,21.0578882 11.8250881,21.6715528 11.8250881,22.7662112 C11.8250881,23.5557764 12.4589923,24.0601242 13.2516292,24.0601242 C13.659506,24.0601242 13.954369,23.971677 14.1351909,23.8404969 C13.5007731,23.2491925 13.274232,22.5913043 13.274232,21.9349068 C13.274232,21.4742857 13.3420402,21.1890683 13.4329649,20.9262112 Z M7.88296486,21.232795 C7.86036212,21.3421118 7.86036212,21.4519255 7.86036212,21.5612422 C7.86036212,22.5908075 8.42697171,23.1607453 9.17543061,23.1607453 C9.74101281,23.1607453 10.3980334,22.8318012 10.986732,22.108323 C10.7174367,22.15279 10.4446818,22.1747345 10.1714923,22.173913 C9.3326224,22.1744099 8.42697171,21.9562733 7.88296486,21.232795 Z M7.09084157,23.1831056 C7.09084157,24.8481988 7.61019089,25.6367702 8.54049911,25.6367702 C9.26532787,25.6367702 10.2393005,25.1329193 11.3951224,24.169441 C10.5110471,24.3667081 9.83245116,24.4978882 9.22063609,24.4978882 C8.40436897,24.4978882 7.76943746,24.1913043 7.09084157,23.1831056 Z M41.5672114,57.5845963 C42.6547114,57.5845963 42.5863895,57.496646 42.9274854,57.496646 C43.2675539,57.496646 43.2886155,57.693913 43.2886155,57.8250932 C43.2886155,58.3080745 42.1779991,58.898882 40.2084786,58.898882 C39.0516292,58.898882 38.3504306,58.3080745 38.1475197,57.6501863 C37.0132731,58.3513043 35.2928964,58.9868323 33.5951224,58.9868323 C28.9507731,58.9868323 27.7718347,57.0360248 26.3226909,56.4 C25.2125881,55.9180124 23.5137868,56.8601242 21.1358758,54.2961491 C21.4518005,54.3617391 21.8822799,54.3836025 22.2228621,54.3836025 C24.3069375,54.3836025 25.4170402,53.3992547 25.4170402,51.8216149 C25.4170402,51.6243478 25.3944375,51.4042236 25.3718347,51.2079503 C26.0067662,51.4484472 27.4559101,52.5013665 27.7949512,54.362236 C27.8406703,54.5813665 28.7694375,54.7786335 29.3591635,54.7786335 C30.1738895,54.7786335 31.216184,54.4496894 31.3749169,53.1582609 C34.0934101,52.9401242 35.9268005,51.3828571 36.3120745,49.4101863 C37.2865608,49.7172671 38.3951224,50.5719255 38.6678964,51.0106832 C39.0521429,50.8785093 39.5057388,50.8134161 40.0271429,50.8134161 C40.7524854,50.8134161 41.5672114,50.9450932 42.5416977,51.2303106 C42.5869032,50.9450932 42.6331361,50.5942857 43.086732,50.5942857 C43.7658416,50.5942857 43.584506,51.317764 43.8110471,51.7341615 C43.9245745,51.9532919 44.4901566,52.084472 44.4901566,52.5237267 C44.4901566,52.9406211 44.1269717,53.0931677 43.9019717,53.0931677 C43.8105334,53.0931677 43.6975197,53.0718012 43.6291977,53.0499379 C43.1766292,53.2039752 43.1535128,56.3572671 41.2502594,56.3572671 C39.8458073,56.3572671 38.554369,55.2397516 37.9898142,53.8370186 C37.8305676,53.4216149 37.4904991,53.1587578 37.1730334,53.1587578 C36.8098484,53.1587578 36.6069375,53.2258385 36.176458,53.6839752 C34.954369,54.9768944 32.9160128,56.0944099 30.401458,56.0944099 C29.6314238,56.0944099 29.0201224,56.0293168 28.8603621,56.0293168 C28.7699512,56.0293168 28.7699512,56.0511801 28.7699512,56.0730435 C28.7699512,56.2265839 29.5404991,56.8178882 31.2166977,56.8178882 C35.2029991,56.8178882 36.176458,54.6479503 36.8103621,54.6479503 C36.9023142,54.6479503 37.1735471,54.6479503 37.3322799,54.9987578 C38.2610471,57.1031056 40.2773142,57.5855901 41.5456361,57.5855901 L41.5672114,57.5855901 L41.5672114,57.5845963 Z M28.7011155,13.5418634 C30.1949512,13.5418634 30.8756018,14.790559 30.8756018,16.1932919 C30.8756018,16.8064596 30.6947799,17.7048447 30.4004306,17.7048447 C30.1055676,17.7048447 30.1507731,17.2004969 30.1055676,16.7398758 C30.0603621,16.1495652 29.9468347,16.0178882 29.7444375,16.0178882 C29.3591635,16.0178882 29.1100197,16.8934161 29.1100197,17.7048447 C29.1100197,18.2091925 29.1994032,18.7786335 29.6077936,18.7786335 C29.8333073,18.7786335 30.0377594,18.6688199 30.1738895,18.5381366 C30.0829649,19.5453416 29.3134443,20.4218634 28.2259443,20.4218634 C26.2317662,20.4218634 25.4843347,18.1649689 25.2577936,16.8501863 C24.058821,18.0775155 22.9476909,18.9759006 20.9540265,18.9759006 C19.0964923,18.9759006 18.2591635,17.661118 18.2591635,16.4124224 C18.2591635,16.0392547 18.3947799,15.0752795 18.8689238,15.0752795 C19.4360471,15.0752795 18.936732,16.8720497 20.0478621,16.8720497 C20.3196087,16.8720497 20.8178964,16.6529193 21.0901566,15.9304348 C21.2488895,15.4921739 21.3382731,15.0315528 21.3382731,14.6365217 C21.3382731,14.0447205 21.2031703,13.6730435 20.7495745,13.6730435 C20.3637868,13.6730435 19.8881018,13.957764 19.7298827,14.1103106 C20.2738895,12.5331677 21.5869032,11.722236 23.0370745,11.722236 C24.8268005,11.722236 25.778684,13.256646 25.778684,14.9654658 C25.778402,15.2151992 25.755541,15.4644303 25.7103621,15.7103106 C26.4824512,14.4829814 27.546321,13.5418634 28.7011155,13.5418634 Z M23.0154991,0.481490683 C23.0154991,0.349813665 22.3363895,0.218136646 21.406595,0.218136646 C19.9348484,0.218136646 20.1393005,1.40223602 19.006595,1.40223602 C17.828684,1.40223602 18.1230334,0.174906832 16.6281703,0.174906832 C15.7209786,0.174906832 14.8841635,0.328447205 14.8841635,0.525714286 C14.8841635,0.788571429 15.9480334,0.679254658 15.9480334,1.40273292 C15.9480334,2.16993789 13.6605334,2.38956522 13.6605334,2.84819876 C13.6605334,3.00173913 13.841869,3.06732919 14.0684101,3.06732919 C14.5666977,3.06732919 15.3603621,2.84819876 15.9249169,2.84819876 C16.2428964,2.84819876 16.5372457,2.91478261 16.5372457,3.19950311 C16.5372457,3.74757764 15.3151566,4.73341615 15.3151566,5.17217391 C15.3151566,5.30434783 15.428684,5.34807453 15.5416977,5.34807453 C15.9937525,5.34807453 16.7648142,4.22956522 17.4896429,4.22956522 C18.6901566,4.22956522 17.8980334,6.70608696 18.5535128,6.70608696 C19.2331361,6.70608696 18.9387868,4.27378882 19.9132731,4.27378882 C20.7064238,4.27378882 21.2961498,5.96074534 21.8391292,5.96074534 C21.974232,5.96074534 22.0877594,5.85142857 22.0877594,5.6973913 C22.0877594,5.23826087 21.4076224,4.29565217 21.4076224,3.68149068 C21.4076224,3.30881988 21.6798827,3.13341615 22.0425539,3.13341615 C22.563958,3.13341615 23.2666977,3.44049689 23.651458,3.44049689 C23.7875881,3.44049689 23.9232046,3.39677019 23.9232046,3.24322981 C23.9232046,2.71701863 21.9064238,2.14807453 21.9064238,1.46832298 C21.9053964,0.788074534 23.0154991,0.788074534 23.0154991,0.481490683 Z M55.296321,43.6258385 C54.8196087,43.6258385 52.1910128,47.0231056 50.4932388,47.0231056 C50.0858758,47.0231056 49.7458073,46.277764 49.7458073,45.708323 C49.7458073,45.4012422 49.949232,45.181118 50.6761155,45.0290683 C54.5709786,44.173913 53.7089923,41.3480745 57.0382731,41.3480745 C58.874232,41.3480745 60.9141292,42.5545342 60.9141292,45.270559 C60.9141292,48.1614907 56.6560813,51.7570186 56.0211498,51.7570186 C55.5002594,51.7570186 54.9336498,51.0330435 54.9336498,50.5510559 C54.9336498,50.3975155 55.0019717,50.2007453 55.4555676,50.0248447 C57.6285128,49.1910559 58.8747457,47.2645963 58.8747457,46.2782609 C58.8747457,46.0596273 58.7622457,45.84 58.4673827,45.84 C58.0810813,45.84 56.4295402,49.4762733 54.5946087,49.4762733 C53.324232,49.4762733 52.0333073,48.3587578 52.0333073,47.8345342 C52.0333073,46.9575155 55.703684,45.3351553 55.703684,44.1073292 C55.7026566,43.647205 55.4771429,43.6258385 55.296321,43.6258385 Z M57.7415265,42.2678261 C57.4235471,42.2678261 57.0834786,42.5098137 57.0834786,43.0991304 C57.0834786,43.7570186 57.6064238,44.1734161 57.9002594,44.3045963 C58.1010217,44.4144371 58.3266933,44.4746843 58.5572799,44.48 C59.2143005,44.48 59.7351909,44.3045963 59.7351909,43.7783851 C59.7351909,43.0991304 58.7160128,42.2678261 57.7415265,42.2678261 Z M28.3384443,2.71652174 C28.3384443,3.1110559 29.7665265,3.96621118 30.4225197,3.96621118 C30.8077936,3.96621118 30.921321,3.46186335 30.921321,2.93515528 C30.921321,2.27925466 30.6259443,2.25639752 30.0372457,2.25639752 C29.2913553,2.25639752 28.3384443,2.45416149 28.3384443,2.71652174 Z M30.6952936,7.05540373 C30.6952936,5.74012422 26.9812525,3.30782609 26.9812525,2.32298137 C26.9812525,2.27925466 26.9812525,2.25689441 27.0028279,2.2131677 C27.2750881,1.48968944 30.3552251,0.985341615 30.3552251,0.393540373 C30.3552251,0.108322981 29.8122457,0.108322981 29.5404991,0.108322981 C27.4327936,0.108322981 24.3526566,0.853664596 24.3526566,1.57763975 C24.3526566,2.32298137 27.1163553,4.14161491 27.1163553,5.04049689 C27.1163553,5.28099379 26.9586498,5.36944099 26.709506,5.36944099 C25.9394717,5.36944099 24.261732,4.47055901 23.4696087,4.47055901 C23.1069375,4.47055901 22.9718347,4.7110559 22.9718347,5.06186335 C22.9718347,6.11279503 24.261732,8.10782609 24.261732,8.69863354 C24.261732,8.7642236 24.2391292,8.85217391 24.1497457,8.85217391 C23.741869,8.85217391 21.8160128,6.66136646 21.1369032,6.66136646 C20.8877594,6.66136646 20.8646429,6.99031056 20.8646429,7.47180124 L20.8646429,8.21714286 C20.8646429,8.72049689 20.8420402,9.02708075 20.5928964,9.02708075 C20.003684,9.02708075 19.7314238,7.42807453 19.1653279,7.42807453 C18.5756018,7.42807453 18.4641292,10.2772671 17.8975197,10.2772671 C17.2404991,10.2772671 17.8060813,7.14285714 17.1711498,7.14285714 C16.4694375,7.14285714 15.6757731,9.22484472 15.1790265,9.22484472 C14.9971772,9.22484472 14.9519717,9.04944099 14.9519717,8.89540373 C14.9519717,8.26136646 15.3377594,7.23080745 15.3377594,6.61714286 C15.3377594,6.31006211 15.2468347,6.13515528 14.9745745,6.13515528 C14.2723484,6.13515528 12.7327936,7.23130435 12.1430676,7.23130435 C12.0526566,7.23130435 11.9396429,7.18757764 11.9396429,7.09913043 C11.9396429,6.57291925 14.4089923,4.90832298 14.4089923,4.16298137 C14.4089923,3.43950311 11.0103621,3.92149068 11.0103621,3.08869565 C11.0103621,2.38857143 13.4339923,1.66459627 13.4339923,0.941118012 C13.4339923,0.306086957 10.5567662,0.021863354 9.44820459,0.021863354 C8.11053335,0.021863354 7.38570459,0.174409938 7.38570459,0.547080745 C7.38570459,1.11652174 10.4211498,1.29242236 10.4211498,1.79627329 C10.4211498,2.27925466 7.27217719,3.57118012 7.27217719,4.31652174 C7.27217719,4.97341615 11.7125881,4.35925466 11.7125881,5.04 C11.7125881,5.78385093 7.83827308,9.0047205 7.83827308,10.0795031 C7.83827308,10.3209938 8.0201224,10.4303106 8.26823883,10.4303106 C9.44769089,10.4303106 12.5052251,8.26136646 13.3425539,8.26136646 C13.6369032,8.26136646 13.6600197,8.61068323 13.6600197,8.91726708 C13.6600197,9.48770186 13.456595,10.3637267 13.456595,10.9997516 C13.456595,11.5031056 13.5916977,11.8534161 14.0458073,11.8534161 C14.8836498,11.8534161 15.653684,10.4735404 16.2197799,10.4735404 C16.9456361,10.4735404 16.5141292,14.5262112 17.6026566,14.5262112 C18.5298827,14.5262112 18.9151566,10.1445963 19.5048827,10.1445963 C20.0946087,10.1445963 20.5702936,11.4146584 21.1137868,11.4146584 C21.7923827,11.4146584 21.4754306,9.20149068 22.2007731,9.20149068 C22.9934101,9.20149068 25.2583073,11.8310559 26.2779991,11.8310559 C26.5954649,11.8310559 26.7089923,11.5895652 26.7089923,11.2829814 C26.7089923,10.1227329 25.0327936,7.4931677 25.0327936,6.65987578 C25.0327936,6.44024845 25.1000881,6.37465839 25.3497457,6.37465839 C26.2327936,6.37465839 28.8156703,7.55875776 30.0382731,7.55875776 C30.4451224,7.55975155 30.6952936,7.34062112 30.6952936,7.05540373 Z M61.6173827,32.2757764 C61.9795402,31.1796273 62.4310813,30.4114286 63.1774854,29.2293168 C62.4310813,28.8571429 60.4615608,28.0680745 60.4615608,26.7756522 C60.4615608,25.2640994 62.4110471,24.0819876 62.8153279,24.0819876 C62.9971772,24.0819876 63.0428964,24.235528 63.0428964,24.5202484 C63.0428964,25.308323 62.656595,26.578882 62.656595,27.2576398 C62.656595,27.8703106 63.0649854,28.4626087 63.4261155,28.4626087 C63.8124169,28.4626087 64.8768005,27.1478261 64.8768005,25.8559006 C64.8768005,23.5334161 62.7696087,22.8322981 62.1156703,22.8322981 C61.5028279,22.8322981 60.3922114,23.7962733 57.7851909,23.7962733 C52.9153279,23.7962733 51.8062525,19.1284472 51.8062525,17.0906832 C51.8062525,17.0032298 51.8273142,16.9813665 51.8504306,16.9813665 C51.9649854,16.9813665 52.4401566,17.5508075 53.9802251,17.5508075 C54.7738895,17.5508075 55.499232,17.3540373 56.6550539,17.3540373 C59.372006,17.3540373 60.5740608,19.1736646 62.2507731,21.4961491 C63.2678964,22.1088199 65.6920402,23.0951553 65.6920402,25.877764 C65.6920402,28.3309317 62.9961498,29.6899379 62.341184,32.3190062 C63.3814238,32.2101863 63.9937525,30.4119255 65.0591635,30.4119255 C65.6031703,30.4119255 65.8518005,30.8293168 65.8518005,31.4862112 C65.8518005,32.451677 65.2857046,33.896646 64.1971772,34.795528 C64.2202936,34.7075776 64.2202936,34.597764 64.2202936,34.4670807 C64.2202936,33.8529193 63.9706361,32.9763975 63.2452936,32.9763975 C62.1156703,32.9763975 61.7524854,34.1595031 61.1170402,35.1458385 C60.4610471,32.9108075 59.5759443,30.8944099 57.9906703,29.6680745 C56.3833073,28.4183851 53.6180676,29.0981366 53.6180676,26.8198758 C53.6180676,26.2057143 54.0254306,25.3296894 54.0254306,24.6295652 C54.0254306,24.3890683 53.9802251,24.169441 53.8446087,23.9940373 C56.0196087,24.7816149 55.2490608,26.1838509 56.586732,27.6293168 C57.4225197,28.5500621 59.7341635,29.4265839 61.0723484,33.2168944 C61.0934101,33.1080745 61.1165265,32.823354 61.1165265,32.6265839 C61.1165265,29.3838509 56.6776566,26.2062112 56.2923827,24.8924224 C58.8726909,25.1771429 59.3262868,25.7908075 60.5504306,29.0762733 C60.8006018,29.7560248 61.6173827,31.4424845 61.6173827,32.2757764 Z M12.9572799,14.4178882 C13.0904601,14.0064362 13.1590323,13.5779769 13.1607046,13.1468323 C13.1607046,12.0944099 12.6634443,10.4959006 11.1218347,10.4959006 C10.2382731,10.4959006 9.60488267,11.1741615 9.60488267,11.9850932 C9.60539637,13.7172671 11.3946087,14.4178882 12.9572799,14.4178882 Z M11.0314238,19.9398758 C10.2839923,19.9398758 9.46926623,19.0419876 9.46926623,18.2315528 C9.46926623,17.792795 9.80984842,17.2442236 10.0564238,17.2442236 C10.1478621,17.2442236 10.1930676,17.3098137 10.216184,17.463354 C10.3518005,18.5381366 11.0771429,19.1513043 11.7572799,19.4568944 C11.8250881,19.501118 11.8708073,19.5234783 11.8708073,19.5667081 C11.8708073,19.7202484 11.4393005,19.9398758 11.0314238,19.9398758 Z M13.7052251,17.8802484 C13.7052251,18.1868323 13.5233758,18.5818634 13.1607046,18.5818634 C12.369095,18.5818634 11.7341635,17.4196273 11.7341635,16.762236 C11.7341635,16.3468323 11.9833073,16.3026087 12.3233758,16.3026087 C12.481595,16.3026087 12.5488895,16.324472 12.6634443,16.3900621 C12.8663553,16.4998758 12.8663553,16.9376398 13.1149854,17.266087 C13.2516292,17.4852174 13.7052251,17.7267081 13.7052251,17.8802484 Z M12.9115608,15.5791304 C12.7769717,15.5572671 12.5951224,15.5572671 12.4137868,15.5572671 C11.6663553,15.5572671 10.6687525,15.6889441 9.78673198,16.258882 C7.7920402,17.5080745 8.10899226,19.4787578 7.7920402,19.9836025 C7.74577731,20.0562487 7.72222803,20.1402892 7.72423198,20.2255901 C7.72423198,20.4223602 7.95077308,20.6409938 8.15419774,20.6409938 C8.33656075,20.6409938 8.44957445,20.5982609 8.53998541,20.5982609 C9.08399226,20.5982609 9.69529363,20.9709317 10.5788553,20.9709317 C11.0997457,20.9709317 11.7115608,20.8168944 12.4821087,20.4442236 C14.1131018,19.6556522 14.7480334,17.7053416 14.7480334,17.3763975 C14.7480334,16.96 14.4079649,17.0255901 14.1136155,16.6310559 C13.7961498,16.1719255 13.954369,15.9970186 13.7509443,15.7331677 C13.6137868,15.623354 13.3199512,15.623354 12.9115608,15.5791304 Z M15.3141292,19.1075776 C14.8158416,19.6760248 14.2939238,20.6404969 14.2939238,21.6278261 C14.2939238,22.8099379 15.0413553,23.7962733 16.1966635,23.7962733 C17.3072799,23.7962733 17.8281703,22.875528 17.8281703,21.9344099 C17.8281703,20.4655901 16.4452936,19.435528 15.3141292,19.1075776 Z M10.4653279,14.8998758 C10.4653279,14.8998758 9.80984842,15.3818634 8.9930676,15.3818634 C8.019095,15.3818634 7.24854705,14.6802484 7.24854705,13.6949068 C7.24854705,13.0156522 7.61019089,12.3145342 8.44957445,11.9637267 C8.42697171,12.0954037 8.42697171,12.2047205 8.42697171,12.3363975 C8.42697171,13.5855901 9.15231418,14.5267081 10.4653279,14.8998758 Z M50.7654991,27.6511801 C50.7654991,27.213913 51.1718347,26.8407453 51.6254306,26.8407453 C52.1232046,26.8407453 52.509506,27.213913 52.509506,27.6511801 C52.509506,28.1550311 52.1232046,28.5058385 51.6254306,28.5058385 C51.1718347,28.5058385 50.7654991,28.1550311 50.7654991,27.6511801 Z M51.353684,52.8521739 C51.4672114,52.8521739 51.6023142,52.917764 51.6023142,53.3122981 C51.6023142,53.792795 51.3757731,54.4278261 50.5631018,54.9326708 C49.9954649,55.3053416 49.2254306,55.6114286 48.0916977,55.6337888 C48.2725197,55.1075776 48.4086498,54.5604969 48.4086498,54.0337888 C48.4086498,53.8583851 48.3855334,53.7262112 48.3634443,53.5319255 L48.6572799,53.5319255 C50.4485471,53.5319255 51.2170402,52.8521739 51.353684,52.8521739 Z M51.5339923,50.6817391 C51.7158416,50.5281988 51.759506,50.2877019 51.759506,50.0462112 L51.759506,49.5418634 C51.759506,48.9063354 50.7649854,48.5331677 49.4057388,48.5331677 C47.7521429,48.5331677 46.8675539,49.256646 46.8675539,49.5637267 L46.8675539,50.5719255 C46.8675539,50.9888199 47.8646429,51.4047205 49.0887868,51.4047205 C50.0632731,51.4047205 50.9473484,51.1642236 51.5339923,50.6817391 Z M52.7129306,50.9232298 C52.1232046,51.3609938 50.7423827,52.3478261 48.4538553,52.3478261 C47.2307388,52.3478261 46.6877594,51.9751553 46.5064238,51.9751553 C46.2809101,51.9751553 46.0307388,52.1937888 45.7810813,52.4790062 C45.2370745,53.0926708 44.5348484,54.230559 44.5348484,55.4792547 C44.5348484,56.3572671 45.2370745,57.2337888 46.5516292,57.2337888 C50.7886155,57.2337888 53.9591635,54.6688199 53.9591635,52.5888199 C53.9591635,51.4047205 53.233821,50.9232298 52.7129306,50.9232298 Z M53.5045402,32.4949068 C53.5045402,33.0419876 53.6869032,33.6770186 54.2540265,33.6770186 C54.7297114,33.6770186 55.1381018,32.9759006 55.1381018,32.2096894 C55.1381018,31.3326708 54.9783416,30.6534161 54.9783416,30.3021118 C54.9783416,30.1500621 55.0466635,30.0839752 55.1381018,30.0839752 C55.4771429,30.1058385 55.794095,31.0047205 56.1572799,31.0047205 C56.5656703,31.0047205 57.1754306,30.2812422 57.4235471,30.2812422 C57.491869,30.2812422 57.5149854,30.3686957 57.5149854,30.390559 C57.5149854,30.7195031 56.9930676,31.4424845 56.9930676,31.7277019 C56.9930676,31.9686957 58.3086498,32.0124224 58.3086498,32.2320497 C58.3086498,32.5609938 56.9262868,32.5609938 56.2708073,32.8452174 C55.6369032,33.1075776 55.2506018,33.4360248 55.2506018,33.8742857 C55.2506018,34.3125466 55.7031703,34.4004969 56.3381018,34.4004969 C57.8550539,34.4004969 58.9204649,33.6114286 59.2600197,33.6114286 C59.3283416,33.6114286 59.3735471,33.6546584 59.3735471,33.7207453 C59.3735471,33.9403727 58.6029991,34.6638509 58.6029991,34.992795 C58.6029991,35.3654658 60.0084786,35.802236 59.9853621,36.0218634 C59.9632731,36.0869565 59.8728621,36.1088199 59.7136155,36.1088199 C59.4649854,36.1088199 59.0797114,36.0437267 58.7843347,36.0437267 C58.6024854,36.0437267 58.4442662,36.0645963 58.3769717,36.1525466 C58.2172114,36.3284472 58.4221772,37.4896894 58.1041977,37.4896894 C57.8103621,37.4896894 57.0387868,34.9038509 55.2968347,34.9038509 C55.0471772,34.9038509 54.8653279,35.101118 54.8653279,35.4300621 C54.8653279,36.306087 55.7504306,37.3137888 56.5882731,37.7962733 C56.9714923,38.0382609 57.6064238,38.2787578 57.6064238,38.4104348 C57.6064238,38.6718012 56.1577936,38.4318012 56.1577936,38.8690683 C56.1577936,39.2640994 56.3386155,39.8559006 56.3386155,40.2067081 C56.3386155,40.3160248 56.3175539,40.447205 56.1798827,40.447205 C55.9091635,40.447205 55.2506018,39.242236 54.9336498,39.242236 C54.6629306,39.242236 54.0726909,39.9652174 53.8240608,39.9652174 C53.7557388,39.9652174 53.709506,39.8996273 53.709506,39.8335404 C53.709506,39.3291925 54.5483758,38.1908075 54.5483758,37.072795 C54.5483758,36.5465839 54.4810813,35.4077019 53.8240608,35.4077019 C53.2790265,35.4077019 52.6682388,36.2390062 52.3954649,37.072795 C52.236732,37.5552795 52.3512868,39.4171429 51.9881018,39.4171429 C51.6490608,39.4171429 51.7384443,38.1684472 51.2858758,38.1684472 C50.9478621,38.1684472 50.2235471,38.7592547 49.9733758,38.7592547 C49.9281703,38.7592547 49.8829649,38.7373913 49.8829649,38.6936646 C49.8829649,38.4313043 50.538958,37.576646 50.538958,37.4017391 C50.538958,37.072795 49.0430676,37.0290683 49.0430676,36.7657143 C49.0430676,36.611677 49.6317662,36.5028571 50.1768005,36.4149068 C51.331595,36.2176398 53.0303964,35.4077019 53.0303964,34.2678261 C53.0303964,32.9962733 51.7600197,32.4496894 50.9252594,31.9234783 C50.4937525,31.6601242 50.0180676,31.4404969 50.0180676,31.2655901 C50.0180676,31.0896894 50.5631018,31.0896894 50.7886155,31.0896894 C51.1256018,31.0896894 51.4666977,31.068323 51.4666977,30.8049689 C51.4666977,30.6077019 51.4194375,30.2146584 51.4194375,29.9080745 C51.4194375,29.6884472 51.4425539,29.5135404 51.5339923,29.5135404 C51.8740608,29.5135404 52.3507731,30.5863354 52.5773142,30.5863354 C52.9384443,30.5863354 53.4382731,29.7108075 53.7783416,29.7108075 C53.8908416,29.7108075 53.9360471,29.7763975 53.9360471,29.9731677 C53.9360471,30.7845963 53.5045402,31.7053416 53.5045402,32.4949068 Z M42.6999169,26.075528 C42.9495745,27.9368944 45.5324512,26.9942857 45.5324512,29.2511801 C45.5324512,29.5801242 45.4410128,30.0626087 45.4410128,30.4780124 C45.4410128,30.9604969 45.4862183,31.3768944 45.8714923,31.3768944 C46.2567662,31.3768944 46.3482046,31.1140373 46.3482046,30.7627329 C46.3482046,30.4114286 46.2567662,29.9746584 46.2567662,29.7336646 C46.2567662,28.9664596 46.8238895,28.7910559 47.1629306,28.7910559 C48.0238895,28.7910559 48.6809101,29.6462112 49.9733758,29.6462112 C49.6785128,31.0479503 46.6882731,30.6752795 46.6882731,32.2101863 C46.6882731,32.9763975 47.4798827,33.1522981 48.0018005,33.1522981 C48.4774854,33.1522981 48.6357046,33.0857143 48.6357046,32.6926708 C48.6357046,32.4730435 48.5904991,32.2325466 48.5904991,32.0785093 C48.5904991,31.9910559 48.6577936,31.9040994 48.7723484,31.9040994 C49.2711498,31.9040994 51.7158416,33.6998758 51.7158416,34.2484472 C51.7158416,34.7522981 49.134506,35.2561491 48.3860471,35.2561491 C48.1610471,35.2561491 48.1153279,35.1031056 48.1153279,35.0156522 C48.1153279,34.8616149 48.5006018,34.4014907 48.5006018,34.1381366 C48.5006018,33.9413665 48.1615608,33.8096894 47.254369,33.8096894 C46.8238895,33.8096894 46.5069375,33.8534161 46.5069375,34.1823602 C46.5069375,34.7736646 47.5024854,35.4971429 47.5024854,36.0447205 C47.5024854,36.4824845 47.2317662,36.7453416 46.5069375,36.7453416 C45.8951224,36.7453416 44.9658416,36.2852174 44.9658416,35.5195031 C44.9658416,34.9053416 45.6238895,34.291677 45.6238895,33.9195031 C45.6238895,33.8096894 45.5324512,33.6342857 45.2607046,33.6342857 C44.4218347,33.6342857 44.196321,35.7813665 41.2271429,36.0228571 C41.7038553,35.6069565 42.1122457,35.1463354 42.1122457,34.2042236 C42.1122457,33.7436025 41.9987183,33.3704348 41.9987183,32.8675776 C41.9987183,32.2101863 42.3146429,31.8812422 42.7682388,31.8812422 C43.6071087,31.8812422 44.0144717,33.0201242 44.5579649,33.0201242 C44.8528279,33.0201242 45.1687525,32.7582609 45.1687525,32.3642236 C45.1687525,30.6976398 41.8615608,30.9386335 41.8615608,28.5947826 C41.8620745,27.9582609 42.0875881,27.1701863 42.6999169,26.075528 Z M47.0041977,40.3170186 C47.0041977,40.6240994 47.2307388,40.8655901 47.5471772,40.8655901 C47.9103621,40.8655901 48.1379306,40.5585093 48.1379306,40.2081988 C48.1379306,39.7475776 47.7064238,39.1120497 47.2980334,39.1120497 C47.1172114,39.1120497 47.1855334,39.3744099 47.1393005,39.6591304 C47.1177251,39.8787578 47.0041977,40.1421118 47.0041977,40.3170186 Z M45.8262868,37.4032298 C48.2052251,37.8409938 49.4971772,39.5721739 49.4971772,41.1940373 C49.4971772,42.3120497 48.7718347,43.3396273 47.501458,43.3396273 C46.3476909,43.3396273 45.508821,42.5729193 45.508821,41.3470807 C45.508821,40.4268323 46.2562525,39.4623602 46.2562525,38.5192547 C46.2567662,38.1480745 46.1442662,37.7754037 45.8262868,37.4032298 Z M42.8134443,41.1289441 C43.0399854,41.3470807 43.1083073,41.5667081 43.1083073,41.7858385 C43.1083073,42.1137888 42.9495745,42.4650932 42.9495745,42.8357764 C42.9495745,43.3619876 43.3569375,43.821118 43.9466635,43.821118 C44.5805676,43.821118 45.0100197,43.3391304 45.0100197,42.7696894 C45.0105334,41.9393789 44.126458,41.1289441 42.8134443,41.1289441 Z M50.3119032,39.7257143 C50.4706361,39.9662112 50.5384443,40.2081988 50.5384443,40.4273292 C50.5384443,41.0404969 50.1079649,41.6109317 50.1079649,42.2459627 C50.1079649,42.9674534 50.6756018,43.5597516 51.5334786,43.5597516 C52.4637868,43.5597516 53.0976909,42.8362733 53.0976909,41.9836025 C53.0982046,40.8223602 52.0107046,39.8350311 50.3119032,39.7257143 Z M43.3569375,38.5639752 C44.3982046,38.6956522 44.6483758,39.0459627 44.6483758,39.3306832 C44.6483758,39.8136646 44.1958073,39.9667081 43.7653279,39.9667081 C43.4483758,39.9667081 43.0862183,39.901118 42.6999169,39.901118 C42.2011155,39.901118 41.7038553,40.0109317 41.2954649,40.4710559 C41.5893005,40.5147826 42.0208073,40.7115528 42.0208073,41.1503106 C42.0208073,42.4218634 38.3725197,41.3689441 38.3725197,44.6340373 C38.3725197,46.3657143 40.231595,48.2484472 43.0399854,48.2484472 C44.4896429,48.2484472 45.4178964,47.7903106 45.4178964,47.2640994 C45.4178964,46.8477019 44.6483758,47.1324224 44.6483758,46.7821118 C44.6483758,46.6275776 44.9201224,46.343354 44.9201224,46.1023602 C44.9201224,45.9930435 44.8297114,45.7957764 44.6483758,45.7957764 C44.2399854,45.7957764 43.4714923,46.4308075 41.9072799,46.4308075 C40.6841635,46.4308075 39.4831361,45.7515528 39.4831361,44.8308075 C39.4831361,44.6340373 39.5745745,44.5237267 39.7096772,44.5237267 C39.8447799,44.5237267 40.0266292,44.6121739 40.1853621,44.6121739 C40.322006,44.6121739 40.344095,44.5237267 40.344095,44.2827329 C40.344095,44.042236 40.344095,43.3619876 40.7756018,43.3619876 C41.2040265,43.3619876 42.0208073,44.8963975 45.1471772,44.8963975 C46.1894717,44.8963975 48.2052251,44.6996273 48.9526566,44.0417391 C48.9305676,46.4536646 46.9810813,49.6288199 42.9048827,49.6288199 C38.6678964,49.6288199 36.4035128,46.343354 36.4035128,43.317764 C36.4035128,39.9662112 39.2339923,36.9202484 43.108821,36.9202484 C44.1048827,36.9202484 44.9437525,37.2496894 44.9437525,37.6650932 C44.9432388,38.2360248 43.4714923,37.8852174 43.3569375,38.5639752 Z M26.9581361,16.127205 C26.9581361,15.7545342 26.8672114,15.6670807 26.7762868,15.6670807 C26.5502594,15.6670807 26.2995745,15.9299379 25.9384443,16.5207453 C25.9836498,17.3093168 26.1197799,17.6606211 26.3452936,17.6606211 C26.5949512,17.661118 26.9581361,16.8934161 26.9581361,16.127205 Z M23.8533416,17.0250932 C24.1029991,17.0250932 24.4194375,16.762236 25.0091635,16.127205 C25.054369,15.8424845 25.054369,15.5786335 25.054369,15.2501863 C25.054369,14.8119255 24.8725197,14.3289441 24.6002594,14.3289441 C23.9221772,14.3289441 23.5821087,16.0829814 23.5821087,16.5426087 C23.5821087,16.8064596 23.7187525,17.0250932 23.8533416,17.0250932 Z M27.546321,18.9754037 C28.1129306,18.9754037 28.7468347,16.8715528 28.7468347,15.5572671 C28.7468347,15.2725466 28.7016292,14.9659627 28.5660128,14.9659627 C28.0903279,14.9659627 27.2956361,17.1344099 27.2956361,18.3190062 C27.2961498,18.7786335 27.4096772,18.9754037 27.546321,18.9754037 Z M21.9958073,17.7704348 C22.7663553,17.7704348 23.6504306,13.7391304 23.6504306,13.0593789 C23.6504306,12.8839752 23.5821087,12.7522981 23.4244032,12.7522981 C22.7216635,12.7522981 21.7466635,16.5868323 21.7466635,17.4409938 C21.7461498,17.5945342 21.791869,17.7704348 21.9958073,17.7704348 Z M24.4651566,19.435528 C23.491184,19.435528 23.4464923,20.5759006 23.4464923,22.8760248 C22.7211498,21.364472 21.5201224,19.7426087 20.116184,19.7426087 C19.1643005,19.7426087 18.8016292,20.3562733 18.8016292,21.4300621 C18.8016292,21.6501863 18.824232,21.9786335 18.8689238,22.1754037 C18.9829649,21.8042236 19.3451224,21.6506832 19.799232,21.6506832 C20.7732046,21.6506832 21.9506018,22.3726708 22.7211498,23.3590062 C21.8375881,23.2054658 20.9766292,23.0519255 20.2518005,23.0519255 C19.799232,23.0519255 19.3908416,23.0956522 19.0512868,23.2491925 C18.3947799,23.533913 17.5101909,24.4765217 17.5101909,25.9006211 C17.5101909,26.1197516 17.5333073,26.3592547 17.5795402,26.6226087 C18.3721772,24.9132919 20.4788553,24.1475776 21.8381018,24.1475776 C22.108821,24.1475776 22.3132731,24.169441 22.472006,24.1918012 C21.7692662,24.8034783 21.6110471,25.8782609 21.5658416,26.6007453 C21.5432388,26.9515528 21.406595,26.973913 21.1589923,26.973913 C21.1589923,27.6954037 21.7466635,28.7696894 21.7466635,29.317764 C21.7466635,29.5150311 21.6336498,29.6904348 21.5206361,29.7341615 C21.5206361,30.6976398 22.5166977,31.3987578 22.5166977,32.0124224 C22.5166977,32.1659627 22.472006,32.2971429 22.403684,32.3637267 C22.472006,32.757764 23.559506,33.4365217 23.6956361,33.7212422 C23.9221772,34.1818634 24.0809101,34.2250932 24.1934101,34.2250932 C24.5781703,34.2250932 25.1899854,33.7873292 25.1899854,33.3918012 C25.1899854,33.261118 25.0769717,33.1075776 24.9865608,33.0414907 C24.5555676,32.7354037 24.3295402,32.0775155 24.1487183,31.6392547 C23.9507461,31.6412594 23.775341,31.5161881 23.7187525,31.3326708 C23.6273142,31.0474534 23.581595,30.0178882 23.4012868,29.5145342 C23.1059101,29.4484472 22.9708073,29.3391304 22.9708073,28.7468323 C22.9708073,28.4621118 23.1516292,27.3445963 23.1516292,26.950559 C23.0149854,26.950559 22.8341635,26.8626087 22.8341635,26.5997516 C22.8341635,25.8996273 23.559506,25.3510559 23.7634443,24.4536646 C25.054369,25.3734161 25.371321,26.3150311 25.371321,27.1478261 C25.371321,27.5850932 25.3029991,28.0014907 25.2125881,28.3965217 C26.1649854,27.9363975 27.5910128,27.2576398 27.5910128,25.877764 C27.5910128,25.0673292 27.2057388,24.169441 24.6454649,23.8181366 C25.4386155,23.5334161 26.4362183,23.3798758 27.2740608,23.3798758 C28.7237183,23.3798758 29.5620745,23.8181366 29.7439238,24.8034783 C30.0372457,24.3667081 30.2637868,23.8623602 30.2637868,23.402236 C30.2637868,22.3279503 29.3365608,21.628323 28.1571087,21.628323 C26.7757731,21.628323 25.5516292,22.3284472 24.2370745,23.1831056 C24.8268005,22.0004969 25.2346772,21.2993789 25.9600197,21.2993789 C26.0730334,21.2993789 26.1860471,21.3202484 26.2990608,21.3426087 C26.0283416,20.3781366 25.0091635,19.435528 24.4651566,19.435528 Z M10.0122457,5.78385093 C10.0122457,6.22161491 8.29032787,7.69093168 7.6790265,7.69093168 C7.45248541,7.69093168 7.38467719,7.42757764 7.38467719,7.18708075 C7.38467719,6.74832298 7.58810185,6.13465839 7.83724568,5.93689441 C8.131595,5.67403727 8.81173198,5.54385093 9.3326224,5.54385093 C9.65060185,5.54434783 10.0122457,5.6084472 10.0122457,5.78385093 Z M62.6350197,35.2332919 C63.7677251,35.2332919 64.6738895,36.6578882 64.6738895,38.3239752 C64.6738895,40.0973913 63.8129306,42.0273292 62.2749169,43.3401242 C62.2518005,40.3831056 58.5125881,41.3257143 58.5125881,39.1776398 C58.5125881,38.2578882 59.1916977,37.6437267 60.0084786,37.6437267 C60.7327936,37.6437267 61.3009443,37.8414907 61.7083073,38.2360248 C61.3009443,37.8638509 61.0954649,37.3376398 61.0954649,36.8332919 C61.0944375,36.0004969 61.6394717,35.2332919 62.6350197,35.2332919 Z M45.8262868,12.8183851 C45.6454649,12.5331677 44.9653279,12.3801242 44.6483758,12.3801242 C43.6523142,12.3801242 42.9726909,13.0598758 42.8365608,13.6730435 C42.7358995,13.4365279 42.6817199,13.1839283 42.6768005,12.9281988 C42.6768005,11.9632298 43.3569375,10.7806211 45.0105334,10.7806211 C46.4612183,10.7806211 47.0273142,11.5254658 47.2307388,11.5254658 C47.4562525,11.5254658 47.6843347,11.3063354 47.8646429,11.3063354 C48.1143005,11.3063354 48.1143005,11.6790062 48.1143005,11.9418634 C48.1143005,12.818882 47.7059101,14.3299379 46.6877594,14.8785093 C46.5059101,14.5053416 46.1437525,14.0899379 45.5550539,13.826087 C45.415767,13.7739954 45.3251737,13.6430476 45.3285128,13.4986335 C45.3285128,13.2571429 45.5550539,12.9495652 45.8262868,12.8183851 Z M42.4060813,14.4178882 C42.9958073,14.9654658 43.5156703,15.2064596 44.1500881,15.2064596 C44.3987183,15.2064596 44.694095,15.1403727 44.8533416,15.1403727 C45.0567662,15.1403727 45.1923827,15.228323 45.1923827,15.3813665 C45.1923827,15.6228571 44.9658416,16.0173913 44.6935813,16.2365217 C44.9653279,16.3463354 45.2607046,16.3895652 45.5776566,16.3895652 C46.8680676,16.3895652 48.3408416,15.6004969 48.3408416,13.6293168 C48.6125881,13.9786335 48.7723484,14.7021118 48.7723484,15.030559 C48.7723484,17.4186335 46.9584786,18.3393789 45.283821,18.3393789 C44.196321,18.3393789 43.6523142,17.9890683 43.516184,17.9890683 C43.086732,17.9890683 43.108821,18.8213665 42.813958,18.7995031 C42.2930676,18.7125466 41.8178964,17.5940373 41.8178964,16.4114286 C41.816869,15.7103106 41.9987183,14.9654658 42.4060813,14.4178882 Z M26.6632731,8.04173913 C26.6632731,8.80795031 29.4947799,12.555528 30.0377594,12.555528 C30.4903279,12.555528 30.8303964,11.788323 30.8303964,11.1304348 C30.8303964,10.9560248 30.7851909,10.7806211 30.6947799,10.649441 C30.2863895,10.1013665 27.4091635,7.91006211 26.7762868,7.91006211 C26.7084786,7.91055901 26.6632731,7.97614907 26.6632731,8.04173913 Z M59.3499169,6.24397516 C59.3499169,4.68919255 55.5002594,4.29465839 55.5002594,3.94335404 C55.5002594,3.65863354 57.6516292,3.17614907 58.7622457,3.15378882 C57.0613895,1.05142857 54.6398142,1.27055901 54.6398142,0.897888199 C54.6398142,0.67826087 56.4526566,0.239006211 58.1273142,0.239006211 C59.5317662,0.239006211 60.8473484,0.546583851 60.8473484,1.57664596 C60.8473484,2.14658385 60.3706361,2.73888199 60.3706361,3.61440994 C60.3706361,4.09639752 60.6192662,4.51329193 61.2778279,4.51329193 C61.9800539,4.51329193 62.1387868,3.78981366 62.1387868,3.0226087 C62.1387868,2.38857143 62.0252594,1.90559006 62.0252594,1.59900621 C62.0252594,0.67826087 62.6802251,0.0650931677 63.609506,0.0650931677 C64.3800539,0.0650931677 64.5608758,0.393043478 65.6935813,0.393043478 C65.0827936,0.743850932 64.8557388,1.37987578 64.8557388,1.68645963 C64.8557388,2.60720497 65.4685813,3.24223602 65.4685813,5.12745342 C65.4685813,8.58881988 62.1166977,9.81614907 58.0137868,9.81614907 C56.8810813,9.81614907 55.6821087,9.72819876 54.5041977,9.55279503 C54.3218347,9.53093168 54.2766292,9.48770186 54.2766292,9.3778882 C54.2766292,9.09267081 55.8860471,8.93962733 55.8860471,7.53689441 C55.8860471,6.98931677 55.703684,6.4626087 55.703684,6.26583851 C55.7031249,6.21893655 55.7221752,6.17380468 55.7565121,6.1406846 C55.790849,6.10756452 55.8375607,6.0892647 55.8860471,6.08993789 C56.2261155,6.08993789 56.9031703,7.36198758 58.1714923,7.36198758 C58.5120745,7.36248447 59.3499169,7.25267081 59.3499169,6.24397516 Z M63.1774854,4.03130435 C63.1774854,5.98161491 61.7077936,7.47180124 59.0560813,7.88869565 C59.3499169,7.91055901 59.6232046,7.91055901 59.8949512,7.91055901 C62.9971772,7.91055901 64.1298827,6.5515528 64.1298827,5.41267081 C64.1298827,4.77664596 63.7677251,4.20720497 63.1774854,4.03130435 Z M61.0276566,21.6496894 C61.0276566,21.1890683 59.8266292,21.1453416 59.7131018,19.8519255 C59.6899854,19.6551553 59.6226909,19.3043478 59.3730334,19.3043478 C58.9656703,19.3043478 59.281595,20.5093168 58.8290265,20.5093168 C57.7857046,20.5093168 57.4466635,18.5381366 57.0613895,18.5381366 C56.9709786,18.5381366 56.8579649,18.6037267 56.8579649,18.8665839 C56.8579649,19.1075776 56.9031703,19.261118 56.9031703,19.5453416 C56.9031703,19.8295652 56.8348484,20.0273292 56.566184,20.0273292 C55.954369,20.0273292 55.4103621,18.6469565 54.8884443,18.6469565 C54.7749169,18.6469565 54.6629306,18.7135404 54.6629306,18.8223602 C54.6629306,19.0862112 55.1154991,19.5667081 55.1154991,19.8077019 C55.1154991,20.3344099 53.6416977,20.0481988 53.6416977,20.4874534 C53.6416977,20.6852174 53.8461498,20.7508075 54.1184101,20.7508075 C54.5951224,20.7508075 55.3425539,20.5530435 55.7268005,20.5530435 C55.954369,20.5530435 56.2944375,20.597764 56.2944375,20.8819876 C56.2944375,21.1890683 55.4776566,21.5840994 55.4776566,21.868323 C55.4776566,22.0004969 55.6143005,22.0650932 55.7262868,22.0650932 C56.3381018,22.0650932 57.4240608,21.0360248 58.1946087,21.0360248 C58.3312525,21.0360248 58.6723484,21.1021118 58.6723484,21.2993789 C58.6723484,21.5840994 57.9007731,22.0869565 57.9007731,22.503354 C57.9007731,22.6131677 57.969095,22.7448447 58.1041977,22.7448447 C58.5125881,22.7448447 59.056595,21.7147826 59.8271429,21.7147826 C60.1209786,21.7147826 60.5524854,21.8250932 60.7785128,21.8250932 C60.9603621,21.8250932 61.0276566,21.7147826 61.0276566,21.6496894 Z M44.806595,4.93018634 C44.806595,4.68919255 43.9235471,4.22857143 43.9235471,3.96621118 C43.9235471,3.92198758 43.9697799,3.90012422 44.0360471,3.90012422 C44.2846772,3.90012422 44.7151566,3.98757764 45.0562525,3.98757764 C45.3500881,3.98757764 45.3952936,2.76173913 45.6233758,2.76173913 C45.7810813,2.76173913 46.0538553,3.92198758 46.3024854,3.92198758 C46.596321,3.92198758 47.1393005,3.59304348 47.366869,3.59304348 C47.4120745,3.59304348 47.4562525,3.61490683 47.4562525,3.65913043 C47.4562525,3.8131677 46.8901566,4.40397516 46.8901566,4.57987578 C46.8901566,4.77714286 48.1605334,5.01813665 48.1605334,5.19403727 C48.1605334,5.41267081 46.8670402,5.39130435 46.8670402,5.58708075 C46.8670402,5.74062112 47.3437525,6.35378882 47.3437525,6.55204969 C47.3437525,6.5957764 47.3206361,6.61763975 47.2754306,6.61763975 C47.0946087,6.61763975 46.3934101,6.31055901 46.188958,6.31055901 C45.9403279,6.31055901 45.5319375,7.20944099 45.3279991,7.20944099 C45.2596772,7.20944099 45.2144717,7.12099379 45.2144717,7.01167702 L45.1682388,6.13515528 C45.1682388,6.04720497 45.1240608,5.95975155 45.009506,5.95975155 C44.7377594,5.95975155 44.216869,5.9373913 44.0581361,5.9373913 C43.9456361,5.9373913 43.9004306,5.91552795 43.9004306,5.87130435 C43.9019717,5.69639752 44.806595,5.08322981 44.806595,4.93018634 Z M49.2254306,9.0931677 C47.6381018,9.0931677 46.5968347,8.32596273 46.5968347,7.93242236 C46.5968347,7.73515528 46.7334786,7.60347826 46.9127594,7.60347826 C47.4125881,7.60347826 48.5000881,8.34732919 48.8622457,8.34732919 C48.9526566,8.34732919 49.0209786,8.30409938 49.0209786,8.17291925 C49.0209786,7.77888199 48.6357046,7.12099379 48.6357046,6.79254658 C48.6357046,6.70509317 48.7040265,6.63900621 48.8401566,6.63900621 C49.4509443,6.63900621 50.3581361,6.88049689 50.833821,6.88049689 C50.9935813,6.88049689 51.0372457,6.79204969 51.0372457,6.70459627 C51.0372457,6.22161491 49.5654991,5.28049689 49.5654991,4.9957764 C49.5654991,4.73291925 51.3983758,4.33838509 51.3983758,3.92149068 C51.3983758,3.48322981 48.9069375,3.78981366 48.9069375,3.37291925 C48.9069375,3.0663354 49.3826224,2.54111801 49.3826224,2.30062112 C49.3826224,2.19031056 49.2922114,2.14708075 49.1339923,2.14708075 C48.9305676,2.14708075 47.8415265,2.56347826 47.3894717,2.56347826 C47.1629306,2.56347826 46.8906703,2.51975155 46.8906703,2.21267081 C46.8906703,1.70881988 47.7747457,1.16024845 49.1571087,1.16024845 C51.3983758,1.16024845 52.7360471,2.65093168 52.7360471,5.14931677 C52.7360471,8.30409938 50.4485471,9.0931677 49.2254306,9.0931677 Z M33.8894717,47.002236 C33.8894717,47.1985093 33.8206361,47.4181366 33.6393005,47.6367702 C33.391184,47.1980124 32.6874169,46.978882 32.3725197,46.978882 C30.0377594,46.978882 30.9218347,50.2434783 28.429369,50.2434783 C27.3870745,50.2434783 27.2956361,50.1118012 26.9124169,50.1118012 C26.7531703,50.1118012 26.6627594,50.1778882 26.6627594,50.3085714 C26.6627594,50.8780124 27.5006018,52.282236 29.8333073,52.282236 C32.1685813,52.282236 34.4093347,50.9008696 34.4093347,49.1900621 C34.4046872,48.8803086 34.3351343,48.5746854 34.2048827,48.291677 C34.296321,48.16 34.5223484,48.0725466 34.7257731,48.0725466 C35.088958,48.0725466 35.2928964,48.4675776 35.6324512,48.4675776 C35.9951224,48.4675776 36.2663553,48.2047205 36.2663553,47.8563975 C36.2663553,47.5711801 36.1076224,47.373913 35.8353621,47.2412422 C36.0172114,47.110559 36.1528279,46.8914286 36.1528279,46.6509317 C36.1528279,46.277764 35.8805676,45.9274534 35.4290265,45.9274534 C35.2245745,45.9274534 35.088958,45.9935404 34.9307388,46.146087 C34.8850197,45.7515528 34.6589923,45.378882 34.2279991,45.378882 C33.8894717,45.378882 33.6393005,45.6203727 33.6393005,45.9930435 C33.6393005,46.343354 33.8894717,46.6280745 33.8894717,47.002236 Z M27.7949512,47.8340373 C27.1158416,47.8340373 26.0971772,47.1324224 26.0971772,46.7378882 C26.0971772,46.4089441 26.4146429,46.2335404 26.6632731,46.2335404 C27.2298827,46.2335404 28.2485471,46.9132919 28.2485471,47.4832298 C28.2485471,47.6367702 28.1350197,47.8340373 27.7949512,47.8340373 Z M21.4749169,42.9237267 C23.2882731,43.3624845 24.1934101,44.3045963 24.3747457,45.4226087 C24.5560813,46.4968944 24.7821087,47.3744099 25.2131018,47.8121739 C25.7797114,48.423354 26.8903279,48.9714286 27.8632731,48.9714286 C28.6790265,48.9714286 29.3370745,48.7095652 29.3370745,47.9880745 C29.3370745,47.1985093 28.226458,45.4231056 26.5949512,45.4231056 C26.436732,45.4231056 26.2322799,45.4454658 26.0062525,45.4454658 C25.8023142,45.4454658 25.5069375,45.4012422 25.3256018,45.2481988 C24.9624169,44.9421118 24.8499169,43.2973913 24.1697799,42.3130435 C23.4233758,41.2168944 22.6076224,40.9103106 21.4975197,40.9103106 C20.704369,40.9103106 19.821321,41.3267081 19.821321,41.9403727 C19.8218347,42.3120497 20.0257731,42.5734161 21.4749169,42.9237267 Z M32.8466635,40.2519255 C32.8466635,39.266087 30.7404991,39.2437267 30.7404991,37.7540373 C30.7404991,37.3813665 30.9886155,36.7453416 31.488958,36.0655901 C31.691869,37.2054658 32.169095,37.7972671 33.186732,38.1699379 C35.2024854,38.8924224 35.4747457,39.9875776 35.4747457,41.1503106 C35.4747457,43.1209938 34.0476909,45.576646 30.3783416,45.576646 C27.4327936,45.576646 25.3261155,43.0335404 25.3261155,40.8869565 C25.3261155,40.2951553 25.4848484,39.6372671 25.8706361,39.6372671 C26.2096772,39.6372671 26.3232046,39.9001242 26.5954649,40.1634783 C27.6141292,41.1498137 28.7247457,41.4126708 30.3326224,41.4126708 C31.7827936,41.4131677 32.8466635,40.8437267 32.8466635,40.2519255 Z M32.9370745,41.8300621 C32.1454649,42.1361491 31.8511155,42.1137888 31.8511155,42.8795031 C31.8511155,43.1647205 31.7833073,43.5373913 31.7833073,43.7346584 C31.7833073,43.9980124 31.8285128,44.1515528 32.1459786,44.1515528 C32.9601909,44.1515528 34.2511155,42.8149068 34.2511155,41.6760248 C34.2511155,41.369441 34.0708073,41.2382609 33.8673827,41.2382609 C33.6850197,41.2382609 33.4810813,41.5885714 32.9370745,41.8300621 Z M25.7113895,30.7627329 C25.7113895,29.3609938 29.1552251,28.6156522 29.1552251,26.8849689 C29.1552251,26.6002484 29.0416977,26.0973913 28.8377594,25.7242236 C30.0377594,26.3587578 30.9218347,27.4335404 30.9218347,28.3090683 C30.9218347,29.8216149 29.2913553,30.5217391 29.2913553,31.4643478 C29.2913553,32.5609938 31.0353621,32.7359006 31.0353621,34.0944099 C31.0353621,35.2119255 29.3817662,36.5043478 29.3817662,37.9513043 C29.3817662,39.0678261 30.1954649,39.9880745 31.4427251,40.1421118 C31.0353621,40.2300621 30.6721772,40.2956522 30.2869032,40.2956522 C27.9994032,40.2956522 25.6430676,38.4765217 25.6430676,36.3075776 C25.6430676,35.2337888 26.1197799,34.291677 26.8446087,33.6124224 C27.4779991,34.1381366 28.1129306,34.489441 28.5197799,34.489441 C28.8829649,34.489441 29.0416977,34.3135404 29.0416977,34.0511801 C29.0416977,33.2387578 25.7113895,32.4949068 25.7113895,30.7627329 Z M30.3829649,77.6412422 C31.0235471,77.6412422 32.1233758,77.44 32.9894717,76.0973913 C32.4947799,75.035528 32.1413553,72.8839752 32.0910128,72.1018634 C31.8362183,68.1003727 33.4307388,64.3359006 35.1757731,64.2325466 C36.4553964,64.1585093 37.478684,65.3296894 37.596321,67.223354 C37.9122457,72.2126708 36.1923827,74.2951553 35.3350197,76.0884472 C35.4798827,76.7870807 36.6994032,77.9721739 37.853684,77.9721739 C38.2800539,77.9721739 38.7937525,77.7664596 38.9221772,77.5990062 C38.80347,77.2108531 38.7452954,76.8077409 38.7495745,76.4029814 C38.7495745,73.5140373 40.6728621,71.0742857 42.3362183,71.0742857 C43.6615608,71.0742857 44.4259443,72.767205 44.4259443,73.8862112 C44.4259443,75.2049689 43.274232,76.2802484 41.5677251,77.312795 C41.8687525,77.5990062 42.4204649,77.8077019 42.8930676,77.8077019 C45.3259443,77.8077019 46.6045402,74.96 47.5456361,72.3547826 C47.716184,71.8593789 48.0172114,71.157764 48.6120745,71.157764 C49.6374169,71.157764 50.0658416,77.6819876 51.7702936,77.6819876 C52.4976909,77.6819876 53.0935813,76.2365217 53.0935813,75.1249689 C53.0935813,74.2981366 52.7956361,74.2156522 52.7956361,73.0161491 C52.7956361,71.6963975 53.5209786,70.5808696 54.5052251,70.5808696 C55.1011155,70.5808696 55.3158416,71.1582609 55.3158416,71.8598758 C55.3158416,74.5038509 53.3524854,79.4186335 50.4506018,79.4186335 C48.2704649,79.4186335 48.4399854,75.7813665 47.6745745,75.7813665 C46.8187525,75.7813665 45.6228621,79.4608696 41.3976909,79.4608696 C40.7124169,79.4608696 39.9881018,79.1304348 39.3922114,78.466087 C38.366869,79.1304348 37.5110471,79.4186335 36.5288553,79.4186335 C34.9507731,79.4186335 34.2670402,77.8479503 33.6285128,77.8479503 C32.8584786,77.8479503 32.0077936,79.4608696 29.4439238,79.4608696 C27.3932388,79.4608696 27.0521429,76.8183851 26.3283416,76.8183851 C25.6872457,76.8183851 24.7055676,79.4608696 23.6391292,79.4608696 C21.8422114,79.4608696 21.4615608,74.8770186 19.8809101,74.8770186 C18.641869,74.8770186 14.7310813,79.5314286 13.6682388,79.4250932 C13.2413553,79.3813665 13.0625881,79.0732919 13.1072799,78.6593789 C13.1673827,78.0884472 13.6749169,76.5595031 13.8829649,75.8340373 C14.2281703,74.5808696 14.5451224,73.2014907 14.7218347,72.7627329 C14.897006,72.3204969 15.3732046,72.0049689 15.7518005,72.0387578 C15.9434101,72.056646 16.0009443,72.4024845 16.0605334,72.6867081 C16.2747457,73.7113043 16.5778279,74.7513043 16.9178964,74.7513043 C17.516869,74.7513043 19.4982046,71.0742857 20.6494032,71.0742857 C22.059506,71.0742857 22.2295402,76.8576398 24.1502594,76.8576398 C24.7913553,76.8576398 25.2634443,76.1137888 25.6882731,75.2054658 C25.7319375,73.675528 26.1577936,71.4896894 27.4384443,71.4896894 C28.3369032,71.4896894 28.7632731,73.4280745 28.1211498,75.124472 C28.1206361,77.1448447 29.4860471,77.6412422 30.3829649,77.6412422 Z M62.2312525,73.7604969 C62.2312525,72.7284472 61.2511155,71.2814907 59.7994032,71.2814907 C57.8781703,71.2814907 56.0016292,73.3053416 56.0016292,76.1132919 C56.0016292,78.6300621 57.6197799,79.4598758 59.2425539,79.4598758 C62.0607046,79.4598758 63.7702936,77.2253416 64.6656703,75.369441 C65.094095,76.6081988 65.3458073,79.4598758 66.4163553,79.4598758 C66.8427251,79.4598758 67.1416977,79.2526708 67.6564238,78.1371429 C68.9334786,75.369441 70.1714923,72.1898137 71.881595,72.1898137 C72.5196087,72.1898137 72.1374169,73.3053416 73.6733758,73.3053416 C74.3997457,73.3053416 74.9103621,72.7284472 74.9103621,72.0640994 C74.9103621,71.1145342 74.0144717,70.3721739 72.6480334,70.3721739 C68.6375881,70.3721739 67.783821,76.1962733 67.1416977,76.1962733 C66.074232,76.1962733 66.4163553,71.5299379 65.6468347,71.5299379 C64.9636155,71.5299379 64.6214923,72.315528 64.5362183,72.6852174 C63.9803964,74.832795 62.4033416,77.9314286 60.0100197,77.9314286 C59.4562525,77.9314286 58.4740608,77.7242236 58.4740608,77.1870807 C58.4740608,76.6081988 62.2312525,76.5281988 62.2312525,73.7604969 Z M36.2134443,68.338882 C36.1399854,67.186087 35.8502594,66.6653416 35.2112183,66.7065839 C34.3600197,66.7572671 33.9680676,69.3436025 34.1406703,72.0621118 C34.2511155,73.8375155 34.5238895,74.1093168 34.7791977,74.0929193 C35.2497457,74.066087 36.3768005,70.8959006 36.2134443,68.338882 Z M29.2718347,65.915528 C29.2312525,65.2526708 28.676458,64.7995031 27.9506018,64.7995031 C27.138958,64.7995031 26.3684101,65.6248447 26.4572799,66.6568944 C26.4572799,67.275528 26.9252594,67.8961491 27.738958,67.8961491 C28.6769717,67.8961491 29.3596772,66.866087 29.2718347,65.915528 Z M42.551458,74.3378882 C42.551458,73.6382609 42.166184,73.0573913 41.6976909,73.0573913 C41.3113895,73.0573913 40.4175539,73.4703106 40.4175539,74.7915528 C40.4175539,75.8240994 40.7997457,76.3180124 40.9733758,76.5281988 C42.2083073,76.1545342 42.551458,75.1627329 42.551458,74.3378882 Z M59.2425539,72.9356522 C60.1394717,72.9356522 60.3973484,73.9652174 60.1836498,74.5858385 C59.9689238,75.204472 59.2024854,75.906087 58.0055676,76.112795 C57.7497457,75.4921739 57.6202936,72.9356522 59.2425539,72.9356522 Z M0.522690888,73.5960248 C0.480053902,71.8996273 0.565841573,70.2081988 1.29272514,67.8136646 C1.67594431,66.5356522 2.019095,66.0785093 3.21241692,65.8330435 C4.15145801,65.6670807 4.06772514,66.6151553 3.8545402,67.7311801 C3.38553335,70.2077019 3.16875253,71.4052174 3.34186897,74.2146584 C3.50933472,77.1865839 4.92097856,78.3438509 6.45642377,78.3438509 C8.76190322,78.386087 9.78724568,76.5286957 10.2136155,73.8429814 C10.553684,71.6954037 10.2973484,70.6608696 10.0836498,70.0024845 C9.95676623,69.6308075 9.61515664,68.8039752 9.48673198,68.1863354 C9.31721144,66.6156522 10.0836498,65.8757764 10.7257731,65.6675776 C11.4947799,65.4598758 11.7947799,65.8335404 12.091184,66.7016149 C12.4769717,68.0218634 12.5196087,69.7535404 12.3906703,72.2300621 C12.2206361,75.6154037 10.4694375,79.7078261 6.11532787,79.623354 C2.35813609,79.5428571 0.695807327,77.1870807 0.522690888,73.5960248 Z" id="unilever"></path>
                    </g>
                </g>
            </g>
        </g>
    </g>
</svg>