<?xml version="1.0" encoding="UTF-8"?>
<svg width="175px" height="96px" viewBox="0 0 175 96" version="1.1" xmlns="http://www.w3.org/2000/svg" xmlns:xlink="http://www.w3.org/1999/xlink">
    <!-- Generator: Sketch 48.2 (47327) - http://www.bohemiancoding.com/sketch -->
    <title>client logo 4</title>
    <desc>Created with Sketch.</desc>
    <defs></defs>
    <g id="01-t-home" stroke="none" stroke-width="1" fill="none" fill-rule="evenodd" transform="translate(-82.000000, -838.000000)">
        <g id="Hero">
            <g id="clients-+-partners" transform="translate(82.000000, 702.000000)">
                <g id="client-logo-4" transform="translate(0.000000, 136.000000)">
                    <rect id="bound" opacity="0" fill="#FFFFFF" x="0" y="0" width="175" height="96"></rect>
                    <g id="Logo/Clients/telkomsel-default" transform="translate(0.000000, 20.000000)">
                        <g id="Page-1" transform="translate(-0.263554, 1.047619)">
                            <polygon id="Fill-1" fill="#2053AF" points="38.171237 11 47.439759 23.2710596 41.4215553 37.412757 26.1359919 39.2857143 16.8674699 27.0158144 22.8856737 12.8729573"></polygon>
                            <polygon id="Fill-2" fill="#59A9FF" points="33.9535595 9.42857143 43.2228916 21.6991279 37.2049166 35.8414052 21.9199345 37.7142857 12.6506024 25.4437292 18.6685774 11.3014519"></polygon>
                            <path d="M41.1727209,13.9221287 C40.1215542,6.21440253 37.1710542,0.756700149 33.0107209,0.0872715774 C26.4085542,-0.972656994 19.1950542,10.4238996 16.9503876,25.4535007 C14.7068876,40.4865885 18.2605542,53.6078534 24.8638876,54.6701064 C30.0823876,55.5080543 35.6812209,48.5615707 38.9082209,38.192401 C35.6928876,45.2748624 30.5922209,48.5941124 26.9230542,47.650404 C24.2257209,46.9577314 22.4092209,43.2131153 21.8678876,37.8786064 C21.4665542,33.9003876 21.6998876,29.0598147 22.7288876,24.0053966 C25.1345542,12.1927716 30.9538876,3.50530878 35.6578876,4.75700074 C38.6247209,5.54613616 40.6255542,11.6581585 41.1727209,13.9221287" id="Fill-3" fill="#59A9FF"></path>
                            <path d="M27.1397042,14.8391064 C8.84287088,16.7799844 -0.50096245,24.5167656 0.312204217,30.2010975 C1.12653755,35.8831049 8.28170422,38.346974 16.2302042,39.3092775 C12.8025376,38.3597582 3.95337088,35.5681481 5.79670422,31.0216124 C7.50120422,26.8190885 16.8928709,22.5363728 28.2095376,21.2393549 C41.6052042,19.7029234 52.5905376,23.1442046 53.1633709,28.0370766 C53.6078709,31.8374784 47.3230376,35.056779 42.4347042,37.0441451 C51.5183709,34.2502106 58.8275376,29.7722448 57.9805376,23.8519859 C57.1335376,17.9294025 46.9543709,12.7378445 27.1397042,14.8391064" id="Fill-6" fill="#59A9FF"></path>
                            <path d="M27.1397042,14.8391064 C26.5587042,14.9007031 25.9858709,14.9681109 25.4235376,15.0413296 C26.1877042,13.1969144 27.0300376,11.5384516 27.9202042,10.1170781 L21.0893709,10.9527016 C20.3567042,12.5623519 19.6835376,14.3114665 19.0885376,16.1756391 C18.0747042,16.4115662 17.1017042,16.6660885 16.1683709,16.9392061 L12.5493709,25.4302567 L12.5505376,25.4302567 C13.9598709,24.7596659 15.5418709,24.134401 17.2603709,23.5742195 C17.1495376,24.1936734 17.0445376,24.8201004 16.9500376,25.4535007 C16.6945376,27.1747225 16.5137042,28.8703757 16.4040376,30.5276763 L21.8523709,37.7275201 L21.8535376,37.7275201 C21.4732042,33.7783564 21.7135376,28.9958936 22.7285376,24.0053966 C22.8650376,23.3382924 23.0120376,22.6804859 23.1695376,22.0331391 C24.7900376,21.7065603 26.4782042,21.4380915 28.2095376,21.2393549 C33.8410376,20.5943326 39.0467042,20.8279353 43.2315376,21.6798296 L43.2315376,21.6786674 L37.7248709,14.3974695 C34.5678709,14.2963579 31.0398709,14.4265246 27.1397042,14.8391064" id="Fill-9" fill="#FEFEFE"></path>
                            <path d="M164.472471,36.1866722 L167.555971,18.5479266 L170.588138,18.5479266 L168.040138,33.0533746 L175.262971,33.0533746 L174.674971,36.1866722 L164.472471,36.1866722 Z M151.774471,36.1866722 L154.857971,18.5479266 L165.563304,18.5479266 L165.056971,21.6812243 L157.327804,21.6812243 L156.682638,25.3874876 L163.819138,25.3874876 L163.264971,28.5196231 L156.135471,28.5196231 L155.343304,33.0533746 L163.409638,33.0533746 L162.821638,36.1866722 L151.774471,36.1866722 Z M149.058471,23.8394341 C149.089971,22.9015368 148.926638,22.2181618 148.560304,21.7753626 C148.196304,21.3372124 147.611804,21.1163939 146.804471,21.1163939 C146.008804,21.1163939 145.342638,21.3209415 144.808304,21.7265501 C144.275138,22.1368076 143.948471,22.6842049 143.832971,23.3733909 C143.734971,23.9347347 143.862138,24.3508031 144.215638,24.6343805 C144.544638,24.9121469 145.295971,25.2119951 146.467304,25.5316007 C148.545138,26.0999177 149.925304,26.7763195 150.604304,27.5584817 C151.119971,28.1186632 151.369638,28.8775814 151.360304,29.8271007 C151.361471,30.1873835 151.322971,30.5767213 151.252971,30.9893031 C150.936804,32.7674728 150.171471,34.1597912 148.951138,35.1674207 C147.747138,36.1657525 146.221138,36.6654996 144.375471,36.6654996 C142.464471,36.6654996 141.070304,36.1657525 140.194138,35.1674207 C139.520971,34.3724743 139.179138,33.2788418 139.170971,31.8783879 L139.242138,30.7150234 L142.238138,30.7150234 C142.135471,31.6901112 142.295304,32.4188121 142.722304,32.8976394 C143.151638,33.3764668 143.857471,33.6193671 144.844471,33.6193671 C145.735804,33.6193671 146.476638,33.4183061 147.064638,33.0126975 C147.652638,32.6070888 148.002638,32.0631781 148.120471,31.3751543 C148.240638,30.7196722 148.083138,30.224574 147.647971,29.8886975 C147.229138,29.5609564 146.303971,29.2041603 144.877138,28.8194713 C143.026804,28.3232109 141.814638,27.7014326 141.226638,26.9483254 C140.813638,26.4276588 140.605971,25.7245263 140.605971,24.8342793 C140.607138,24.4449415 140.647971,24.0195754 140.726138,23.5651543 C141.029471,21.8450948 141.760971,20.4981022 142.912471,19.5276632 C144.063971,18.5572243 145.510638,18.0702615 147.261804,18.0702615 C149.050304,18.0702615 150.348804,18.5653597 151.163138,19.5555561 C151.805971,20.3260963 152.124471,21.3534832 152.124471,22.6400412 C152.117471,23.0165948 152.083638,23.414068 152.034638,23.8394341 L149.058471,23.8394341 Z M125.762471,36.1866722 L122.898304,36.1866722 L125.981804,18.5479266 L130.412804,18.5479266 L130.585471,32.6930918 L135.579971,18.5479266 L140.012138,18.5479266 L136.928638,36.1866722 L134.063304,36.1866722 L136.661471,21.3209415 L136.669638,21.3209415 L131.403304,36.1866722 L128.423638,36.1866722 L128.360638,21.3093195 L128.365304,21.3093195 L125.762471,36.1866722 Z M114.873971,33.5194177 C116.353304,33.5194177 117.586471,32.7256335 118.573471,31.1415516 C119.556971,29.552821 120.049304,27.5619683 120.049304,25.1748046 C120.050471,23.9347347 119.777471,22.9631335 119.244304,22.2634876 C118.705304,21.5626796 117.965638,21.2151811 117.020638,21.2151811 C115.540138,21.2151811 114.305804,22.0089653 113.324638,23.5942094 C112.341138,25.18294 111.848804,27.1772793 111.848804,29.5725784 C111.848804,30.8126484 112.115971,31.7796007 112.646804,32.4769222 C113.179971,33.1730814 113.924304,33.5205799 114.873971,33.5194177 Z M114.329138,36.6654996 C112.601304,36.6654996 111.231638,36.1088046 110.220138,34.9907659 C109.209804,33.877376 108.703471,32.3699996 108.703471,30.4732853 L108.704638,30.4279594 C108.712804,26.8042124 109.542304,23.8394341 111.194304,21.5301379 C112.852138,19.2243284 114.973138,18.0702615 117.566638,18.0702615 C119.293304,18.0702615 120.657138,18.630443 121.666304,19.7484817 C122.673138,20.870007 123.177138,22.3820323 123.177138,24.2857198 L123.178304,24.3310457 C123.170138,27.9466573 122.339471,30.907949 120.690971,33.2102719 C119.042471,35.5149192 116.921471,36.6654996 114.329138,36.6654996 Z M97.5606376,18.5479266 L100.576471,18.5479266 L99.3001376,25.8779371 L106.151971,18.5479266 L110.144304,18.5479266 L102.882971,25.8825859 L107.315138,36.1866722 L103.410304,36.1866722 L100.313971,28.4719728 L98.5313042,30.2780353 L97.4941376,36.1866722 L94.4771376,36.1866722 L97.5606376,18.5479266 Z M82.6926376,36.1866722 L85.7761376,18.5479266 L88.8094709,18.5479266 L86.2603042,33.0533746 L93.4831376,33.0533746 L92.8951376,36.1866722 L82.6926376,36.1866722 Z M69.9958042,36.1866722 L73.0781376,18.5479266 L83.7823042,18.5479266 L83.2771376,21.6812243 L75.5479709,21.6812243 L74.9028042,25.3874876 L82.0404709,25.3874876 L81.4851376,28.5196231 L74.3556376,28.5196231 L73.5634709,33.0533746 L81.6286376,33.0533746 L81.0394709,36.1866722 L69.9958042,36.1866722 Z M64.1146376,21.6812243 L59.7023042,21.6812243 L60.3066376,18.5479266 L72.0468042,18.5479266 L71.5416376,21.6812243 L67.1293042,21.6812243 L64.6011376,36.1866722 L61.5853042,36.1866722 L64.1146376,21.6812243 Z" id="Fill-11" fill="#59A9FF"></path>
                        </g>
                    </g>
                </g>
            </g>
        </g>
    </g>
</svg>