<?xml version="1.0" encoding="UTF-8"?>
<svg width="160px" height="80px" viewBox="0 0 160 80" version="1.1" xmlns="http://www.w3.org/2000/svg" xmlns:xlink="http://www.w3.org/1999/xlink">
    <!-- Generator: Sketch 48.2 (47327) - http://www.bohemiancoding.com/sketch -->
    <title>client logo 5</title>
    <desc>Created with Sketch.</desc>
    <defs></defs>
    <g id="client-pricing-(desktop)" stroke="none" stroke-width="1" fill="none" fill-rule="evenodd" transform="translate(-921.000000, -284.000000)">
        <g id="Clients-+-Partners">
            <g id="clients-+-partners" transform="translate(135.000000, 284.000000)">
                <g id="client-logo-5" transform="translate(786.000000, 0.000000)">
                    <rect id="bound-4" fill="#FFFFFF" x="0" y="0" width="160" height="80"></rect>
                    <g id="Logo/Clients/microsoft-2" transform="translate(0.000000, 23.000000)" fill="#949A9D">
                        <g id="microsoft">
                            <path d="M159.960696,15.811448 L159.960696,12.9322624 L156.467311,12.9322624 L156.467311,8.45622172 L156.34971,8.49328054 L153.068472,9.52079186 L153.003791,9.54090498 L153.003791,12.9324208 L147.824836,12.9324208 L147.824836,11.0430543 C147.824836,10.1633032 148.017021,9.49006787 148.395822,9.04108597 C148.771992,8.59748869 149.310019,8.37196833 149.996286,8.37196833 C150.489594,8.37196833 151.000387,8.49090498 151.514429,8.72545249 L151.643327,8.78436652 L151.643327,5.75219457 L151.582669,5.72938914 C151.103133,5.5529638 150.450909,5.46411765 149.642398,5.46411765 C148.623443,5.46411765 147.69764,5.69106335 146.890213,6.1408371 C146.082321,6.59124434 145.446809,7.23423077 145.001625,8.05174208 C144.557988,8.86830317 144.332843,9.81140271 144.332843,10.8550679 L144.332843,12.9322624 L141.900348,12.9322624 L141.900348,15.811448 L144.332843,15.811448 L144.332843,27.9409276 L147.824836,27.9409276 L147.824836,15.811448 L153.003791,15.811448 L153.003791,23.5195249 C153.003791,26.6940724 154.466847,28.3028054 157.352263,28.3028054 C157.826383,28.3028054 158.325416,28.2459502 158.834971,28.1346154 C159.353656,28.0202715 159.706925,27.906086 159.914894,27.7841403 L159.960851,27.756267 L159.960851,24.8504751 L159.818801,24.9466063 C159.629246,25.0758371 159.393269,25.1814706 159.116596,25.2600226 C158.838685,25.34 158.606576,25.3800679 158.42677,25.3800679 C157.75087,25.3800679 157.250754,25.1936652 156.940503,24.8257692 C156.626692,24.4545475 156.467466,23.8053846 156.467466,22.8972851 L156.467466,15.811448 L159.960696,15.811448 Z M134.102128,25.380543 C132.834662,25.380543 131.835358,24.9504072 131.131141,24.1031222 C130.422592,23.2515611 130.063598,22.0374887 130.063598,20.4949548 C130.063598,18.9034842 130.422592,17.6578959 131.131451,16.7912896 C131.836132,15.9303846 132.825841,15.4934389 134.073656,15.4934389 C135.284487,15.4934389 136.248356,15.9107466 136.938801,16.7344344 C137.63265,17.5623982 137.984836,18.798009 137.984836,20.408009 C137.984836,22.0378054 137.653694,23.2897285 137.000696,24.1271946 C136.352186,24.9583258 135.377021,25.380543 134.102128,25.380543 Z M134.257331,12.5707014 C131.839226,12.5707014 129.918607,13.2958824 128.549168,14.7261312 C127.180658,16.1565385 126.486809,18.1360181 126.486809,20.6100905 C126.486809,22.96 127.164101,24.8501584 128.500116,26.2271946 C129.836132,27.6047059 131.654313,28.3024887 133.903752,28.3024887 C136.247737,28.3024887 138.130135,27.5671719 139.498956,26.1171267 C140.867621,24.6686652 141.561006,22.7078733 141.561006,20.2916063 C141.561006,17.9049548 140.910329,16.0007014 139.62646,14.6328507 C138.341973,13.2643665 136.535242,12.5707014 134.257331,12.5707014 Z M120.856634,12.5707014 C119.21176,12.5707014 117.851141,13.0013122 116.81176,13.8503394 C115.766035,14.7044344 115.23559,15.8245928 115.23559,17.1800905 C115.23559,17.8846833 115.350097,18.5105656 115.575397,19.0414253 C115.802089,19.5740271 116.152882,20.0429638 116.618956,20.4365158 C117.08147,20.8269005 117.795435,21.2358145 118.741509,21.6518552 C119.536867,21.98681 120.129981,22.2701357 120.50677,22.4934389 C120.875048,22.7123077 121.136402,22.9322851 121.284023,23.1465611 C121.427466,23.3562443 121.500193,23.6432127 121.500193,23.9973303 C121.500193,25.0056787 120.762398,25.4963122 119.244255,25.4963122 C118.681161,25.4963122 118.038839,25.3759502 117.335242,25.1387104 C116.636642,24.9050575 115.977286,24.562887 115.380271,24.1241855 L115.23528,24.0177602 L115.23528,27.4586878 L115.288511,27.4840271 C115.782592,27.7174661 116.405571,27.9143213 117.139807,28.0692081 C117.87265,28.2242534 118.538491,28.3031222 119.116905,28.3031222 C120.901818,28.3031222 122.339188,27.8704525 123.388008,27.0163575 C124.443482,26.1564027 124.978414,25.0097964 124.978414,23.6074208 C124.978414,22.5957466 124.690445,21.72819 124.122863,21.0285068 C123.559149,20.3345249 122.580735,19.6973982 121.216093,19.1342308 C120.128897,18.6876244 119.432418,18.3168778 119.145068,18.0322851 C118.868085,17.7573529 118.727427,17.368552 118.727427,16.8761765 C118.727427,16.4397059 118.901044,16.0900226 119.257408,15.8068552 C119.616557,15.5222624 120.116518,15.3775113 120.74352,15.3775113 C121.325338,15.3775113 121.920619,15.4715837 122.51265,15.6559276 C123.104217,15.8402715 123.62383,16.0871719 124.057563,16.3891855 L124.200232,16.4889593 L124.200232,13.2249321 L124.145455,13.2008597 C123.7453,13.0252262 123.21764,12.8749321 122.576712,12.7529864 C121.938723,12.6318326 121.36,12.5707014 120.856634,12.5707014 Z M106.132147,25.380543 C104.86499,25.380543 103.865377,24.9504072 103.161315,24.1031222 C102.452611,23.2515611 102.094236,22.0378054 102.094236,20.4949548 C102.094236,18.9034842 102.453075,17.6578959 103.162089,16.7912896 C103.866151,15.9303846 104.855706,15.4934389 106.104139,15.4934389 C107.314507,15.4934389 108.278375,15.9107466 108.968975,16.7344344 C109.662979,17.5623982 110.01501,18.798009 110.01501,20.408009 C110.01501,22.0378054 109.683714,23.2897285 109.030716,24.1271946 C108.382205,24.9583258 107.407505,25.380543 106.132147,25.380543 Z M106.287814,12.5707014 C103.869091,12.5707014 101.948317,13.2958824 100.579652,14.7261312 C99.2111412,16.1565385 98.5168279,18.1360181 98.5168279,20.6100905 C98.5168279,22.9609502 99.1945841,24.8501584 100.5306,26.2271946 C101.866615,27.6047059 103.684642,28.3024887 105.934081,28.3024887 C108.277756,28.3024887 110.160619,27.5671719 111.529439,26.1171267 C112.897795,24.6686652 113.591489,22.7078733 113.591489,20.2916063 C113.591489,17.9049548 112.940658,16.0007014 111.65648,14.6328507 C110.371683,13.2643665 108.565261,12.5707014 106.287814,12.5707014 Z M93.2160928,15.531448 L93.2160928,12.9322624 L89.7666538,12.9322624 L89.7666538,27.9406109 L93.2160928,27.9406109 L93.2160928,20.2632579 C93.2160928,18.9578054 93.5052998,17.8853167 94.0759768,17.0752489 C94.639381,16.2748416 95.3901741,15.8692534 96.3068472,15.8692534 C96.6175629,15.8692534 96.9663443,15.9216742 97.3440619,16.0254072 C97.717911,16.1285068 97.9887041,16.2404751 98.1483946,16.3583032 L98.2933849,16.4658371 L98.2933849,12.9066063 L98.2375242,12.8820588 C97.9162863,12.7423756 97.4618182,12.6719005 96.8868085,12.6719005 C96.0199613,12.6719005 95.2442553,12.9569683 94.5798066,13.5182353 C93.9965957,14.0115611 93.575087,14.6879638 93.252766,15.531448 L93.2160928,15.531448 Z M83.589323,12.5707014 C82.0068085,12.5707014 80.5952805,12.918009 79.3946615,13.6026471 C78.1915667,14.2888688 77.2611219,15.268552 76.6280851,16.5142986 C75.9978337,17.7570362 75.6778337,19.2086652 75.6778337,20.8275339 C75.6778337,22.2455882 75.9880851,23.5469231 76.6013153,24.6938462 C77.2148549,25.8426697 78.0832495,26.7414253 79.1825145,27.3647738 C80.2802321,27.9873303 81.5489362,28.3029638 82.9536557,28.3029638 C84.5929594,28.3029638 85.9925725,27.9675339 87.1147389,27.3060181 L87.1600774,27.2794118 L87.1600774,24.045 L87.015087,24.1533258 C86.5067698,24.5323077 85.9387234,24.8347964 85.3275048,25.0527149 C84.7178337,25.2704751 84.1620116,25.380543 83.6745841,25.380543 C82.3210832,25.380543 81.2345068,24.9470814 80.4458027,24.0925113 C79.6553965,23.2368326 79.2546228,22.0352715 79.2546228,20.5233032 C79.2546228,19.0018326 79.6725725,17.7693891 80.4962476,16.8600226 C81.3174468,15.9533484 82.4060348,15.4934389 83.731528,15.4934389 C84.8652998,15.4934389 85.9701354,15.8863575 87.0153965,16.6623756 L87.1600774,16.7699095 L87.1600774,13.3619231 L87.1133462,13.335 C86.72,13.109638 86.1835203,12.923552 85.5175242,12.7824434 C84.8543133,12.6416516 84.205648,12.5707014 83.589323,12.5707014 Z M73.3021277,12.9324208 L69.8526886,12.9324208 L69.8526886,27.9406109 L73.3021277,27.9406109 L73.3021277,12.9324208 Z M71.6126886,6.53882353 C71.0449516,6.53882353 70.5497872,6.73662896 70.1429787,7.12859729 C69.7344681,7.52167421 69.5272727,8.01658371 69.5272727,8.60065611 C69.5272727,9.17554299 69.7319923,9.66142534 70.1366344,10.0440498 C70.538646,10.4255656 71.0353578,10.6189367 71.6128433,10.6189367 C72.1901741,10.6189367 72.6887427,10.4255656 73.0955513,10.0446833 C73.5049903,9.66142534 73.7126499,9.17570136 73.7126499,8.60065611 C73.7126499,8.03701357 73.5105609,7.54717195 73.1124178,7.14443439 C72.7145841,6.74248869 72.2098259,6.53882353 71.6126886,6.53882353 Z M63.0061122,11.8250905 L63.0061122,27.9406109 L66.5264217,27.9406109 L66.5264217,6.99825792 L61.6541586,6.99825792 L55.4611992,22.5536199 L49.4512959,6.99825792 L44.3806576,6.99825792 L44.3806576,27.9406109 L47.6888201,27.9404525 L47.6888201,11.8235068 L47.8023985,11.8235068 L54.1487041,27.9406109 L56.6452611,27.9406109 L62.8925338,11.8250905 L63.0061122,11.8250905 Z" id="Shape" fill-rule="nonzero"></path>
                            <polygon id="Shape" fill-rule="nonzero" points="16.2271567 16.6080543 0 16.6080543 0 0 16.2271567 0"></polygon>
                            <polygon id="Shape" fill-rule="nonzero" points="34.1437524 16.6080543 17.9169052 16.6080543 17.9169052 0 34.1437524 0"></polygon>
                            <polygon id="Shape" fill-rule="nonzero" points="16.2266925 34.9516968 0 34.9516968 0 18.3438009 16.2266925 18.3438009"></polygon>
                            <polygon id="Shape" fill-rule="nonzero" points="34.1437524 34.9516968 17.9169052 34.9516968 17.9169052 18.3438009 34.1437524 18.3438009"></polygon>
                        </g>
                    </g>
                </g>
            </g>
        </g>
    </g>
</svg>