<?xml version="1.0" encoding="UTF-8"?>
<svg width="160px" height="80px" viewBox="0 0 160 80" version="1.1" xmlns="http://www.w3.org/2000/svg" xmlns:xlink="http://www.w3.org/1999/xlink">
    <!-- Generator: Sketch 49 (51002) - http://www.bohemiancoding.com/sketch -->
    <title>client logo 6</title>
    <desc>Created with Sketch.</desc>
    <defs></defs>
    <g id="Assets-Hero" stroke="none" stroke-width="1" fill="none" fill-rule="evenodd">
        <g id="client-pricing-(desktop)" transform="translate(-1145.000000, -284.000000)">
            <g id="Clients-+-Partners">
                <g id="clients-+-partners" transform="translate(135.000000, 284.000000)">
                    <g id="client-logo-6" transform="translate(1010.000000, 0.000000)">
                        <rect id="bound-2" fill="#FFFFFF" x="0" y="0" width="160" height="80"></rect>
                        <g id="Logo/Clients/alfamart-2" transform="translate(18.000000, 20.000000)" fill="#949A9D">
                            <g id="Group" transform="translate(1.000000, 0.000000)">
                                <path d="M9.01623661,12.349419 L7.20421404,12.349419 L9.01623661,5.84696942 L10.828334,12.349419 L9.01623661,12.349419 Z M12.4138631,1.85863928 C11.671123,0.139165616 9.97896474,0 9.01623661,0 C8.05358326,0 6.36209798,0.139165616 5.61861016,1.85863928 C4.67008928,4.05206597 1.61702603,12.6943514 0.245353432,17.1665473 C-0.106986368,18.3153413 -0.389561093,20.2260225 1.71356056,20.8294607 C4.42953811,21.6086178 5.30567678,19.527329 5.58084878,18.4315062 C5.67170041,18.0696137 5.95876163,16.9988051 5.95876163,16.9988051 L9.01623661,16.9988051 L12.0737864,16.9988051 C12.0737864,16.9988051 12.3981603,18.0696137 12.4890119,18.4315062 C12.7642587,19.527329 13.485314,21.5828291 16.2012168,20.8036721 C18.3044132,20.2002338 18.1395344,18.3153413 17.7871946,17.1665473 C16.4154472,12.6943514 13.3615614,4.05245319 12.4138631,1.85863928 Z" id="Fill-1"></path>
                                <path d="M22.5,0 C21.1250106,0 20,1.23088941 20,2.73528406 L20,18.2647159 C20,19.7691106 21.1250106,21 22.5,21 C23.8749894,21 25,19.7691106 25,18.2647159 L25,2.73528406 C25,1.23088941 23.8749894,0 22.5,0" id="Fill-3"></path>
                                <path d="M37.7671073,7.59090926 C37.7671073,6.60025364 36.9723807,5.78969618 36.0010734,5.78969618 L34.3543242,5.78969618 L34.3543242,4.55456099 C34.3543242,4.12820777 34.6931805,3.7826015 35.1112067,3.7826015 L36.2843745,3.7826015 C37.3042736,3.7826015 38,2.95915231 38,1.9684967 C38,0.887753414 36.7195819,0 34.7012034,0 L33.2568446,0 C33.1887252,0 33.121514,0.00401418935 33.0552868,0.0114250005 L33.0552868,0 C30.8103734,0 28.9906009,1.8560222 28.9906009,4.14557686 L28.9906009,5.78969618 L28.7660339,5.78969618 C27.7947266,5.78969618 27,6.60025364 27,7.59090926 C27,8.58156487 27.7947266,9.39212234 28.7660339,9.39212234 L28.9906009,9.39212234 L28.9906009,18.2647159 C28.9906009,19.7690334 30.19745,21 31.6724626,21 C33.1474751,21 34.3543242,19.7690334 34.3543242,18.2647159 L34.3543242,9.39212234 L36.0010734,9.39212234 C36.9723807,9.39212234 37.7671073,8.58156487 37.7671073,7.59090926" id="Fill-5"></path>
                                <path d="M48.7267534,14.5270336 C48.7267534,15.9327634 47.5746852,17.0829268 46.1666275,17.0829268 L46.1665507,17.0829268 C44.7584929,17.0829268 43.6064247,15.9327634 43.6064247,14.5270336 L43.6064247,11.3923783 C43.6064247,9.98657184 44.7584929,8.83640842 46.1665507,8.83640842 L46.1666275,8.83640842 C47.5746852,8.83640842 48.7267534,9.98657184 48.7267534,11.3923783 L48.7267534,14.5270336 Z M51.6959404,5 L51.5685217,5 C50.7232108,5 49.9809717,5.46083214 49.5799751,6.14303241 C48.4299039,5.417586 47.0825217,5 45.6418988,5 C41.4214121,5 38,8.58168556 38,13 C38,17.4183144 41.4214121,21 45.6418988,21 C47.0825217,21 48.4299039,20.5824907 49.5799751,19.8569676 C49.9809717,20.5391679 50.7232108,21 51.5685217,21 L51.6959404,21 C52.9632154,21 54,19.9648529 54,18.6996732 L54,7.30032684 C54,6.03514708 52.9632154,5 51.6959404,5 Z" id="Fill-7"></path>
                                <path d="M78.4796636,5.17362007 C74.5379732,4.80886103 72.4857693,8.19472006 71.1784186,9.90609373 C71.1572217,9.94786995 71.1078921,9.97566984 71.0311312,9.97681544 C70.7994459,9.98017587 70.8439438,9.66505949 70.8601532,9.58318728 C71.1162306,8.59629105 71.9922397,5.11435437 69.4992647,5.00437676 C65.6210872,4.83322412 63.6111992,9.7400581 62.7879485,9.49306674 C61.9664123,9.25882972 64.6842928,6.03778435 62.0098972,5.31147394 C61.0042128,5.03927938 60.0787183,5.19362989 59.2407389,5.47911341 C59.240661,5.47911341 59.2405831,5.47896066 59.2405831,5.47896066 C59.2405831,5.47896066 58.9982213,5.5493005 58.7496252,5.66347864 C58.7183753,5.67623299 58.6868917,5.68868184 58.6558756,5.70158893 C58.6564211,5.7065532 58.6529922,5.70960813 58.6488619,5.71235757 C58.4442961,5.81683629 58.2575763,5.94919128 58.224612,6.09445336 C58.1473056,6.4354603 58.5830891,6.78418095 58.5507483,7.19132719 C58.2255471,10.8650373 57.051924,14.394631 56.1254164,18.0753674 C55.923734,18.8432249 55.6518368,20.8816292 58.0911182,20.8463448 C58.7073093,20.8374854 60.1592977,20.4616523 60.468757,20.225124 C60.560948,20.1281299 60.4470146,20.0204435 60.4097642,19.9115351 C60.3060396,19.1759072 60.3014417,18.4109519 60.5589998,17.683725 C60.6962342,17.2853617 60.8599647,16.8869984 61.0758303,16.501924 C61.480442,15.7039754 65.559133,8.43056091 66.7815401,8.71138566 C67.5242893,8.88208007 64.797291,18.2847067 64.6493023,19.0654713 C64.4696741,19.7920872 64.4035896,20.6257786 65.9250135,20.9044649 C66.6067436,21.0309391 68.1008141,21.0499561 68.7218368,20.8499343 C69.0697156,20.7359089 69.0631695,20.4214799 69.0175026,20.2449047 C68.9494698,19.836231 68.751684,19.429543 68.8625781,19.0180435 C69.8084903,15.5768138 72.0926133,11.740123 74.9732892,8.59865862 C75.0435039,8.52931164 75.2339644,8.3899303 75.3930971,8.42857521 C75.7348194,8.50548316 75.7126094,8.77905244 75.6770734,8.93004252 C75.1896224,11.8458237 73.9635525,15.2299261 73.8625554,18.1536501 C73.85523,18.8092388 73.9029231,20.7066579 75.3952012,20.9586136 C76.4149129,21.121136 79.1236756,20.7136079 78.9131092,19.9380367 C78.667942,19.0812042 78.1351358,18.4198112 78.2443934,17.5169256 C78.5731014,14.5622704 79.3022908,11.4706779 79.9151309,8.52572209 C80.013868,8.00485595 80.3366533,5.34546008 78.4796636,5.17362007" id="Fill-9"></path>
                                <path d="M92.1550607,9.69780792 C91.9771299,10.3463241 89.8418051,13.6387321 89.2570754,14.4369587 C88.6724235,15.2351089 87.8787341,16.2759854 87.350541,16.8314858 C87.1105522,17.0839027 86.1812372,17.9040288 86.0032287,16.4324106 C85.8252979,14.9607925 86.6642477,11.3128795 87.4014006,9.87239375 C88.0690298,8.56788352 88.8533095,7.47344095 90.4010272,7.8270383 C91.9709085,8.18574809 92.3329914,9.04929175 92.1550607,9.69780792 M95.5854384,5.26723457 C94.4189342,5.21633913 94.1338406,5.52155912 93.4339381,5.69965499 C92.7340356,5.87767454 91.9822625,5.36894913 91.9822625,5.36894913 C91.9822625,5.36894913 91.2045931,4.98742414 90.1936228,5.00031969 C89.1826525,5.01321523 87.9902519,4.86030002 85.9683113,6.51352408 C83.9463707,8.16682445 82.4687987,10.5068698 81.4578284,13.6098888 C80.4468582,16.7129841 81.0430196,20.7826348 83.9203966,20.986064 C86.7977735,21.1895694 88.1198116,19.1038486 88.6123875,18.6715045 C89.1048855,18.2390841 90.7379914,16.0262391 90.7379914,16.0262391 C90.7379914,16.0262391 90.712095,17.6032345 90.8416547,18.696914 C90.9712922,19.7905936 92.1377964,20.986064 93.4079639,20.986064 C94.6782092,20.986064 95.8447134,20.4774148 96.0261437,20.1212994 C96.207574,19.765184 95.9483767,19.1801536 95.8447134,18.8973673 C95.7409723,18.6146573 95.5854384,17.3997291 95.7150759,14.8053592 C95.8447134,12.2109893 96.8815801,9.08248442 97.2185443,8.09051946 C97.5555862,7.0985545 98.0480843,6.53900995 97.9962137,6.03028454 C97.9444209,5.52155912 96.7519426,5.31813 95.5854384,5.26723457" id="Fill-11"></path>
                                <path d="M109.15184,5.04243833 C107.677255,5.31084788 105.86843,7.17054267 105.18029,8.12914823 C104.49215,9.08775379 104.157911,9.35616335 103.921977,9.37533546 C103.686044,9.39450757 104.236556,7.97577134 104.334861,7.05551001 C104.433167,6.13524867 104.157911,5.23415944 102.545698,5.21498733 C100.933485,5.19581522 99.6751718,5.61760166 99.6751718,5.61760166 C99.6751718,5.61760166 99.281949,5.73263433 99.3016102,6.03938811 C99.3212713,6.34614189 99.419577,6.25028133 99.4982215,6.65289567 C99.5768661,7.05551001 99.6948329,7.2088869 99.3409324,9.16444224 C98.987032,11.1199976 97.8270249,15.6637879 97.1782073,17.9452692 C96.5293898,20.2267504 97.7483803,21 99.281949,21 C100.815518,21 102.132814,20.6485369 101.759252,19.6515871 C101.385691,18.6546373 101.798575,18.0986461 102.958582,15.4720668 C104.118589,12.8454876 105.966736,11.0433091 106.143686,10.7261257 C106.320636,10.409019 107.42166,9.91215458 108.1098,10.50649 C108.797939,11.1008255 109.112518,10.4106295 109.879302,9.37548884 C110.646086,8.3404249 110.764053,7.78405023 110.960665,6.80627256 C111.157276,5.82849489 110.626425,4.77402877 109.15184,5.04243833" id="Fill-13"></path>
                                <path d="M116.327093,10.5672869 C116.538615,9.84437066 117.019348,9.60991133 117.509389,9.57083478 C117.999352,9.53175823 120.307563,9.66852616 121.172883,8.75022715 C122.038202,7.83192813 121.999744,6.58147841 121.999744,6.58147841 C121.999744,6.58147841 121.82668,6.65963151 121.134424,6.77686118 C120.442168,6.89409084 118.423089,6.95270567 117.711604,6.89409084 C117.000119,6.83547601 117.365476,5.97579182 117.365476,5.97579182 C117.365476,5.97579182 118.11542,4.08057896 118.192337,2.47844025 C118.269255,0.87630154 116.96166,0.93491637 115.019499,1.05214603 C113.077337,1.16937569 112.885043,1.83367711 113.077337,2.16582782 C113.55807,2.88874406 113.250401,4.2173469 113.038878,5.46779662 C112.827355,6.71824635 111.289009,12.3061936 111.039028,15.9012365 C110.789047,19.4962795 111.731284,20.238734 114.11572,20.8248823 C116.500157,21.4110306 118.346172,20.4145785 119.461473,19.4767412 C120.576774,18.5389039 120.269104,17.3861456 120.019123,16.8586121 C119.769142,16.3310786 119.346097,16.7023059 119.346097,16.7023059 C119.346097,16.7023059 118.480777,17.5229135 116.730909,17.698758 C114.98104,17.8746025 115.55792,14.7094016 115.55792,14.7094016 C115.55792,14.7094016 116.11557,11.2902031 116.327093,10.5672869" id="Fill-15"></path>
                                <path d="M7.31312378,26 C2.39342059,26 0,29.6821944 0,34.1826972 L0,35 L114.6868,35 C119.606503,35 122,31.3178056 122,26.8173028 L122,26 L7.31312378,26 Z" id="Fill-17"></path>
                                <path d="M114.59402,37.1621531 C110.170135,37.1898514 107.960326,37.2106532 107.964593,37.2245585 L0,37.2245585 L0,40 L114.263269,40 C119.279245,40 121.525245,35.2502944 122,33 C121.822167,33.2996636 121.630848,33.5868797 121.425281,33.8600505 C119.799715,36.0202691 117.437445,37.1621531 114.59402,37.1621531 Z" id="Fill-19"></path>
                            </g>
                        </g>
                    </g>
                </g>
            </g>
        </g>
    </g>
</svg>