<?xml version="1.0" encoding="UTF-8"?>
<svg width="160px" height="80px" viewBox="0 0 160 80" version="1.1" xmlns="http://www.w3.org/2000/svg" xmlns:xlink="http://www.w3.org/1999/xlink">
    <!-- Generator: Sketch 48.2 (47327) - http://www.bohemiancoding.com/sketch -->
    <title>client logo 2</title>
    <desc>Created with Sketch.</desc>
    <defs></defs>
    <g id="client-pricing-(desktop)" stroke="none" stroke-width="1" fill="none" fill-rule="evenodd" transform="translate(-359.000000, -284.000000)">
        <g id="Clients-+-Partners">
            <g id="clients-+-partners" transform="translate(135.000000, 284.000000)">
                <g id="client-logo-2" transform="translate(224.000000, 0.000000)">
                    <rect id="bound" fill="#FFFFFF" x="0" y="0" width="160" height="80"></rect>
                    <g id="Logo/Clients/telkomsel-2" transform="translate(6.000000, 17.000000)">
                        <g id="Page-1" transform="translate(-0.222892, 0.895238)">
                            <polygon id="Fill-1" fill="#484C4F" points="32.2819604 9.4 40.1204819 19.8861782 35.030801 31.9709014 22.1035817 33.5714286 14.2650602 23.0862414 19.3547411 11.0005271"></polygon>
                            <polygon id="Fill-2" fill="#949A9D" points="28.7150103 8.05714286 36.5542169 18.5428911 31.4647295 30.6281099 18.5380017 32.2285714 10.6987952 21.7428232 15.7882826 9.65760439"></polygon>
                            <path d="M34.8203582,11.8970918 C33.9313716,5.31048943 31.4360916,0.646634673 27.9176382,0.0745775298 C22.3340916,-0.831179613 16.2335316,8.90769598 14.3351849,21.7511734 C12.4378249,34.5976302 15.4432116,45.8103475 21.0277449,46.7180909 C25.4411049,47.4341555 30.1761182,41.4980695 32.9052382,32.6371427 C30.1859849,38.6894278 25.8722782,41.5258778 22.7692116,40.7194362 C20.4880382,40.1275159 18.9517982,36.9275713 18.4939849,32.3689909 C18.1545716,28.9694222 18.3519049,24.8329326 19.2221449,20.5137025 C21.2566516,10.4192775 26.1781449,2.99544568 30.1563849,4.06507336 C32.6654782,4.73942545 34.3576116,9.96242634 34.8203582,11.8970918" id="Fill-3" fill="#949A9D"></path>
                            <path d="M22.9524356,12.6806909 C7.47854223,14.3392594 -0.4236711,20.9506906 0.264035566,25.8082106 C0.9527289,30.6637442 7.00395557,32.7692323 13.7261156,33.5915644 C10.8272889,32.780157 3.34342223,30.3945993 4.90235557,26.5093778 C6.34387557,22.9181302 14.2865422,19.2583549 23.8572089,18.1499942 C35.1861156,16.8370436 44.4765689,19.7777749 44.9610222,23.9589564 C45.3369422,27.2065725 40.0217689,29.9576112 35.8876356,31.6559058 C43.5698222,29.2683618 49.7512889,25.4417365 49.0349689,20.3826061 C48.3186489,15.3214894 39.7099822,10.8850671 22.9524356,12.6806909" id="Fill-6" fill="#949A9D"></path>
                            <path d="M22.9524356,12.6806909 C22.4610756,12.7333281 21.9766222,12.7909311 21.5010489,12.8534999 C22.1473156,11.2773632 22.8596889,9.8601314 23.6125156,8.64550312 L17.8355822,9.3595814 C17.2159556,10.7351007 16.6466489,12.2297987 16.1434489,13.8228189 C15.2860356,14.0244293 14.4631556,14.2419302 13.6738222,14.4753216 L10.6131822,21.7313103 L10.6141689,21.7313103 C11.8060622,21.15826 13.1439822,20.6239427 14.5973422,20.1452421 C14.5036089,20.6745936 14.4148089,21.209904 14.3348889,21.7511734 C14.1188089,23.2220356 13.9658756,24.6710484 13.8731289,26.0872871 L18.4808622,32.2398808 L18.4818489,32.2398808 C18.1601956,28.8651409 18.3634489,24.7783091 19.2218489,20.5137025 C19.3372889,19.9436317 19.4616089,19.3815061 19.5948089,18.8283189 C20.9652889,18.5492424 22.3929956,18.3198237 23.8572089,18.1499942 C28.6198489,17.5987933 33.0223556,17.7984174 36.5615289,18.5263999 L36.5615289,18.5254067 L31.9044622,12.3032921 C29.2345422,12.2168876 26.2508622,12.328121 22.9524356,12.6806909" id="Fill-9" fill="#FEFEFE"></path>
                            <path d="M139.096718,30.9231562 L141.704478,15.8500464 L144.268825,15.8500464 L142.113945,28.245611 L148.222398,28.245611 L147.725118,30.9231562 L139.096718,30.9231562 Z M128.357838,30.9231562 L130.965598,15.8500464 L140.019252,15.8500464 L139.591038,18.5275916 L133.054372,18.5275916 L132.508745,21.6947622 L138.544185,21.6947622 L138.075518,24.3713143 L132.045998,24.3713143 L131.376052,28.245611 L138.197865,28.245611 L137.700585,30.9231562 L128.357838,30.9231562 Z M126.060878,20.37188 C126.087518,19.5704041 125.949385,18.9864291 125.639572,18.6080372 C125.331732,18.2336178 124.837412,18.0449184 124.154638,18.0449184 C123.481732,18.0449184 122.918345,18.2197137 122.466452,18.5663247 C122.015545,18.9169083 121.739278,19.3846842 121.641598,19.973625 C121.558718,20.4533187 121.666265,20.8088681 121.965225,21.0511979 C122.243465,21.2885619 122.878878,21.5447958 123.869492,21.8179134 C125.626745,22.303566 126.793972,22.8815821 127.368212,23.5499753 C127.804318,24.0286759 128.015465,24.6772059 128.007572,25.4886134 C128.008558,25.7964913 127.975998,26.1291982 127.916798,26.4817681 C127.649412,28.0012949 127.002158,29.1910943 125.970105,30.0521595 C124.951865,30.9052794 123.661305,31.332336 122.100398,31.332336 C120.484238,31.332336 119.305172,30.9052794 118.564185,30.0521595 C117.994878,29.3728416 117.705785,28.438283 117.698878,27.2415315 L117.759065,26.2473836 L120.292825,26.2473836 C120.205998,27.0806404 120.341172,27.7033485 120.702292,28.1125282 C121.065385,28.521708 121.662318,28.7292774 122.497038,28.7292774 C123.250852,28.7292774 123.877385,28.5574616 124.374665,28.2108506 C124.871945,27.8642396 125.167945,27.3994431 125.267598,26.8114955 C125.369225,26.2513562 125.236025,25.8282723 124.867998,25.5412506 C124.513785,25.2611809 123.731358,24.9562824 122.524665,24.6275482 C120.959812,24.2034711 119.934665,23.6721333 119.437385,23.028569 C119.088105,22.5836357 118.912478,21.9827771 118.912478,21.2220205 C118.913465,20.8893137 118.947998,20.525819 119.014105,20.1374955 C119.270638,18.6676265 119.889278,17.5165601 120.863118,16.6872759 C121.836958,15.8579916 123.060425,15.4418598 124.541412,15.4418598 C126.053972,15.4418598 127.152132,15.8649437 127.840825,16.7111116 C128.384478,17.3695732 128.653838,18.247522 128.653838,19.3469443 C128.647918,19.6687265 128.619305,20.0083854 128.577865,20.37188 L126.060878,20.37188 Z M106.359118,30.9231562 L103.936852,30.9231562 L106.544612,15.8500464 L110.291972,15.8500464 L110.437998,27.937733 L114.661918,15.8500464 L118.410265,15.8500464 L115.802505,30.9231562 L113.379252,30.9231562 L115.576558,18.2197137 L115.583465,18.2197137 L111.129652,30.9231562 L108.609705,30.9231562 L108.556425,18.2097821 L108.560372,18.2097821 L106.359118,30.9231562 Z M97.1505582,28.643866 C98.4016516,28.643866 99.4445582,27.9655413 100.279278,26.6118714 C101.111038,25.2542288 101.527412,23.5529547 101.527412,21.5130149 C101.528398,20.4533187 101.297518,19.6230413 100.846612,19.0251622 C100.390772,18.4262899 99.7652249,18.1293366 98.9660249,18.1293366 C97.7139449,18.1293366 96.6700516,18.8076613 95.8402649,20.1623244 C95.0085049,21.5199669 94.5921316,23.2242205 94.5921316,25.2711125 C94.5921316,26.3308086 94.8180782,27.1571134 95.2670116,27.7530062 C95.7179182,28.3479059 96.3474116,28.6448592 97.1505582,28.643866 Z M96.6897849,31.332336 C95.2285316,31.332336 94.0701849,30.8566149 93.2147449,29.9012 C92.3602916,28.9497577 91.9320782,27.661636 91.9320782,26.0408074 L91.9330649,26.0020744 C91.9399716,22.9054178 92.6414916,20.37188 94.0386116,18.3984815 C95.4406649,16.4280625 97.2344249,15.4418598 99.4277849,15.4418598 C100.888052,15.4418598 102.041465,15.9205604 102.894932,16.8759753 C103.746425,17.8343696 104.172665,19.126464 104.172665,20.7532515 L104.173652,20.7919845 C104.166745,23.881689 103.464238,26.4122473 102.070078,28.3796869 C100.675918,30.3491128 98.8821582,31.332336 96.6897849,31.332336 Z M82.5084249,15.8500464 L85.0589582,15.8500464 L83.9795449,22.1138735 L89.7742382,15.8500464 L93.1506116,15.8500464 L87.0095982,22.1178461 L90.7579449,30.9231562 L87.4555716,30.9231562 L84.8369582,24.3305949 L83.3293316,25.8739574 L82.4521849,30.9231562 L79.9006649,30.9231562 L82.5084249,15.8500464 Z M69.9343449,30.9231562 L72.5421049,15.8500464 L75.1074382,15.8500464 L72.9515716,28.245611 L79.0600249,28.245611 L78.5627449,30.9231562 L69.9343449,30.9231562 Z M59.1964516,30.9231562 L61.8032249,15.8500464 L70.8558916,15.8500464 L70.4286649,18.5275916 L63.8919982,18.5275916 L63.3463716,21.6947622 L69.3827982,21.6947622 L68.9131449,24.3713143 L62.8836249,24.3713143 L62.2136782,28.245611 L69.0345049,28.245611 L68.5362382,30.9231562 L59.1964516,30.9231562 Z M54.2226649,18.5275916 L50.4910916,18.5275916 L51.0021849,15.8500464 L60.9310116,15.8500464 L60.5037849,18.5275916 L56.7722116,18.5275916 L54.6341049,30.9231562 L52.0835716,30.9231562 L54.2226649,18.5275916 Z" id="Fill-11" fill="#949A9D"></path>
                        </g>
                    </g>
                </g>
            </g>
        </g>
    </g>
</svg>