<?xml version="1.0" encoding="UTF-8"?>
<svg width="160px" height="80px" viewBox="0 0 160 80" version="1.1" xmlns="http://www.w3.org/2000/svg" xmlns:xlink="http://www.w3.org/1999/xlink">
    <!-- Generator: Sketch 48.2 (47327) - http://www.bohemiancoding.com/sketch -->
    <title>client logo 3</title>
    <desc>Created with Sketch.</desc>
    <defs></defs>
    <g id="client-pricing-(desktop)" stroke="none" stroke-width="1" fill="none" fill-rule="evenodd" transform="translate(-557.000000, -284.000000)">
        <g id="Clients-+-Partners">
            <g id="clients-+-partners" transform="translate(135.000000, 284.000000)">
                <g id="client-logo-3" transform="translate(422.000000, 0.000000)">
                    <rect id="bound-3" fill="#FFFFFF" x="0" y="0" width="160" height="80"></rect>
                    <g id="Logo/Clients/unilever-2" transform="translate(50.000000, 8.000000)" fill="#949A9D" fill-rule="nonzero">
                        <path d="M48.3507555,13.0245963 C48.5858239,14.6897888 51.195413,16.933764 51.9018513,16.8812919 C52.3744541,16.8812919 52.5544541,14.7072795 52.5544541,13.0245963 C52.5544541,12.0602236 52.6099335,11.3061366 52.0839061,11.1308323 C51.2500705,12.7618385 49.0571938,13.0949565 48.3507555,13.0245963 Z M48.495413,12.288 C50.3792486,12.288 52.1023993,10.8334907 52.1023993,9.55349068 C52.1023993,8.95721739 51.8118513,8.46708075 51.0684267,8.37962733 C51.195413,8.53744099 51.2496596,8.66027329 51.2496596,8.93972671 C51.2496596,9.90449689 49.7287007,10.9742112 48.0782897,10.9742112 C47.4795226,10.9742112 47.2991116,11.3764969 47.2991116,11.5867826 C47.2995226,12.0777143 47.7881527,12.288 48.495413,12.288 Z M48.0963719,10.3075776 C47.8436322,10.3075776 47.4799335,10.3075776 47.2818513,9.92198758 C47.1174678,9.60636025 47.1725363,9.09793789 46.8643171,8.86976398 C47.1725363,8.95721739 47.4984267,8.95721739 47.7519883,8.95721739 C48.5681527,8.95721739 49.3477418,8.4146087 49.944865,8.4146087 C50.3439061,8.4146087 50.4696596,8.66027329 50.4696596,8.90474534 C50.4696596,9.67592547 48.8587007,10.3075776 48.0963719,10.3075776 Z M7.55774175,24.050087 C8.17294723,24.050087 8.04513901,20.4040745 9.04253627,20.4040745 C9.27883764,20.4040745 9.35116641,20.6322484 9.35116641,20.9120994 C9.35116641,21.7361491 8.93404312,22.9457888 8.93404312,23.6120248 C8.93404312,23.9447453 9.02486504,24.050087 9.18760477,24.050087 C9.6232212,24.050087 10.3839061,20.0359752 11.1273308,20.0359752 C11.3628102,20.0359752 11.4713034,20.2637516 11.4713034,20.4919255 C11.4713034,21.3326708 10.3658239,23.7519503 10.3658239,24.434882 C10.3658239,24.5402236 10.4023993,24.627677 10.4923993,24.627677 C10.9460979,24.627677 11.8526733,22.7347081 12.1423993,21.7886211 C12.305139,21.2976894 12.5225363,21.0349317 12.7214404,21.0349317 C12.9026733,21.0349317 13.0658239,21.2281242 13.0658239,21.6308075 C13.0658239,22.5772919 12.1604815,24.8037764 11.3623993,26.2936646 C10.7459609,27.4500373 9.78596093,29.1160248 9.78596093,30.0454161 C9.78596093,30.5184596 9.87719381,31.0089938 10.5828102,31.6052671 C9.42308422,31.5353043 8.95253627,31.4303602 8.51691983,30.5538385 C6.57760477,34.2865093 12.0873308,33.92 10.2026733,37.2324969 C9.85911161,36.6366211 7.14020751,36.0228571 7.14020751,32.5525466 C7.14020751,29.554087 9.85911161,27.801441 9.85911161,26.5568199 C9.85911161,26.3115528 9.76787874,26.1012671 9.53281025,25.9088696 C8.93404312,25.4179379 8.91637189,25.0144596 8.44500203,25.0144596 C8.10102942,25.0144596 7.68431709,25.7860373 8.11870066,26.4689689 C8.26376915,26.6967453 8.39116641,26.8374658 8.39116641,27.0481491 C8.39116641,27.5390807 7.59431709,28.8532671 7.03212531,28.8532671 C6.47034449,28.8532671 6.03513901,27.5040994 6.03513901,25.3304845 C6.03513901,23.4017391 6.48801572,21.4566957 7.05020751,21.4566957 C7.21294723,21.4566957 7.26760477,21.5616398 7.26760477,21.7019627 C7.26760477,21.9297391 7.19486504,22.3844969 7.19486504,23.156472 C7.19445408,23.9797267 7.39418011,24.050087 7.55774175,24.050087 Z M35.3196596,6.81818634 C35.6102075,6.81818634 35.664865,7.50270807 35.7187007,7.90578882 C35.754865,8.11607453 35.7910294,8.13396273 35.8822623,8.13396273 C36.0996596,8.13396273 36.4440431,7.32700621 36.6787007,7.32700621 C37.0247281,7.32700621 37.9485637,8.25679503 39.4880157,8.25679503 C41.6808924,8.25679503 43.7476048,6.7661118 43.7476048,4.1369441 C43.7476048,1.5948323 41.8982897,0.104546584 39.3433582,0.104546584 C38.1289746,0.104546584 37.2413034,0.682931677 36.7699335,0.682931677 C36.4802075,0.70042236 36.045002,0 35.8267828,0 C35.7359609,0 35.6463719,0.174509317 35.6463719,0.472645963 C35.6463719,0.665440994 35.6463719,1.27960248 35.4281527,1.27960248 C34.9937691,1.27960248 33.3084267,0.0691677019 33.3084267,0.508024845 C33.3084267,0.911503106 34.4319883,2.13903106 34.4319883,2.45386335 C34.4319883,2.7698882 33.3269198,3.06762733 33.3269198,3.27791304 C33.3269198,3.66390062 34.505139,3.73386335 34.505139,4.22479503 C34.505139,4.71493168 33.2714404,5.10091925 33.2714404,5.46941615 C33.2714404,5.7675528 34.505139,5.55686957 34.505139,5.92536646 C34.505139,6.29346584 33.5989746,7.51980124 33.5989746,7.87080745 C33.5989746,7.9590559 33.6166459,7.9590559 33.6897965,7.9590559 C34.0329472,7.95865839 35.0669198,6.81818634 35.3196596,6.81818634 Z M12.0696596,32.7274534 C12.0511664,32.3768447 12.305139,32.0433292 12.685276,32.0083478 C13.0658239,31.9554783 13.4106185,32.2361242 13.4463719,32.6042236 C13.4833582,32.9727205 13.2108924,33.2887453 12.8299335,33.3408199 C12.4502075,33.3591056 12.1062349,33.0955528 12.0696596,32.7274534 Z M10.0584267,33.2708571 C10.1311664,33.8671304 10.7102075,34.3214907 11.3628102,34.2519255 C11.5982897,34.2340373 11.8165089,34.1640745 11.9607555,34.0758261 C12.1062349,34.6375155 12.5582897,34.9881242 13.2289746,34.917764 C13.8996596,34.8656894 14.3714404,34.3214907 14.2987007,33.6743354 C14.2987007,33.4994286 14.2444541,33.394087 14.1902075,33.2708571 L14.3171938,33.2533665 C14.9508924,33.1834037 15.4399335,32.6221118 15.385276,32.0083478 C15.3133582,31.3766957 14.7158239,30.9211429 14.0993856,30.9736149 C13.8634952,31.0264845 13.6641801,31.0960497 13.5195226,31.218882 C13.3559609,30.693764 12.8845911,30.272795 12.2147281,30.3431553 C11.5802075,30.3781366 11.0903445,30.9736149 11.1630842,31.6219627 C11.1630842,31.7102112 11.1988376,31.8505342 11.2539061,31.9729689 L11.1269198,31.9900621 C10.4923993,32.077913 10.0037691,32.5871304 10.0584267,33.2708571 Z M50.4343171,1.12178882 C50.4328714,1.23842949 50.4801073,1.35070707 50.5653414,1.4332278 C50.6505755,1.51574854 50.7666073,1.56154104 50.8871938,1.56024845 C51.1407555,1.56024845 51.3408924,1.36785093 51.3408924,1.12178882 C51.3408924,0.876124224 51.1411664,0.682931677 50.8871938,0.682931677 C50.6328102,0.682931677 50.4343171,0.876124224 50.4343171,1.12178882 Z M40.3226733,17.739528 C40.3226733,18.1430062 40.6670568,18.4761242 41.0829472,18.4761242 C41.5024213,18.4737342 41.8417988,18.1452813 41.8440431,17.739528 C41.8411316,17.3341089 41.502077,17.0061455 41.0829472,17.0033292 C40.6670568,17.0033292 40.3226733,17.3372422 40.3226733,17.739528 Z M40.3765089,19.9477267 C40.3762152,20.2419893 40.5382402,20.5140507 40.8015505,20.661428 C41.0648608,20.8088052 41.3894534,20.8091083 41.6530574,20.662223 C41.9166613,20.5153377 42.0792289,20.2435794 42.0795226,19.9493168 C42.0799765,19.4944262 41.6991119,19.1253087 41.2288376,19.1248696 C40.7585634,19.1244305 40.3769628,19.4928362 40.3765089,19.9477267 Z M37.7669198,21.4380124 C37.7680511,22.1056242 38.3272784,22.6465579 39.0174678,22.6476522 C39.7071491,22.6456854 40.2656139,22.1051339 40.2671938,21.4380124 C40.265612,20.7710207 39.7070161,20.2306978 39.0174678,20.2291677 C38.3274113,20.2298242 37.7680522,20.7705298 37.7669198,21.4380124 Z M38.4371938,18.9670559 C38.4371938,19.353441 38.7630842,19.6686708 39.1621253,19.6686708 C39.5611664,19.6686708 39.8878787,19.353441 39.8878787,18.9670559 C39.8878787,18.5814658 39.5611664,18.2658385 39.1621253,18.2658385 C38.7630842,18.2658385 38.4371938,18.5814658 38.4371938,18.9670559 Z M36.0622623,20.3690932 C36.0622623,20.7565844 36.3870092,21.0707081 36.7876048,21.0707081 C37.1882003,21.0707081 37.5129472,20.7565844 37.5129472,20.3690932 C37.4997802,19.9907913 37.1789218,19.690702 36.7876048,19.690702 C36.3962878,19.690702 36.0754293,19.9907913 36.0622623,20.3690932 Z M37.9300705,16.267528 C37.9341043,16.8855161 38.4509104,17.3855935 39.0897965,17.3897143 C39.7285902,17.3853796 40.2452676,16.8854267 40.2495226,16.267528 C40.2454864,15.6496055 39.7286162,15.1496433 39.0897965,15.1457391 C38.4509769,15.1496433 37.9341067,15.6496055 37.9300705,16.267528 Z M39.2895226,14.1110062 C39.2831947,14.3528298 39.4128732,14.5789715 39.6283121,14.7018093 C39.843751,14.824647 40.1110973,14.8248785 40.3267632,14.7024141 C40.5424292,14.5799497 40.6725261,14.3540329 40.6666459,14.1121988 C40.6578555,13.750682 40.3525317,13.4619522 39.9786858,13.4616285 C39.6048399,13.4613047 39.2989821,13.7495053 39.2895226,14.1110062 Z M36.0084267,15.7936894 C36.0084267,16.161861 36.3169822,16.460323 36.6976048,16.460323 C37.0782273,16.460323 37.3867828,16.161861 37.3867828,15.7936894 C37.3867828,15.4251925 37.0785637,15.1282484 36.6971938,15.1282484 C36.3166459,15.1282484 36.0084267,15.4251925 36.0084267,15.7936894 Z M35.9176048,18.072646 C35.9176048,18.6689193 36.4070568,19.1427578 37.0243171,19.1427578 C37.3180467,19.1442518 37.600169,19.0319367 37.8077156,18.8308807 C38.0152622,18.6298247 38.130956,18.3567645 38.1289746,18.072646 C38.1308467,17.7886323 38.0150913,17.5157149 37.8075446,17.3148081 C37.5999979,17.1139014 37.317937,17.0017296 37.0243171,17.0033292 C36.7304095,17.0014116 36.4479472,17.1134171 36.2400026,17.3143353 C36.032058,17.5152534 35.91595,17.7883508 35.9176048,18.072646 Z M33.635139,19.1952298 C33.635139,19.7390311 34.1060979,20.1941863 34.6682897,20.1941863 C35.2292486,20.1941863 35.7006185,19.7390311 35.7006185,19.1952298 C35.7006185,18.6518261 35.2296596,18.1958758 34.6682897,18.1958758 C34.1060979,18.1958758 33.635139,18.6518261 33.635139,19.1952298 Z M34.2507555,16.7234783 C34.2507555,17.1090683 34.5774678,17.4250932 34.9765089,17.4250932 C35.3761544,17.4233475 35.6994936,17.1100529 35.7006185,16.7234783 C35.7006185,16.3374907 35.3747281,16.0218634 34.9765089,16.0218634 C34.5762213,16.0227368 34.2518852,16.3362855 34.2507555,16.7234783 Z M31.8408924,42.5627826 C31.8408924,42.9467826 32.1667828,43.2620124 32.5658239,43.2620124 C32.9632212,43.2620124 33.2899335,42.9467826 33.2899335,42.5627826 C33.2892597,42.1758976 32.9657893,41.8621208 32.5658239,41.8603727 C32.1667828,41.8603727 31.8408924,42.1756025 31.8408924,42.5627826 Z M12.3421253,13.5147329 C12.3421253,13.9007205 12.6676048,14.2163478 13.0658239,14.2163478 C13.4661115,14.2154744 13.7904476,13.9019257 13.7915774,13.5147329 C13.7897713,13.128006 13.4656324,12.8151806 13.0658239,12.8143106 C12.6676048,12.8143106 12.3421253,13.1299379 12.3421253,13.5147329 Z M11.3989746,11.9373913 C11.4001044,12.3245841 11.7244405,12.6381327 12.1247281,12.6390062 C12.5225363,12.6390062 12.8480157,12.3233789 12.8480157,11.9373913 C12.8480157,11.5518012 12.5225363,11.2357764 12.1247281,11.2357764 C11.7244405,11.2366499 11.4001044,11.5501986 11.3989746,11.9373913 Z M12.1785637,29.1859876 C12.9392486,29.1859876 13.5741801,28.6421863 13.5741801,27.4333416 L13.5741801,25.6457143 C13.5741801,24.9615901 13.6276048,24.1896149 14.0993856,23.6470062 C14.045139,23.8751801 14.045139,24.1204472 14.045139,24.3474286 C14.045139,25.8556025 14.9147281,26.8899379 14.9147281,28.3456398 C14.9147281,28.8882484 14.7519883,29.1863851 14.3171938,29.1863851 C13.8996596,29.1863851 13.9362349,28.8182857 13.8458239,28.8182857 C13.7734952,28.8182857 13.6645911,29.0460621 13.6645911,29.2909317 C13.6645911,29.6598261 13.9366459,30.2382112 14.6981527,30.2382112 C15.3499335,30.2382112 15.87555,29.6598261 15.87555,29.0106832 C15.87555,27.4337391 14.6081527,25.6810932 14.6081527,23.9980124 C14.6081527,23.2614161 14.8058239,22.770882 14.9693856,22.3844969 C14.9693856,25.8738882 18.0322623,28.416 18.0322623,29.8705093 C18.0322623,30.2036273 17.7787007,30.4667826 17.3977418,30.4667826 C16.9818513,30.4667826 16.7821253,30.1511553 16.7821253,29.9054907 C16.7821253,29.7822609 16.7640431,29.747677 16.7097965,29.747677 C16.6008924,29.747677 16.2741801,30.0982857 16.2741801,30.554236 C16.2741801,31.1318261 16.7636322,31.833441 17.6697965,31.833441 C18.7029472,31.833441 19.26555,30.9919006 19.26555,30.2382112 C19.26555,28.3981118 15.5496596,25.6099379 15.5496596,22.6301615 C15.5496596,22.1213416 15.6400705,21.298087 16.0210294,20.6672298 C13.6280157,22.156323 12.885413,24.1383354 12.885413,25.8734907 C12.885413,27.380472 12.8307555,28.134559 12.0339061,28.134559 C11.6171938,28.134559 11.5087007,27.7664596 11.3636322,27.7664596 C11.2547281,27.7664596 11.2000705,28.0824845 11.2000705,28.1699379 C11.1988376,28.8178882 11.6887007,29.1859876 12.1785637,29.1859876 Z M43.5844541,11.6746335 C44.3813034,11.6746335 44.9800705,11.3236273 44.9800705,11.1133416 C44.9800705,11.0429814 44.8707555,10.9917019 44.634865,10.9917019 C44.3997965,10.9917019 43.9276048,10.9742112 43.0399335,10.8334907 C42.2780157,10.7110559 41.6977418,10.4308075 41.4803445,10.4308075 C41.4071938,10.4308075 41.3718513,10.4653913 41.3718513,10.5178634 C41.3726733,10.9738137 42.2426733,11.6746335 43.5844541,11.6746335 Z M39.6339061,9.44814907 C39.8689746,9.30782609 40.8828102,9.53560248 42.2073308,8.90434783 C42.3507988,8.8260921 42.5123609,8.78411743 42.6770568,8.78231056 C43.3128102,8.78231056 43.1488376,9.48313043 43.7299335,9.48313043 C44.1828102,9.48313043 44.7630842,9.11503106 45.1074678,9.11503106 C45.6491116,9.11503106 46.4295226,10.7631304 46.4295226,11.5343106 C46.4295226,12.4279255 45.035139,12.9717267 43.385139,12.9717267 C40.9740431,12.9717267 39.525002,10.9380373 39.525002,9.6230559 C39.525002,9.5181118 39.5792486,9.48313043 39.6339061,9.44814907 Z M12.5578787,35.7946832 C11.9603445,35.9354037 10.9999335,36.8469068 10.9999335,38.2855155 C10.9999335,40.0015901 12.9026733,42.6498385 16.0382897,42.6498385 C18.6844541,42.6498385 19.3358239,40.8785093 19.3358239,39.6859627 C19.3358239,37.0400994 17.6504815,35.1809193 15.4580157,35.1809193 C14.2617144,35.1809193 13.1923993,36.0228571 13.1923993,37.2674783 C13.1923993,38.4250435 14.0985637,40.1598012 16.255276,40.1598012 C17.2695226,40.1598012 17.8678787,39.4577888 17.8678787,38.6512298 C17.8678787,37.8641491 17.1240431,36.7765466 16.0374678,36.7765466 C15.7107555,36.7765466 15.475276,36.9868323 15.475276,37.3203478 C15.475276,37.7409193 16.0740431,38.1618882 16.8170568,38.1618882 C16.9982897,38.1618882 17.1421253,38.1269068 17.215276,38.091528 C17.2514404,38.1443975 17.2695226,38.2322484 17.2695226,38.3022112 C17.2695226,38.7040994 16.8717144,38.9493665 16.255276,38.9493665 C15.3306185,38.9493665 14.4429472,38.2847205 14.4429472,37.2320994 C14.4429472,36.6008447 15.0039061,36.1444969 15.8204815,36.1444969 C17.4322623,36.1444969 18.3934952,37.5306335 18.3934952,38.9139876 C18.3934952,40.1598012 17.6862349,40.8781118 16.2371938,40.8781118 C13.3378787,40.8785093 11.9245911,38.3546832 12.5578787,35.7946832 Z M10.7463719,16.7409689 C10.3292486,16.8463106 9.46007052,17.3372422 9.46007052,18.2129689 C9.46007052,18.8446211 9.96719381,19.2480994 10.6013034,19.2480994 C10.9276048,19.2480994 11.1634952,19.1773416 11.3081527,19.0723975 C10.8006185,18.599354 10.6193856,18.0730435 10.6193856,17.5479255 C10.6193856,17.1794286 10.6736322,16.9512547 10.7463719,16.7409689 Z M6.30637189,16.986236 C6.2882897,17.0736894 6.2882897,17.1615404 6.2882897,17.2489938 C6.2882897,18.072646 6.74157737,18.5285963 7.34034449,18.5285963 C7.79281025,18.5285963 8.31842668,18.265441 8.78938559,17.6866584 C8.57394939,17.722232 8.35574545,17.7397876 8.13719381,17.7391304 C7.46609792,17.739528 6.74157737,17.5650186 6.30637189,16.986236 Z M5.67267326,18.5464845 C5.67267326,19.878559 6.08815271,20.5094161 6.83239929,20.5094161 C7.4122623,20.5094161 8.19144038,20.1063354 9.11609792,19.3355528 C8.40883764,19.4933665 7.86596093,19.5983106 7.37650888,19.5983106 C6.72349518,19.5983106 6.21554997,19.3530435 5.67267326,18.5464845 Z M33.2537691,46.067677 C34.1237691,46.067677 34.0691116,45.9973168 34.3419883,45.9973168 C34.6140431,45.9973168 34.6308924,46.1551304 34.6308924,46.2600745 C34.6308924,46.6464596 33.7423993,47.1191056 32.1667828,47.1191056 C31.2413034,47.1191056 30.6803445,46.6464596 30.5180157,46.1201491 C29.6106185,46.6810435 28.2343171,47.1894658 26.8760979,47.1894658 C23.1606185,47.1894658 22.2174678,45.6288199 21.0581527,45.12 C20.1700705,44.7344099 18.8110294,45.4880994 16.9087007,43.4369193 C17.1614404,43.4893913 17.5058239,43.506882 17.7782897,43.506882 C19.44555,43.506882 20.3336322,42.7194037 20.3336322,41.4572919 C20.3336322,41.2994783 20.31555,41.1233789 20.2974678,40.9663602 C20.805413,41.1587578 21.9647281,42.0010932 22.2359609,43.4897888 C22.2725363,43.6650932 23.01555,43.8229068 23.4873308,43.8229068 C24.1391116,43.8229068 24.9729472,43.5597516 25.0999335,42.5266087 C27.2747281,42.3520994 28.7414404,41.1062857 29.0496596,39.5281491 C29.8292486,39.7738137 30.7160979,40.4575404 30.9343171,40.8085466 C31.2417144,40.7028075 31.6045911,40.6507329 32.0217144,40.6507329 C32.6019883,40.6507329 33.2537691,40.7560745 34.0333582,40.9842484 C34.0695226,40.7560745 34.1065089,40.4754286 34.4693856,40.4754286 C35.0126733,40.4754286 34.8676048,41.0542112 35.0488376,41.3873292 C35.1396596,41.5626335 35.5921253,41.6675776 35.5921253,42.0189814 C35.5921253,42.3524969 35.3015774,42.4745342 35.1215774,42.4745342 C35.0484267,42.4745342 34.9580157,42.457441 34.9033582,42.4399503 C34.5413034,42.5631801 34.5228102,45.0858137 33.0002075,45.0858137 C31.8766459,45.0858137 30.8434952,44.1918012 30.3918513,43.0696149 C30.2644541,42.7372919 29.9923993,42.5270062 29.7384267,42.5270062 C29.4478787,42.5270062 29.28555,42.5806708 28.9411664,42.9471801 C27.9634952,43.9815155 26.3328102,44.875528 24.3211664,44.875528 C23.705139,44.875528 23.2160979,44.8234534 23.0882897,44.8234534 C23.0159609,44.8234534 23.0159609,44.8409441 23.0159609,44.8584348 C23.0159609,44.9812671 23.6323993,45.4543106 24.9733582,45.4543106 C28.1623993,45.4543106 28.9411664,43.7183602 29.4482897,43.7183602 C29.5218513,43.7183602 29.7388376,43.7183602 29.8658239,43.9990062 C30.6088376,45.6824845 32.2218513,46.068472 33.2365089,46.068472 L33.2537691,46.068472 L33.2537691,46.067677 Z M22.9608924,10.8334907 C24.1559609,10.8334907 24.7004815,11.8324472 24.7004815,12.9546335 C24.7004815,13.4451677 24.5558239,14.1638758 24.3203445,14.1638758 C24.0844541,14.1638758 24.1206185,13.7603975 24.0844541,13.3919006 C24.0482897,12.9196522 23.9574678,12.8143106 23.79555,12.8143106 C23.4873308,12.8143106 23.2880157,13.5147329 23.2880157,14.1638758 C23.2880157,14.567354 23.3595226,15.0229068 23.6862349,15.0229068 C23.8666459,15.0229068 24.0302075,14.9350559 24.1391116,14.8305093 C24.0663719,15.6362733 23.4507555,16.3374907 22.5807555,16.3374907 C20.985413,16.3374907 20.3874678,14.5319752 20.2062349,13.4801491 C19.2470568,14.4620124 18.3581527,15.1807205 16.7632212,15.1807205 C15.2771938,15.1807205 14.6073308,14.1288944 14.6073308,13.1299379 C14.6073308,12.8314037 14.7158239,12.0602236 15.095139,12.0602236 C15.5488376,12.0602236 15.1493856,13.4976398 16.0382897,13.4976398 C16.255687,13.4976398 16.6543171,13.3223354 16.8721253,12.7443478 C16.9991116,12.3937391 17.0706185,12.0252422 17.0706185,11.7092174 C17.0706185,11.2357764 16.9625363,10.9384348 16.5996596,10.9384348 C16.2910294,10.9384348 15.9104815,11.1662112 15.7839061,11.2882484 C16.2191116,10.0265342 17.2695226,9.37778882 18.4296596,9.37778882 C19.8614404,9.37778882 20.6229472,10.6053168 20.6229472,11.9723727 C20.6227216,12.1721594 20.6044328,12.3715443 20.5682897,12.5682484 C21.1859609,11.5863851 22.0370568,10.8334907 22.9608924,10.8334907 Z M18.4123993,0.385192547 C18.4123993,0.279850932 17.8691116,0.174509317 17.125276,0.174509317 C15.9478787,0.174509317 16.1114404,1.12178882 15.205276,1.12178882 C14.2629472,1.12178882 14.4984267,0.139925466 13.3025363,0.139925466 C12.5767828,0.139925466 11.9073308,0.262757764 11.9073308,0.420571429 C11.9073308,0.630857143 12.7584267,0.543403727 12.7584267,1.12218634 C12.7584267,1.73595031 10.9284267,1.91165217 10.9284267,2.27855901 C10.9284267,2.4013913 11.0734952,2.45386335 11.2547281,2.45386335 C11.6533582,2.45386335 12.2882897,2.27855901 12.7399335,2.27855901 C12.9943171,2.27855901 13.2297965,2.33182609 13.2297965,2.55960248 C13.2297965,2.99806211 12.2521253,3.78673292 12.2521253,4.13773913 C12.2521253,4.24347826 12.3429472,4.27845963 12.4333582,4.27845963 C12.795002,4.27845963 13.4118513,3.38365217 13.9917144,3.38365217 C14.9521253,3.38365217 14.3184267,5.36486957 14.8428102,5.36486957 C15.3865089,5.36486957 15.1510294,3.41903106 15.9306185,3.41903106 C16.565139,3.41903106 17.0369198,4.76859627 17.4713034,4.76859627 C17.5793856,4.76859627 17.6702075,4.68114286 17.6702075,4.55791304 C17.6702075,4.1906087 17.1260979,3.43652174 17.1260979,2.94519255 C17.1260979,2.6470559 17.3439061,2.50673292 17.6340431,2.50673292 C18.0511664,2.50673292 18.6133582,2.75239752 18.9211664,2.75239752 C19.0300705,2.75239752 19.1385637,2.71741615 19.1385637,2.59458385 C19.1385637,2.17361491 17.525139,1.71845963 17.525139,1.17465839 C17.5243171,0.630459627 18.4123993,0.630459627 18.4123993,0.385192547 Z M44.2370568,34.9006708 C43.855687,34.9006708 41.7528102,37.6184845 40.3945911,37.6184845 C40.0687007,37.6184845 39.7966459,37.0222112 39.7966459,36.5666584 C39.7966459,36.3209938 39.9593856,36.1448944 40.5408924,36.0232547 C43.6567828,35.3391304 42.9671938,33.0784596 45.6306185,33.0784596 C47.0993856,33.0784596 48.7313034,34.0436273 48.7313034,36.2164472 C48.7313034,38.5291925 45.324865,41.4056149 44.8169198,41.4056149 C44.4002075,41.4056149 43.9469198,40.8264348 43.9469198,40.4408447 C43.9469198,40.3180124 44.0015774,40.1605963 44.3644541,40.0198758 C46.1028102,39.3528447 47.0997965,37.811677 47.0997965,37.0226087 C47.0997965,36.8477019 47.0097965,36.672 46.7739061,36.672 C46.464865,36.672 45.1436322,39.5810186 43.675687,39.5810186 C42.6593856,39.5810186 41.6266459,38.6870062 41.6266459,38.2676273 C41.6266459,37.5660124 44.5629472,36.2681242 44.5629472,35.2858634 C44.5621253,34.917764 44.3817144,34.9006708 44.2370568,34.9006708 Z M46.1932212,33.8142609 C45.9388376,33.8142609 45.6667828,34.0078509 45.6667828,34.4793043 C45.6667828,35.0056149 46.085139,35.3387329 46.3202075,35.443677 C46.4808174,35.5315497 46.6613547,35.5797475 46.8458239,35.584 C47.3714404,35.584 47.7881527,35.443677 47.7881527,35.0227081 C47.7881527,34.4793043 46.9728102,33.8142609 46.1932212,33.8142609 Z M22.6707555,2.17321739 C22.6707555,2.48884472 23.8132212,3.17296894 24.3380157,3.17296894 C24.6462349,3.17296894 24.7370568,2.76949068 24.7370568,2.34812422 C24.7370568,1.82340373 24.5007555,1.80511801 24.0297965,1.80511801 C23.4330842,1.80511801 22.6707555,1.96332919 22.6707555,2.17321739 Z M24.5562349,5.64432298 C24.5562349,4.59209938 21.585002,2.64626087 21.585002,1.85838509 C21.585002,1.82340373 21.585002,1.80551553 21.6022623,1.77053416 C21.8200705,1.19175155 24.2841801,0.788273292 24.2841801,0.314832298 C24.2841801,0.0866583851 23.8497965,0.0866583851 23.6323993,0.0866583851 C21.9462349,0.0866583851 19.4821253,0.682931677 19.4821253,1.2621118 C19.4821253,1.85838509 21.6930842,3.31329193 21.6930842,4.03239752 C21.6930842,4.22479503 21.5669198,4.2955528 21.3676048,4.2955528 C20.7515774,4.2955528 19.4093856,3.5764472 18.775687,3.5764472 C18.48555,3.5764472 18.3774678,3.76884472 18.3774678,4.04949068 C18.3774678,4.89023602 19.4093856,6.48626087 19.4093856,6.95890683 C19.4093856,7.01137888 19.3913034,7.08173913 19.3197965,7.08173913 C18.9934952,7.08173913 17.4528102,5.32909317 16.9095226,5.32909317 C16.7102075,5.32909317 16.6917144,5.59224845 16.6917144,5.97744099 L16.6917144,6.57371429 C16.6917144,6.97639752 16.6736322,7.2216646 16.4743171,7.2216646 C16.0029472,7.2216646 15.785139,5.94245963 15.3322623,5.94245963 C14.8604815,5.94245963 14.7713034,8.22181366 14.3180157,8.22181366 C13.7923993,8.22181366 14.244865,5.71428571 13.7369198,5.71428571 C13.17555,5.71428571 12.5406185,7.37987578 12.1432212,7.37987578 C11.9977418,7.37987578 11.9615774,7.2395528 11.9615774,7.11632298 C11.9615774,6.60909317 12.2702075,5.78464596 12.2702075,5.29371429 C12.2702075,5.04804969 12.1974678,4.90812422 11.9796596,4.90812422 C11.4178787,4.90812422 10.1862349,5.78504348 9.71445408,5.78504348 C9.64212531,5.78504348 9.55171435,5.75006211 9.55171435,5.67930435 C9.55171435,5.2583354 11.5271938,3.92665839 11.5271938,3.33038509 C11.5271938,2.75160248 8.8082897,3.13719255 8.8082897,2.47095652 C8.8082897,1.91085714 10.7471938,1.33167702 10.7471938,0.75289441 C10.7471938,0.244869565 8.44541298,0.0174906832 7.55856367,0.0174906832 C6.48842668,0.0174906832 5.90856367,0.13952795 5.90856367,0.437664596 C5.90856367,0.893217391 8.33691983,1.03393789 8.33691983,1.43701863 C8.33691983,1.82340373 5.81774175,2.8569441 5.81774175,3.45321739 C5.81774175,3.97873292 9.37007052,3.48740373 9.37007052,4.032 C9.37007052,4.62708075 6.27061846,7.2037764 6.27061846,8.06360248 C6.27061846,8.25679503 6.41609792,8.34424845 6.61459107,8.34424845 C7.55815271,8.34424845 10.0041801,6.60909317 10.6740431,6.60909317 C10.9095226,6.60909317 10.9280157,6.88854658 10.9280157,7.13381366 C10.9280157,7.59016149 10.765276,8.29098137 10.765276,8.79980124 C10.765276,9.20248447 10.8733582,9.48273292 11.2366459,9.48273292 C11.9069198,9.48273292 12.5229472,8.3788323 12.9758239,8.3788323 C13.5565089,8.3788323 13.2113034,11.6209689 14.0821253,11.6209689 C14.8239061,11.6209689 15.1321253,8.11567702 15.6039061,8.11567702 C16.075687,8.11567702 16.4562349,9.13172671 16.8910294,9.13172671 C17.4339061,9.13172671 17.1803445,7.36119255 17.7606185,7.36119255 C18.3947281,7.36119255 20.2066459,9.46484472 21.0223993,9.46484472 C21.2763719,9.46484472 21.3671938,9.27165217 21.3671938,9.02638509 C21.3671938,8.09818634 20.0262349,5.99453416 20.0262349,5.32790062 C20.0262349,5.15219876 20.0800705,5.09972671 20.2797965,5.09972671 C20.9862349,5.09972671 23.0525363,6.04700621 24.0306185,6.04700621 C24.3560979,6.04780124 24.5562349,5.87249689 24.5562349,5.64432298 Z M49.2939061,25.8206211 C49.5836322,24.9437019 49.944865,24.3291429 50.5419883,23.3834534 C49.944865,23.0857143 48.3692486,22.4544596 48.3692486,21.4205217 C48.3692486,20.2112795 49.9288376,19.2655901 50.2522623,19.2655901 C50.3977418,19.2655901 50.4343171,19.3884224 50.4343171,19.6161988 C50.4343171,20.2466584 50.125276,21.2631056 50.125276,21.8061118 C50.125276,22.2962484 50.4519883,22.770087 50.7408924,22.770087 C51.0499335,22.770087 51.9014404,21.7182609 51.9014404,20.6847205 C51.9014404,18.8267329 50.215687,18.2658385 49.6925363,18.2658385 C49.2022623,18.2658385 48.3137691,19.0370186 46.2281527,19.0370186 C42.3322623,19.0370186 41.445002,15.3027578 41.445002,13.6725466 C41.445002,13.6025839 41.4618513,13.5850932 41.4803445,13.5850932 C41.5719883,13.5850932 41.9521253,14.040646 43.1841801,14.040646 C43.8191116,14.040646 44.3993856,13.8832298 45.3240431,13.8832298 C47.4976048,13.8832298 48.4592486,15.3389317 49.8006185,17.1969193 C50.6143171,17.6870559 52.5536322,18.4761242 52.5536322,20.7022112 C52.5536322,22.6647453 50.3969198,23.7519503 49.8729472,25.855205 C50.705139,25.7681491 51.195002,24.3295404 52.0473308,24.3295404 C52.4825363,24.3295404 52.6814404,24.6634534 52.6814404,25.1889689 C52.6814404,25.9613416 52.2285637,27.1173168 51.3577418,27.8364224 C51.3762349,27.7660621 51.3762349,27.6782112 51.3762349,27.5736646 C51.3762349,27.0823354 51.1765089,26.381118 50.5962349,26.381118 C49.6925363,26.381118 49.4019883,27.3276025 48.8936322,28.1166708 C48.3688376,26.328646 47.6607555,24.715528 46.3925363,23.7344596 C45.1066459,22.7347081 42.8944541,23.2785093 42.8944541,21.4559006 C42.8944541,20.9645714 43.2203445,20.2637516 43.2203445,19.7036522 C43.2203445,19.5112547 43.1841801,19.3355528 43.075687,19.1952298 C44.815687,19.8252919 44.1992486,20.9470807 45.2693856,22.1034534 C45.9380157,22.8400497 47.7873308,23.5412671 48.8578787,26.5735155 C48.8747281,26.4864596 48.8932212,26.2586832 48.8932212,26.1012671 C48.8932212,23.5070807 45.3421253,20.9649689 45.0339061,19.9139379 C47.0981527,20.1417143 47.4610294,20.632646 48.4403445,23.2610186 C48.6404815,23.8048199 49.2939061,25.1539876 49.2939061,25.8206211 Z M10.3658239,11.5343106 C10.472368,11.2051489 10.5272259,10.8623815 10.5285637,10.5174658 C10.5285637,9.67552795 10.1307555,8.3967205 8.89746778,8.3967205 C8.19061846,8.3967205 7.68390614,8.93932919 7.68390614,9.58807453 C7.68431709,10.9738137 9.11568696,11.5343106 10.3658239,11.5343106 Z M8.82513901,15.9519006 C8.22719381,15.9519006 7.57541298,15.2335901 7.57541298,14.5852422 C7.57541298,14.234236 7.84787874,13.7953789 8.04513901,13.7953789 C8.1182897,13.7953789 8.15445408,13.8478509 8.17294723,13.9706832 C8.28144038,14.8305093 8.86171435,15.3210435 9.40582394,15.5655155 C9.46007052,15.6008944 9.49664586,15.6187826 9.49664586,15.6533665 C9.49664586,15.7761988 9.15144038,15.9519006 8.82513901,15.9519006 Z M10.9641801,14.3041988 C10.9641801,14.5494658 10.8187007,14.8654907 10.5285637,14.8654907 C9.895276,14.8654907 9.38733079,13.9357019 9.38733079,13.4097888 C9.38733079,13.0774658 9.58664586,13.042087 9.85870066,13.042087 C9.985276,13.042087 10.0391116,13.0595776 10.1307555,13.1120497 C10.2930842,13.1999006 10.2930842,13.5501118 10.4919883,13.8128696 C10.6013034,13.9881739 10.9641801,14.1813665 10.9641801,14.3041988 Z M10.3292486,12.4633043 C10.2215774,12.4458137 10.0760979,12.4458137 9.93102942,12.4458137 C9.33308422,12.4458137 8.53500203,12.5511553 7.82938559,13.0071056 C6.23363216,14.0064596 6.48719381,15.5830062 6.23363216,15.986882 C6.19662185,16.044999 6.17778243,16.1122313 6.17938559,16.180472 C6.17938559,16.3378882 6.36061846,16.512795 6.52335819,16.512795 C6.6692486,16.512795 6.75965956,16.4786087 6.83198833,16.4786087 C7.26719381,16.4786087 7.7562349,16.7767453 8.46308422,16.7767453 C8.87979655,16.7767453 9.3692486,16.6535155 9.98568696,16.3553789 C11.2904815,15.7245217 11.7984267,14.1642733 11.7984267,13.901118 C11.7984267,13.568 11.5263719,13.620472 11.2908924,13.3048447 C11.0369198,12.9375404 11.1634952,12.7976149 11.0007555,12.5865342 C10.8910294,12.4986832 10.6559609,12.4986832 10.3292486,12.4633043 Z M12.2513034,15.2860621 C11.8526733,15.7408199 11.435139,16.5123975 11.435139,17.3022609 C11.435139,18.2479503 12.0330842,19.0370186 12.9573308,19.0370186 C13.8458239,19.0370186 14.2625363,18.3004224 14.2625363,17.547528 C14.2625363,16.372472 13.1562349,15.5484224 12.2513034,15.2860621 Z M8.3722623,11.9199006 C8.3722623,11.9199006 7.84787874,12.3054907 7.19445408,12.3054907 C6.415276,12.3054907 5.79883764,11.7441988 5.79883764,10.9559255 C5.79883764,10.4125217 6.08815271,9.85162733 6.75965956,9.57098137 C6.74157737,9.67632298 6.74157737,9.7637764 6.74157737,9.86911801 C6.74157737,10.868472 7.32185134,11.6213665 8.3722623,11.9199006 Z M40.6123993,22.1209441 C40.6123993,21.7711304 40.9374678,21.4725963 41.3003445,21.4725963 C41.6985637,21.4725963 42.0076048,21.7711304 42.0076048,22.1209441 C42.0076048,22.5240248 41.6985637,22.8046708 41.3003445,22.8046708 C40.9374678,22.8046708 40.6123993,22.5240248 40.6123993,22.1209441 Z M41.0829472,42.2817391 C41.1737691,42.2817391 41.2818513,42.3342112 41.2818513,42.6498385 C41.2818513,43.034236 41.1006185,43.5422609 40.4504815,43.9461366 C39.9963719,44.2442733 39.3803445,44.4891429 38.4733582,44.5070311 C38.6180157,44.0860621 38.7269198,43.6483975 38.7269198,43.2270311 C38.7269198,43.0867081 38.7084267,42.9809689 38.6907555,42.8255404 L38.9258239,42.8255404 C40.3588376,42.8255404 40.9736322,42.2817391 41.0829472,42.2817391 Z M41.2271938,40.5453913 C41.3726733,40.422559 41.4076048,40.2301615 41.4076048,40.0369689 L41.4076048,39.6334907 C41.4076048,39.1250683 40.6119883,38.8265342 39.5245911,38.8265342 C38.2017144,38.8265342 37.4940431,39.4053168 37.4940431,39.6509814 L37.4940431,40.4575404 C37.4940431,40.7910559 38.2917144,41.1237764 39.2710294,41.1237764 C40.0506185,41.1237764 40.7578787,40.9313789 41.2271938,40.5453913 Z M42.1703445,40.7385839 C41.6985637,41.088795 40.5939061,41.8782609 38.7630842,41.8782609 C37.7845911,41.8782609 37.3502075,41.5801242 37.205139,41.5801242 C37.0247281,41.5801242 36.8245911,41.7550311 36.624865,41.983205 C36.1896596,42.4741366 35.6278787,43.3844472 35.6278787,44.3834037 C35.6278787,45.0858137 36.1896596,45.7870311 37.2413034,45.7870311 C40.6308924,45.7870311 43.1673308,43.7350559 43.1673308,42.0710559 C43.1673308,41.1237764 42.5870568,40.7385839 42.1703445,40.7385839 Z M42.8036322,25.9959255 C42.8036322,26.4335901 42.9495226,26.9416149 43.4032212,26.9416149 C43.7837691,26.9416149 44.1104815,26.3807205 44.1104815,25.7677516 C44.1104815,25.0661366 43.9826733,24.5227329 43.9826733,24.2416894 C43.9826733,24.1200497 44.0373308,24.0671801 44.1104815,24.0671801 C44.3817144,24.0846708 44.635276,24.8037764 44.9258239,24.8037764 C45.2525363,24.8037764 45.7403445,24.2249938 45.9388376,24.2249938 C45.9934952,24.2249938 46.0119883,24.2949565 46.0119883,24.3124472 C46.0119883,24.5756025 45.5944541,25.1539876 45.5944541,25.3821615 C45.5944541,25.5749565 46.6469198,25.6099379 46.6469198,25.7856398 C46.6469198,26.048795 45.5410294,26.048795 45.0166459,26.2761739 C44.5095226,26.4860621 44.2004815,26.7488199 44.2004815,27.0994286 C44.2004815,27.4500373 44.5625363,27.5203975 45.0704815,27.5203975 C46.2840431,27.5203975 47.1363719,26.8891429 47.4080157,26.8891429 C47.4626733,26.8891429 47.4988376,26.9237267 47.4988376,26.9765963 C47.4988376,27.1522981 46.8823993,27.7310807 46.8823993,27.994236 C46.8823993,28.2923727 48.0067828,28.6417888 47.9882897,28.8174907 C47.9706185,28.8695652 47.8982897,28.8870559 47.7708924,28.8870559 C47.5719883,28.8870559 47.2637691,28.8349814 47.0274678,28.8349814 C46.8819883,28.8349814 46.755413,28.851677 46.7015774,28.9220373 C46.5737691,29.0627578 46.7377418,29.9917516 46.4833582,29.9917516 C46.2482897,29.9917516 45.6310294,27.9230807 44.2374678,27.9230807 C44.0377418,27.9230807 43.8922623,28.0808944 43.8922623,28.3440497 C43.8922623,29.0448696 44.6003445,29.8510311 45.2706185,30.2370186 C45.5771938,30.4306087 46.085139,30.6230062 46.085139,30.7283478 C46.085139,30.937441 44.9262349,30.745441 44.9262349,31.0952547 C44.9262349,31.4112795 45.0708924,31.8847205 45.0708924,32.1653665 C45.0708924,32.2528199 45.0540431,32.357764 44.9439061,32.357764 C44.7273308,32.357764 44.2004815,31.3937888 43.9469198,31.3937888 C43.7303445,31.3937888 43.2581527,31.9721739 43.0592486,31.9721739 C43.0045911,31.9721739 42.9676048,31.9197019 42.9676048,31.8668323 C42.9676048,31.463354 43.6387007,30.552646 43.6387007,29.658236 C43.6387007,29.2372671 43.584865,28.3261615 43.0592486,28.3261615 C42.6232212,28.3261615 42.1345911,28.991205 41.9163719,29.658236 C41.7893856,30.0442236 41.8810294,31.5337143 41.5904815,31.5337143 C41.3192486,31.5337143 41.3907555,30.5347578 41.0287007,30.5347578 C40.7582897,30.5347578 40.1788376,31.0074037 39.9787007,31.0074037 C39.9425363,31.0074037 39.9063719,30.989913 39.9063719,30.9549317 C39.9063719,30.7450435 40.4311664,30.0613168 40.4311664,29.9213913 C40.4311664,29.658236 39.2344541,29.6232547 39.2344541,29.4125714 C39.2344541,29.2893416 39.705413,29.2022857 40.1414404,29.1319255 C41.065276,28.9741118 42.4243171,28.3261615 42.4243171,27.4142609 C42.4243171,26.3970186 41.4080157,25.9597516 40.7402075,25.5387826 C40.395002,25.3280994 40.0144541,25.1523975 40.0144541,25.012472 C40.0144541,24.8717516 40.4504815,24.8717516 40.6308924,24.8717516 C40.9004815,24.8717516 41.1733582,24.8546584 41.1733582,24.6439752 C41.1733582,24.4861615 41.13555,24.1717267 41.13555,23.9264596 C41.13555,23.7507578 41.1540431,23.6108323 41.2271938,23.6108323 C41.4992486,23.6108323 41.8806185,24.4690683 42.0618513,24.4690683 C42.3507555,24.4690683 42.7506185,23.768646 43.0226733,23.768646 C43.1126733,23.768646 43.1488376,23.821118 43.1488376,23.9785342 C43.1488376,24.627677 42.8036322,25.3642733 42.8036322,25.9959255 Z M34.1599335,20.8604224 C34.3596596,22.3495155 36.4259609,21.5954286 36.4259609,23.4009441 C36.4259609,23.6640994 36.3528102,24.050087 36.3528102,24.3824099 C36.3528102,24.7683975 36.3889746,25.1015155 36.6971938,25.1015155 C37.005413,25.1015155 37.0785637,24.8912298 37.0785637,24.6101863 C37.0785637,24.3291429 37.005413,23.9797267 37.005413,23.7869317 C37.005413,23.1731677 37.4591116,23.0328447 37.7303445,23.0328447 C38.4191116,23.0328447 38.9447281,23.7169689 39.9787007,23.7169689 C39.7428102,24.8383602 37.3506185,24.5402236 37.3506185,25.7681491 C37.3506185,26.381118 37.9839061,26.5218385 38.4014404,26.5218385 C38.7819883,26.5218385 38.9085637,26.4685714 38.9085637,26.1541366 C38.9085637,25.9784348 38.8723993,25.7860373 38.8723993,25.6628075 C38.8723993,25.5928447 38.9262349,25.5232795 39.0178787,25.5232795 C39.4169198,25.5232795 41.3726733,26.9599006 41.3726733,27.3987578 C41.3726733,27.8018385 39.3076048,28.2049193 38.7088376,28.2049193 C38.5288376,28.2049193 38.4922623,28.0824845 38.4922623,28.0125217 C38.4922623,27.8892919 38.8004815,27.5211925 38.8004815,27.3105093 C38.8004815,27.1530932 38.5292486,27.0477516 37.8034952,27.0477516 C37.4591116,27.0477516 37.20555,27.0827329 37.20555,27.3458882 C37.20555,27.8189317 38.0019883,28.3977143 38.0019883,28.8357764 C38.0019883,29.1859876 37.785413,29.3962733 37.20555,29.3962733 C36.7160979,29.3962733 35.9726733,29.0281739 35.9726733,28.4156025 C35.9726733,27.9242733 36.4991116,27.4333416 36.4991116,27.1356025 C36.4991116,27.0477516 36.4259609,26.9074286 36.2085637,26.9074286 C35.5374678,26.9074286 35.3570568,28.6250932 32.9817144,28.8182857 C33.3630842,28.4855652 33.6897965,28.1170683 33.6897965,27.3633789 C33.6897965,26.994882 33.5989746,26.6963478 33.5989746,26.2940621 C33.5989746,25.7681491 33.8517144,25.5049938 34.2145911,25.5049938 C34.885687,25.5049938 35.2115774,26.4160994 35.6463719,26.4160994 C35.8822623,26.4160994 36.135002,26.2066087 36.135002,25.8913789 C36.135002,24.5581118 33.4892486,24.7509068 33.4892486,22.8758261 C33.4896596,22.3666087 33.6700705,21.7361491 34.1599335,20.8604224 Z M37.6033582,32.2536149 C37.6033582,32.4992795 37.7845911,32.692472 38.0377418,32.692472 C38.3282897,32.692472 38.5103445,32.4468075 38.5103445,32.166559 C38.5103445,31.7980621 38.165139,31.2896398 37.8384267,31.2896398 C37.6937691,31.2896398 37.7484267,31.499528 37.7114404,31.7273043 C37.6941801,31.9030062 37.6033582,32.1136894 37.6033582,32.2536149 Z M36.6610294,29.9225839 C38.5641801,30.272795 39.5977418,31.6577391 39.5977418,32.9552298 C39.5977418,33.8496398 39.0174678,34.6717019 38.0011664,34.6717019 C37.0781527,34.6717019 36.4070568,34.0583354 36.4070568,33.0776646 C36.4070568,32.3414658 37.005002,31.5698882 37.005002,30.8154037 C37.005413,30.5184596 36.915413,30.220323 36.6610294,29.9225839 Z M34.2507555,32.9031553 C34.4319883,33.0776646 34.4866459,33.2533665 34.4866459,33.4286708 C34.4866459,33.6910311 34.3596596,33.9720745 34.3596596,34.2686211 C34.3596596,34.6895901 34.68555,35.0568944 35.1573308,35.0568944 C35.6644541,35.0568944 36.0080157,34.6713043 36.0080157,34.2157516 C36.0084267,33.5515031 35.3011664,32.9031553 34.2507555,32.9031553 Z M40.2495226,31.7805714 C40.3765089,31.9729689 40.4307555,32.166559 40.4307555,32.3418634 C40.4307555,32.8323975 40.0863719,33.2887453 40.0863719,33.7967702 C40.0863719,34.3739627 40.5404815,34.8478012 41.2267828,34.8478012 C41.9710294,34.8478012 42.4781527,34.2690186 42.4781527,33.586882 C42.4785637,32.6578882 41.6085637,31.8680248 40.2495226,31.7805714 Z M34.68555,30.8511801 C35.5185637,30.9565217 35.7187007,31.2367702 35.7187007,31.4645466 C35.7187007,31.8509317 35.3566459,31.9733665 35.0122623,31.9733665 C34.7587007,31.9733665 34.4689746,31.9208944 34.1599335,31.9208944 C33.7608924,31.9208944 33.3630842,32.0087453 33.0363719,32.3768447 C33.2714404,32.4118261 33.6166459,32.5692422 33.6166459,32.9202484 C33.6166459,33.9374907 30.6980157,33.0951553 30.6980157,35.7072298 C30.6980157,37.0925714 32.185276,38.5987578 34.4319883,38.5987578 C35.5917144,38.5987578 36.3343171,38.2322484 36.3343171,37.8112795 C36.3343171,37.4781615 35.7187007,37.7059379 35.7187007,37.4256894 C35.7187007,37.3020621 35.9360979,37.0746832 35.9360979,36.8818882 C35.9360979,36.7944348 35.8637691,36.6366211 35.7187007,36.6366211 C35.3919883,36.6366211 34.7771938,37.144646 33.5258239,37.144646 C32.5473308,37.144646 31.5865089,36.6012422 31.5865089,35.864646 C31.5865089,35.7072298 31.6596596,35.6189814 31.7677418,35.6189814 C31.8758239,35.6189814 32.0213034,35.6897391 32.1482897,35.6897391 C32.2576048,35.6897391 32.275276,35.6189814 32.275276,35.4261863 C32.275276,35.2337888 32.275276,34.6895901 32.6204815,34.6895901 C32.9632212,34.6895901 33.6166459,35.917118 36.1177418,35.917118 C36.9515774,35.917118 38.5641801,35.7597019 39.1621253,35.2333913 C39.1444541,37.1629317 37.584865,39.7030559 34.3239061,39.7030559 C30.9343171,39.7030559 29.1228102,37.0746832 29.1228102,34.6542112 C29.1228102,31.9729689 31.3871938,29.5361988 34.4870568,29.5361988 C35.2839061,29.5361988 35.955002,29.7997516 35.955002,30.1320745 C35.9545911,30.5888199 34.7771938,30.3081739 34.68555,30.8511801 Z M21.5665089,12.901764 C21.5665089,12.6036273 21.4937691,12.5336646 21.4210294,12.5336646 C21.2402075,12.5336646 21.0396596,12.7439503 20.7507555,13.2165963 C20.7869198,13.8474534 20.8958239,14.1284969 21.0762349,14.1284969 C21.2759609,14.1288944 21.5665089,13.5147329 21.5665089,12.901764 Z M19.0826733,13.6200745 C19.2823993,13.6200745 19.53555,13.4097888 20.0073308,12.901764 C20.0434952,12.6739876 20.0434952,12.4629068 20.0434952,12.2001491 C20.0434952,11.8495404 19.8980157,11.4631553 19.6802075,11.4631553 C19.1377418,11.4631553 18.865687,12.8663851 18.865687,13.234087 C18.865687,13.4451677 18.975002,13.6200745 19.0826733,13.6200745 Z M22.0370568,15.180323 C22.4903445,15.180323 22.9974678,13.4972422 22.9974678,12.4458137 C22.9974678,12.2180373 22.9613034,11.9727702 22.8528102,11.9727702 C22.4722623,11.9727702 21.8365089,13.707528 21.8365089,14.655205 C21.8369198,15.0229068 21.9277418,15.180323 22.0370568,15.180323 Z M17.5966459,14.2163478 C18.2130842,14.2163478 18.9203445,10.9913043 18.9203445,10.4475031 C18.9203445,10.3071801 18.865687,10.2018385 18.7395226,10.2018385 C18.1773308,10.2018385 17.3973308,13.2694658 17.3973308,13.952795 C17.3969198,14.0756273 17.4334952,14.2163478 17.5966459,14.2163478 Z M19.5721253,15.5484224 C18.7929472,15.5484224 18.7571938,16.4607205 18.7571938,18.3008199 C18.1769198,17.0915776 17.2160979,15.794087 16.0929472,15.794087 C15.3314404,15.794087 15.0413034,16.2850186 15.0413034,17.1440497 C15.0413034,17.3201491 15.0593856,17.5829068 15.095139,17.740323 C15.1863719,17.4433789 15.4760979,17.3205466 15.8393856,17.3205466 C16.6185637,17.3205466 17.5604815,17.8981366 18.1769198,18.687205 C17.4700705,18.5643727 16.7813034,18.4415404 16.2014404,18.4415404 C15.8393856,18.4415404 15.5126733,18.4765217 15.2410294,18.599354 C14.7158239,18.8271304 14.0081527,19.5812174 14.0081527,20.7204969 C14.0081527,20.8958012 14.0266459,21.0874037 14.0636322,21.298087 C14.6977418,19.9306335 16.3830842,19.3180621 17.4704815,19.3180621 C17.6870568,19.3180621 17.8506185,19.3355528 17.9776048,19.353441 C17.415413,19.8427826 17.2888376,20.7026087 17.2526733,21.2805963 C17.2345911,21.5612422 17.125276,21.5791304 16.9271938,21.5791304 C16.9271938,22.156323 17.3973308,23.0157516 17.3973308,23.4542112 C17.3973308,23.6120248 17.3069198,23.7523478 17.2165089,23.7873292 C17.2165089,24.5581118 18.0133582,25.1190062 18.0133582,25.6099379 C18.0133582,25.7327702 17.9776048,25.8377143 17.9229472,25.8909814 C17.9776048,26.2062112 18.8476048,26.7492174 18.9565089,26.9769938 C19.1377418,27.3454907 19.2647281,27.3800745 19.3547281,27.3800745 C19.6625363,27.3800745 20.1519883,27.0298634 20.1519883,26.713441 C20.1519883,26.6088944 20.0615774,26.4860621 19.9892486,26.4331925 C19.6444541,26.188323 19.4636322,25.6620124 19.3189746,25.3114037 C19.1605969,25.3130075 19.0202728,25.2129505 18.975002,25.0661366 C18.9018513,24.8379627 18.865276,24.0143106 18.7210294,23.6116273 C18.4847281,23.5587578 18.3766459,23.4713043 18.3766459,22.9974658 C18.3766459,22.7696894 18.5213034,21.875677 18.5213034,21.5604472 C18.4119883,21.5604472 18.2673308,21.490087 18.2673308,21.2798012 C18.2673308,20.7197019 18.8476048,20.2808447 19.0107555,19.5629317 C20.0434952,20.2987329 20.2970568,21.0520248 20.2970568,21.7182609 C20.2970568,22.0680745 20.2423993,22.4011925 20.1700705,22.7172174 C20.9319883,22.349118 22.0728102,21.8061118 22.0728102,20.7022112 C22.0728102,20.0538634 21.7645911,19.3355528 19.7163719,19.0545093 C20.3508924,18.8267329 21.1489746,18.7039006 21.8192486,18.7039006 C22.9789746,18.7039006 23.6496596,19.0545093 23.795139,19.8427826 C24.0297965,19.4933665 24.2110294,19.0898882 24.2110294,18.7217888 C24.2110294,17.8623602 23.4692486,17.3026584 22.525687,17.3026584 C21.4206185,17.3026584 20.4413034,17.8627578 19.3896596,18.5464845 C19.8614404,17.6003975 20.1877418,17.0395031 20.7680157,17.0395031 C20.8584267,17.0395031 20.9488376,17.0561988 21.0392486,17.074087 C20.8226733,16.3025093 20.0073308,15.5484224 19.5721253,15.5484224 Z M8.00979655,4.62708075 C8.00979655,4.97729193 6.6322623,6.15274534 6.1432212,6.15274534 C5.96198833,6.15274534 5.90774175,5.94206211 5.90774175,5.7496646 C5.90774175,5.39865839 6.07048148,4.90772671 6.26979655,4.74951553 C6.505276,4.53922981 7.04938559,4.43508075 7.46609792,4.43508075 C7.72048148,4.43547826 8.00979655,4.48675776 8.00979655,4.62708075 Z M50.1080157,28.1866335 C51.0141801,28.1866335 51.7391116,29.3263106 51.7391116,30.6591801 C51.7391116,32.077913 51.0503445,33.6218634 49.8199335,34.6720994 C49.8014404,32.3064845 46.8100705,33.0605714 46.8100705,31.3421118 C46.8100705,30.6063106 47.3533582,30.1149814 48.0067828,30.1149814 C48.5862349,30.1149814 49.0407555,30.2731925 49.3666459,30.5888199 C49.0407555,30.2910807 48.8763719,29.8701118 48.8763719,29.4666335 C48.87555,28.8003975 49.3115774,28.1866335 50.1080157,28.1866335 Z M36.6610294,10.2547081 C36.5163719,10.0265342 35.9722623,9.90409938 35.7187007,9.90409938 C34.9218513,9.90409938 34.3781527,10.4479006 34.2692486,10.9384348 C34.1887196,10.7492223 34.1453759,10.5471426 34.1414404,10.342559 C34.1414404,9.57058385 34.68555,8.62449689 36.0084267,8.62449689 C37.1689746,8.62449689 37.6218513,9.22037267 37.7845911,9.22037267 C37.965002,9.22037267 38.1474678,9.04506832 38.2917144,9.04506832 C38.4914404,9.04506832 38.4914404,9.34320497 38.4914404,9.55349068 C38.4914404,10.2551056 38.1647281,11.4639503 37.3502075,11.9028075 C37.2047281,11.6042733 36.915002,11.2719503 36.4440431,11.0608696 C36.3326136,11.0191963 36.260139,10.9144381 36.2628102,10.7989068 C36.2628102,10.6057143 36.4440431,10.3596522 36.6610294,10.2547081 Z M33.924865,11.5343106 C34.3966459,11.9723727 34.8125363,12.1651677 35.3200705,12.1651677 C35.5189746,12.1651677 35.755276,12.1122981 35.8826733,12.1122981 C36.045413,12.1122981 36.1539061,12.1826584 36.1539061,12.3050932 C36.1539061,12.4982857 35.9726733,12.813913 35.754865,12.9892174 C35.9722623,13.0770683 36.2085637,13.1116522 36.4621253,13.1116522 C37.4944541,13.1116522 38.6726733,12.4803975 38.6726733,10.9034534 C38.8900705,11.1829068 39.0178787,11.7616894 39.0178787,12.0244472 C39.0178787,13.9349068 37.5667828,14.6715031 36.2270568,14.6715031 C35.3570568,14.6715031 34.9218513,14.3912547 34.8129472,14.3912547 C34.4693856,14.3912547 34.4870568,15.0570932 34.2511664,15.0396025 C33.8344541,14.9700373 33.4543171,14.0752298 33.4543171,13.1291429 C33.4534952,12.5682484 33.5989746,11.9723727 33.924865,11.5343106 Z M21.3306185,6.4333913 C21.3306185,7.04636025 23.5958239,10.0444224 24.0302075,10.0444224 C24.3922623,10.0444224 24.6643171,9.43065839 24.6643171,8.90434783 C24.6643171,8.76481988 24.6281527,8.62449689 24.5558239,8.5195528 C24.2291116,8.08109317 21.9273308,6.32804969 21.4210294,6.32804969 C21.3667828,6.3284472 21.3306185,6.38091925 21.3306185,6.4333913 Z M47.4799335,4.99518012 C47.4799335,3.75135404 44.4002075,3.43572671 44.4002075,3.15468323 C44.4002075,2.92690683 46.1213034,2.54091925 47.0097965,2.52303106 C45.6491116,0.841142857 43.7118513,1.0164472 43.7118513,0.718310559 C43.7118513,0.542608696 45.1621253,0.191204969 46.5018513,0.191204969 C47.625413,0.191204969 48.6778787,0.437267081 48.6778787,1.26131677 C48.6778787,1.71726708 48.2965089,2.19110559 48.2965089,2.89152795 C48.2965089,3.27711801 48.495413,3.61063354 49.0222623,3.61063354 C49.5840431,3.61063354 49.7110294,3.03185093 49.7110294,2.41808696 C49.7110294,1.91085714 49.6202075,1.52447205 49.6202075,1.27920497 C49.6202075,0.542608696 50.1441801,0.0520745342 50.8876048,0.0520745342 C51.5040431,0.0520745342 51.6487007,0.314434783 52.554865,0.314434783 C52.0662349,0.595080745 51.8845911,1.10390062 51.8845911,1.3491677 C51.8845911,2.08576398 52.374865,2.59378882 52.374865,4.10196273 C52.374865,6.8710559 49.6933582,7.85291925 46.4110294,7.85291925 C45.504865,7.85291925 44.545687,7.78255901 43.6033582,7.64223602 C43.4574678,7.62474534 43.4213034,7.59016149 43.4213034,7.50231056 C43.4213034,7.27413665 44.7088376,7.15170186 44.7088376,6.02951553 C44.7088376,5.59145342 44.5629472,5.17008696 44.5629472,5.01267081 C44.5624999,4.97514924 44.5777402,4.93904375 44.6052097,4.91254768 C44.6326792,4.88605161 44.6700486,4.87141176 44.7088376,4.87195031 C44.9808924,4.87195031 45.5225363,5.88959006 46.5371938,5.88959006 C46.8096596,5.88998758 47.4799335,5.80213665 47.4799335,4.99518012 Z M50.5419883,3.22504348 C50.5419883,4.78529193 49.3662349,5.97744099 47.244865,6.31095652 C47.4799335,6.3284472 47.6985637,6.3284472 47.9159609,6.3284472 C50.3977418,6.3284472 51.3039061,5.24124224 51.3039061,4.33013665 C51.3039061,3.82131677 51.0141801,3.36576398 50.5419883,3.22504348 Z M48.8221253,17.3197516 C48.8221253,16.9512547 47.8613034,16.9162733 47.7704815,15.8815404 C47.7519883,15.7241242 47.6981527,15.4434783 47.4984267,15.4434783 C47.1725363,15.4434783 47.425276,16.4074534 47.0632212,16.4074534 C46.2285637,16.4074534 45.9573308,14.8305093 45.6491116,14.8305093 C45.5767828,14.8305093 45.4863719,14.8829814 45.4863719,15.0932671 C45.4863719,15.2860621 45.5225363,15.4088944 45.5225363,15.6362733 C45.5225363,15.8636522 45.4678787,16.0218634 45.2529472,16.0218634 C44.7634952,16.0218634 44.3282897,14.9175652 43.9107555,14.9175652 C43.8199335,14.9175652 43.7303445,14.9708323 43.7303445,15.0578882 C43.7303445,15.2689689 44.0923993,15.6533665 44.0923993,15.8461615 C44.0923993,16.267528 42.9133582,16.038559 42.9133582,16.3899627 C42.9133582,16.5481739 43.0769198,16.600646 43.2947281,16.600646 C43.6760979,16.600646 44.2740431,16.4424348 44.5814404,16.4424348 C44.7634952,16.4424348 45.03555,16.4782112 45.03555,16.7055901 C45.03555,16.9512547 44.3821253,17.2672795 44.3821253,17.4946584 C44.3821253,17.6003975 44.4914404,17.6520745 44.5810294,17.6520745 C45.0704815,17.6520745 45.9392486,16.8288199 46.555687,16.8288199 C46.665002,16.8288199 46.9378787,16.8816894 46.9378787,17.0395031 C46.9378787,17.2672795 46.3206185,17.6695652 46.3206185,18.0026832 C46.3206185,18.0905342 46.375276,18.1958758 46.4833582,18.1958758 C46.8100705,18.1958758 47.245276,17.3718261 47.8617144,17.3718261 C48.0967828,17.3718261 48.4419883,17.4600745 48.6228102,17.4600745 C48.7682897,17.4600745 48.8221253,17.3718261 48.8221253,17.3197516 Z M35.845276,3.94414907 C35.845276,3.75135404 35.1388376,3.38285714 35.1388376,3.17296894 C35.1388376,3.13759006 35.1758239,3.12009938 35.2288376,3.12009938 C35.4277418,3.12009938 35.7721253,3.19006211 36.045002,3.19006211 C36.2800705,3.19006211 36.3162349,2.2093913 36.4987007,2.2093913 C36.624865,2.2093913 36.8430842,3.13759006 37.0419883,3.13759006 C37.2770568,3.13759006 37.7114404,2.87443478 37.8934952,2.87443478 C37.9296596,2.87443478 37.965002,2.89192547 37.965002,2.92730435 C37.965002,3.05053416 37.5121253,3.52318012 37.5121253,3.66390062 C37.5121253,3.82171429 38.5284267,4.01450932 38.5284267,4.15522981 C38.5284267,4.33013665 37.4936322,4.31304348 37.4936322,4.4696646 C37.4936322,4.59249689 37.875002,5.08303106 37.875002,5.24163975 C37.875002,5.27662112 37.8565089,5.2941118 37.8203445,5.2941118 C37.675687,5.2941118 37.1147281,5.0484472 36.9511664,5.0484472 C36.7522623,5.0484472 36.42555,5.7675528 36.2623993,5.7675528 C36.2077418,5.7675528 36.1715774,5.69679503 36.1715774,5.60934161 L36.1345911,4.90812422 C36.1345911,4.83776398 36.0992486,4.76780124 36.0076048,4.76780124 C35.7902075,4.76780124 35.3734952,4.74991304 35.2465089,4.74991304 C35.1565089,4.74991304 35.1203445,4.73242236 35.1203445,4.69704348 C35.1215774,4.55711801 35.845276,4.06658385 35.845276,3.94414907 Z M39.3803445,7.27453416 C38.1104815,7.27453416 37.2774678,6.66077019 37.2774678,6.34593789 C37.2774678,6.18812422 37.3867828,6.08278261 37.5302075,6.08278261 C37.9300705,6.08278261 38.8000705,6.67786335 39.0897965,6.67786335 C39.1621253,6.67786335 39.2167828,6.6432795 39.2167828,6.5383354 C39.2167828,6.22310559 38.9085637,5.69679503 38.9085637,5.43403727 C38.9085637,5.36407453 38.9632212,5.31120497 39.0721253,5.31120497 C39.5607555,5.31120497 40.2865089,5.50439752 40.6670568,5.50439752 C40.794865,5.50439752 40.8297965,5.43363975 40.8297965,5.36367702 C40.8297965,4.97729193 39.6523993,4.22439752 39.6523993,3.99662112 C39.6523993,3.7863354 41.1187007,3.47070807 41.1187007,3.13719255 C41.1187007,2.78658385 39.12555,3.03185093 39.12555,2.6983354 C39.12555,2.45306832 39.5060979,2.03289441 39.5060979,1.84049689 C39.5060979,1.75224845 39.4337691,1.7176646 39.3071938,1.7176646 C39.1444541,1.7176646 38.2732212,2.05078261 37.9115774,2.05078261 C37.7303445,2.05078261 37.5125363,2.01580124 37.5125363,1.77013665 C37.5125363,1.3670559 38.2197965,0.928198758 39.325687,0.928198758 C41.1187007,0.928198758 42.1888376,2.12074534 42.1888376,4.11945342 C42.1888376,6.6432795 40.3588376,7.27453416 39.3803445,7.27453416 Z M27.1115774,37.6017888 C27.1115774,37.7588075 27.0565089,37.9345093 26.9114404,38.1094161 C26.7129472,37.7584099 26.1499335,37.5831056 25.8980157,37.5831056 C24.0302075,37.5831056 24.7374678,40.1947826 22.7434952,40.1947826 C21.9096596,40.1947826 21.8365089,40.089441 21.5299335,40.089441 C21.4025363,40.089441 21.3302075,40.1423106 21.3302075,40.2468571 C21.3302075,40.7024099 22.0004815,41.8257888 23.8666459,41.8257888 C25.734865,41.8257888 27.5274678,40.7206957 27.5274678,39.3520497 C27.5237498,39.1042469 27.4681074,38.8597483 27.3639061,38.6333416 C27.4370568,38.528 27.6178787,38.4580373 27.7806185,38.4580373 C28.0711664,38.4580373 28.2343171,38.7740621 28.5059609,38.7740621 C28.7960979,38.7740621 29.0130842,38.5637764 29.0130842,38.285118 C29.0130842,38.0569441 28.8860979,37.8991304 28.6682897,37.7929938 C28.8137691,37.6884472 28.9222623,37.5131429 28.9222623,37.3207453 C28.9222623,37.0222112 28.7044541,36.7419627 28.3432212,36.7419627 C28.1796596,36.7419627 28.0711664,36.7948323 27.9445911,36.9168696 C27.9080157,36.6012422 27.7271938,36.3031056 27.3823993,36.3031056 C27.1115774,36.3031056 26.9114404,36.4962981 26.9114404,36.7944348 C26.9114404,37.0746832 27.1115774,37.3024596 27.1115774,37.6017888 Z M22.2359609,38.2672298 C21.6926733,38.2672298 20.8777418,37.7059379 20.8777418,37.3903106 C20.8777418,37.1271553 21.1317144,36.9868323 21.3306185,36.9868323 C21.7839061,36.9868323 22.5988376,37.5306335 22.5988376,37.9865839 C22.5988376,38.1094161 22.5080157,38.2672298 22.2359609,38.2672298 Z M17.1799335,34.3389814 C18.6306185,34.6899876 19.3547281,35.443677 19.4997965,36.338087 C19.644865,37.1975155 19.825687,37.899528 20.1704815,38.2497391 C20.6237691,38.7386832 21.5122623,39.1771429 22.2906185,39.1771429 C22.9432212,39.1771429 23.4696596,38.9676522 23.4696596,38.3904596 C23.4696596,37.7588075 22.5811664,36.3384845 21.2759609,36.3384845 C21.1493856,36.3384845 20.9858239,36.3563727 20.805002,36.3563727 C20.6418513,36.3563727 20.40555,36.3209938 20.2604815,36.198559 C19.9699335,35.9536894 19.8799335,34.637913 19.3358239,33.8504348 C18.7387007,32.9735155 18.0860979,32.7282484 17.1980157,32.7282484 C16.5634952,32.7282484 15.8570568,33.0613665 15.8570568,33.5522981 C15.8574678,33.8496398 16.0206185,34.0587329 17.1799335,34.3389814 Z M26.2773308,32.2015404 C26.2773308,31.4128696 24.5923993,31.3949814 24.5923993,30.2032298 C24.5923993,29.9050932 24.7908924,29.3962733 25.1911664,28.852472 C25.3534952,29.7643727 25.735276,30.2378137 26.5493856,30.5359503 C28.1619883,31.1139379 28.3797965,31.9900621 28.3797965,32.9202484 C28.3797965,34.496795 27.2381527,36.4613168 24.3026733,36.4613168 C21.9462349,36.4613168 20.2608924,34.4268323 20.2608924,32.7095652 C20.2608924,32.2361242 20.3878787,31.7098137 20.6965089,31.7098137 C20.9677418,31.7098137 21.0585637,31.9200994 21.2763719,32.1307826 C22.0913034,32.9198509 22.9797965,33.1301366 24.2660979,33.1301366 C25.4262349,33.1305342 26.2773308,32.6749814 26.2773308,32.2015404 Z M26.3496596,33.4640497 C25.7163719,33.7089193 25.4808924,33.6910311 25.4808924,34.3036025 C25.4808924,34.5317764 25.4266459,34.829913 25.4266459,34.9877267 C25.4266459,35.1984099 25.4628102,35.3212422 25.7167828,35.3212422 C26.3681527,35.3212422 27.4008924,34.2519255 27.4008924,33.3408199 C27.4008924,33.0955528 27.2566459,32.9906087 27.0939061,32.9906087 C26.9480157,32.9906087 26.784865,33.2708571 26.3496596,33.4640497 Z M20.5691116,24.6101863 C20.5691116,23.488795 23.3241801,22.8925217 23.3241801,21.5079752 C23.3241801,21.2801988 23.2333582,20.877913 23.0702075,20.5793789 C24.0302075,21.0870062 24.7374678,21.9468323 24.7374678,22.6472547 C24.7374678,23.8572919 23.4330842,24.4173913 23.4330842,25.1714783 C23.4330842,26.048795 24.8282897,26.1887205 24.8282897,27.275528 C24.8282897,28.1695404 23.505413,29.2034783 23.505413,30.3610435 C23.505413,31.2542609 24.1563719,31.9904596 25.1541801,32.1136894 C24.8282897,32.1840497 24.5377418,32.2365217 24.2295226,32.2365217 C22.3995226,32.2365217 20.5144541,30.7812174 20.5144541,29.0460621 C20.5144541,28.1870311 20.8958239,27.4333416 21.475687,26.8899379 C21.9823993,27.3105093 22.4903445,27.5915528 22.8158239,27.5915528 C23.1063719,27.5915528 23.2333582,27.4508323 23.2333582,27.2409441 C23.2333582,26.5910062 20.5691116,25.9959255 20.5691116,24.6101863 Z M24.3063719,62.1129938 C24.8188376,62.1129938 25.6987007,61.952 26.3915774,60.877913 C25.9958239,60.0284224 25.7130842,58.3071801 25.6728102,57.6814907 C25.4689746,54.4802981 26.7445911,51.4687205 28.1406185,51.3860373 C29.1643171,51.3268075 29.9829472,52.2637516 30.0770568,53.7786832 C30.3297965,57.7701366 28.9539061,59.4361242 28.2680157,60.8707578 C28.3839061,61.4296646 29.3595226,62.3777391 30.2829472,62.3777391 C30.6240431,62.3777391 31.035002,62.2131677 31.1377418,62.079205 C31.042776,61.7686825 30.9962363,61.4461927 30.9996596,61.1223851 C30.9996596,58.8112298 32.5382897,56.8594286 33.8689746,56.8594286 C34.9292486,56.8594286 35.5407555,58.213764 35.5407555,59.1089689 C35.5407555,60.1639752 34.6193856,61.0241988 33.2541801,61.850236 C33.495002,62.079205 33.9363719,62.2461615 34.3144541,62.2461615 C36.2607555,62.2461615 37.2836322,59.968 38.0365089,57.8838261 C38.1729472,57.4875031 38.4137691,56.9262112 38.8896596,56.9262112 C39.7099335,56.9262112 40.0526733,62.1455901 41.4162349,62.1455901 C41.9981527,62.1455901 42.474865,60.9892174 42.474865,60.0999752 C42.474865,59.4385093 42.2365089,59.3725217 42.2365089,58.4129193 C42.2365089,57.357118 42.8167828,56.4646957 43.6041801,56.4646957 C44.0808924,56.4646957 44.2526733,56.9266087 44.2526733,57.4879006 C44.2526733,59.6030807 42.6819883,63.5349068 40.3604815,63.5349068 C38.6163719,63.5349068 38.7519883,60.6250932 38.1396596,60.6250932 C37.455002,60.6250932 36.4982897,63.5686957 33.1181527,63.5686957 C32.5699335,63.5686957 31.9904815,63.3043478 31.5137691,62.7728696 C30.6934952,63.3043478 30.0088376,63.5349068 29.2230842,63.5349068 C27.9606185,63.5349068 27.4136322,62.2783602 26.9028102,62.2783602 C26.2867828,62.2783602 25.6062349,63.5686957 23.555139,63.5686957 C21.9145911,63.5686957 21.6417144,61.4547081 21.0626733,61.4547081 C20.5497965,61.4547081 19.7644541,63.5686957 18.9113034,63.5686957 C17.4737691,63.5686957 17.1692486,59.9016149 15.9047281,59.9016149 C14.9134952,59.9016149 11.784865,63.6251429 10.9345911,63.5400745 C10.5930842,63.5050932 10.4500705,63.2586335 10.4858239,62.9275031 C10.5339061,62.4707578 10.9399335,61.2476025 11.1063719,60.6672298 C11.3825363,59.6646957 11.6360979,58.5611925 11.7774678,58.2101863 C11.9176048,57.8563975 12.2985637,57.6039752 12.6014404,57.6310062 C12.7547281,57.6453168 12.8007555,57.9219876 12.8484267,58.1493665 C13.0197965,58.9690435 13.2622623,59.8010435 13.5343171,59.8010435 C14.0134952,59.8010435 15.5985637,56.8594286 16.5195226,56.8594286 C17.6476048,56.8594286 17.7836322,61.4861118 19.3202075,61.4861118 C19.8330842,61.4861118 20.2107555,60.8910311 20.5506185,60.1643727 C20.58555,58.9404224 20.9262349,57.1917516 21.9507555,57.1917516 C22.6695226,57.1917516 23.0106185,58.7424596 22.4969198,60.0995776 C22.4965089,61.7158758 23.5888376,62.1129938 24.3063719,62.1129938 Z M49.785002,59.0083975 C49.785002,58.1827578 49.0008924,57.0251925 47.8395226,57.0251925 C46.3025363,57.0251925 44.8013034,58.6442733 44.8013034,60.8906335 C44.8013034,62.9040497 46.0958239,63.5679006 47.3940431,63.5679006 C49.6485637,63.5679006 51.0162349,61.7802733 51.7325363,60.2955528 C52.075276,61.286559 52.2766459,63.5679006 53.1330842,63.5679006 C53.4741801,63.5679006 53.7133582,63.4021366 54.125139,62.5097143 C55.1467828,60.2955528 56.1371938,57.7518509 57.505276,57.7518509 C58.015687,57.7518509 57.7099335,58.6442733 58.9387007,58.6442733 C59.5197965,58.6442733 59.9282897,58.1827578 59.9282897,57.6512795 C59.9282897,56.8916273 59.2115774,56.2977391 58.1184267,56.2977391 C54.9100705,56.2977391 54.2270568,60.9570186 53.7133582,60.9570186 C52.8593856,60.9570186 53.1330842,57.2239503 52.5174678,57.2239503 C51.9708924,57.2239503 51.6971938,57.8524224 51.6289746,58.1481739 C51.1843171,59.866236 49.9226733,62.3451429 48.0080157,62.3451429 C47.565002,62.3451429 46.7792486,62.1793789 46.7792486,61.7496646 C46.7792486,61.286559 49.785002,61.222559 49.785002,59.0083975 Z M28.9707555,54.6711056 C28.9119883,53.7488696 28.6802075,53.3322733 28.1689746,53.3652671 C27.4880157,53.4058137 27.1744541,55.474882 27.3125363,57.6496894 C27.4008924,59.0700124 27.6191116,59.2874534 27.8233582,59.2743354 C28.1997965,59.2528696 29.1014404,56.7167205 28.9707555,54.6711056 Z M23.4174678,52.7324224 C23.385002,52.2021366 22.9411664,51.8396025 22.3604815,51.8396025 C21.7111664,51.8396025 21.0947281,52.4998758 21.1658239,53.3255155 C21.1658239,53.8204224 21.5402075,54.3169193 22.1911664,54.3169193 C22.9415774,54.3169193 23.4877418,53.4928696 23.4174678,52.7324224 Z M34.0411664,59.4703106 C34.0411664,58.9106087 33.7329472,58.445913 33.3581527,58.445913 C33.0491116,58.445913 32.3340431,58.7762484 32.3340431,59.8332422 C32.3340431,60.6592795 32.6397965,61.0544099 32.7787007,61.222559 C33.7666459,60.9236273 34.0411664,60.1301863 34.0411664,59.4703106 Z M47.3940431,58.3485217 C48.1115774,58.3485217 48.3178787,59.1721739 48.1469198,59.6686708 C47.975139,60.1635776 47.3619883,60.7248696 46.4044541,60.890236 C46.1997965,60.3937391 46.0962349,58.3485217 47.3940431,58.3485217 Z M0.418152711,58.8768199 C0.384043122,57.5197019 0.452673259,56.166559 1.03418011,54.2509317 C1.34075545,53.2285217 1.615276,52.8628075 2.56993353,52.6664348 C3.32116641,52.5336646 3.25418011,53.2921242 3.08363216,54.1849441 C2.70842668,56.1661615 2.53500203,57.1241739 2.67349518,59.3717267 C2.80746778,61.7492671 3.93678285,62.6750807 5.16513901,62.6750807 C7.00952257,62.7088696 7.82979655,61.2229565 8.17089244,59.0743851 C8.44294723,57.356323 8.23787874,56.5286957 8.06691983,56.0019876 C7.96541298,55.704646 7.69212531,55.0431801 7.58938559,54.5490683 C7.45376915,53.2925217 8.06691983,52.7006211 8.58061846,52.5340621 C9.19582394,52.3679006 9.43582394,52.6668323 9.67294723,53.3612919 C9.98157737,54.4174907 10.015687,55.8028323 9.91253627,57.7840497 C9.77650888,60.492323 8.37554997,63.7662609 4.8922623,63.6986832 C1.88650888,63.6342857 0.556645861,61.7496646 0.418152711,58.8768199 Z" id="unilever"></path>
                    </g>
                </g>
            </g>
        </g>
    </g>
</svg>