<?xml version="1.0" encoding="UTF-8"?>
<svg width="175px" height="96px" viewBox="0 0 175 96" version="1.1" xmlns="http://www.w3.org/2000/svg" xmlns:xlink="http://www.w3.org/1999/xlink">
    <!-- Generator: Sketch 48.2 (47327) - http://www.bohemiancoding.com/sketch -->
    <title>client logo 1</title>
    <desc>Created with Sketch.</desc>
    <defs></defs>
    <g id="01-t-home" stroke="none" stroke-width="1" fill="none" fill-rule="evenodd" transform="translate(-82.000000, -702.000000)">
        <g id="Hero">
            <g id="clients-+-partners" transform="translate(82.000000, 702.000000)">
                <g id="client-logo-1">
                    <rect id="bound-1" fill="#FFFFFF" opacity="0" x="0" y="0" width="175" height="96"></rect>
                    <g id="Logo/Clients/accenture-default" transform="translate(0.000000, 20.000000)" fill="#59A9FF" fill-rule="nonzero">
                        <path d="M0.372340426,39.1 C0.418882979,38.962 0.465425532,38.778 0.511968085,38.64 C0.791223404,36.57 1.90824468,35.098 3.81648936,34.224 C4.93351064,33.672 6.14361702,33.396 7.40026596,33.258 C8.37765957,33.12 9.40159574,33.12 10.3789894,33.12 C11.0305851,33.12 11.7287234,33.12 12.3803191,33.12 C12.4268617,33.074 12.4268617,33.074 12.4268617,33.028 C12.4734043,32.384 12.4734043,31.694 12.3337766,31.05 C12.0545213,29.808 11.3098404,29.164 10.0066489,28.98 C9.5412234,28.934 9.02925532,28.934 8.56382979,29.026 C7.44680851,29.302 6.79521277,29.992 6.51595745,31.096 C6.46941489,31.234 6.46941489,31.326 6.42287234,31.51 C4.65425532,31.51 2.8856383,31.51 1.07047872,31.51 C1.02393617,31.234 1.11702128,30.958 1.16356383,30.682 C1.67553191,28.198 3.16489362,26.588 5.49202128,25.668 C6.88829787,25.116 8.33111702,24.978 9.82047872,24.978 C11.1236702,24.978 12.3803191,25.116 13.5904255,25.53 C14.3351064,25.76 15.0332447,26.128 15.6848404,26.634 C16.9880319,27.646 17.6861702,28.934 17.918883,30.498 C18.0119681,31.05 18.0585106,31.602 18.0585106,32.2 C18.0585106,36.386 18.0585106,40.618 18.0585106,44.804 C18.0585106,44.942 18.0585106,45.08 18.0585106,45.264 C16.1968085,45.264 14.3816489,45.264 12.5664894,45.264 C12.5664894,44.528 12.5664894,43.838 12.5664894,43.102 C12.4734043,43.194 12.4268617,43.24 12.3803191,43.286 C11.356383,44.62 9.96010638,45.356 8.28457447,45.632 C7.91223404,45.678 7.53989362,45.724 7.16755319,45.77 C7.12101064,45.77 7.02792553,45.77 6.98138298,45.77 C6.84175532,45.77 6.70212766,45.724 6.5625,45.724 C5.91090426,45.678 5.30585106,45.586 4.70079787,45.448 C2.37367021,44.758 0.930851064,43.286 0.605053191,40.848 C0.605053191,40.71 0.511968085,40.572 0.465425532,40.434 C0.372340426,39.928 0.372340426,39.514 0.372340426,39.1 Z M12.4268617,36.754 C12.1476064,36.754 11.9148936,36.754 11.6821809,36.754 C10.7513298,36.8 9.77393617,36.8 8.84308511,36.846 C8.23803191,36.892 7.63297872,37.03 7.07446809,37.352 C6.51595745,37.674 6.14361702,38.134 6.05053191,38.778 C6.00398936,39.054 6.00398936,39.376 6.00398936,39.652 C6.05053191,40.664 6.60904255,41.4 7.63297872,41.63 C8.70345745,41.906 9.77393617,41.814 10.7978723,41.308 C11.6821809,40.848 12.287234,40.112 12.3803191,39.1 C12.4268617,38.364 12.4268617,37.582 12.4268617,36.754 Z" id="Shape"></path>
                        <path d="M72.5598404,45.724 C72.3271277,45.724 72.1409574,45.678 71.9082447,45.678 C70.5585106,45.586 69.2087766,45.31 67.9521277,44.758 C65.6715426,43.7 64.2287234,41.906 63.4840426,39.56 C63.1582447,38.548 63.018617,37.536 62.9720745,36.478 C62.8789894,34.868 62.9720745,33.258 63.4375,31.694 C63.9960106,29.808 64.9734043,28.152 66.5558511,26.91 C67.8590426,25.898 69.3484043,25.3 70.9773936,25.116 C72.6994681,24.886 74.375,24.978 76.0505319,25.53 C78.9827128,26.496 80.7047872,28.52 81.4029255,31.464 C81.6356383,32.384 81.6821809,33.35 81.7287234,34.316 C81.7287234,35.006 81.7287234,35.696 81.7287234,36.432 C81.7287234,36.524 81.7287234,36.616 81.6821809,36.754 C77.3537234,36.754 73.025266,36.754 68.650266,36.754 C68.6968085,37.03 68.6968085,37.26 68.6968085,37.444 C68.7898936,38.042 68.8829787,38.64 69.1156915,39.192 C69.7207447,40.71 70.837766,41.538 72.4667553,41.63 C73.025266,41.676 73.5837766,41.63 74.1422872,41.446 C75.212766,41.124 75.9574468,40.434 76.3297872,39.422 C76.3763298,39.33 76.4228723,39.192 76.4694149,39.1 C76.4694149,39.1 76.4694149,39.1 76.5159574,39.054 C78.1914894,39.054 79.9135638,39.054 81.6356383,39.054 C81.6356383,39.192 81.5890957,39.33 81.5890957,39.422 C80.9840426,42.182 79.3085106,43.976 76.6555851,44.988 C75.6316489,45.402 74.5146277,45.586 73.4441489,45.632 C73.2579787,45.632 73.0718085,45.678 72.8856383,45.678 C72.7925532,45.724 72.6529255,45.724 72.5598404,45.724 Z M68.7433511,32.982 C69.2087766,33.074 76.0039894,33.028 76.2367021,32.936 C76.1901596,32.062 76.0505319,31.188 75.6316489,30.406 C75.212766,29.624 74.5611702,29.118 73.6768617,28.934 C73.4441489,28.888 73.2114362,28.842 72.9787234,28.842 C71.9547872,28.75 70.9773936,28.934 70.1861702,29.67 C69.2553191,30.59 68.9295213,31.786 68.7433511,32.982 Z" id="Shape"></path>
                        <path d="M165.505319,45.724 C165.272606,45.724 165.039894,45.678 164.807181,45.678 C163.503989,45.586 162.24734,45.356 161.037234,44.804 C158.710106,43.746 157.220745,41.998 156.429521,39.606 C155.824468,37.812 155.777926,35.926 155.917553,34.04 C156.010638,32.706 156.289894,31.418 156.848404,30.222 C158.198138,27.324 160.478723,25.622 163.643617,25.116 C165.226064,24.84 166.808511,24.932 168.344415,25.3 C171.509309,26.128 173.464096,28.106 174.255319,31.188 C174.441489,31.878 174.534574,32.568 174.581117,33.304 C174.581117,33.396 174.62766,33.534 174.62766,33.626 C174.62766,34.638 174.62766,35.65 174.62766,36.662 C174.488032,36.662 174.301862,36.662 174.162234,36.662 C170.113032,36.662 166.110372,36.662 162.06117,36.662 C161.921543,36.662 161.781915,36.662 161.549202,36.662 C161.595745,37.03 161.595745,37.306 161.642287,37.628 C161.781915,38.456 161.968085,39.238 162.386968,39.928 C162.805851,40.618 163.410904,41.124 164.202128,41.4 C164.993351,41.63 165.784574,41.676 166.575798,41.538 C167.925532,41.308 168.856383,40.572 169.275266,39.284 C169.321809,39.192 169.321809,39.1 169.368351,39.054 C169.880319,38.962 174.255319,39.008 174.488032,39.1 C174.488032,39.192 174.488032,39.284 174.488032,39.422 C174.488032,39.514 174.441489,39.56 174.441489,39.652 C173.882979,41.952 172.486702,43.654 170.345745,44.712 C169.089096,45.31 167.785904,45.586 166.43617,45.678 C166.203457,45.678 165.970745,45.724 165.738032,45.724 C165.691489,45.724 165.598404,45.724 165.505319,45.724 Z M169.135638,33.028 C169.089096,32.108 168.949468,31.234 168.530585,30.452 C168.111702,29.716 167.460106,29.21 166.62234,29.026 C166.389628,28.98 166.156915,28.934 165.924202,28.888 C164.341755,28.75 163.038564,29.348 162.293883,30.82 C161.968085,31.464 161.781915,32.108 161.68883,32.798 C161.68883,32.844 161.68883,32.936 161.68883,32.982 C164.202128,33.028 166.668883,33.028 169.135638,33.028 Z" id="Shape"></path>
                        <path d="M126.828457,45.724 C126.68883,45.724 126.549202,45.678 126.409574,45.678 C125.804521,45.632 125.199468,45.54 124.640957,45.356 C122.68617,44.712 121.569149,43.332 121.010638,41.4 C120.777926,40.618 120.68484,39.836 120.68484,39.008 C120.68484,34.592 120.68484,30.176 120.68484,25.806 C120.68484,25.714 120.68484,25.576 120.68484,25.438 C122.593085,25.438 124.454787,25.438 126.316489,25.438 C126.316489,25.576 126.316489,25.714 126.316489,25.852 C126.316489,29.854 126.316489,33.856 126.316489,37.858 C126.316489,38.364 126.316489,38.87 126.456117,39.376 C126.735372,40.526 127.526596,41.216 128.736702,41.308 C129.24867,41.354 129.760638,41.354 130.272606,41.216 C131.62234,40.848 132.413564,39.974 132.646277,38.64 C132.692819,38.318 132.739362,37.996 132.739362,37.628 C132.739362,33.718 132.739362,29.762 132.739362,25.852 C132.739362,25.714 132.739362,25.576 132.739362,25.438 C133.018617,25.346 137.8125,25.346 138.324468,25.392 C138.324468,31.97 138.324468,38.594 138.324468,45.172 C138.091755,45.264 133.297872,45.264 132.739362,45.218 C132.739362,44.758 132.739362,44.298 132.739362,43.884 C132.739362,43.424 132.739362,43.01 132.692819,42.55 C132.646277,42.642 132.599734,42.734 132.553191,42.78 C131.575798,44.39 130.086436,45.31 128.224734,45.586 C127.945479,45.632 127.666223,45.632 127.340426,45.678 C127.24734,45.678 127.154255,45.724 127.014628,45.724 C126.968085,45.724 126.921543,45.724 126.828457,45.724 Z" id="Shape"></path>
                        <path d="M30.625,45.724 C30.3922872,45.724 30.206117,45.678 29.9734043,45.678 C28.5771277,45.586 27.2273936,45.31 25.9707447,44.666 C23.7832447,43.562 22.4335106,41.768 21.7353723,39.514 C21.2234043,37.904 21.1303191,36.202 21.2234043,34.5 C21.3164894,33.212 21.5026596,31.924 22.0146277,30.728 C23.3178191,27.6 25.6914894,25.76 29.0425532,25.208 C30.8577128,24.886 32.6728723,25.024 34.4414894,25.622 C37.1409574,26.542 38.7699468,28.428 39.4215426,31.142 C39.5146277,31.51 39.5611702,31.924 39.6077128,32.292 C39.6077128,32.338 39.6077128,32.43 39.6077128,32.522 C37.8390957,32.522 36.0239362,32.522 34.2553191,32.522 C34.2087766,32.384 34.162234,32.2 34.1156915,32.062 C34.0226064,31.74 33.9295213,31.464 33.7898936,31.142 C33.1848404,29.808 32.0212766,29.256 30.5784574,29.348 C29.1821809,29.486 28.2513298,30.176 27.6462766,31.418 C27.2273936,32.2 27.0412234,33.074 26.9946809,33.948 C26.9015957,35.282 26.9015957,36.57 27.1343085,37.904 C27.2273936,38.456 27.3670213,39.008 27.6462766,39.514 C28.3444149,41.032 29.6941489,41.722 31.3696809,41.584 C32.9055851,41.446 33.8829787,40.526 34.3949468,39.146 C34.5345745,38.778 34.6276596,38.41 34.7207447,38.042 C36.3962766,38.042 38.0718085,38.042 39.793883,38.042 C39.8404255,38.364 39.7473404,38.64 39.7007979,38.916 C39.375,40.756 38.6303191,42.366 37.2340426,43.608 C36.1170213,44.62 34.8138298,45.218 33.3244681,45.494 C32.6728723,45.632 31.974734,45.632 31.3231383,45.724 C31.2300532,45.724 31.1369681,45.77 30.9973404,45.77 C30.8111702,45.724 30.7180851,45.724 30.625,45.724 Z" id="Shape"></path>
                        <path d="M51.5226064,45.724 C51.2898936,45.724 51.1037234,45.678 50.8710106,45.678 C49.3816489,45.586 47.9388298,45.264 46.6356383,44.528 C44.6343085,43.47 43.3776596,41.814 42.6795213,39.698 C42.3071809,38.594 42.1210106,37.49 42.0744681,36.34 C41.981383,34.73 42.0744681,33.166 42.5398936,31.648 C43.1914894,29.394 44.4481383,27.554 46.5425532,26.312 C47.7992021,25.576 49.1489362,25.162 50.5917553,25.024 C52.2207447,24.886 53.849734,24.978 55.3856383,25.53 C58.0385638,26.45 59.6675532,28.336 60.3191489,31.05 C60.412234,31.418 60.4587766,31.786 60.5053191,32.154 C60.5053191,32.246 60.5053191,32.292 60.5053191,32.384 C58.7367021,32.384 56.9680851,32.384 55.1529255,32.384 C55.106383,32.246 55.0598404,32.108 55.0132979,31.97 C54.9202128,31.648 54.8271277,31.372 54.6875,31.05 C54.0824468,29.716 52.9654255,29.118 51.4760638,29.256 C50.1263298,29.348 49.1489362,30.038 48.543883,31.234 C48.125,32.062 47.8922872,32.936 47.8457447,33.856 C47.7526596,35.19 47.7526596,36.478 47.9853723,37.812 C48.0784574,38.364 48.2646277,38.916 48.4973404,39.468 C49.2420213,40.986 50.5452128,41.63 52.1742021,41.492 C53.6170213,41.354 54.5944149,40.526 55.1529255,39.238 C55.3390957,38.824 55.4321809,38.41 55.5718085,37.95 C57.2473404,37.95 58.9228723,37.95 60.6449468,37.95 C60.5984043,38.272 60.5984043,38.548 60.5518617,38.824 C60.2260638,40.71 59.4348404,42.366 57.9454787,43.654 C56.7353723,44.666 55.3390957,45.264 53.8031915,45.54 C53.2446809,45.632 52.7327128,45.632 52.1742021,45.724 C52.081117,45.724 51.9880319,45.77 51.8484043,45.77 C51.7087766,45.724 51.6156915,45.724 51.5226064,45.724 Z" id="Shape"></path>
                        <path d="M102.021277,0.276 C102.160904,0.322 102.253989,0.414 102.393617,0.46 C107.839096,2.622 113.331117,4.83 118.776596,6.992 C119.148936,7.13 119.102394,7.084 119.102394,7.498 C119.102394,8.694 119.102394,9.844 119.102394,11.04 C119.102394,11.132 119.102394,11.27 119.102394,11.408 C113.37766,13.708 107.652926,15.962 101.928191,18.262 C101.928191,16.468 101.928191,14.72 101.928191,12.972 C105.232713,11.776 108.537234,10.534 111.841755,9.338 C111.841755,9.292 111.841755,9.292 111.841755,9.246 C108.537234,7.958 105.232713,6.716 101.928191,5.428 C101.928191,3.726 101.928191,1.978 101.928191,0.276 C101.974734,0.276 102.021277,0.276 102.021277,0.276 Z" id="Shape"></path>
                        <path d="M85.1728723,25.438 C87.0345745,25.438 88.8962766,25.438 90.7579787,25.438 C90.7579787,26.358 90.7579787,27.278 90.7579787,28.198 C90.7579787,28.198 90.8045213,28.198 90.8045213,28.198 C90.8510638,28.106 90.9441489,28.014 90.9906915,27.922 C92.0611702,26.266 93.643617,25.392 95.5518617,25.07 C96.5292553,24.932 97.5066489,24.932 98.4840426,25.162 C100.392287,25.576 101.648936,26.726 102.300532,28.52 C102.672872,29.578 102.859043,30.636 102.859043,31.74 C102.859043,36.11 102.859043,40.526 102.859043,44.896 C102.859043,44.988 102.859043,45.08 102.859043,45.218 C100.99734,45.218 99.1356383,45.218 97.2739362,45.218 C97.2739362,45.08 97.2739362,44.942 97.2739362,44.804 C97.2739362,40.848 97.2739362,36.846 97.2739362,32.89 C97.2739362,32.476 97.2273936,32.108 97.1808511,31.694 C96.9946809,30.406 96.25,29.716 94.9468085,29.532 C94.3417553,29.44 93.7367021,29.486 93.1316489,29.624 C91.875,29.992 91.1303191,30.866 90.8510638,32.108 C90.7579787,32.476 90.7579787,32.844 90.7579787,33.258 C90.7579787,37.122 90.7579787,40.94 90.7579787,44.804 C90.7579787,44.942 90.7579787,45.08 90.7579787,45.218 C90.4787234,45.31 85.5917553,45.31 85.1728723,45.264 C85.1728723,38.64 85.1728723,32.062 85.1728723,25.438 Z" id="Shape"></path>
                        <path d="M107.746011,29.532 C106.954787,29.532 106.210106,29.532 105.418883,29.532 C105.418883,28.152 105.418883,26.818 105.418883,25.392 C106.163564,25.392 106.954787,25.392 107.699468,25.392 C107.699468,24.15 107.699468,22.908 107.699468,21.666 C109.56117,20.93 111.422872,20.148 113.331117,19.412 C113.424202,19.55 113.37766,19.688 113.37766,19.826 C113.37766,21.528 113.37766,23.23 113.37766,24.978 C113.37766,25.116 113.37766,25.254 113.37766,25.438 C114.680851,25.438 115.890957,25.438 117.147606,25.438 C117.240691,25.714 117.240691,29.026 117.194149,29.578 C115.9375,29.578 114.680851,29.578 113.37766,29.578 C113.37766,29.762 113.37766,29.854 113.37766,29.992 C113.37766,32.982 113.37766,35.972 113.37766,38.962 C113.37766,39.238 113.424202,39.56 113.470745,39.836 C113.656915,40.664 114.215426,41.124 115.099734,41.17 C115.797872,41.216 116.449468,41.17 117.147606,40.94 C117.194149,40.94 117.240691,40.894 117.333777,40.894 C117.333777,42.32 117.333777,43.746 117.333777,45.218 C117.147606,45.264 116.961436,45.31 116.728723,45.356 C115.006649,45.724 113.284574,45.77 111.609043,45.31 C110.305851,44.988 109.281915,44.344 108.583777,43.148 C108.118351,42.366 107.885638,41.538 107.839096,40.664 C107.792553,40.204 107.792553,39.698 107.792553,39.238 C107.792553,36.202 107.792553,33.12 107.792553,30.084 C107.746011,29.854 107.746011,29.716 107.746011,29.532 Z" id="Shape"></path>
                        <path d="M148.144947,28.888 C149.308511,26.358 151.263298,25.116 154.102394,25.162 C154.102394,27.002 154.102394,28.796 154.102394,30.59 C153.962766,30.59 153.776596,30.636 153.636968,30.636 C152.75266,30.636 151.868351,30.728 151.030585,31.004 C150.797872,31.096 150.518617,31.188 150.285904,31.28 C149.075798,31.832 148.37766,32.798 148.191489,34.086 C148.144947,34.5 148.098404,34.914 148.098404,35.328 C148.098404,38.502 148.098404,41.676 148.098404,44.85 C148.098404,44.988 148.098404,45.126 148.098404,45.264 C146.236702,45.264 144.375,45.264 142.513298,45.264 C142.513298,38.64 142.513298,32.062 142.513298,25.438 C144.375,25.438 146.236702,25.438 148.098404,25.438 C148.098404,26.588 148.098404,27.738 148.098404,28.842 C148.098404,28.842 148.144947,28.842 148.144947,28.888 Z" id="Shape"></path>
                    </g>
                </g>
            </g>
        </g>
    </g>
</svg>