<?xml version="1.0" encoding="UTF-8"?>
<svg width="150px" height="80px" viewBox="0 0 150 80" version="1.1" xmlns="http://www.w3.org/2000/svg" xmlns:xlink="http://www.w3.org/1999/xlink">
    <!-- Generator: Sketch 48.2 (47327) - http://www.bohemiancoding.com/sketch -->
    <title>4</title>
    <desc>Created with Sketch.</desc>
    <defs></defs>
    <g id="01-home" stroke="none" stroke-width="1" fill="none" fill-rule="evenodd" transform="translate(-645.000000, -4309.000000)">
        <g id="News" transform="translate(135.000000, 4185.000000)">
            <g id="4" transform="translate(510.000000, 124.000000)">
                <rect id="bound" fill="#FFFFFF" x="0" y="0" width="150" height="80"></rect>
                <g id="Logo/News/TechinAsia-inactive" transform="translate(0.000000, 26.000000)" fill="#949A9D">
                    <g id="TechinAsia">
                        <polygon id="Shape" fill-rule="nonzero" points="44.0522876 9.46206897 47.8104575 9.46206897 47.8104575 19.5034483 51.2745098 19.5034483 51.2745098 9.46206897 55.0326797 9.46206897 55.0326797 6.46896552 44.0522876 6.46896552"></polygon>
                        <polygon id="Shape" fill-rule="nonzero" points="59.2156863 14.1931034 65.2941176 14.1931034 65.2941176 11.3931034 59.2156863 11.3931034 59.2156863 9.46206897 65.8169935 9.46206897 65.8169935 6.46896552 55.751634 6.46896552 55.751634 19.5034483 65.9803922 19.5034483 65.9803922 16.5103448 59.2156863 16.5103448"></polygon>
                        <path d="M75.5555556,14.354023 C75.4575163,15.0942529 75.1960784,15.7057471 74.7712418,16.1563218 C74.379085,16.5747126 73.8235294,16.8 73.0718954,16.8 C72.5163399,16.8 72.0588235,16.7034483 71.6666667,16.4781609 C71.2745098,16.2850575 70.9803922,15.9954023 70.751634,15.6413793 C70.5228758,15.2873563 70.3267974,14.8689655 70.2287582,14.4505747 C70.0980392,14 70.0653595,13.5172414 70.0653595,13.0344828 C70.0653595,12.5195402 70.130719,12.0367816 70.2287582,11.554023 C70.3267974,11.1034483 70.5228758,10.6850575 70.751634,10.3310345 C70.9803922,9.97701149 71.3071895,9.71954023 71.6666667,9.49425287 C72.0261438,9.30114943 72.5163399,9.17241379 73.0718954,9.17241379 C73.3660131,9.17241379 73.6601307,9.23678161 73.9215686,9.30114943 C74.1830065,9.39770115 74.4444444,9.52643678 74.6405229,9.68735632 C74.869281,9.84827586 75.0326797,10.0413793 75.1633987,10.2666667 C75.2941176,10.491954 75.3921569,10.7172414 75.4248366,10.9747126 L75.4575163,11.2965517 L78.8562092,11.2965517 L78.8235294,10.9103448 C78.7254902,10.137931 78.5294118,9.46206897 78.1699346,8.88275862 C77.8431373,8.30344828 77.3856209,7.78850575 76.8627451,7.40229885 C76.3398693,7.01609195 75.751634,6.69425287 75.0980392,6.50114943 C74.4444444,6.30804598 73.7581699,6.17931034 73.0392157,6.17931034 C72.0261438,6.17931034 71.1111111,6.37241379 70.2941176,6.72643678 C69.4771242,7.08045977 68.7908497,7.56321839 68.2352941,8.20689655 C67.6797386,8.8183908 67.254902,9.55862069 66.9607843,10.3954023 C66.6666667,11.2321839 66.5359477,12.1333333 66.5359477,13.0666667 C66.5359477,14 66.6993464,14.8689655 66.9607843,15.7057471 C67.254902,16.5103448 67.6797386,17.2505747 68.2352941,17.862069 C68.7908497,18.4735632 69.4771242,18.9563218 70.2941176,19.3103448 C71.1111111,19.6643678 72.0261438,19.8252874 73.0392157,19.8252874 C73.8562092,19.8252874 74.6078431,19.6965517 75.2941176,19.4712644 C75.9803922,19.2137931 76.6013072,18.8597701 77.0915033,18.4091954 C77.6143791,17.9586207 78.0065359,17.3793103 78.3333333,16.7034483 C78.627451,16.0597701 78.8235294,15.3195402 78.9215686,14.4827586 L78.9542484,14.0965517 L75.5555556,14.0965517 L75.5555556,14.354023 Z" id="Shape" fill-rule="nonzero"></path>
                        <polygon id="Shape" fill-rule="nonzero" points="87.875817 11.2 83.5620915 11.2 83.5620915 6.46896552 80.0653595 6.46896552 80.0653595 19.5034483 83.5620915 19.5034483 83.5620915 14.1931034 87.875817 14.1931034 87.875817 19.5034483 91.372549 19.5034483 91.372549 6.46896552 87.875817 6.46896552"></polygon>
                        <rect id="Rectangle-path" fill-rule="nonzero" x="93.5620915" y="6.82298851" width="1.17647059" height="12.3264368"></rect>
                        <polygon id="Shape" fill-rule="nonzero" points="106.013072 17.2505747 105.980392 17.2505747 98.6928105 6.82298851 97.3529412 6.82298851 97.3529412 19.1494253 98.5294118 19.1494253 98.5294118 8.72183908 98.5620915 8.72183908 105.849673 19.1494253 107.189542 19.1494253 107.189542 6.82298851 106.013072 6.82298851"></polygon>
                        <path d="M112.810458,6.46896552 L107.810458,19.5034483 L111.372549,19.5034483 L112.352941,16.7678161 L116.503268,16.7678161 L117.45098,19.5034483 L121.078431,19.5034483 L116.143791,6.46896552 L112.810458,6.46896552 Z M113.300654,14.0321839 L114.411765,10.9103448 L115.490196,14.0321839 L113.300654,14.0321839 Z" id="Shape" fill-rule="nonzero"></path>
                        <path d="M130.065359,12.4229885 C129.640523,12.1333333 129.183007,11.9402299 128.72549,11.8114943 C128.300654,11.6827586 127.973856,11.5862069 127.745098,11.554023 C126.960784,11.3609195 126.339869,11.2 125.849673,11.0712644 C125.392157,10.9425287 125.03268,10.845977 124.771242,10.7172414 C124.509804,10.5885057 124.411765,10.491954 124.379085,10.4275862 C124.313725,10.3310345 124.281046,10.2022989 124.281046,10.0413793 C124.281046,9.84827586 124.313725,9.68735632 124.379085,9.5908046 C124.477124,9.46206897 124.575163,9.36551724 124.705882,9.26896552 C124.836601,9.17241379 125,9.10804598 125.196078,9.07586207 C125.392157,9.04367816 125.588235,9.01149425 125.784314,9.01149425 C126.111111,9.01149425 126.372549,9.04367816 126.633987,9.07586207 C126.862745,9.14022989 127.091503,9.2045977 127.287582,9.33333333 C127.45098,9.42988506 127.581699,9.5908046 127.712418,9.78390805 C127.810458,9.97701149 127.875817,10.2344828 127.908497,10.5563218 L127.941176,10.8781609 L131.30719,10.8781609 L131.30719,10.5241379 C131.30719,9.75172414 131.143791,9.07586207 130.849673,8.52873563 C130.555556,7.9816092 130.130719,7.53103448 129.640523,7.17701149 C129.150327,6.82298851 128.562092,6.56551724 127.908497,6.43678161 C127.287582,6.27586207 126.633987,6.21149425 125.947712,6.21149425 C125.359477,6.21149425 124.771242,6.27586207 124.183007,6.43678161 C123.594771,6.59770115 123.039216,6.85517241 122.54902,7.17701149 C122.058824,7.53103448 121.666667,7.94942529 121.372549,8.46436782 C121.078431,8.97931034 120.915033,9.5908046 120.915033,10.2988506 C120.915033,10.9103448 121.045752,11.4574713 121.27451,11.908046 C121.503268,12.3586207 121.830065,12.7126437 122.222222,13.0022989 C122.614379,13.291954 123.039216,13.5172414 123.496732,13.7103448 C123.954248,13.8712644 124.411765,14.0321839 124.901961,14.1287356 C125.359477,14.2574713 125.816993,14.3862069 126.27451,14.4827586 C126.699346,14.5793103 127.091503,14.708046 127.418301,14.8367816 C127.712418,14.9655172 127.973856,15.0942529 128.137255,15.2873563 C128.267974,15.416092 128.366013,15.6091954 128.366013,15.8344828 C128.366013,16.0597701 128.300654,16.2528736 128.202614,16.3816092 C128.071895,16.5425287 127.908497,16.6712644 127.712418,16.7678161 C127.51634,16.8643678 127.254902,16.9287356 127.026144,16.9609195 C126.764706,16.9931034 126.503268,17.0252874 126.27451,17.0252874 C125.947712,17.0252874 125.620915,16.9931034 125.326797,16.8965517 C125.03268,16.8321839 124.771242,16.7034483 124.575163,16.5425287 C124.379085,16.3816092 124.215686,16.2206897 124.084967,15.9632184 C123.954248,15.737931 123.888889,15.416092 123.888889,15.062069 L123.888889,14.708046 L120.490196,14.708046 L120.490196,15.062069 C120.490196,15.8666667 120.620915,16.6068966 120.947712,17.1862069 C121.27451,17.7977011 121.699346,18.2804598 122.254902,18.6666667 C122.777778,19.0528736 123.398693,19.3425287 124.084967,19.5034483 C124.771242,19.6643678 125.457516,19.7609195 126.176471,19.7609195 C127.058824,19.7609195 127.843137,19.6643678 128.529412,19.4390805 C129.215686,19.245977 129.803922,18.9241379 130.294118,18.537931 C130.784314,18.1517241 131.143791,17.7011494 131.372549,17.154023 C131.601307,16.6390805 131.732026,16.0597701 131.732026,15.4482759 C131.732026,14.6758621 131.568627,14.0643678 131.20915,13.5494253 C130.915033,13.0988506 130.522876,12.7126437 130.065359,12.4229885 Z" id="Shape" fill-rule="nonzero"></path>
                        <rect id="Rectangle-path" fill-rule="nonzero" x="132.647059" y="6.46896552" width="3.46405229" height="13.0344828"></rect>
                        <path d="M144.673203,6.46896552 L141.339869,6.46896552 L136.339869,19.5034483 L139.901961,19.5034483 L140.882353,16.7678161 L145.03268,16.7678161 L145.980392,19.5034483 L149.640523,19.5034483 L144.673203,6.46896552 Z M141.862745,14.0321839 L142.973856,10.9103448 L144.052288,14.0321839 L141.862745,14.0321839 Z" id="Shape" fill-rule="nonzero"></path>
                        <path d="M15.751634,27.4206897 C15.5228758,27.8068966 15.1633987,27.8068966 14.9673203,27.4206897 L11.2418301,21.1126437 C11.0130719,20.7264368 10.8496732,20.0827586 10.8496732,19.6321839 L10.8496732,14.6436782 C10.8496732,14.2252874 10.5882353,13.645977 10.2287582,13.3563218 L0.522875817,5.34252874 C0.196078431,5.05287356 0.261437908,4.82758621 0.718954248,4.82758621 L16.5686275,4.82758621 C16.9934641,4.82758621 17.6797386,4.98850575 18.0718954,5.2137931 L21.1111111,6.95172414 C21.503268,7.17701149 21.6339869,7.65977011 21.4052288,8.0137931 L20.1960784,10.0413793 C19.9673203,10.4275862 19.4771242,10.5563218 19.1176471,10.3310345 L16.9934641,9.17241379 C16.6013072,8.94712644 15.9477124,8.7862069 15.4901961,8.7862069 L11.6666667,8.7862069 C11.2418301,8.7862069 11.1437908,9.01149425 11.4705882,9.30114943 L14.2156863,11.554023 C14.5424837,11.8436782 14.8366013,12.4229885 14.8366013,12.8413793 L14.8366013,18.6022989 C14.8366013,19.0206897 14.9673203,19.6 15.0980392,19.8252874 C15.2287582,20.0827586 15.5228758,19.954023 15.751634,19.6 L27.0588235,0.289655172 C27.2875817,-0.0965517241 27.6470588,-0.0965517241 27.8431373,0.289655172 L40.6862745,22.2068966 C40.9150327,22.5931034 40.7843137,22.7218391 40.3921569,22.4965517 L25.6535948,14.0965517 C25.2614379,13.8712644 25.130719,13.3885057 25.3594771,13.0344828 L26.5686275,11.0068966 C26.7973856,10.6206897 27.2875817,10.491954 27.6470588,10.7172414 L29.5098039,11.7793103 C29.9019608,12.0045977 30.0326797,11.8758621 29.8039216,11.4896552 L27.8431373,8.17471264 C27.6143791,7.78850575 27.254902,7.78850575 27.0588235,8.17471264 L15.751634,27.4206897 Z" id="Shape" fill-rule="nonzero"></path>
                    </g>
                </g>
            </g>
        </g>
    </g>
</svg>