<?xml version="1.0" encoding="UTF-8"?>
<svg width="150px" height="80px" viewBox="0 0 150 80" version="1.1" xmlns="http://www.w3.org/2000/svg" xmlns:xlink="http://www.w3.org/1999/xlink">
    <!-- Generator: Sketch 48.2 (47327) - http://www.bohemiancoding.com/sketch -->
    <title>7</title>
    <desc>Created with Sketch.</desc>
    <defs></defs>
    <g id="01-home" stroke="none" stroke-width="1" fill="none" fill-rule="evenodd" transform="translate(-1155.000000, -4309.000000)">
        <g id="News" transform="translate(135.000000, 4185.000000)">
            <g id="7" transform="translate(1020.000000, 124.000000)">
                <rect id="bound" fill="#FFFFFF" x="0" y="0" width="150" height="80"></rect>
                <g id="Logo/News/BI-inactive" transform="translate(0.000000, 28.000000)">
                    <g id="Bisnis_Indonesia_logo">
                        <g fill-rule="nonzero">
                            <polygon id="path15507" fill="#000000" points="11.1160848 19.179625 11.4150431 19.179625 11.4150431 6.1306595 11.1160848 6.1306595"></polygon>
                            <path d="M22.3962514,6.78134916 C21.3941681,5.95376295 21.2702098,5.81514226 20.5233348,4.71031467 C19.7722931,5.81514226 19.6483348,5.95376295 18.6472931,6.78134916 C19.6483348,7.60790088 19.7722931,7.74548709 20.5233348,8.85031467 C21.2722931,7.74548709 21.3941681,7.60790088 22.3962514,6.78134916" id="path15519" fill="#949A9D" transform="translate(20.521772, 6.780315) scale(-1, 1) rotate(-180.000000) translate(-20.521772, -6.780315) "></path>
                            <path d="M22.5119764,10.8949657 C22.3234348,11.0191036 22.2005181,11.1753105 22.1171848,11.3294485 C22.0505181,11.4277243 22.0151014,11.5632416 21.9901014,11.6904829 C21.9463514,11.9056554 21.9682264,12.0701381 21.9682264,12.0701381 L21.9682264,21.3018623 L18.7067681,18.5842761 C19.0255181,18.2511726 19.0713514,17.8425519 19.0744764,17.6842761 C19.0776014,17.6428967 19.0744764,17.6160002 19.0744764,17.6160002 L19.0744764,11.7970347 C19.0744764,10.0146209 20.3432264,9.08772433 20.3432264,9.08772433 L22.5119764,10.8949657 Z" id="path15523" fill="#949A9D" transform="translate(20.609372, 15.194793) scale(-1, 1) rotate(-180.000000) translate(-20.609372, -15.194793) "></path>
                            <path d="M46.7082264,6.78134916 C45.7103098,5.95376295 45.5842681,5.81514226 44.8332264,4.71031467 C44.0863514,5.81514226 43.9603098,5.95376295 42.9582264,6.78134916 C43.9603098,7.60790088 44.0863514,7.74548709 44.8332264,8.85031467 C45.5842681,7.74548709 45.7103098,7.60790088 46.7082264,6.78134916" id="path15527" fill="#949A9D" transform="translate(44.833226, 6.780315) scale(-1, 1) rotate(-180.000000) translate(-44.833226, -6.780315) "></path>
                            <path d="M46.8240598,10.8949657 C46.6386431,11.0191036 46.5126014,11.1753105 46.4303098,11.3294485 C46.3626014,11.4277243 46.3240598,11.5632416 46.3042681,11.6904829 C46.2636431,11.9056554 46.2782264,12.0701381 46.2782264,12.0701381 L46.2782264,21.3018623 L43.0188514,18.5842761 C43.3365598,18.2511726 43.3834348,17.8425519 43.3896848,17.6842761 C43.3907264,17.6428967 43.3896848,17.6160002 43.3896848,17.6160002 L43.3896848,11.7970347 C43.3896848,10.0146209 44.6573931,9.08772433 44.6573931,9.08772433 L46.8240598,10.8949657 Z" id="path15531" fill="#949A9D" transform="translate(44.921456, 15.194793) scale(-1, 1) rotate(-180.000000) translate(-44.921456, -15.194793) "></path>
                            <path d="M26.7488514,19.3004968 C26.7488514,19.3004968 26.9707264,18.3549796 28.2290598,18.3549796 C28.2290598,18.3549796 28.9623931,18.3270485 29.7603098,19.1267037 L31.1853098,20.546014 C30.5228098,20.2036002 29.8780181,20.1870485 29.4467681,20.2367037 C29.3228098,20.246014 29.1436431,20.2718761 28.9342681,20.3453244 C28.9228098,20.3484278 28.9134348,20.3515313 28.9134348,20.3515313 L28.9155181,20.3515313 C28.5613514,20.4787727 28.1384348,20.7394623 27.8061431,21.2856692 L24.9884348,18.9322209 C24.9884348,18.9322209 24.2957264,18.3084278 24.2957264,17.2532554 C24.2957264,17.2532554 24.1853098,15.4346347 26.5373931,14.308083 C26.5373931,14.308083 27.8415598,13.6884278 28.6301014,13.1453244 C28.6301014,13.1453244 29.1457264,12.8070485 29.1457264,12.2349796 C29.1457264,12.2349796 29.1832264,11.3629106 28.1821848,11.3629106 C28.1821848,11.3629106 26.5551014,11.2708416 26.5103098,13.6708416 L23.8905181,11.5149796 C23.8905181,11.5149796 24.4988514,9.30532438 26.5915598,9.30532438 C26.5915598,9.30532438 28.7248931,9.24635886 30.3592681,11.4529106 C30.3592681,11.4529106 31.1738514,12.5070485 31.1738514,13.5508416 C31.1738514,13.5508416 31.3134348,15.3446347 28.9217681,16.3873933 C28.9217681,16.3873933 27.8790598,16.8073933 26.9311431,17.4818761 C26.9311431,17.4818761 26.3332264,17.8356692 26.3332264,18.4998071 C26.3332264,18.4998071 26.2707264,18.8918761 26.7488514,19.3004968" id="path15535" fill="#949A9D" transform="translate(27.537914, 15.295421) scale(-1, 1) rotate(-180.000000) translate(-27.537914, -15.295421) "></path>
                            <path d="M51.1123931,19.3004968 C51.1123931,19.3004968 51.3342681,18.3549796 52.5926014,18.3549796 C52.5926014,18.3549796 53.3269764,18.3270485 54.1280181,19.1267037 L55.5498931,20.546014 C54.8863514,20.2036002 54.2426014,20.1870485 53.8123931,20.2367037 C53.6863514,20.246014 53.5082264,20.2718761 53.2988514,20.3453244 C53.2873931,20.3484278 53.2790598,20.3515313 53.2790598,20.3515313 C52.9259348,20.4787727 52.5009348,20.7394623 52.1717681,21.2856692 L49.3519764,18.9322209 C49.3519764,18.9322209 48.6592681,18.3084278 48.6592681,17.2532554 C48.6592681,17.2532554 48.5488514,15.4346347 50.9040598,14.308083 C50.9040598,14.308083 52.2061431,13.6884278 52.9967681,13.1453244 C52.9967681,13.1453244 53.5113514,12.8070485 53.5113514,12.2349796 C53.5113514,12.2349796 53.5467681,11.3629106 52.5457264,11.3629106 C52.5457264,11.3629106 50.9196848,11.2708416 50.8738514,13.6708416 L48.2582264,11.5149796 C48.2582264,11.5149796 48.8623931,9.30532438 50.9561431,9.30532438 C50.9561431,9.30532438 53.0873931,9.24635886 54.7228098,11.4529106 C54.7228098,11.4529106 55.5394764,12.5070485 55.5394764,13.5508416 C55.5394764,13.5508416 55.6769764,15.3446347 53.2832264,16.3873933 C53.2832264,16.3873933 52.2426014,16.8073933 51.2978098,17.4818761 C51.2978098,17.4818761 50.7009348,17.8356692 50.7009348,18.4998071 C50.7009348,18.4998071 50.6353098,18.8918761 51.1123931,19.3004968" id="path15539" fill="#949A9D" transform="translate(51.904060, 15.295421) scale(-1, 1) rotate(-180.000000) translate(-51.904060, -15.295421) "></path>
                            <path d="M4.31500142,14.6827285 C4.31500142,14.6827285 4.22333476,14.6961767 4.08166809,14.6961767 C3.60145976,14.6961767 2.03479309,14.5203147 2.03479309,12.2579009 C2.03687642,12.2165216 2.07854309,11.2223836 2.42333476,10.3244526 L2.55666809,9.98307329 L2.61708476,10.3430733 C2.62541809,10.391694 2.83375142,11.5430733 3.94416809,11.5430733 C4.03895976,11.5430733 4.14104309,11.5347974 4.24520976,11.5172112 L4.36083476,11.4975561 L4.40354309,14.6703147 L4.31500142,14.6827285 Z" id="path15543" fill="#949A9D" transform="translate(3.219168, 12.339625) scale(-1, 1) rotate(-180.000000) translate(-3.219168, -12.339625) "></path>
                            <polygon id="path15547" fill="#949A9D" points="11.9153514 5.9799395 11.2851431 6.6037326 10.6580598 5.9799395 11.2851431 5.35407743"></polygon>
                            <path d="M39.9034348,20.4414871 L38.7461431,21.5959698 L35.9346848,19.277694 C35.9346848,21.0404526 34.9326014,21.6052802 34.9326014,21.6052802 L32.5430181,19.6594181 C32.8055181,19.3635561 32.8826014,19.0480388 32.9055181,18.857694 C32.9221848,18.7563147 32.9128098,18.6735561 32.9128098,18.6735561 L32.9128098,12.2597629 C32.9128098,10.2104526 34.1607264,9.40562502 34.1607264,9.40562502 L36.4211431,11.235625 C36.1680181,11.4073492 36.0451014,11.6007974 35.9846848,11.7549354 C35.9440598,11.8397629 35.9294764,11.9339009 35.9263514,11.9897629 C35.9242681,12.0218319 35.9242681,12.0425216 35.9242681,12.0425216 L35.9242681,18.5163147 C36.4992681,18.9518319 36.9898931,18.9280388 36.9898931,18.9280388 C38.0315598,18.9280388 38.0065598,18.0911423 38.0065598,18.0911423 L38.0065598,12.3332112 L38.0065598,9.09010778 C38.0065598,9.09010778 40.9117681,10.1214871 40.9117681,12.3332112 L40.9117681,18.0414871 C40.9117681,19.4690733 39.9034348,20.4414871 39.9034348,20.4414871" id="path15559" fill="#949A9D" transform="translate(36.727393, 15.347694) scale(-1, 1) rotate(-180.000000) translate(-36.727393, -15.347694) "></path>
                            <path d="M6.66218476,17.0552112 C6.66218476,17.0552112 6.66218476,17.1131423 6.66739309,17.2093492 C6.66739309,17.2186595 6.66947643,17.2290043 6.66947643,17.2372802 C6.68197643,17.5507285 6.74551809,18.2003836 6.97572643,18.7010733 C5.71218476,17.8921078 4.71218476,16.8679698 4.70176809,16.8565905 C3.97676809,16.1117629 4.00593476,15.2955561 4.01010143,15.2655561 L4.01010143,7.6548664 C4.01010143,6.51693536 3.57468476,6.05762502 3.56530976,6.05038364 L3.23614309,5.72141812 L3.67468476,5.88590088 C6.76947643,7.05383191 6.66426809,9.62555605 6.66218476,9.64521122 L6.66218476,17.0552112 Z" id="path15563" fill="#949A9D" transform="translate(5.105935, 12.211246) scale(-1, 1) rotate(-180.000000) translate(-5.105935, -12.211246) "></path>
                            <path d="M12.3198931,12.3493492 L12.2480181,12.3493492 C15.5844764,14.5238319 15.5521848,17.5083147 15.5521848,17.5372802 C15.5521848,20.8972802 12.9251014,20.9355561 12.8980181,20.9355561 C11.7188514,20.9355561 11.0157264,20.2238319 10.9928098,20.2000388 L8.19905976,17.7555561 C7.28655976,16.7190043 7.41468476,15.5862457 7.41885143,15.5510733 L7.41885143,7.78003881 C7.41885143,6.17762502 6.80426809,5.57555605 6.80010143,5.57141812 L6.46676809,5.25900433 L6.90010143,5.40383191 C10.1917681,6.49831467 10.0928098,9.28003881 10.0928098,9.30279743 L10.0928098,17.4483147 C10.0928098,18.237625 10.3073931,18.8169354 10.7136431,19.1262457 C11.0240598,19.3631423 11.3376014,19.3652112 11.3521848,19.3652112 C11.6626014,19.3652112 11.9334348,19.2514181 12.1573931,19.0269354 C12.9407264,18.2459009 12.9386431,16.3827974 12.9386431,16.3631423 C12.9386431,12.8748664 11.2615598,12.3152112 11.2459348,12.3090043 L11.1740598,12.2883147 L11.1740598,11.8755561 L11.2688514,11.8683147 C14.1646848,11.6500388 14.1646848,8.45038364 14.1646848,8.31383191 C14.1646848,4.84314226 12.1501014,3.84590088 11.8230181,3.70624571 C10.5855181,4.5224526 9.35010143,4.93417674 8.14489309,4.93417674 C5.25322643,4.93417674 3.27093476,2.53831467 2.55530976,1.51314226 C3.39489309,1.90521122 4.17718476,2.09452157 4.74072643,2.18762502 C4.94176809,2.22693536 5.14385143,2.2486595 5.34801809,2.25900433 C5.50947643,2.2724526 5.60218476,2.27348709 5.60218476,2.27348709 C6.28551809,2.27348709 6.99072643,2.11521122 7.70530976,1.80796985 L7.72926809,1.79659054 C8.13551809,1.60417674 8.63447643,1.50796985 9.21572643,1.50796985 C10.9167681,1.50796985 12.7573931,2.31693536 12.8303098,2.35107329 C15.8990598,3.58934916 16.8073931,6.22624571 16.8157264,6.25624571 C16.8376014,6.32555605 16.8501014,6.36796985 16.8501014,6.37210778 C17.1323931,7.36210778 17.1355181,8.31279743 17.1355181,8.35107329 C17.1355181,12.0607285 13.4521848,12.3493492 12.3198931,12.3493492" id="path15567" fill="#949A9D" transform="translate(9.845414, 11.221763) scale(-1, 1) rotate(-180.000000) translate(-9.845414, -11.221763) "></path>
                            <path d="M8.15520976,3.51931054 C8.06354309,3.50068985 7.96666809,3.49034502 7.86770976,3.4851726 C7.82291809,3.48103467 7.79270976,3.48103467 7.79270976,3.48103467 C7.79270976,3.48103467 7.77500142,3.47896571 7.75625142,3.47896571 C7.64895976,3.47896571 7.24583476,3.51620709 6.56770976,3.9951726 C6.52291809,4.02931054 5.43854309,4.85172433 4.57708476,4.85172433 C4.57708476,4.85172433 4.55729309,4.85379329 4.52083476,4.85379329 C4.22916809,4.85379329 3.22187642,4.77827605 2.34791809,3.80793122 C2.31770976,3.77379329 1.66145976,2.96379329 1.27812642,1.97275881 L1.25000142,1.90448295 C2.13958476,2.55620709 2.84687642,2.50241398 2.84687642,2.50241398 C2.84687642,2.50241398 3.45000142,2.49724157 4.06666809,2.01206916 C4.10312642,1.98103467 5.00208476,1.2475864 5.83958476,1.2475864 C5.83958476,1.2475864 5.88125142,1.2413795 5.95729309,1.2413795 C6.41145976,1.2413795 8.00312642,1.44620709 9.51145976,4.0375864 C9.01562642,3.7075864 8.49270976,3.57206916 8.15520976,3.51931054" id="path15571" fill="#949A9D" transform="translate(5.380731, 3.047586) scale(-1, 1) rotate(-180.000000) translate(-5.380731, -3.047586) "></path>
                            <path d="M137.765518,6.78134916 C136.76656,5.95376295 136.64156,5.81514226 135.89156,4.71031467 C135.140518,5.81514226 135.014476,5.95376295 134.01656,6.78134916 C135.014476,7.60790088 135.140518,7.74548709 135.89156,8.85031467 C136.64156,7.74548709 136.76656,7.60790088 137.765518,6.78134916" id="path15575" fill="#949A9D" transform="translate(135.891039, 6.780315) scale(-1, 1) rotate(-180.000000) translate(-135.891039, -6.780315) "></path>
                            <path d="M137.881768,10.8949657 C137.693226,11.0191036 137.568226,11.1753105 137.485935,11.3294485 C137.42031,11.4277243 137.380726,11.5632416 137.360935,11.6904829 C137.318226,11.9056554 137.336976,12.0701381 137.336976,12.0701381 L137.336976,21.3018623 L134.075518,18.5842761 C134.392185,18.2511726 134.440101,17.8425519 134.446351,17.6842761 C134.448435,17.6428967 134.446351,17.6160002 134.446351,17.6160002 L134.446351,11.7970347 C134.446351,10.0146209 135.713018,9.08772433 135.713018,9.08772433 L137.881768,10.8949657 Z" id="path15579" fill="#949A9D" transform="translate(135.978643, 15.194793) scale(-1, 1) rotate(-180.000000) translate(-135.978643, -15.194793) "></path>
                            <path d="M128.198751,19.3004968 C128.198751,19.3004968 128.419585,18.3549796 129.676876,18.3549796 C129.676876,18.3549796 130.412293,18.3270485 131.211251,19.1267037 L132.636251,20.546014 C131.973751,20.2036002 131.32896,20.1870485 130.896668,20.2367037 C130.773751,20.246014 130.592501,20.2718761 130.382085,20.3453244 C130.373751,20.3484278 130.364376,20.3515313 130.364376,20.3515313 C130.012293,20.4787727 129.587293,20.7394623 129.256043,21.2856692 L126.439376,18.9322209 C126.439376,18.9322209 125.746668,18.3084278 125.746668,17.2532554 C125.746668,17.2532554 125.636251,15.4346347 127.988335,14.308083 C127.988335,14.308083 129.292501,13.6884278 130.081043,13.1453244 C130.081043,13.1453244 130.59771,12.8070485 130.59771,12.2349796 C130.59771,12.2349796 130.63521,11.3629106 129.634168,11.3629106 C129.634168,11.3629106 128.006043,11.2708416 127.96021,13.6708416 L125.34146,11.5149796 C125.34146,11.5149796 125.946668,9.30532438 128.042501,9.30532438 C128.042501,9.30532438 130.173751,9.24635886 131.81021,11.4529106 C131.81021,11.4529106 132.623751,12.5070485 132.623751,13.5508416 C132.623751,13.5508416 132.764376,15.3446347 130.371668,16.3873933 C130.371668,16.3873933 129.330001,16.8073933 128.383126,17.4818761 C128.383126,17.4818761 127.78521,17.8356692 127.78521,18.4998071 C127.78521,18.4998071 127.721668,18.8918761 128.198751,19.3004968" id="path15583" fill="#949A9D" transform="translate(128.988856, 15.295421) scale(-1, 1) rotate(-180.000000) translate(-128.988856, -15.295421) "></path>
                            <path d="M94.6593764,6.55593122 C94.6000014,6.67903467 94.6052098,6.81144847 94.6052098,6.81144847 L94.6052098,19.1776554 C94.6052098,20.8866209 93.7343764,21.4255864 93.7343764,21.4255864 L91.2614598,19.4621381 C91.7833348,19.050414 91.7333348,18.6024829 91.7333348,18.6024829 L91.7333348,15.1959312 C91.2687514,15.8248967 90.1531264,16.5159312 90.1531264,16.5159312 L86.0041681,13.0866209 C86.3406264,12.7897243 86.3000014,12.5217933 86.3000014,12.5217933 L86.3000014,8.28351743 C86.3000014,5.55662088 88.8458348,4.26455191 88.8458348,4.26455191 L91.7218764,6.61075881 C91.7218764,5.21627605 92.9687514,4.25110364 92.9687514,4.25110364 L95.0687514,5.95903467 C94.8291681,6.1731726 94.7145848,6.39248295 94.6593764,6.55593122 M90.4218764,6.83006916 C89.1677098,6.83006916 89.1979181,7.98248295 89.1979181,7.98248295 L89.1979181,13.9224829 L89.3562514,14.0797243 C90.4218764,13.3762761 91.1437514,12.3697243 91.1437514,12.3697243 C91.7072931,11.6300692 91.7218764,10.7331726 91.7218764,10.7331726 L91.7218764,7.45179329 C91.0406264,6.78868985 90.4218764,6.83006916 90.4218764,6.83006916" id="path15587" fill="#949A9D" transform="translate(90.536460, 12.838345) scale(-1, 1) rotate(-180.000000) translate(-90.536460, -12.838345) "></path>
                            <path d="M103.330518,20.0294485 L101.090935,21.4177243 L96.7784348,17.8653105 C96.9513514,17.7101381 96.9951014,17.4949657 97.0055181,17.3842761 L97.0055181,17.3832416 C97.0117681,17.3428967 97.0117681,17.3139312 97.0117681,17.3139312 L97.0117681,13.2153105 C97.0117681,13.2153105 96.8409348,11.4328967 98.5430181,10.488414 C98.5430181,10.488414 99.7565598,9.77255191 100.86906,9.04531054 L104.30031,11.8953105 C104.30031,11.8953105 104.934685,12.4280692 104.934685,13.6518623 L104.934685,17.3739312 C104.934685,17.3739312 105.022185,19.0228967 103.330518,20.0294485 M101.796143,11.1256554 C101.796143,11.1256554 100.999268,11.4060002 100.326351,12.1435864 C100.326351,12.1435864 99.8753098,12.5439312 99.8753098,13.5349657 L99.8753098,18.4725519 C99.8753098,18.4725519 99.8409348,18.916345 100.18156,19.2442761 L101.384685,18.3991036 C101.384685,18.3991036 102.018018,17.9346209 102.018018,17.1711726 L102.018018,12.0349657 C102.018018,12.0349657 102.06281,11.4515174 101.796143,11.1256554" id="path15591" fill="#949A9D" transform="translate(100.856944, 15.231517) scale(-1, 1) rotate(-180.000000) translate(-100.856944, -15.231517) "></path>
                            <path d="M147.913226,11.2271423 C147.86531,11.2995561 147.824685,11.4092112 147.801768,11.5705905 C147.781976,11.6978319 147.789268,11.783694 147.789268,11.783694 L147.789268,18.0299009 C147.789268,18.0299009 147.835101,20.1402457 145.889268,21.2119698 C145.889268,21.2119698 143.033018,21.1643836 140.401768,18.6785216 L140.401768,17.6367974 C140.401768,17.6367974 141.624685,19.1512802 143.30281,19.7450733 C143.30281,19.7450733 144.944476,19.4543836 144.944476,17.3823147 L144.944476,16.8433492 L142.029893,15.921625 C142.029893,15.921625 139.36531,15.1933492 139.36531,12.7023147 C139.36531,12.7023147 139.347601,10.1378319 142.17781,8.99162502 L144.944476,11.2199009 C145.008018,10.5412802 145.27156,9.5926595 146.143435,8.95541812 L148.311143,10.7667974 C148.111143,10.9074871 147.989268,11.0730043 147.913226,11.2271423 Z M144.944476,12.051625 C144.65281,11.7754181 144.068435,11.3026595 143.445518,11.3026595 C143.445518,11.3026595 142.468435,11.1919698 142.468435,12.4467974 L142.468435,14.2550733 C142.468435,14.2550733 142.456976,15.1271423 143.449685,15.5750733 L144.944476,16.2495561 L144.944476,12.051625 Z" id="path15595" fill="#949A9D" transform="translate(143.838225, 15.083694) scale(-1, 1) rotate(-180.000000) translate(-143.838225, -15.083694) "></path>
                            <path d="M68.0984348,14.0918319 L68.0036431,14.0970043 C68.0036431,14.0970043 67.9765598,14.0990733 67.9203098,14.0990733 C67.5359348,14.0990733 65.6213514,13.9842457 65.6255181,11.7114871 C65.6255181,11.6670043 65.6807264,10.665625 66.0432264,9.89596985 L66.1817681,9.60114226 L66.2307264,9.92390088 C66.2390598,9.96838364 66.4223931,11.0297629 67.5463514,11.0297629 C67.6828098,11.0297629 67.8265598,11.0142457 67.9786431,10.9821767 L68.0984348,10.9594181 L68.0984348,14.0918319 Z" id="path15599" fill="#949A9D" transform="translate(66.861973, 11.850108) scale(-1, 1) rotate(-180.000000) translate(-66.861973, -11.850108) "></path>
                            <path d="M82.9631264,20.4414871 L81.8068764,21.5959698 L78.9954181,19.277694 C78.9954181,21.0404526 77.9943764,21.6052802 77.9943764,21.6052802 L75.6037514,19.6594181 C75.8672931,19.3635561 75.9464598,19.0480388 75.9683348,18.857694 C75.9797931,18.7563147 75.9745848,18.6735561 75.9745848,18.6735561 L75.9745848,12.2597629 C75.9745848,10.2104526 77.2235431,9.40562502 77.2235431,9.40562502 L79.4829181,11.235625 C79.2308348,11.4073492 79.1079181,11.6007974 79.0454181,11.7549354 C79.0068764,11.8397629 78.9943764,11.9339009 78.9881264,11.9897629 C78.9870848,12.0218319 78.9870848,12.0425216 78.9870848,12.0425216 L78.9870848,18.5163147 C79.5641681,18.9518319 80.0537514,18.9280388 80.0537514,18.9280388 C81.0933348,18.9280388 81.0683348,18.0911423 81.0683348,18.0911423 L81.0683348,12.3332112 L81.0683348,9.09010778 C81.0683348,9.09010778 83.9745848,10.1214871 83.9745848,12.3332112 L83.9745848,18.0414871 C83.9745848,19.4690733 82.9631264,20.4414871 82.9631264,20.4414871" id="path15603" fill="#949A9D" transform="translate(79.789168, 15.347694) scale(-1, 1) rotate(-180.000000) translate(-79.789168, -15.347694) "></path>
                            <path d="M114.106043,20.4414871 L112.949793,21.5959698 L110.137293,19.277694 C110.137293,21.0404526 109.137293,21.6052802 109.137293,21.6052802 L106.745626,19.6594181 C107.008126,19.3635561 107.087293,19.0480388 107.11021,18.857694 C107.123751,18.7563147 107.117501,18.6735561 107.117501,18.6735561 L107.117501,12.2597629 C107.117501,10.2104526 108.36646,9.40562502 108.36646,9.40562502 L110.624793,11.235625 C110.373751,11.4073492 110.248751,11.6007974 110.188335,11.7549354 C110.14771,11.8397629 110.133126,11.9339009 110.131043,11.9897629 C110.127918,12.0218319 110.127918,12.0425216 110.127918,12.0425216 L110.127918,18.5163147 C110.701876,18.9518319 111.192501,18.9280388 111.192501,18.9280388 C112.234168,18.9280388 112.211251,18.0911423 112.211251,18.0911423 L112.211251,12.3332112 L112.211251,9.09010778 C112.211251,9.09010778 115.115418,10.1214871 115.115418,12.3332112 L115.115418,18.0414871 C115.115418,19.4690733 114.106043,20.4414871 114.106043,20.4414871" id="path15607" fill="#949A9D" transform="translate(110.930522, 15.347694) scale(-1, 1) rotate(-180.000000) translate(-110.930522, -15.347694) "></path>
                            <path d="M121.796043,11.7138623 C120.540835,11.7138623 120.265835,12.5693795 120.210626,13.078345 C121.890835,14.1500692 123.183543,15.4897243 123.183543,15.4897243 C123.955418,16.2821381 123.953335,17.2793795 123.953335,17.2793795 C123.953335,18.1824829 123.180418,19.0245519 123.180418,19.0245519 C122.053335,20.310414 120.711668,21.4193795 120.711668,21.4193795 L117.132501,18.6086898 C117.25646,18.4442071 117.296043,18.2693795 117.307501,18.1659312 C117.31896,18.1131726 117.314793,18.0728278 117.314793,18.0728278 L117.314793,13.3514485 C117.314793,11.8400692 118.099168,10.9855864 118.099168,10.9855864 C119.015835,9.90868985 120.199168,9.19075881 120.199168,9.19075881 L123.904376,12.1814485 C123.160626,11.8462761 122.361668,11.7511036 121.998126,11.7252416 C121.872085,11.7076554 121.796043,11.7138623 121.796043,11.7138623 Z M120.208543,18.2000692 C121.685626,17.128345 121.621043,15.9169657 121.621043,15.9169657 C121.621043,14.8348967 120.633543,14.0807588 120.208543,13.8055864 L120.208543,18.2000692 Z" id="path15611" fill="#949A9D" transform="translate(120.542918, 15.305069) scale(-1, 1) rotate(-180.000000) translate(-120.542918, -15.305069) "></path>
                            <path d="M71.6159348,3.51931054 C71.5263514,3.50068985 71.4305181,3.49034502 71.3305181,3.4851726 C71.2826014,3.48103467 71.2523931,3.48103467 71.2523931,3.48103467 C71.2523931,3.48103467 71.2398931,3.47896571 71.2180181,3.47896571 C71.1096848,3.47896571 70.7044764,3.51620709 70.0284348,3.9951726 C69.9826014,4.02931054 68.8992681,4.85172433 68.0378098,4.85172433 C68.0378098,4.85172433 68.0180181,4.85379329 67.9836431,4.85379329 C67.6919764,4.85379329 66.6836431,4.77827605 65.8055181,3.80793122 C65.7815598,3.77379329 65.1232264,2.96379329 64.7388514,1.97275881 L64.7138514,1.90448295 C65.6003098,2.55620709 66.3076014,2.50241398 66.3076014,2.50241398 C66.3117681,2.50241398 66.9117681,2.49724157 67.5273931,2.01206916 C67.5648931,1.98103467 68.4638514,1.2475864 69.3003098,1.2475864 C69.3003098,1.2475864 69.3419764,1.2413795 69.4180181,1.2413795 C69.8742681,1.2413795 71.4638514,1.44620709 72.9711431,4.0375864 C72.4763514,3.7075864 71.9534348,3.57206916 71.6159348,3.51931054" id="path15615" fill="#949A9D" transform="translate(68.842497, 3.047586) scale(-1, 1) rotate(-180.000000) translate(-68.842497, -3.047586) "></path>
                            <path d="M70.3219764,14.8446209 C70.3219764,15.0835864 70.3386431,15.2987588 70.3646848,15.4891036 C70.4042681,15.8760002 70.4771848,16.3694485 70.6126014,16.786345 L70.6053098,16.7842761 C69.1469764,15.9442761 68.1813514,14.6377243 68.1698931,14.6191036 C67.6730181,13.8660002 67.6928098,12.9287588 67.6928098,12.8894485 L67.6928098,7.22048295 C67.6928098,6.23462088 67.2886431,5.74220709 67.2834348,5.73806916 L67.0407264,5.45151743 L67.3938514,5.57979329 C70.3646848,6.65875881 70.3230181,9.05462088 70.3219764,9.07841398 L70.3219764,14.8446209 Z" id="path15619" fill="#949A9D" transform="translate(68.826664, 11.118931) scale(-1, 1) rotate(-180.000000) translate(-68.826664, -11.118931) "></path>
                            <path d="M73.7700014,6.418134 L73.7700014,17.0733064 C73.7700014,17.0733064 73.6710431,19.4836512 75.1460431,21.1895133 C73.5168764,20.0319271 71.9429181,18.5370995 71.9283348,18.5215823 C70.9814598,17.6050305 71.0877098,16.4888237 71.0918764,16.4526168 L71.0918764,5.2657202 C71.0918764,4.12365124 70.2960431,3.78744434 70.2585431,3.7719271 C70.0720848,3.68709951 69.8835431,3.6457202 69.6929181,3.6457202 C69.0231264,3.6457202 68.5397931,4.16709951 68.5366681,4.17227193 L67.6075014,5.21503055 C66.6647931,6.28158227 65.5700014,6.3157202 65.4439598,6.3157202 C64.7731264,6.3157202 64.2075014,6.0819271 63.7585431,5.6257202 C62.7241681,4.56434089 62.6262514,2.62261675 62.6220848,2.04020296 C63.1991681,2.77985813 63.8075014,3.02709951 64.1710431,3.10882365 C64.2939598,3.1357202 64.3939598,3.14709951 64.4606264,3.148134 C64.4887514,3.148134 64.5033348,3.148134 64.5033348,3.148134 C64.5231264,3.148134 64.5335431,3.148134 64.5429181,3.14709951 C65.2220848,3.14709951 65.6606264,2.77468572 65.6741681,2.76537537 L66.1314598,2.43951331 C67.8752098,1.17744434 70.1179181,2.07434089 70.6470848,2.31434089 C71.4158348,2.69709951 72.0022931,3.12744434 72.3960431,3.46778917 C72.5522931,3.59089262 72.7002098,3.73054779 72.8418764,3.89296158 L73.1491681,4.22399606 C73.9147931,5.29882365 73.7731264,6.36951331 73.7700014,6.418134" id="path15623" fill="#949A9D" transform="translate(68.884064, 11.485240) scale(-1, 1) rotate(-180.000000) translate(-68.884064, -11.485240) "></path>
                        </g>
                    </g>
                </g>
            </g>
        </g>
    </g>
</svg>